<svg id="Layer_1" data-name="Layer 1" xmlns="http://www.w3.org/2000/svg" width="1258.25" height="645.09" viewBox="0 0 1258.25 645.09"><defs><style>.cls-1{fill:#080808;}.cls-2{fill:#030303;}</style></defs><path class="cls-1" d="M629.57,513c3.74-11.31,6.85-22.64,11-33.64,3.34-8.86,6.63-17.75,10-26.6a32.94,32.94,0,0,1,2.51-5.42c5.47-9,14.39-8.93,19.66.14,3.28,5.64,5.17,11.88,7,18.1,2.58,8.77,5.22,17.53,7.51,26.37,1,4,3.34,6.2,7.22,7.33,6.8,2,13.77,2.43,20.76,2.58,12.83.27,25.62-.84,38.42-1.53,4-.22,5.81-2.87,7.48-5.78,5.74-10,9.63-20.81,14.58-31.15,3.16-6.6,6.25-13.23,9.37-19.84,2-4.21,4.45-8.1,9.63-8.37s7.92,3.7,10.23,7.62c8.37,14.21,12.84,29.89,16.73,45.73,3,12.06,5.53,24.21,8.41,36.93,2.55-3.54,4.78-6.77,7.15-9.89,9-11.87,19.45-22,34.24-26.26,2.15-.62,2.4-1.69,2.39-3.54,0-9.31-.27-18.66,2.38-27.75.63-2.18-1-3.39-2-4.79-4-5.22-7.35-10.71-8.74-17.2-4-18.42,8-29.84,26.06-24.48a54.19,54.19,0,0,1,5-19.52c3.69-7.55,8.87-13.65,16.6-17.3,13-6.14,26.25-2.14,33.79,10.09,3.68,6,5.56,12.61,6.88,19.36,1.82-.13,2.2-1.42,3-2.2,11.75-12,29.39-7.52,34,8.73,2.21,7.78,1.64,15.48-.48,23.16-.44,1.58-.93,3.15-1.67,5.66,3.69,0,6.92-.26,10.11,0,25.16,2.39,41.91,16.34,52.11,38.72,2.38,5.23,3.89,8.07,11.25,8.08,23.5,0,38.47,12.38,45.28,34.85a89.87,89.87,0,0,1,4.24,25.53c0,4.59,1.06,5.48,5.61,4.06,24.14-7.53,48.36-8.49,72.64-.31,32.23,10.86,53.63,33.53,67.39,63.53,18.33,40,15.6,78.82-9.58,115.49-2.17,3.16-4.3,6.34-6.6,9.4-2,2.67-4.69,4-7.77,1.89s-2.71-5.12-1.08-8a51,51,0,0,1,3.9-5.79c31-40.54,26.67-90-.06-128.22-35.77-51.11-97.46-52.31-140.24-26.56-13.82,8.32-24.42,19.94-34.3,32.37-.21.26-.39.54-.58.81-2,2.85-4.13,5.71-8.07,4.28-4.3-1.56-4.36-5.43-4-9.23,1.06-9.93,2.51-19.83,3.16-29.78,1.75-26.71,1.07-53.25-7.53-79a73.86,73.86,0,0,0-6.88-15.46c-11.43-18.53-27.72-27.71-49.79-25.51-12.95,1.29-14.57-.66-10.35-12.9,2.47-7.14,4.45-14.29,3.18-22-.73-4.38-2.47-8.15-7-9.47-4.73-1.39-8,1.37-10.47,5-2.13,3.16-3.86,6.59-5.78,9.89-1.52,2.6-3.53,4.49-6.82,4.09s-4.94-2.73-5.53-5.65c-1-4.89-1.62-9.84-2.45-14.76a40.64,40.64,0,0,0-4.63-13.62c-5.14-8.93-13.78-11-22.52-5.46-8.48,5.39-14.48,19.69-12.48,29.8.19,1,.41,2,.65,2.92.9,3.7,1.49,7.47-2.42,9.8s-6.93-.25-9.83-2.57c-1.3-1-2.55-2.15-3.89-3.13-5.59-4-9.76-2.52-11.45,4.11-1,3.74-.15,7.23,1.27,10.69,1.73,4.22,4.45,7.77,7.23,11.31,2.49,3.16,3.79,6.62,2.53,10.69-2.47,7.92-2.2,16.11-2.33,24.26,0,1.6-.46,3.18,2.35,3.2,22.46.23,39.81,10.48,53,28.09,7.34,9.84,10.39,21.51,11.76,33.54,3,25.94,3.42,51.81-3.23,77.36a89.34,89.34,0,0,1-9,21.57C927.55,668.87,909,677.74,885,675.31c-36.39-3.67-59.21-25.66-64.32-61.94-3.17-22.45-2.8-44.81,2.91-66.9a46.92,46.92,0,0,1,1.85-5.67c1.26-3.09,3-5.75-2.63-6.62-3.29-.52-3.45-4.51-4-7.44-3.57-19.65-7.94-39.11-14.21-58.09a98.93,98.93,0,0,0-9.38-20.76c-2.73,5.72-5.17,10.71-7.5,15.75-5,10.86-10.05,21.72-15,32.63-4.53,10.05-11.66,15.44-23.22,15.52-17.29.12-34.55,2.4-51.85-.48-11.68-1.94-19.37-7.3-22-19.64-2.16-10.21-5.74-20.13-8.75-30.15a28.61,28.61,0,0,0-3.74-8.35c-2.4,1.22-2.5,3.76-3.29,5.76-11.19,28.53-21.17,57.41-25.2,88-.33,2.5-.77,6.48-3.37,6.68-3.07.23-3.71-3.53-4.53-6.26-6.31-21.15-9.94-43.1-19.19-63.37-15.1-33.1-38.88-56.13-75.72-62.11s-68.71,5-92.68,34.33c-18.67,22.82-29.93,49.34-35.12,78.4-.39,2.17-.66,4,1.76,5.56,16.86,10.94,19.44,35.9,4.4,52.57-14.45,16-41.1,18.65-57.15,5.65-2.34-1.9-5.14-3.8-6.06-6.52-2.49-7.42-8-7.16-14.22-7.1-23.65.23-47.3.13-70.95,0-2.86,0-4.16.58-5.16,3.69-5,15.39-15.28,25.7-31.21,29.27-15.64,3.49-28.51-2.56-39-13.8-11.37-12.15-12.19-30.45-2.1-45.2C193,546.1,205.21,539,220.52,537.37c4.94-.52,9.69.26,13.77,3.27,3.63,2.67,5.77,2.32,8.41-1.85,22.44-35.51,48-68.75,74.6-101.22,12.59-15.37,26.21-29.71,41.9-42,7.24-5.66,14.77-10.83,23.45-14.06,8.35-3.1,16.8-3.76,25.45-1.1,7.56,2.32,15.21,4.35,23.14,6-4.34-4.84-8.6-9.59-13.94-13.23-6.95-4.75-7-6.59-2.9-13.73,6.55-11.48,9.26-23.9,6-37-3.17-12.56-12.8-19.78-26.35-20.33-15-.62-28.82,4.2-42.47,9.72-34.61,14-65.95,33.84-97,54.13a807,807,0,0,0-100.89,77.48c-50,45.25-84.79,99.59-103.47,164.64a821.38,821.38,0,0,0-28.2,149.29c-.06.66-.09,1.33-.19,2-.52,3.52-2.09,6.15-6.11,5.74-3.73-.39-5-3.19-4.73-6.48.66-8.13,1.43-16.25,2.41-24.34,6.29-51.82,17.1-102.57,33.9-152.13C65.51,528.28,96.64,483.13,137.35,444c39.78-38.28,84.23-70.37,130.8-99.74,28.62-18,57.86-34.85,89.77-46.5a103,103,0,0,1,30.64-6.52c28.28-1.34,46.89,18.28,43.92,46.47a69.65,69.65,0,0,1-6.63,23.92c-1.23,2.47-.78,3.56,1.17,5.32,7.77,7,15.33,14.31,22.91,21.56,2.88,2.76,5.29,6,3,10.12s-6.33,4-10.16,3c-11.71-3.16-23.46-6.25-35-9.94-10.11-3.22-19.36-1.81-28.27,3.41-17.17,10.05-31.44,23.56-44.28,38.49a1067.57,1067.57,0,0,0-79.06,104.13c-5.11,7.66-9.61,14.14-2,22.62,1.74,1.93,2.51,5.17,2.78,7.9.47,4.75,2.45,6,7.25,5.95,25-.3,50-.18,74.94-.1,2.88,0,4.2-.27,4.51-3.84,1.92-22,22.45-38.75,44.47-36.32,4.13.46,5.22-.64,5.94-4.54,5.13-27.78,16.44-53,33.12-75.67,30.94-42.11,86.78-56.18,134.34-34,26,12.14,43.27,32.63,55.19,58.1C622,489.1,626,500.94,629.57,513ZM829.44,588.3c.37,5.21.68,12.36,1.41,19.47,4.51,44,34.34,56.62,61.6,56.89q23.35.24,35.91-19.59a80.2,80.2,0,0,0,10.23-23.7c4.92-20,4.94-40.2,3.56-60.53-.74-10.82-2.1-21.51-6.5-31.59-12.74-29.18-48.73-40.1-72.54-21.41-16.58,13-27.72,29.94-31.27,51.17C830.33,568.06,829.94,577.21,829.44,588.3ZM247.33,577.76c-.07-15-12.58-29.56-25.22-29.47-17.05.14-33.91,16.44-33.71,32.6.17,14,14.35,26.93,29.45,26.85C233.4,607.65,247.4,593.41,247.33,577.76Zm132.52,17.83c10.59-.28,20.61-5.08,26.57-16.57,5.42-10.43,2.9-22.51-5.79-29.2C385.32,538,359,547.77,355.1,566.71c-.56,2.75-.27,5.73-1.12,8.36-1.48,4.52-.16,8.11,2.63,11.49C362.12,593.26,369.58,595.42,379.85,595.59Zm710.05-32.75c3.65-1.94,7-3.72,10.3-5.44,1.09-.57,1.12-1.39,1.06-2.48-.65-11.64-1.42-23.25-5.65-34.31-6.3-16.49-19.58-24.85-37.74-23.45,7.05,29.44,7.3,59.18,3.76,89.78,5-4.6,9.28-8.09,7.75-15.77-1.67-8.42-1.06-17.24-.71-25.9.35-8.36,3.72-13.46,8.84-13.81s9.12,4.4,10.29,12.66C1088.65,550.15,1089.17,556.23,1089.9,562.84Z" transform="translate(-10.88 -291.12)"/><path class="cls-2" d="M591.41,836.56c1.76-1.81,1.75-4.09,2.32-6.11,8.29-29.24,14.73-59,25-87.68a66.58,66.58,0,0,1,4.47-10.53c9.11-16.09,28-16.16,37.09-.08,5.48,9.69,7.67,20.49,9.51,31.33,4.27,25.18,5.55,50.59,5.77,76.07.17,21,0,41.94.07,62.91a34.58,34.58,0,0,1-.89,8.91,15.08,15.08,0,0,1-29,.93c-1.11-3.21-1.11-6.53-1.11-9.86,0-28.46.5-56.92-.76-85.37a383.13,383.13,0,0,0-3.38-39.52c-2.49,5.28-3.39,10.31-4.66,15.2-8,30.71-16.79,61.2-24,92.13a46.29,46.29,0,0,1-4.18,11.7c-3.52,6.49-8.74,10.47-16.41,10.2-7.44-.26-12.35-4.43-15.48-10.86-2.64-5.43-3.67-11.37-5.09-17.18a522,522,0,0,0-37.47-104.94c-.58-1.2-1.15-2.4-1.79-3.56-.11-.2-.54-.22-.89-.35-1.14,1.08-.59,2.49-.61,3.7-.8,42.43-2.57,84.85-.45,127.28a33.69,33.69,0,0,1-.45,7.44c-1.26,7-6.4,11.88-13,12.52A15.18,15.18,0,0,1,500,910.78c-1.74-4.61-1.6-9.49-1.79-14.29-1.37-35.28-.59-70.56.38-105.83.45-16.28,0-32.63,2.16-48.84a42,42,0,0,1,4.45-14.72c6.62-12.15,20.28-14.63,30.82-5.62a48.21,48.21,0,0,1,8.39,9.85c16.88,24.82,28,52.4,38.42,80.3C585.93,819.8,588.54,828.14,591.41,836.56Z" transform="translate(-10.88 -291.12)"/><path class="cls-2" d="M831.44,790c1.17.55,2,1,2.87,1.33,27.67,11.32,40.2,36.6,31.52,65.2-9.58,31.57-31.67,51.14-62.18,61.86-17.3,6.07-35,7.86-53,3.18-10.43-2.71-14-7.08-13.93-17.89.25-50.6-2.53-101.11-4.33-151.65a245.27,245.27,0,0,1,.44-31.38c.85-9.13,7.56-13.85,14.4-16.38,20.21-7.46,41.17-13,62.94-8.82,30.93,6,47.2,34.79,38,65.75a72.3,72.3,0,0,1-13.81,25.18C833.47,787.54,832.54,788.66,831.44,790ZM766.21,855.3h1.41c0,11,.25,22-.12,32.91-.15,4.49,1.52,5.17,5.39,5a76,76,0,0,0,27.44-6.67c17-7.61,29.6-19.55,35.49-37.59,4.67-14.29-.61-24.42-14.71-29.38-9.17-3.22-18.57-3.18-28.08-2.44-7.62.59-15.26,1.38-22.88,1.25-3.31-.05-4.12.08-4,3.57C766.38,833,766.21,844.17,766.21,855.3Zm30.27-130.14c-10.54.36-20.73,2.76-30.9,5.32-2.37.59-2.73,1.77-2.65,3.86q.93,25.44,1.7,50.88c.06,2.24.29,3.43,3,2.44,8.75-3.16,17.66-5.89,26.33-9.25a40.75,40.75,0,0,0,23.06-22.31C824.81,738.49,815.62,724.78,796.48,725.16Z" transform="translate(-10.88 -291.12)"/><path class="cls-2" d="M168.39,896.26c-10.59,11.84-22.59,19-36.67,22.29-34.53,8.17-68.52-13.15-77.53-48.86-6.08-24.08-6.53-48.72-5.87-73.38.52-19.55,3.25-38.74,9.79-57.28,18-50.83,64.63-51.92,95.23-32.58,17.89,11.32,28.4,27.62,32.52,48.19,1.93,9.68-2.84,18-11.25,20-8.57,2-16.51-3-18.73-12.9-3.31-14.76-10.8-25.83-24.89-32.14-19-8.51-34.74-2.39-42.51,16.9-5.52,13.72-7.8,28.14-8.76,42.81C78.2,812.43,79,835.5,83.3,858.34c3.57,18.68,18.07,31.55,34.33,31A37.51,37.51,0,0,0,152,862.71c2.09-7.22,2.69-14.69,3.37-22.15.3-3.23-1-4-3.87-4-4.49-.07-9-.36-13.46-.73-9-.74-15.23-6.48-15.92-14.4s4.19-15,13.09-16.9a203.07,203.07,0,0,1,41.64-4.19c11.27,0,18.61,8.15,20.3,20.77,1.37,10.25,1.16,20.6,1.46,30.9.65,21.78,1.63,43.57.78,65.37-.06,1.66,0,3.34-.21,5-.9,7.74-6.6,13.33-14,13.85A15.43,15.43,0,0,1,169.09,924c-1.28-5.42-.63-10.94-.7-16.42C168.35,904.26,168.39,901,168.39,896.26Z" transform="translate(-10.88 -291.12)"/><path class="cls-2" d="M1054,807.27c-.07,26.53-5.23,49.05-15.43,70.38-9.34,19.55-23.67,35.09-43.87,42.32-31.41,11.26-51.45,6.25-71.27-22.45-9.5-13.76-13-29.75-15.5-45.91A178.31,178.31,0,0,1,920.66,752c8.19-19,21.29-33.63,41.47-39.93,23-7.17,42.92.26,60.55,15.23,17.11,14.55,24.69,34.2,28.87,55.53A140.05,140.05,0,0,1,1054,807.27Zm-117.28,22c.56,5.26,1,12.42,2.16,19.45,1.95,11.47,4.35,22.84,11.06,32.78,3.64,5.4,8.08,8.52,14.91,9.13,17.15,1.53,31.14-3.22,40.92-18.11a85.68,85.68,0,0,0,9.27-18.69c10.12-28.92,11.59-57.85-.51-86.59a43.75,43.75,0,0,0-25.86-24.86c-9.86-3.69-18.94-2.08-27,4.73a47,47,0,0,0-12.92,18.09C940.19,785.09,936.58,805.89,936.67,829.29Z" transform="translate(-10.88 -291.12)"/><path class="cls-2" d="M1143.69,926.32c-18.84-.51-36.75-6.58-49.64-23.42-9.16-12-10.76-25.54-7.31-39.81A15.15,15.15,0,0,1,1104,851.36c7.85,1.14,13.06,7.84,12.79,16.48,0,.49-.07,1-.11,1.49-1,14.3,4,21.16,17.87,24.7,21.76,5.54,45-7.93,50.69-29.58,3-11.62-.49-21.31-9.46-29.11-6.09-5.29-13.22-8.93-20.33-12.57-11.66-5.95-22.35-13.21-31.23-22.9-21.69-23.67-21.71-57.8-.1-81.55,20.76-22.81,56.21-18.19,70.43,9.15a102.69,102.69,0,0,1,8.69,24.88c2.22,9.82-2.37,18-10.81,20.14s-16.09-2.86-19.1-12.56c-1.76-5.71-3.09-11.56-5.74-17-4.77-9.76-13.91-11-21.18-2.91a28.86,28.86,0,0,0-1.45,36.25c5.37,7,12.31,12.09,19.94,16.33,6.39,3.56,12.93,6.87,19.21,10.62,43.92,26.24,41.95,75.19,7.8,105.65C1178.77,920.65,1162.91,926.12,1143.69,926.32Z" transform="translate(-10.88 -291.12)"/><path class="cls-2" d="M234.4,807.57c1.25-30.78,2.31-55.89,3.26-81,.19-5.17,1.18-9.9,5.18-13.56,8.58-7.86,22.29-3.41,25.2,8.19.95,3.76.77,7.59.61,11.42-1.85,44.06-4.65,88.1-2.7,132.24.2,4.65.35,9.31.71,14,.73,9.42,4.28,13.95,13.64,16.7,13.52,4,27.27,4.05,41,1.53,6.21-1.13,12.31-2.82,18.49-4.13,5.76-1.22,11.34-1,16,3.26a14.26,14.26,0,0,1,4.76,14c-1.29,6.53-5.6,10.55-11.8,12.31-11.21,3.18-22.56,5.88-34.22,6.72-15.21,1.1-30.36.46-44.91-4.59-20.09-7-32.39-20.6-33.85-42.37C234,855.49,234,828.69,234.4,807.57Z" transform="translate(-10.88 -291.12)"/><path class="cls-2" d="M394.54,796.8c-.73-18.29-1-36.58-.35-54.87a29.63,29.63,0,0,1,1-6.89,15.16,15.16,0,0,1,29.56,1.33,28.23,28.23,0,0,1,.38,6c-1.19,51.8,2.66,103.37,6.92,154.93.22,2.64.84,5.27.85,7.91,0,8.14-5.26,14.53-12.64,15.59-7.87,1.12-14.82-3.21-17.26-11.13-2.22-7.21-2.33-14.76-3-22.2C397.48,857.26,395.75,827.05,394.54,796.8Z" transform="translate(-10.88 -291.12)"/><path class="cls-2" d="M1128.57,641.42c-.56,11.19-3.62,21.6-10.31,30.68-9.11,12.35-25.62,12.06-33.79-1-6.83-10.93-9.08-23.39-9.1-36.2,0-3.1.81-5.53,5.16-4,14.45,5.22,28.89,5.81,43-1.35,2.24-1.14,3-.26,3.66,1.52A27.13,27.13,0,0,1,1128.57,641.42Z" transform="translate(-10.88 -291.12)"/><path class="cls-2" d="M1228.51,645.48c-.59,11.2-3.65,21.62-10.38,30.69-8.88,12-25,12-33.24-.38-7.53-11.4-9.66-24.58-9.57-38.08,0-3.66,2.19-3.78,5.14-2.74,14.51,5.13,28.94,5.78,43-1.41,2.29-1.17,3-.12,3.62,1.61A27.09,27.09,0,0,1,1228.51,645.48Z" transform="translate(-10.88 -291.12)"/><path class="cls-1" d="M460.77,493.3c21.56.38,36.48,15.3,36.12,36.09-.3,17.51-13.65,30.38-31.16,30.07-18.24-.33-33.86-17.17-33.6-35.91C432.31,510.63,443.49,491.56,460.77,493.3Zm5.52,55.08c11.69,0,19.93-8,19.68-19.75-.35-16.38-11.21-23.91-25.53-24.91-9-.62-17.34,9.87-17.28,20.68C443.23,537.2,454,548.39,466.29,548.38Z" transform="translate(-10.88 -291.12)"/><path class="cls-1" d="M595.23,522.08c.09,17.23-16.48,33.48-34.28,33.62-16.71.13-31.48-14-31.64-30.26-.16-16.59,17.91-36.12,33.41-36.11C579.82,489.35,595.13,504.77,595.23,522.08Zm-11.07.22c.05-10.66-10.36-22.26-19.8-22-11.65.26-24,13.13-23.94,25,0,10.33,9.25,19.23,20.08,19.36C572.48,544.77,584.1,533.8,584.16,522.3Z" transform="translate(-10.88 -291.12)"/><path class="cls-1" d="M798.19,558.74c-.67-.16-1.65-.34-2.59-.65-13.79-4.5-27.2-3.45-40.32,2.59-6,2.78-9.35,2.42-10.93-.94s.46-6.26,6.77-9.16c14.64-6.71,29.69-8.15,45.25-3.73a12.53,12.53,0,0,1,5.72,2.88,5.07,5.07,0,0,1,1.23,5.95C802.44,557.73,800.64,558.53,798.19,558.74Z" transform="translate(-10.88 -291.12)"/><path class="cls-1" d="M684,541.15c7.35,0,13.54,1.05,19.41,3.63,3.43,1.5,5.75,4,4.24,7.82-1.58,4-5,3.73-8.43,2.29-8.65-3.64-17.49-3.52-26.42-1.28-1.93.49-3.85,1-5.74,1.65-3.79,1.24-7.71,1.75-9.11-2.91s2.23-6.29,6-7.52C670.79,542.58,677.72,541,684,541.15Z" transform="translate(-10.88 -291.12)"/><path class="cls-1" d="M394.58,333.94c-.26,3.5-1.82,6.2-5.67,6.2s-6-2.75-6.31-6.42c-.34-3.82,1.93-6.07,5.61-6.16C392.18,327.47,394.1,330.08,394.58,333.94Z" transform="translate(-10.88 -291.12)"/><path class="cls-2" d="M863.35,583c0-7.31-.1-14.63,1.14-21.88a35.77,35.77,0,0,1,1.21-5.33c2.24-6.81,5.8-12.63,13.61-13.62,8-1,13,3.78,16.92,10.06a16,16,0,0,1,1.9,4c4.2,15.52,5.07,31.1.41,46.68a28.84,28.84,0,0,1-2.93,6.3c-4.22,7.15-11.68,11.38-17.48,10.07-6.64-1.51-13.4-9.39-14.46-16.89a27.1,27.1,0,0,1-.31-3.48C863.33,593.65,863.35,588.33,863.35,583Z" transform="translate(-10.88 -291.12)"/><path class="cls-1" d="M225.33,579.57c-.07,2.87-2.08,4.76-5.48,5-3.78.3-7.86-3.22-7.87-6.69,0-3.82,2.26-5.69,5.87-5.93C221.88,571.71,225.3,574.94,225.33,579.57Z" transform="translate(-10.88 -291.12)"/><path class="cls-1" d="M381.59,566.05c4.69,0,7.4,2.22,7.5,6.09a7.55,7.55,0,0,1-7.15,7.51c-3.89.11-8.11-4.16-7.78-8.16C374.54,567,377.66,565.89,381.59,566.05Z" transform="translate(-10.88 -291.12)"/><path class="cls-1" d="M470,528.62c-.2,3-2,5-5.48,5.33a6.35,6.35,0,0,1-6.5-6.1c.1-3.47,2.06-5.5,5.51-5.79S469.91,524.75,470,528.62Z" transform="translate(-10.88 -291.12)"/></svg>