<svg id="Layer_1" data-name="Layer 1" xmlns="http://www.w3.org/2000/svg" width="1258.25" height="630.96" viewBox="0 0 1258.25 630.96"><defs><style>.cls-1{fill:#080808;}.cls-2{fill:#030303;}.cls-3{fill:#fdfdfd;}</style></defs><path class="cls-1" d="M431.23,312.89a73,73,0,0,0-14.66-13.36c-5.88-4-6.09-6.5-2.37-12.75,6.79-11.41,9.4-23.82,6.39-36.89-2.95-12.79-12.78-20.24-26.5-20.81-15-.62-28.83,4.19-42.49,9.7-34.63,14-66,33.82-97.09,54.09a807,807,0,0,0-100.93,77.42c-50,45.22-84.84,99.51-103.54,164.5A819.55,819.55,0,0,0,21.83,684a23.51,23.51,0,0,1-.5,3.45c-.75,3-2.65,4.62-5.79,4.31a4.86,4.86,0,0,1-4.65-5,53,53,0,0,1,.33-8c6.63-64.75,19.29-128.11,43.15-189,18.16-46.31,47.53-84.74,82.95-119,39.67-38.39,84.24-70.35,130.83-99.7,28.64-18,57.89-34.82,89.82-46.47a103.41,103.41,0,0,1,30.65-6.52c28.31-1.32,46.92,18.26,43.95,46.44a69.55,69.55,0,0,1-6.63,23.89c-1.23,2.47-.79,3.56,1.16,5.32,7.78,7,15.34,14.3,22.92,21.55,2.89,2.75,5.3,6,3,10.11s-6.34,4-10.17,3c-11.72-3.15-23.48-6.24-35-9.92-10.12-3.23-19.38-1.82-28.29,3.39-17.17,10.05-31.45,23.55-44.3,38.47a1068.13,1068.13,0,0,0-79.1,104.05c-5.1,7.65-9.63,14.13-2,22.6,1.75,1.93,2.56,5.17,2.77,7.89.4,5.26,3,6,7.75,5.93,24.82-.25,49.65-.15,74.48-.07,2.85,0,4.22-.22,4.53-3.82,1.92-22,22.43-38.73,44.47-36.32,4.12.45,5.24-.61,6-4.54,5.13-27.75,16.44-52.9,33.14-75.6,30.95-42.09,86.81-56.14,134.4-34,26,12.13,43.29,32.61,55.22,58.06a204.51,204.51,0,0,1,12.38,35.23c1.85-.47,1.52-2.05,1.82-3.22,5.28-20,12.78-39.15,20.16-58.38a23.74,23.74,0,0,1,3.11-5.65c5.2-7,12.89-6.8,17.72.46C676,378.9,678,385.67,680,392.35c2.66,8.92,5.32,17.83,7.69,26.83a8.85,8.85,0,0,0,6.55,6.72c6.92,2.17,14.08,2.59,21.24,2.74,12.84.28,25.64-.82,38.45-1.53,3.51-.19,5.4-2.25,7-4.88,4-6.56,6.82-13.67,10-20.61,4.85-10.57,9.79-21.1,14.7-31.64,1.9-4.09,4.44-7.66,9.38-8s7.74,3.38,10,7.15c9.23,15.5,13.79,32.7,18,50,2.61,10.79,4.86,21.67,7.29,32.59,1.93-.77,2.43-2.68,3.44-4.11C843.59,433.56,854.8,421,872.19,416c2.08-.59,2-1.82,2-3.34,0-9.31-.27-18.65,2.39-27.73.65-2.21-.93-3.4-2-4.8-4.68-6.17-8.55-12.71-9.35-20.61a24.66,24.66,0,0,1,1.43-11.28c4-10.72,12.87-14.21,25.15-9.58a55.07,55.07,0,0,1,5.13-19.92c4.06-8.17,9.81-14.6,18.55-17.95,12.29-4.71,24.25-.81,31.37,10.21,3.94,6.1,5.9,12.94,7.3,20,1.82.25,2.22-1.36,3.07-2.23,11.59-11.79,29.17-7.4,33.85,8.51,2.48,8.44,1.77,16.78-.93,25-.84,2.56-1.27,4.08,2.64,4.06,28-.18,46.66,13.93,58.44,38.4a24.78,24.78,0,0,1,1.76,4.12c1,3.54,2.33,4.39,6.67,4.14,17.91-1,35.58,6.93,44.2,24.92,5.55,11.59,7.89,24,8.29,36.7.11,3.74.94,4.32,4.55,3.19,30-9.39,60-9.85,87.79,5.58,43.68,24.24,64.69,62.69,64.62,112.41,0,26.67-11.81,49.05-27.49,69.72-2,2.67-4.69,4-7.78,1.92s-2.72-5.12-1.1-8a50,50,0,0,1,3.9-5.78c31-40.52,26.69-90,0-128.12-35.8-51.09-97.52-52.29-140.31-26.57-13.83,8.32-24.43,19.92-34.32,32.34-.31.39-.59.81-.87,1.22-1.88,2.75-4.11,5.22-7.78,3.9-4.06-1.46-4.39-5.07-4-8.73,1-10.09,2.54-20.14,3.21-30.26,1.76-26.69,1.07-53.2-7.53-78.92a72.48,72.48,0,0,0-7.64-16.75c-11.55-17.69-27.63-26.39-49.06-24.21-12.94,1.31-14.57-.67-10.35-12.89,2.46-7.13,4.45-14.28,3.17-21.95-.73-4.37-2.47-8.14-7-9.46-4.74-1.38-8,1.36-10.48,5-2.13,3.16-3.86,6.6-5.79,9.89-1.52,2.6-3.52,4.49-6.82,4.09s-4.93-2.74-5.52-5.66c-1-4.88-1.62-9.83-2.46-14.74a40.39,40.39,0,0,0-4.64-13.61c-5.14-8.91-13.79-11-22.52-5.45S901.37,332.63,903.49,343c.88,4.29,3.2,9.14-1.9,12.19-4.84,2.89-8-1.32-11.35-3.8-3.15-2.3-6.23-6.11-10.52-3.1s-4.26,7.66-3.24,12.25a30.61,30.61,0,0,0,7.27,13.48c3.85,4.4,4.93,9,3.19,14.73-2.25,7.39-1.66,15.15-1.83,22.79,0,1.67.48,2.19,2.3,2.21A64.68,64.68,0,0,1,949,459.69c5,16.43,5.35,33.45,5.23,50.42-.13,17.68-1.55,35.28-8.3,51.9-7.2,17.71-17.55,32.69-37.24,38.19-35.86,10-74.5-10.68-84.54-46.52-8.2-29.25-7.33-58.87,2.27-87.94.89-2.72,1.3-3.86-2.31-4.38-4-.57-4.41-4.5-5-7.79A460.6,460.6,0,0,0,807.87,405c-3-10.36-6.37-20.6-12.57-30.46-5.56,12.15-10.9,23.75-16.17,35.38-3,6.51-5.78,13.08-9.67,19.11-3.57,5.52-8.43,8.69-15.22,9-18.78.85-37.53,3-56.35,0-11.7-1.88-19.37-7.28-22-19.61-2.22-10.37-5.81-20.44-8.92-30.6-.85-2.77-1.73-5.61-3.65-7.9-1.57.52-1.73,1.82-2.12,2.82-11.44,29.3-22,58.83-26.23,90.23-.37,2.77-.57,7.18-3.76,7.27s-3.55-4.13-4.42-7c-6.27-20.79-9.82-42.4-18.95-62.35-13.53-29.58-34.15-51.21-66.39-60.26-38.72-10.85-80.59,3.15-104.6,35.29a175.76,175.76,0,0,0-32.65,75.23c-.38,2.1-.94,4.05,1.58,5.62,17.57,10.94,20.43,38.6,1.47,55.69C392.48,535.8,368,537,353.3,525.14c-2.18-1.77-4.93-3.65-5.79-6.06-2.83-7.89-8.75-7.7-15.49-7.63-23.33.27-46.66.17-70,0-3.19,0-4.37.88-5.42,4-5.21,15.5-15.69,25.82-32,29.07-15.93,3.19-28.8-3.25-39.1-14.93s-11.06-28.92-1.85-43.17c8.66-13.39,21.23-20.77,37.13-22.39A20.16,20.16,0,0,1,235,467.76c3.25,2.34,5,1.84,7.28-1.69,22.42-35.3,47.81-68.45,74.29-100.78,12.91-15.75,26.81-30.5,42.93-43.06,7-5.44,14.25-10.38,22.58-13.59,8.67-3.33,17.4-4.05,26.4-1.27,7.3,2.26,14.7,4.17,22.06,6.24.45.05,1.16.28,1.29.11C432.26,313.13,431.63,313,431.23,312.89Zm398.5,202.22c.37,5.21.6,12.2,1.39,19.13,4.16,36.3,26.33,57,60.93,57.11,16,.08,28.28-6.23,36.79-19.86a80,80,0,0,0,10-23.23c5-19.92,5-40.16,3.62-60.47-.74-10.81-2.07-21.5-6.44-31.59-13-29.91-49.61-40.55-73.68-20.83-15.73,12.88-26.59,29.19-30.14,49.66C830.63,494.39,830.22,503.87,829.73,515.11Zm-582.4-10.68c-.09-14.94-12.65-29.54-25.27-29.4-17.1.18-33.92,16.47-33.69,32.61.2,14,14.42,26.9,29.5,26.79C233.45,534.31,247.42,520.08,247.33,504.43Zm132.72,17.86c10.25-.23,20.33-4.93,26.36-16.39,5.57-10.59,3-22.89-6-29.55-15.34-11.43-41.2-1.81-45.27,16.89-.63,2.9-.39,6-1.25,8.84-1.26,4.13-.17,7.48,2.29,10.65C361.69,519.74,369.24,522.09,380.05,522.29ZM1058.21,424a194.16,194.16,0,0,1,5.53,37.33c.73,15.92,1.25,31.83-1.74,47.62-.17.87-.5,2.12.6,2.66s1.83-.13,2.61-.88c3.18-3,5.39-5.9,4.71-11.08a117.58,117.58,0,0,1-.27-31.8c.88-6.11,4.26-9.49,8.5-9.63s7.94,3.21,9.29,9a124.76,124.76,0,0,1,2,13.79c1,8.56,1,8.62,8.67,4.41,1.41-.78,3.79-.75,3.63-3.41-.74-12.11-1.44-24.22-6.08-35.66C1089.28,430.6,1075.55,422.36,1058.21,424Z" transform="translate(-10.85 -218.06)"/><path class="cls-2" d="M630.39,657.31a211.12,211.12,0,0,0-9.34,34c-5.68,28.67-11.28,57.36-17,86-1.43,7.2-4.59,13.3-12.19,15.71-8.76,2.79-17.71-1.85-20.26-11.27-2.73-10.08-4.66-20.4-6.58-30.68-8.33-44.71-25-86.32-46.82-126-.3-.54-.42-1.26-2.13-1.19,0,2.48,0,5.05,0,7.63q.18,70.11,4.33,140.11c.76,13,1.56,25.9,2.25,38.85.33,6.19-.67,12-5.86,16.23a14.22,14.22,0,0,1-15,2.32c-6.18-2.48-9.38-7.43-9.86-13.87-1-13.76-1.75-27.55-2.52-41.33-2.65-47.16-4.48-94.36-4.19-141.61A583.36,583.36,0,0,1,488.88,573a25.2,25.2,0,0,1,2-7.16c4.9-11.26,18.07-14.16,27.36-6.1a28.36,28.36,0,0,1,7.12,9.54c14.76,31.61,32.19,61.92,45.68,94.14A389,389,0,0,1,585,702.34c.28.93.22,2,1.52,2.71,2.82-12.89,5.41-25.74,8.46-38.49q10.83-45.3,22-90.51a60.25,60.25,0,0,1,3.62-10.84c3.34-7.19,8.88-11.73,17.15-11.51S651.19,559,654,566.41c3.46,9.24,4.84,19,6,28.71,2.41,19.55,1.81,39.19,1.73,58.81-.19,45.92,1.42,91.79,4,137.63a32.26,32.26,0,0,1-.49,8.93c-1.53,6.86-6.72,11.55-13.47,12.09a15,15,0,0,1-15.57-10.08c-1.62-4.46-1.63-9.17-1.85-13.8-2-42.2-3.79-84.4-3.69-126.66C630.62,660.46,630.47,658.89,630.39,657.31Z" transform="translate(-10.85 -218.06)"/><path class="cls-2" d="M173.19,812.41c-19.67,14.1-40.67,19.38-63.29,15.27-28.76-5.22-46-23.78-54.75-50.83-3.68-11.31-5-23.05-5.4-34.88-1.13-38.37.8-76.52,10.39-113.85C66.25,604.34,77.2,583,96.48,566.93c14.77-12.28,31.54-19.37,51.26-15.35a56.67,56.67,0,0,1,37.06,25c10.36,15.64,14.91,33.21,16.24,51.73,0,.5,0,1,0,1.5,0,10.79-5.92,18-14.94,18.36s-15.34-6.36-15.93-17.3a88.36,88.36,0,0,0-6.17-27.6,41.31,41.31,0,0,0-8-13.16c-8.3-9-19-11-30-5.77-9.94,4.76-17.09,12.54-23,21.6-10.49,16.1-15.19,34.23-17.85,52.93-4.07,28.71-5.9,57.56-4.26,86.56.56,9.84,2.07,19.51,6.16,28.59,11.47,25.45,46.43,32.47,67,13.4,7.85-7.27,10.65-17.08,12.67-27.09,2.21-11,2.43-22.13,3.09-33.25.16-2.7-.69-3.55-3.33-3.3-4.81.46-9.63.67-14.45,1.06a28.44,28.44,0,0,1-8.44-.21c-7.85-1.7-12.83-7.39-12.94-14.9s4.71-14.19,12.39-15.34a272.92,272.92,0,0,1,41.27-3.24c9,0,15.77,6.46,18.74,16.12,2.78,9,3,18.37,2.44,27.68-1.79,31.41-1.68,62.85-1.53,94.28a28.72,28.72,0,0,1-.76,8.41c-2,6.95-7.72,11.38-14.66,11.33a15,15,0,0,1-14.65-12,41,41,0,0,1-.81-7.91C173.11,823.87,173.19,818.6,173.19,812.41Z" transform="translate(-10.85 -218.06)"/><path class="cls-2" d="M806,664.87c10,3.78,18.57,8.63,26,15.56,15.88,14.8,21.33,33.9,21.33,54.57,0,29.35-11,54-34.33,72.6a66,66,0,0,1-23.32,12.14,140.43,140.43,0,0,1-56.36,4.33c-11.65-1.48-16.85-7-17.38-18.74-1.1-24.4-1.49-48.84-2.67-73.24-2-41.84-4.48-83.66-6.66-125.48-.71-13.77-1.36-27.56-.29-41.35.47-6.12,2.3-8.65,8-8.86,19.76-.74,39.67-2.21,59.19,2,39.79,8.56,59.15,50,40.79,86.54A88.77,88.77,0,0,1,806,664.87ZM763.33,793.78c2.82-.23,5.64-.44,8.46-.68,15.67-1.34,28.86-7.31,38.38-20.27,10.15-13.83,13.67-29.3,11.56-46.14-1.77-14.17-8.29-25.05-21.92-30.87a72.72,72.72,0,0,0-16.27-4.56c-11-1.89-21.88.93-32.83,1-3.09,0-2.23,2.15-2.14,3.86,1.55,29.18,3.18,58.37,3.47,87.61C752.15,794.8,752.29,794.8,763.33,793.78ZM743,623.45h1.41c.57,11.3,1.11,22.59,1.73,33.88.08,1.42-.58,3.78,2.54,2.36,9.53-4.32,19.64-7.31,28.81-12.48a36.29,36.29,0,0,0,15.86-18c7.94-18.76-1.68-36.88-21.66-40.85-8.39-1.67-16.88-1.47-25.39-1.12-2.94.12-3.41,1.16-3.37,3.83C743.08,601.85,743,612.65,743,623.45Z" transform="translate(-10.85 -218.06)"/><path class="cls-2" d="M881.73,727.4c.58-32.28,9.72-61.84,28.63-88.17a71.51,71.51,0,0,1,34.17-25.76c18.31-6.72,34.43-1.14,49,9.88a74.1,74.1,0,0,1,21.9,27.48c21.21,44.36,23.59,89.4,3.34,134.85-3.73,8.39-8.35,16.35-15,22.83-19.56,19.12-42.86,22.28-67.46,13-29.1-10.94-44.73-33.83-51.33-63.44A142,142,0,0,1,881.73,727.4Zm119.9-5.07a143.79,143.79,0,0,0-1.74-19.55c-2.64-15.67-6.7-30.93-15.94-44.13-12.93-18.47-35.78-19.07-48.6-.92-19.06,27-26.26,57-20.73,89.81,2.87,17,9.64,31.72,24.86,41.38,19.17,12.17,39.09,7,49.55-13C997.69,759.41,1001.27,741.65,1001.63,722.33Z" transform="translate(-10.85 -218.06)"/><path class="cls-2" d="M1135.42,839.86c-23.18-.26-44-6.52-60.6-23.63-5.65-5.83-10.15-12.32-11.46-20.58-1.39-8.8,3.27-16.63,11.13-18.75,8.09-2.18,15.36,2.1,18.56,11,2.68,7.42,8.58,11.83,15.19,15.09,13.52,6.69,27.81,7.34,42.36,4a21.9,21.9,0,0,0,5.54-2.21c8.9-4.9,14.58-12.14,15.07-22.53.49-10.14-5.43-16.74-13.34-21.86-5.25-3.4-11.32-4.73-17.32-6.12-10.88-2.53-20.85-6.84-29.1-14.58-18.87-17.73-22.57-42.59-9.45-64.93,10.34-17.62,25.52-29,45.82-32.14,32.64-5.09,57.33,15.19,60,48.53a48.82,48.82,0,0,1,.11,8.46,15.16,15.16,0,0,1-30,1.9,82.08,82.08,0,0,1-1.11-8.89c-1.75-15.28-11.09-22.46-25.84-19.07-12.25,2.82-20.61,10.77-24.67,22.55-3.62,10.51,3.2,22,15.08,26.13,5,1.75,10.29,2.69,15.37,4.24,21.79,6.65,37.88,19.58,44,42.2,7.53,27.92-10.12,57.73-39.23,67.38A81.45,81.45,0,0,1,1135.42,839.86Z" transform="translate(-10.85 -218.06)"/><path class="cls-2" d="M249.15,685.36q0-49.15,0-98.3a33.49,33.49,0,0,1,1.06-9.88,15,15,0,0,1,28.92.32,35.93,35.93,0,0,1,.9,8.9c1.42,52.73,0,105.45.05,158.17,0,15.46-.42,31,1.93,46.31,2,13.07,9.69,20.24,22.69,22.23,10.13,1.55,20.26,1.36,30.42.57a35.82,35.82,0,0,1,10.44.27,15,15,0,0,1,2.73,28.84,12.61,12.61,0,0,1-3.33,1c-18.46,1.8-37,2.94-55-2.54-23.81-7.21-38.08-27-39.77-54.66C248.07,752.89,249.74,719.11,249.15,685.36Z" transform="translate(-10.85 -218.06)"/><path class="cls-2" d="M425.91,707.8c1.56,31.43,3.71,62.81,3.51,94.26,0,4.65,0,9.33-.43,14-.92,9.63-7.58,15.73-16.35,15.34-8.23-.36-14.41-6.78-14.37-16.12.22-67.69-5.25-135.3-2.85-203,.14-3.82.2-7.66.57-11.46,1-10,7.68-16.42,16.41-15.92s14.47,7.26,14.39,17.21c-.14,18-.69,35.92-.85,53.88C425.79,673.22,425.91,690.51,425.91,707.8Z" transform="translate(-10.85 -218.06)"/><path class="cls-2" d="M1228.93,572c-.49,11.2-3.54,21.62-10.23,30.7-9.12,12.38-25.65,12.12-33.82-.95-7-11.24-9.22-24.05-9.12-37.2,0-4.12,2.51-3.88,5.49-2.77a56.58,56.58,0,0,0,35.26,1.68c1-.26,1.86-.74,2.83-1,2.49-.58,4.88-3.89,7.05-2.29,2.5,1.84,2.36,5.64,2.53,8.8C1229,570,1228.93,571,1228.93,572Z" transform="translate(-10.85 -218.06)"/><path class="cls-2" d="M1129.07,567.34c-.61,11.9-3.69,22.46-10.57,31.63-8.91,11.87-25.06,11.78-33.21-.66-7.27-11.1-9.52-23.89-9.48-37,0-3.51,1.46-5,5.42-3.58,14.3,5.11,28.6,5.69,42.51-1.35,2.49-1.26,3.28-.27,3.94,1.72a17.36,17.36,0,0,1,.89,3.36C1128.84,563.56,1128.94,565.72,1129.07,567.34Z" transform="translate(-10.85 -218.06)"/><path class="cls-1" d="M497,455.25c0,17.92-12.95,31-30.78,30.93-18,0-33.93-16.45-34-35,0-16.46,12.54-31.12,26.72-31.14C481.6,420,497,434.27,497,455.25Zm-10.88-.1c-.73-16-10.93-23.49-25.33-24.65-9.1-.73-17.48,9.54-17.56,20.38-.09,13,10.88,24.36,23.37,24.23C478.29,475,486.2,466.9,486.14,455.15Z" transform="translate(-10.85 -218.06)"/><path class="cls-1" d="M595.4,448.81c.11,17.21-16.45,33.45-34.28,33.62-16.7.15-31.49-14-31.67-30.21-.17-16.57,17.87-36.09,33.4-36.11C579.93,416.09,595.28,431.52,595.4,448.81Zm-11.07.11c0-10.46-10-21.71-19.45-21.89-11.58-.22-24.43,13.06-24.32,25.13.1,10.33,9.4,19.16,20.23,19.21C572.8,471.42,584.33,460.43,584.33,448.92Z" transform="translate(-10.85 -218.06)"/><path class="cls-1" d="M798.28,485.45c-.76-.2-1.74-.4-2.69-.71-13.44-4.37-26.56-3.33-39.41,2.34-6.93,3.06-10.2,2.78-11.69-.88s.75-6.2,7.58-9.23c14.56-6.44,29.48-7.75,44.84-3.31a12.41,12.41,0,0,1,5.3,2.65,5.1,5.1,0,0,1,1.46,5.9C802.78,484.5,800.83,485.33,798.28,485.45Z" transform="translate(-10.85 -218.06)"/><path class="cls-1" d="M684.08,467.89c7.54,0,13.73,1.06,19.61,3.64,3.42,1.51,5.73,4,4.2,7.83-1.61,4-5,3.68-8.45,2.24-9.71-4.08-19.51-3.33-29.33-.51-1.28.36-2.53.83-3.8,1.2-3.57,1-6.93.83-8.18-3.23-1.17-3.79,1.34-5.94,4.64-7.05C670,469.55,677.44,467.62,684.08,467.89Z" transform="translate(-10.85 -218.06)"/><path class="cls-1" d="M394.65,260.84c-.25,3.49-1.82,6.18-5.66,6.19s-6-2.73-6.32-6.4,1.92-6.07,5.6-6.16C392.24,254.38,394.17,257,394.65,260.84Z" transform="translate(-10.85 -218.06)"/><path class="cls-3" d="M431.23,312.89c.4.15,1,.24.62.83-.13.17-.84-.06-1.29-.11A9.07,9.07,0,0,1,431.23,312.89Z" transform="translate(-10.85 -218.06)"/><path class="cls-2" d="M863.86,509.19c-.16-7.46-.28-15,1.08-22.34a27.65,27.65,0,0,1,4.79-11.9c5.37-7.12,14.09-8.31,21.06-2.76a23.78,23.78,0,0,1,8.57,13.69c3,13.43,3.7,27,.54,40.48a37.18,37.18,0,0,1-3.26,8.31c-4,7.68-11.7,12.55-17.74,11.45-7-1.27-14.39-9.76-14.95-18C863.52,521.83,863.86,515.5,863.86,509.19Z" transform="translate(-10.85 -218.06)"/><path class="cls-1" d="M217.49,498.68c4.71,0,8,3.26,7.82,7.18-.17,3.62-2.4,5.34-5.77,5.46-3.87.13-7.75-3.51-7.59-7C212.13,500.49,214.59,499,217.49,498.68Z" transform="translate(-10.85 -218.06)"/><path class="cls-1" d="M381.77,492.76c4.67.06,7.36,2.32,7.39,6.22a7.56,7.56,0,0,1-7.27,7.38c-3.71,0-7.58-3.88-7.69-7.78S376.8,492.7,381.77,492.76Z" transform="translate(-10.85 -218.06)"/><path class="cls-1" d="M470.1,455.2c-.14,3-1.92,5.12-5.37,5.48a6.32,6.32,0,0,1-6.61-5.95c0-3.48,1.92-5.54,5.37-5.9S470,451.37,470.1,455.2Z" transform="translate(-10.85 -218.06)"/><path class="cls-1" d="M568,449.13c-.55,3.3-2.37,5.36-5.66,5.23s-5.29-2.21-5.1-5.53,2.18-5.21,5.54-5.13S567.58,446.08,568,449.13Z" transform="translate(-10.85 -218.06)"/></svg>