<svg width="1392" height="248" viewBox="0 0 1392 248" fill="none" xmlns="http://www.w3.org/2000/svg">
<path fill-rule="evenodd" clip-rule="evenodd" d="M754.807 61.371C744.495 56.9825 733.779 58.5235 724.37 63.4485C713.837 68.9648 704.999 78.7462 700.331 88.6462C698.867 92.1537 697.803 95.7657 697.084 99.4918C696.06 104.866 695.722 110.402 695.737 116.041C695.702 116.572 696.114 117.029 696.646 117.063C697.177 117.098 697.634 116.686 697.668 116.154C698.219 111.654 698.999 107.267 700.152 102.999C701.301 98.7609 702.826 94.7077 704.94 90.8609C709.274 81.9831 717.383 73.3191 726.939 68.4171C734.789 64.3958 743.66 62.9656 752.237 66.4804C751.245 68.7035 750.433 70.9728 749.852 73.3082C748.742 77.8364 748.558 82.5813 749.856 87.6114C750.767 91.1388 752.964 95.8261 756.017 98.619C758.731 101.106 762.057 102.227 765.768 100.874C773.149 98.156 774.97 91.7773 773.431 84.6459C771.694 76.6206 765.385 67.7321 759.855 64.0282C761.016 61.9581 762.264 59.9499 763.508 57.9711C768.668 49.7953 776.787 43.7399 786.342 40.7025C795.199 37.8882 805.28 37.6783 815.401 40.7699C823.584 43.137 830.464 48.2098 835.99 53.7598C839.836 57.6237 842.949 61.7356 845.41 65.4985C847.652 68.9256 849.419 71.9165 850.236 74.4939C850.255 74.6055 850.364 74.6828 850.475 74.6639C850.587 74.6451 850.664 74.5365 850.645 74.4249C850.523 71.6058 849.845 67.9818 848.184 64.0358C846.328 59.6067 843.296 54.898 839.477 50.5132C833.77 43.9515 826.045 38.3425 817.024 35.4285C805.749 31.958 794.498 32.2027 784.614 35.3338C773.766 38.7614 764.546 45.6529 758.664 54.9354C757.336 57.0337 756.005 59.18 754.781 61.385L754.807 61.371ZM757.275 69.1964C756.515 70.9789 755.875 72.7983 755.416 74.6639C754.529 78.3035 754.369 82.1168 755.416 86.1662C755.989 88.3738 757.203 91.2 758.926 93.309C760.225 94.8873 761.81 96.1783 763.774 95.4644C768.061 93.8994 768.693 89.9968 767.804 85.8633C766.435 79.5066 761.676 72.4408 757.268 69.2073L757.275 69.1964Z" fill="white"/>
<path fill-rule="evenodd" clip-rule="evenodd" d="M698.178 115.552C697.685 113.761 697.199 111.96 696.684 110.153C696.078 108.037 695.483 105.929 694.796 103.836C693.025 98.5035 690.994 93.3773 689.027 88.1827C688.894 87.6793 688.374 87.375 687.879 87.4969C687.375 87.6297 687.079 88.1387 687.193 88.6453C687.819 93.2629 688.28 97.8607 688.963 102.536C689.251 104.524 689.565 106.498 689.991 108.453C690.942 112.843 692.259 117.134 693.578 121.377C693.751 121.893 694.121 122.729 694.615 123.277C695.159 123.892 695.82 124.297 696.496 124.451C697.124 124.603 698.022 124.652 699.007 124.027C699.448 123.752 700.258 123.003 701.118 121.749C703.964 117.654 709.671 106.824 710.892 104.6L713.011 100.102C713.119 99.8355 713.315 99.4678 713.336 99.0244C713.369 98.4261 713.408 97.7502 713.216 97.3523C713.078 97.041 712.7 97.296 712.875 97.1422C713.008 97.0241 712.616 97.0234 712.69 97.1255C712.971 97.4892 712.29 97.1356 712.328 97.3587C712.422 97.9165 711.959 97.096 711.747 97.4855C711.665 97.6236 711.663 97.3276 711.549 97.4425C711.395 97.6118 711.52 97.1605 711.283 97.2865C711.133 97.3597 711.349 97.0554 711.137 97.1008C710.981 97.1368 711.388 96.8864 711.132 96.9009C710.903 96.9013 711.319 96.8214 711.319 96.8214C711.319 96.8214 711.118 96.7598 711.663 96.8207C711.682 96.9323 711.783 97.0204 711.903 96.9907C712.014 96.9719 712.102 96.871 712.073 96.7517C713.346 96.25 712.198 96.6445 712.554 96.2594C712.683 96.1227 712.419 96.1961 712.474 96.072C712.77 95.4483 712.05 96.1627 711.889 95.7213C711.821 95.5417 711.765 95.8952 711.641 95.7249C711.439 95.434 711.622 96.1202 711.158 95.9212C710.921 95.8179 711.282 96.2062 710.776 96.2057C710.402 96.2018 710.706 96.0741 710.128 96.4488C709.717 96.7286 709.388 97.6732 709.079 97.9932L706.423 102.027C705.38 103.723 701.228 110.849 698.154 115.518L698.178 115.552Z" fill="white"/>
<path d="M842.557 89.5464H837.58C837.489 88.9024 837.303 88.3305 837.023 87.8305C836.742 87.3229 836.383 86.8911 835.943 86.535C835.504 86.179 834.996 85.9062 834.42 85.7168C833.852 85.5274 833.235 85.4328 832.568 85.4328C831.364 85.4328 830.314 85.732 829.42 86.3305C828.527 86.9214 827.833 87.785 827.341 88.9214C826.848 90.0502 826.602 91.4214 826.602 93.035C826.602 94.6941 826.848 96.0881 827.341 97.2168C827.841 98.3456 828.538 99.1979 829.432 99.7737C830.326 100.349 831.36 100.637 832.534 100.637C833.193 100.637 833.803 100.55 834.364 100.376C834.932 100.202 835.436 99.9479 835.875 99.6146C836.314 99.2737 836.678 98.8608 836.966 98.3759C837.261 97.8911 837.466 97.3381 837.58 96.7168L842.557 96.7396C842.428 97.8078 842.106 98.8381 841.591 99.8305C841.083 100.815 840.398 101.698 839.534 102.478C838.678 103.251 837.655 103.865 836.466 104.319C835.284 104.766 833.947 104.99 832.455 104.99C830.379 104.99 828.523 104.52 826.886 103.58C825.258 102.641 823.97 101.281 823.023 99.5009C822.083 97.7206 821.614 95.5653 821.614 93.035C821.614 90.4971 822.091 88.3381 823.045 86.5578C824 84.7774 825.295 83.4214 826.932 82.4896C828.568 81.5502 830.409 81.0805 832.455 81.0805C833.803 81.0805 835.053 81.2699 836.205 81.6487C837.364 82.0274 838.39 82.5805 839.284 83.3077C840.178 84.0274 840.905 84.91 841.466 85.9555C842.034 87.0009 842.398 88.1979 842.557 89.5464ZM850.835 81.3987V104.671H845.994V81.3987H850.835ZM854.713 104.671V87.2168H859.554V104.671H854.713ZM857.145 84.9668C856.425 84.9668 855.808 84.7282 855.293 84.2509C854.785 83.7661 854.531 83.1865 854.531 82.5123C854.531 81.8456 854.785 81.2737 855.293 80.7964C855.808 80.3115 856.425 80.0691 857.145 80.0691C857.865 80.0691 858.478 80.3115 858.986 80.7964C859.501 81.2737 859.759 81.8456 859.759 82.5123C859.759 83.1865 859.501 83.7661 858.986 84.2509C858.478 84.7282 857.865 84.9668 857.145 84.9668ZM871.318 105.012C869.53 105.012 867.992 104.634 866.705 103.876C865.424 103.111 864.439 102.05 863.75 100.694C863.068 99.3381 862.727 97.7774 862.727 96.0123C862.727 94.2244 863.072 92.6562 863.761 91.3077C864.458 89.9517 865.447 88.8949 866.727 88.1373C868.008 87.3721 869.53 86.9896 871.295 86.9896C872.818 86.9896 874.152 87.2661 875.295 87.8191C876.439 88.3721 877.345 89.1487 878.011 90.1487C878.678 91.1487 879.045 92.3229 879.114 93.6714H874.545C874.417 92.8002 874.076 92.0994 873.523 91.5691C872.977 91.0312 872.261 90.7623 871.375 90.7623C870.625 90.7623 869.97 90.9668 869.409 91.3759C868.856 91.7774 868.424 92.3646 868.114 93.1373C867.803 93.91 867.648 94.8456 867.648 95.9441C867.648 97.0578 867.799 98.0047 868.102 98.785C868.413 99.5653 868.848 100.16 869.409 100.569C869.97 100.978 870.625 101.183 871.375 101.183C871.928 101.183 872.424 101.069 872.864 100.842C873.311 100.615 873.678 100.285 873.966 99.8532C874.261 99.4138 874.455 98.8873 874.545 98.2737H879.114C879.038 99.607 878.674 100.781 878.023 101.796C877.379 102.804 876.489 103.592 875.352 104.16C874.216 104.728 872.871 105.012 871.318 105.012ZM886.599 99.6487L886.611 93.8418H887.315L892.906 87.2168H898.463L890.952 95.9896H889.804L886.599 99.6487ZM882.213 104.671V81.3987H887.054V104.671H882.213ZM893.122 104.671L887.986 97.0691L891.213 93.6487L898.793 104.671H893.122ZM919.438 97.2396V87.2168H924.278V104.671H919.631V101.501H919.449C919.055 102.524 918.4 103.346 917.483 103.967C916.574 104.588 915.464 104.899 914.153 104.899C912.987 104.899 911.96 104.634 911.074 104.103C910.188 103.573 909.494 102.819 908.994 101.842C908.502 100.865 908.252 99.6941 908.244 98.3305V87.2168H913.085V97.4668C913.093 98.4971 913.369 99.3115 913.915 99.91C914.46 100.509 915.191 100.808 916.108 100.808C916.691 100.808 917.237 100.675 917.744 100.41C918.252 100.137 918.661 99.7358 918.972 99.2055C919.29 98.6752 919.445 98.0199 919.438 97.2396ZM942.673 92.1941L938.241 92.4668C938.166 92.0881 938.003 91.7471 937.753 91.4441C937.503 91.1335 937.173 90.8873 936.764 90.7055C936.363 90.5161 935.882 90.4214 935.321 90.4214C934.571 90.4214 933.938 90.5805 933.423 90.8987C932.908 91.2093 932.651 91.6259 932.651 92.1487C932.651 92.5653 932.817 92.9176 933.151 93.2055C933.484 93.4934 934.056 93.7244 934.866 93.8987L938.026 94.535C939.723 94.8835 940.988 95.4441 941.821 96.2168C942.654 96.9896 943.071 98.0047 943.071 99.2623C943.071 100.406 942.734 101.41 942.06 102.274C941.393 103.137 940.476 103.812 939.31 104.296C938.151 104.774 936.813 105.012 935.298 105.012C932.988 105.012 931.147 104.531 929.776 103.569C928.412 102.599 927.613 101.281 927.378 99.6146L932.139 99.3646C932.283 100.069 932.632 100.607 933.185 100.978C933.738 101.342 934.446 101.524 935.31 101.524C936.158 101.524 936.84 101.361 937.355 101.035C937.878 100.702 938.143 100.274 938.151 99.7509C938.143 99.3115 937.957 98.9517 937.594 98.6714C937.23 98.3835 936.67 98.1638 935.912 98.0123L932.889 97.41C931.185 97.0691 929.916 96.4782 929.082 95.6373C928.257 94.7964 927.844 93.7244 927.844 92.4214C927.844 91.3002 928.147 90.3343 928.753 89.5237C929.366 88.7131 930.226 88.0881 931.332 87.6487C932.446 87.2093 933.749 86.9896 935.241 86.9896C937.446 86.9896 939.181 87.4555 940.446 88.3873C941.719 89.3191 942.461 90.5881 942.673 92.1941ZM951.903 81.3987L951.46 97.6941H947.301L946.847 81.3987H951.903ZM949.381 104.967C948.631 104.967 947.987 104.702 947.449 104.171C946.911 103.634 946.646 102.99 946.653 102.24C946.646 101.497 946.911 100.861 947.449 100.33C947.987 99.8002 948.631 99.535 949.381 99.535C950.1 99.535 950.733 99.8002 951.278 100.33C951.824 100.861 952.1 101.497 952.108 102.24C952.1 102.74 951.968 103.198 951.71 103.615C951.46 104.024 951.131 104.353 950.722 104.603C950.312 104.846 949.866 104.967 949.381 104.967Z" fill="white"/>
<path fill-rule="evenodd" clip-rule="evenodd" d="M1122.11 69.8919C1121.79 68.2012 1120.6 67.2809 1118.86 67.24C1118.57 67.24 1118.27 67.2195 1117.98 67.1991C1117.4 67.1513 1116.86 67.274 1116.55 67.7854C1116.25 68.2694 1115.73 68.358 1115.3 68.5762C1115.3 68.5762 1115.3 68.5762 1115.29 68.583C1115.37 69.3806 1114.87 69.7011 1114.12 69.9533C1113.99 69.6942 1113.85 69.4284 1113.72 69.1761C1113.88 69.0534 1113.95 68.958 1114.02 68.9511C1114.36 68.9102 1114.7 68.9239 1115.04 68.8693C1115.13 68.8557 1115.21 68.6853 1115.29 68.583C1115.29 68.583 1115.29 68.583 1115.29 68.5762C1115.29 68.5762 1115.3 68.5762 1115.3 68.5694C1115.39 68.4944 1115.47 68.4126 1115.56 68.3307C1115.13 67.9353 1114.74 67.5058 1114.28 67.1513C1114 66.9332 1113.62 66.9604 1113.3 67.1718C1112.77 67.5331 1112.26 67.9149 1111.95 68.4807C1112.08 69.2443 1113.16 69.4965 1112.87 70.4919C1112.55 70.6759 1112.17 70.8941 1111.83 71.0918C1110.83 70.5123 1111.83 69.9533 1111.79 69.4488C1111.1 68.4398 1111.07 68.4262 1110.11 68.8216C1109.88 68.917 1109.65 69.0125 1109.44 69.142C1109.12 69.3397 1109.07 69.7692 1109.35 70.0351C1109.52 70.1987 1109.72 70.3692 1109.95 70.4442C1110.57 70.6487 1110.75 71.0918 1110.76 71.7258C1110.16 72.1417 1109.68 72.7348 1108.9 72.7962C1108.45 72.0667 1108.19 71.3577 1108.55 70.5464C1108.57 70.4919 1108.47 70.3828 1108.37 70.1987C1107.71 70.0965 1106.98 69.9942 1106.24 70.1442C1105.96 70.1987 1105.69 70.3419 1105.45 70.5123C1105.16 70.7373 1105.04 71.0645 1105.16 71.4395C1105.28 71.8145 1105.59 71.9985 1105.96 71.9917C1106.4 71.9849 1106.84 71.9031 1107.33 71.8554C1107.51 72.2917 1107.79 72.7075 1107.57 73.2734C1106.67 73.7302 1105.71 73.7233 1104.66 73.587C1104.63 73.2598 1104.59 72.9802 1104.58 72.6939C1104.55 71.5009 1103.89 70.9623 1102.76 71.2691C1102.55 71.3236 1102.31 71.5145 1102.21 71.7054C1102.06 71.9985 1102.23 72.2917 1102.47 72.4826C1102.77 72.7144 1103.1 72.9053 1103.44 73.1302C1103.34 73.3279 1103.3 73.4916 1103.2 73.5734C1102.73 73.9688 1102.19 74.1801 1101.56 74.1256C1100.97 74.0779 1100.37 74.0369 1099.77 74.4937C1099.77 75.1209 1099.77 75.8095 1099.74 76.498C1099.73 76.9412 1099.77 77.432 1099.6 77.807C1098.92 79.2796 1098.61 80.9294 1097.52 82.2111C1097.37 82.3883 1097.27 82.6542 1097.24 82.886C1097.17 83.3496 1096.93 83.7041 1096.63 84.0518C1095.36 85.5039 1094.07 86.9424 1093.07 88.6058C1093 88.7285 1092.9 88.9058 1092.79 88.9331C1092.1 89.1035 1091.98 89.7443 1091.64 90.2147C1091.22 90.8215 1090.76 91.4078 1090.3 91.9941C1089.39 93.1599 1088.46 94.3188 1087.53 95.4778C1086.81 96.3641 1086.08 97.2367 1085.37 98.1162C1083.21 100.768 1081.05 103.406 1078.92 106.072C1077.72 107.579 1076.58 109.14 1075.41 110.674C1075.29 110.831 1075.16 110.987 1075.02 111.124C1074.86 111.267 1074.8 111.594 1074.5 111.499C1074.43 111.451 1074.39 111.431 1074.37 111.39C1074.27 111.219 1074.15 111.049 1074.09 110.865C1073.37 108.69 1071.56 107.517 1069.87 106.243C1067.37 105.172 1064.94 103.87 1062.08 104.17C1061.93 104.184 1061.78 104.17 1061.64 104.17C1060.97 104.136 1060.4 104.238 1059.95 104.852C1059.71 105.179 1059.21 105.329 1058.83 105.547C1057.81 106.12 1056.99 106.917 1056.48 107.967C1055.67 109.631 1055.13 111.376 1055.36 113.265C1055.47 114.226 1055.3 115.153 1054.94 116.026C1054.12 118.03 1053.5 120.13 1052.29 121.957C1051.79 122.707 1051.19 123.334 1050.42 123.811C1049.71 124.254 1048.97 124.663 1048.3 125.154C1047.06 126.054 1045.64 126.456 1044.18 126.715C1043.45 126.845 1042.73 126.947 1042.04 127.247C1041.68 127.397 1041.28 127.499 1040.89 127.54C1040.24 127.615 1039.64 127.813 1039.09 128.174C1038.94 128.277 1038.69 128.392 1038.57 128.338C1037.99 128.052 1037.51 128.379 1037.01 128.563C1036.46 128.774 1035.95 129.122 1035.39 129.251C1034.67 129.422 1034.14 129.817 1033.68 130.356C1033.32 130.765 1032.96 131.174 1032.6 131.583C1031.27 133.069 1030.77 134.951 1030.11 136.764C1030.03 136.989 1030.05 137.255 1030.03 137.501C1029.92 138.496 1030.2 139.491 1030.14 140.452C1030 142.477 1030.5 144.373 1030.94 146.302C1031.29 147.843 1031.57 149.404 1031.88 150.951C1031.92 151.142 1031.99 151.333 1032.08 151.51C1033.19 153.665 1034.29 155.826 1036 157.598C1036.97 158.6 1037.78 159.732 1038.45 160.946C1039.86 163.468 1041.74 165.486 1044.38 166.754C1044.46 166.795 1044.57 166.829 1044.63 166.897C1045.45 167.681 1046.52 167.961 1047.53 168.37C1048.39 168.724 1049.3 168.97 1049.97 169.699C1050.1 169.836 1050.32 169.883 1050.5 169.952C1051.51 170.354 1052.53 170.763 1053.55 171.151C1053.82 171.26 1054.11 171.37 1054.4 171.397C1056.31 171.581 1058.19 172.031 1060.14 171.956C1062.02 171.881 1063.74 171.506 1065.33 170.504C1066.76 169.604 1068.01 168.486 1069.35 167.47C1070.47 166.625 1071.39 165.595 1072.31 164.566C1072.57 164.279 1072.77 163.918 1072.93 163.564C1073.42 162.425 1073.91 161.287 1074.34 160.128C1074.99 158.369 1075.65 156.589 1075.87 154.715C1076.06 153.194 1076.12 151.667 1076.19 150.14C1076.32 147.413 1077.29 145.054 1079.17 143.064C1079.53 142.675 1079.89 142.239 1080.11 141.755C1080.45 141.012 1080.97 140.412 1081.53 139.873C1082.31 139.116 1083.19 138.462 1084.01 137.76C1084.58 137.282 1085.13 136.792 1085.69 136.301C1086.21 135.844 1086.7 135.353 1087.24 134.944C1088.1 134.303 1088.75 133.519 1089.13 132.524C1089.67 131.14 1090.24 129.763 1090.72 128.358C1090.97 127.615 1091.12 126.831 1091.22 126.047C1091.31 125.318 1091.22 124.561 1091.33 123.832C1091.46 122.911 1091.19 122.066 1090.99 121.2C1090.92 120.921 1090.79 120.6 1090.58 120.43C1089.51 119.584 1088.36 118.93 1086.91 119.312C1085.77 119.612 1084.81 120.191 1084.03 121.064C1083.47 121.698 1082.76 121.929 1081.95 122.066C1080.47 122.318 1079.27 121.664 1078.06 121.05C1078.11 120.436 1078.49 120.116 1078.82 119.741C1079.4 119.073 1079.98 118.398 1080.51 117.682C1081.09 116.891 1081.61 116.046 1082.17 115.235C1082.45 114.833 1082.72 114.389 1083.09 114.069C1084.29 113.005 1085.1 111.635 1086.05 110.381C1086.32 110.033 1086.58 109.679 1086.87 109.344C1087.22 108.935 1087.61 108.547 1087.97 108.145C1088.65 107.367 1089.23 106.502 1089.88 105.704C1090.82 104.545 1091.57 103.27 1092.43 102.063C1093.54 100.495 1094.61 98.8729 1095.87 97.4276C1096.91 96.2345 1097.9 95.0074 1098.85 93.7394C1099.35 93.0712 1099.9 92.4304 1100.36 91.7214C1101.06 90.6442 1101.69 89.5262 1102.3 88.524C1102.69 88.3808 1103.01 88.3331 1103.23 88.1695C1104 87.5968 1104.85 87.256 1105.78 87.0174C1106.73 86.7719 1107.63 86.4924 1108.65 86.472C1109.46 86.4515 1110.29 86.2061 1111.13 86.1311C1112.37 86.022 1112.72 85.6061 1112.71 84.304C1112.71 84.1063 1112.77 83.8882 1112.71 83.7109C1112.38 82.6883 1112.73 81.7816 1113.08 80.8408C1113.33 80.1863 1113.72 79.7431 1114.32 79.4568C1114.64 79.3068 1114.96 79.1705 1115.27 79.0273C1117.11 78.1683 1118.83 77.0912 1120.53 75.9799C1121.04 75.639 1121.35 75.1686 1121.64 74.6301C1122.49 73.0961 1122.4 71.4736 1122.1 69.8579L1122.11 69.8919ZM1075.31 112.712C1076.06 111.676 1076.8 110.619 1077.59 109.61C1079.52 107.17 1081.48 104.75 1083.42 102.316C1085.29 99.9637 1087.17 97.598 1089.04 95.246C1089.19 95.0551 1089.36 94.8642 1089.55 94.7074C1090.28 94.1007 1090.78 93.2962 1091.4 92.6008C1092.86 90.9715 1093.88 89.0353 1095.13 87.2628C1095.7 86.4583 1096.32 85.6811 1096.92 84.9108C1097.14 84.6449 1097.4 84.4267 1097.65 84.1813C1098.13 84.2972 1098.35 84.5903 1098.51 85.0812C1098.16 85.538 1097.77 86.0425 1097.38 86.5333C1096.53 87.6173 1095.72 88.7285 1094.74 89.7239C1093.8 90.6647 1093.07 91.7964 1092.25 92.8531C1091.1 94.3393 1089.96 95.8255 1088.81 97.3117C1088.56 97.6253 1088.33 97.9525 1088.04 98.2184C1086.75 99.4115 1085.96 100.966 1084.91 102.343C1084.56 102.813 1084.28 103.352 1083.9 103.802C1082.17 105.895 1080.39 107.954 1078.68 110.06C1077.87 111.056 1077.16 112.126 1076.41 113.169C1076.02 113.728 1075.63 114.301 1075.14 115.03C1074.59 114.008 1074.84 113.346 1075.3 112.719L1075.31 112.712ZM1070.73 140.65C1070.49 141.857 1070.28 143.07 1070.04 144.277C1069.99 144.516 1069.91 144.754 1069.81 144.986C1069.25 146.37 1069.01 147.836 1068.75 149.302C1068.53 150.617 1068.4 151.953 1068.1 153.249C1067.85 154.346 1067.51 155.444 1066.73 156.33C1066.54 156.548 1066.37 156.808 1066.27 157.08C1065.97 157.898 1065.41 158.519 1064.75 159.057C1063.88 159.78 1062.99 160.489 1062.1 161.205C1062.06 161.239 1062.03 161.273 1061.99 161.3C1060 162.302 1058.01 163.305 1055.75 163.55C1054.61 163.673 1053.48 163.666 1052.35 163.536C1051.19 163.4 1050.13 163.032 1049.2 162.316C1049 162.166 1048.83 161.975 1048.6 161.887C1046.21 160.898 1044.47 159.037 1042.6 157.353C1041.23 156.112 1040.19 154.612 1039.54 152.86C1039.23 152.028 1038.74 151.292 1038.47 150.426C1038.08 149.165 1038.04 147.911 1038.05 146.615C1038.06 144.4 1039.17 142.661 1040.41 140.984C1040.72 140.568 1041.23 140.282 1041.69 140.009C1042.88 139.307 1044.09 138.639 1045.3 137.964C1045.68 137.746 1046.07 137.501 1046.48 137.344C1048.18 136.696 1049.5 135.503 1050.89 134.392C1052.61 133.015 1053.68 131.215 1054.47 129.204C1054.98 127.867 1055.56 126.545 1056.07 125.209C1056.34 124.493 1056.72 123.886 1057.34 123.423C1057.57 123.245 1057.79 123.034 1057.98 122.809C1058.77 121.902 1059.78 121.8 1060.81 122.175C1061.92 122.577 1063.06 122.932 1064.01 123.709C1064.38 124.016 1064.84 124.22 1065.3 124.493C1065.05 125.55 1064.22 126.163 1063.7 126.974C1063.16 127.806 1062.59 128.611 1062.03 129.429C1061.47 130.24 1060.91 131.044 1060.33 131.876C1059.65 131.719 1059.05 131.576 1058.48 131.44C1057.94 132.012 1057.41 132.469 1057.02 133.015C1056.66 133.526 1056.41 134.133 1056.19 134.726C1056.13 134.889 1056.29 135.203 1056.44 135.373C1056.62 135.592 1056.89 135.735 1057.1 135.892C1056.88 136.805 1055.88 138.325 1054.25 140.268C1053.94 140.071 1053.63 139.825 1053.29 139.675C1052.86 139.491 1052.42 139.491 1052.07 139.893C1051.81 140.193 1051.51 140.459 1051.25 140.759C1050.51 141.618 1050.45 142.389 1051.06 143.323C1051.25 143.609 1051.5 143.854 1051.77 144.182C1051.62 144.468 1051.49 144.788 1051.3 145.061C1050.39 146.356 1049.47 147.645 1048.55 148.927C1048.23 149.39 1047.83 149.554 1047.2 149.608C1046.18 149.697 1045.17 149.997 1044.18 150.331C1043.24 150.658 1042.88 151.981 1043.42 152.812C1043.56 153.017 1043.71 153.222 1043.89 153.378C1044.81 154.203 1045.76 155.001 1046.68 155.826C1047.31 156.385 1047.93 156.944 1048.52 157.544C1049.56 158.614 1050.74 159.35 1052.44 159.419C1053.52 158.56 1054.4 157.428 1054.75 155.914C1054.89 155.342 1054.42 155.015 1054.26 154.462C1055.64 152.553 1057.04 150.604 1058.42 148.708C1059.2 148.518 1059.72 149.049 1060.43 149.117C1061.33 148.565 1061.78 147.665 1062.02 146.629C1062.12 146.179 1062.05 146.043 1061.45 145.184C1062.09 143.602 1063.33 142.484 1064.15 141.1C1064.59 141.059 1065.02 141.121 1065.34 140.957C1065.72 140.766 1066.03 140.405 1066.32 140.084C1066.66 139.723 1066.96 139.328 1067.25 138.925C1067.66 138.366 1067.86 137.787 1067.3 137.18C1067.21 137.085 1067.21 136.907 1067.15 136.723C1067.88 135.401 1068.75 134.14 1069.7 132.946C1070.63 131.781 1071.5 130.588 1072.23 129.285C1072.32 129.115 1072.45 128.965 1072.61 128.74C1072.89 128.795 1073.19 128.795 1073.43 128.911C1074.83 129.599 1076.33 129.49 1077.8 129.463C1078.42 129.449 1079.03 129.115 1079.62 128.87C1080.13 128.665 1080.6 128.413 1081.19 128.433C1081.22 129.374 1080.42 129.783 1079.96 130.356C1079.64 130.738 1079.05 131.024 1078.55 131.092C1076.94 131.31 1075.77 132.326 1074.51 133.171C1074.13 133.424 1072.81 135.36 1072.57 135.939C1072.01 137.31 1071.45 138.694 1070.9 140.071C1070.82 140.255 1070.75 140.439 1070.71 140.637L1070.73 140.65ZM1058.75 143.098C1058.58 143.302 1058.33 143.336 1058.13 143.084C1058.13 142.995 1058.1 142.886 1058.14 142.818C1058.94 141.536 1059.76 140.262 1060.62 138.919C1060.91 139.082 1061.15 139.219 1061.56 139.443C1060.54 140.78 1059.65 141.945 1058.75 143.098ZM1056.98 148.306C1056.93 148.415 1056.87 148.524 1056.81 148.633C1056.78 148.613 1056.73 148.592 1056.73 148.586C1056.77 148.47 1056.82 148.354 1056.87 148.238C1056.92 148.272 1056.98 148.299 1056.98 148.306ZM1051.15 147.808C1051.7 146.881 1052.35 146.016 1052.95 145.129C1053.83 145.634 1053.92 145.845 1053.56 146.479C1053.46 146.65 1053.36 146.827 1053.22 146.956C1052.11 147.958 1051.42 149.274 1050.59 150.481C1050.48 150.638 1050.31 150.747 1050.13 150.917C1049.86 150.781 1049.61 150.658 1049.33 150.515C1049.67 149.377 1050.61 148.729 1051.15 147.808ZM1051.98 141.748C1052.26 141.393 1052.56 141.018 1052.9 140.582C1053.18 140.827 1053.42 141.046 1053.67 141.271C1053.53 141.993 1053.04 142.423 1052.64 143.064C1052.29 142.664 1052.07 142.225 1051.98 141.748ZM1055.89 145.416C1056.08 145.136 1056.23 144.897 1056.4 144.672C1056.58 144.441 1056.78 144.236 1057 143.991C1057.24 144.086 1057.46 144.175 1057.62 144.243C1057.67 144.359 1057.72 144.42 1057.7 144.447C1057.36 144.972 1057 145.497 1056.59 146.111C1056.33 145.852 1056.14 145.661 1055.89 145.416ZM1055.77 147.113C1054.95 148.654 1053.42 151.694 1052.2 152.54C1052.05 152.458 1051.87 152.39 1051.71 152.274C1051.56 152.158 1051.44 152.008 1051.26 151.824C1051.4 151.592 1051.48 151.354 1051.63 151.176C1052.41 150.304 1052.86 149.186 1053.73 148.354C1054.25 147.856 1054.57 147.154 1054.98 146.554C1055.07 146.575 1055.19 146.568 1055.25 146.622C1055.43 146.779 1055.6 146.956 1055.76 147.12L1055.77 147.113ZM1059.69 138.066C1059.5 138.366 1059.33 138.728 1059.07 139.007C1058.17 139.975 1057.94 141.441 1056.69 142.198C1056.21 141.959 1055.78 141.666 1055.46 141.155C1056.32 139.709 1057.32 138.387 1058.35 137.105C1059.19 137.419 1059.18 137.426 1059.69 138.073L1059.69 138.066ZM1059.26 135.858C1059.76 135.114 1060.22 134.433 1060.69 133.73C1061.3 133.662 1061.6 134.024 1061.88 134.494C1061.67 135.353 1061.14 136.035 1060.55 136.689C1059.98 136.662 1059.59 136.437 1059.25 135.858H1059.26ZM1058.13 134.93C1057.62 134.869 1057.4 134.603 1057.61 134.235C1057.94 133.655 1058.37 133.117 1058.79 132.599C1058.86 132.51 1059.18 132.524 1059.3 132.612C1059.42 132.694 1059.52 132.994 1059.46 133.096C1059.06 133.758 1058.63 134.399 1058.14 134.937L1058.13 134.93ZM1054.92 142.273C1055.25 142.525 1055.54 142.75 1055.8 142.941C1055.79 143.118 1055.82 143.234 1055.77 143.309C1055.6 143.602 1055.41 143.888 1055.21 144.161C1054.76 144.754 1054.53 144.747 1053.93 144.134C1053.87 144.073 1053.87 143.957 1053.81 143.793C1054.06 143.268 1054.4 142.757 1054.91 142.266L1054.92 142.273ZM1049.42 151.96C1049.86 152.56 1050.33 152.949 1051.02 153.147C1051.2 153.194 1051.34 153.365 1051.53 153.508C1051.51 153.706 1051.47 153.896 1051.47 154.081C1051.45 154.605 1051.62 154.81 1052.11 154.871C1052.4 154.905 1052.73 154.824 1052.96 154.946C1053.24 155.103 1053.43 155.43 1053.63 155.649C1053.42 156.467 1052.95 157.244 1052.22 157.98C1051.47 157.905 1050.7 157.653 1050.08 157.196C1048.97 156.385 1047.73 155.71 1046.88 154.592C1046.31 153.842 1045.68 153.16 1044.97 152.533C1044.79 152.376 1044.67 152.151 1044.52 151.953C1045.08 150.801 1046.05 150.529 1047.14 150.679C1048.04 150.801 1048.9 151.224 1049.42 151.947V151.96ZM1056.03 149.458C1056.03 149.458 1056.09 149.424 1056.14 149.411C1056.12 149.486 1056.12 149.567 1056.09 149.636C1056.09 149.663 1056.03 149.67 1055.99 149.683C1056 149.608 1056 149.526 1056.03 149.458ZM1061.72 137.296C1062.11 136.614 1062.56 135.967 1062.95 135.36C1063.38 135.271 1063.61 135.387 1063.7 135.796C1063.27 136.573 1062.82 137.391 1062.33 138.285C1062.07 138.169 1061.77 138.121 1061.68 137.964C1061.58 137.8 1061.62 137.473 1061.72 137.296ZM1059.16 145.129C1059.24 145.381 1059.38 145.606 1059.32 145.695C1059.03 146.125 1058.68 146.52 1058.34 146.909C1058.3 146.949 1058.17 146.895 1058 146.875C1058.01 146.084 1058.45 145.593 1059.16 145.122V145.129ZM1059.91 143.868C1060.65 142.832 1061.42 141.816 1062.19 140.8C1062.33 140.609 1062.5 140.439 1062.67 140.255C1062.76 140.282 1062.86 140.309 1062.95 140.343C1062.93 140.507 1062.98 140.712 1062.9 140.834C1062.67 141.202 1062.37 141.536 1062.12 141.898C1061.6 142.661 1061.09 143.439 1060.57 144.209C1060.4 144.454 1060.08 144.563 1059.97 144.379C1059.88 144.243 1059.83 143.977 1059.91 143.868H1059.91ZM1060.8 146.527C1060.63 147.652 1060.58 147.706 1059.7 147.618C1060.05 146.959 1060.42 146.595 1060.8 146.527ZM1063.72 139.239C1063.68 139.103 1063.55 138.939 1063.59 138.85C1063.91 138.189 1064.23 137.528 1064.59 136.887C1064.73 136.642 1064.98 136.567 1065.2 136.757C1065.32 136.86 1065.43 137.112 1065.38 137.241C1065.2 137.821 1064.33 138.823 1063.72 139.232V139.239ZM1065.99 134.93C1066.46 134.235 1066.97 133.574 1067.44 132.878C1068.27 131.658 1069.06 130.41 1069.91 129.19C1070.19 128.788 1070.55 128.454 1070.9 128.106C1070.94 128.065 1071.09 128.079 1071.16 128.12C1071.24 128.167 1071.32 128.283 1071.3 128.352C1071.27 128.536 1071.22 128.74 1071.12 128.897C1070.64 129.647 1070.17 130.39 1069.65 131.113C1068.85 132.237 1068.02 133.335 1067.21 134.46C1066.87 134.937 1066.59 135.462 1066 135.789C1065.61 135.401 1065.84 135.142 1065.99 134.924L1065.99 134.93ZM1070.47 126.061C1070.08 125.795 1069.8 125.611 1069.57 125.454C1069.57 125.325 1069.55 125.27 1069.57 125.222C1069.61 125.086 1069.63 124.922 1069.71 124.813C1071.32 122.816 1072.59 120.6 1073.9 118.269C1074.41 118.746 1074.49 119.257 1074.61 119.748C1073.47 121.964 1071.99 123.927 1070.47 126.061H1070.47ZM1069.65 127.274C1068.11 129.804 1066.38 132.244 1064.58 134.726C1064.28 134.535 1064.04 134.385 1063.81 134.235C1063.86 134.044 1063.86 133.88 1063.93 133.771C1064.69 132.681 1065.48 131.603 1066.23 130.506C1067.06 129.285 1067.86 128.045 1068.71 126.743C1069.08 126.661 1069.37 126.879 1069.65 127.274ZM1062.61 133.478C1062.16 133.192 1061.84 132.987 1061.57 132.817C1061.57 132.626 1061.53 132.503 1061.57 132.442C1063.21 130.117 1064.85 127.792 1066.49 125.468C1066.52 125.434 1066.57 125.413 1066.72 125.318C1066.98 125.488 1067.28 125.686 1067.62 125.911C1066.38 128.713 1064.36 130.888 1062.6 133.478H1062.61ZM1072.43 126.695C1072.38 126.77 1072.27 126.824 1072.18 126.845C1072.1 126.865 1071.99 126.852 1071.91 126.811C1071.84 126.763 1071.76 126.64 1071.78 126.579C1071.86 126.347 1071.95 126.115 1072.08 125.911C1073.08 124.384 1074.09 122.863 1075.11 121.35C1075.16 121.275 1075.25 121.22 1075.34 121.173C1075.37 121.152 1075.45 121.166 1075.48 121.193C1075.55 121.248 1075.62 121.323 1075.63 121.398C1075.64 121.486 1075.6 121.589 1075.58 121.664C1074.52 123.354 1073.48 125.031 1072.43 126.702V126.695ZM1077.58 115.644C1077.07 116.366 1076.56 117.096 1076.03 117.812C1075.93 117.955 1075.74 118.044 1075.54 118.2C1075.17 117.403 1075.12 116.762 1075.63 116.066C1076.6 114.758 1077.5 113.394 1078.43 112.058C1078.57 111.853 1078.72 111.656 1078.87 111.465C1080.46 109.522 1082.05 107.565 1083.65 105.636C1084.12 105.07 1084.61 104.504 1085.16 104.006C1086.08 103.168 1086.79 102.152 1087.5 101.15C1087.96 100.509 1088.43 99.8682 1088.83 99.1933C1089.3 98.3684 1090.02 97.7548 1090.6 97.0254C1092.17 95.0551 1093.69 93.0508 1095.2 91.0328C1096.35 89.4921 1097.45 87.9036 1098.59 86.3492C1098.78 86.0834 1099.04 85.8652 1099.33 85.5652C1099.75 85.947 1100.1 86.2743 1100.42 86.5538C1100.52 87.0923 1100.18 87.3582 1099.93 87.6514C1097.48 90.5624 1095.01 93.453 1092.6 96.3913C1091.51 97.7276 1090.55 99.1729 1089.51 100.55C1089.01 101.218 1088.47 101.859 1087.94 102.507C1087.78 102.697 1087.59 102.861 1087.43 103.045C1085.39 105.52 1083.3 107.961 1081.32 110.483C1080 112.146 1078.82 113.919 1077.59 115.651L1077.58 115.644ZM1073.58 115.071C1073.92 115.835 1073.92 116.285 1073.64 116.748C1072.68 118.296 1071.76 119.864 1070.78 121.391C1070.15 122.386 1069.43 123.327 1068.74 124.281C1068.63 124.431 1068.46 124.541 1068.28 124.697C1068.02 124.5 1067.79 124.329 1067.5 124.118C1067.86 122.959 1068.73 122.127 1069.34 121.139C1069.98 120.089 1070.7 119.093 1071.38 118.064C1072.02 117.089 1072.74 116.169 1073.59 115.064L1073.58 115.071ZM1079.1 122.904C1080.32 123.532 1081.59 123.491 1082.86 123.259C1083.49 123.143 1084.05 122.809 1084.51 122.318C1085.05 121.739 1085.67 121.261 1086.36 120.859C1087.27 120.334 1088.12 120.273 1089.02 120.791C1089.23 120.914 1089.46 121.009 1089.65 121.105C1090.1 122.018 1090.22 122.925 1090.16 123.886C1090.01 126.459 1089.41 128.981 1088.36 131.453C1087.88 132.578 1087.29 133.567 1086.19 134.18C1085.98 134.303 1085.77 134.46 1085.61 134.644C1084.51 135.933 1083.06 136.826 1081.8 137.93C1080.9 138.714 1080.07 139.546 1079.4 140.541C1078.71 141.564 1077.87 142.484 1077.14 143.479C1076.83 143.909 1076.59 144.407 1076.37 144.897C1076.03 145.668 1075.76 146.465 1075.44 147.243C1075.16 147.89 1075.05 148.565 1075.01 149.267C1074.97 150.154 1074.88 151.04 1074.81 151.926C1074.77 152.417 1074.73 152.908 1074.74 153.406C1074.75 154.455 1074.62 155.492 1074.28 156.473C1073.42 158.853 1072.47 161.184 1071.15 163.352C1070.6 164.259 1069.89 165.009 1069.08 165.657C1068 166.516 1066.92 167.388 1065.84 168.24C1064.44 169.331 1062.83 170.149 1061.02 170.388C1060.72 170.429 1060.42 170.415 1060.13 170.429C1059.2 170.47 1058.26 170.524 1057.32 170.538C1056.78 170.538 1056.24 170.517 1055.7 170.442C1053.31 170.122 1051.15 169.099 1049.03 168.029C1047.76 167.388 1046.6 166.529 1045.39 165.766C1045.22 165.663 1045.06 165.547 1044.87 165.486C1043.69 165.098 1042.85 164.245 1042.11 163.318C1040.86 161.777 1039.66 160.209 1038.22 158.839C1037.87 158.505 1037.58 158.082 1037.32 157.667C1036.12 155.73 1034.94 153.787 1033.77 151.838C1033.57 151.504 1033.39 151.129 1033.32 150.747C1032.89 148.613 1032.46 146.479 1032.1 144.332C1031.79 142.532 1031.52 140.718 1031.73 138.871C1031.78 138.441 1031.64 137.991 1031.63 137.548C1031.61 137.16 1031.58 136.737 1031.7 136.376C1032.34 134.324 1033.24 132.422 1034.99 131.038C1035.94 130.288 1036.97 129.735 1038.17 129.531C1039.3 129.34 1040.41 129.115 1041.53 128.897C1041.86 128.829 1042.19 128.713 1042.52 128.624C1042.99 128.495 1043.46 128.324 1043.94 128.236C1046.01 127.847 1047.95 127.179 1049.53 125.706C1049.6 125.638 1049.67 125.556 1049.76 125.522C1051.12 124.95 1052.02 123.804 1053.12 122.904C1053.55 122.55 1053.88 122.127 1054.08 121.609C1054.83 119.727 1055.59 117.839 1056.34 115.957C1056.74 114.955 1056.65 113.905 1056.56 112.876C1056.43 111.39 1056.81 110.04 1057.47 108.731C1057.87 107.913 1058.49 107.265 1059.24 106.781C1060.84 105.759 1062.54 105.377 1064.47 105.656C1066.08 105.895 1067.51 106.522 1068.96 107.149C1069.31 107.299 1069.63 107.558 1069.95 107.79C1070.23 107.995 1070.45 108.281 1070.75 108.451C1072.23 109.331 1072.79 110.803 1073.34 112.303C1073.55 112.876 1073.45 113.333 1073.06 113.81C1072.46 114.539 1071.91 115.303 1071.37 116.073C1069.87 118.221 1068.37 120.375 1066.87 122.529C1066.71 122.768 1066.53 122.993 1066.33 123.259C1065.7 123.123 1065.16 122.945 1064.68 122.557C1063.55 121.616 1062.18 121.145 1060.81 120.73C1059.67 120.389 1058.59 120.546 1057.62 121.364C1056.38 122.4 1055.34 123.532 1054.79 125.093C1054.33 126.402 1053.75 127.663 1053.25 128.958C1052.54 130.813 1051.36 132.306 1049.8 133.512C1049.18 133.996 1048.57 134.508 1047.93 134.964C1047.53 135.251 1047.11 135.558 1046.66 135.721C1045.15 136.26 1043.84 137.16 1042.48 137.95C1042.27 138.073 1042.08 138.25 1041.85 138.339C1040.35 138.932 1039.41 140.078 1038.51 141.38C1036.66 144.066 1036.35 146.949 1037.09 150.017C1037.9 153.372 1039.55 156.242 1042.04 158.648C1043.28 159.855 1044.71 160.843 1046 161.989C1046.25 162.214 1046.57 162.384 1046.89 162.514C1047.59 162.793 1048.17 163.23 1048.81 163.611C1049.68 164.143 1050.68 164.6 1051.67 164.784C1054.34 165.261 1056.99 165.118 1059.53 164.034C1060.94 163.434 1062.38 162.882 1063.59 161.907C1064.62 161.068 1065.62 160.175 1066.63 159.31C1066.66 159.275 1066.7 159.241 1066.72 159.194C1067.19 158.001 1068.07 157.046 1068.6 155.86C1069.23 154.428 1069.42 152.935 1069.7 151.429C1070.08 149.397 1070.4 147.345 1071.05 145.361C1071.5 144.004 1071.72 142.586 1072.08 141.196C1072.25 140.527 1072.44 139.859 1072.68 139.219C1073.02 138.346 1073.37 137.46 1073.83 136.642C1074.44 135.585 1075.1 134.562 1076.17 133.846C1077.09 133.246 1077.96 132.681 1079.06 132.428C1080.43 132.115 1081.09 131.447 1082.04 130.165C1082.58 129.429 1083.06 128.706 1082.94 127.738C1082.92 127.642 1082.87 127.554 1082.83 127.452C1082.47 127.104 1082.03 127.131 1081.59 127.247C1080.78 127.465 1079.96 127.67 1079.17 127.956C1078.41 128.236 1077.64 128.338 1076.84 128.242C1076.2 128.167 1075.57 128.086 1074.92 128.011C1074.43 127.956 1073.98 127.772 1073.51 127.486C1073.51 126.886 1073.83 126.422 1074.12 125.999C1074.99 124.697 1075.65 123.245 1076.85 122.073C1077.64 122.359 1078.42 122.557 1079.1 122.911L1079.1 122.904ZM1098.78 91.5169C1098.01 92.2259 1097.34 93.0031 1096.74 93.8553C1096.2 94.6256 1095.6 95.3483 1095.04 96.0982C1094.65 96.6163 1094.28 97.1344 1093.92 97.6662C1093.22 98.682 1092.6 99.7592 1091.83 100.72C1090.26 102.697 1088.63 104.62 1087.03 106.563C1086.93 106.679 1086.81 106.774 1086.73 106.897C1085.23 109.351 1083.26 111.465 1081.52 113.742C1080.54 115.037 1079.51 116.312 1078.51 117.6C1078.15 118.071 1077.83 118.568 1077.49 119.053C1077.24 119.407 1076.98 119.762 1076.72 120.13C1076.22 119.898 1076.26 119.584 1076.47 119.277C1077 118.5 1077.54 117.737 1078.07 116.96C1079.34 115.126 1080.56 113.265 1081.87 111.465C1082.77 110.231 1083.78 109.072 1084.78 107.899C1086.28 106.127 1087.82 104.381 1089.32 102.609C1090.73 100.952 1092.05 99.2274 1093.28 97.4276C1094.08 96.2414 1094.99 95.1301 1095.86 93.9984C1096.74 92.8667 1097.63 91.735 1098.53 90.6238C1099.3 89.6762 1100.11 88.7558 1100.89 87.8218C1100.98 87.8764 1101.07 87.9309 1101.16 87.9854C1100.62 89.3148 1099.86 90.5215 1098.79 91.4964L1098.78 91.5169ZM1118.94 75.7209C1117.27 76.6685 1115.56 77.5616 1113.84 78.4069C1112.99 78.8228 1112.35 79.3341 1112.09 80.2749C1112.02 80.5612 1111.89 80.8339 1111.77 81.0998C1111.47 81.7407 1111.34 82.3951 1111.46 83.111C1111.55 83.6359 1111.51 84.1881 1111.53 84.8085C1110.46 84.938 1109.45 85.1494 1108.43 85.1562C1107.09 85.1698 1105.92 85.5516 1104.83 86.3015C1104.35 86.6356 1103.88 86.9969 1103.41 87.331C1102.36 86.8333 1102.2 86.656 1101.86 85.5857C1100.95 85.5107 1100.89 85.5448 1100.58 85.1017C1100.16 84.5017 1099.7 83.9768 1099.02 83.67C1098.87 83.6018 1098.79 83.37 1098.61 83.1314C1099.03 82.4292 1099.47 81.7202 1099.88 81.0044C1100.01 80.793 1100.13 80.5612 1100.16 80.3226C1100.39 78.6796 1101.12 77.098 1100.82 75.38C1100.8 75.2914 1100.85 75.1891 1100.88 75.0118C1101.67 74.8278 1102.47 74.7323 1103.32 75.0391C1103.67 75.7754 1103.69 76.573 1103.83 77.3366C1103.91 77.7252 1103.95 78.1138 1104.07 78.4887C1104.14 78.7273 1104.34 78.9114 1104.63 78.8569C1104.89 78.8092 1105.15 78.4342 1105.07 78.182C1105 77.9502 1104.91 77.7184 1104.78 77.507C1104.36 76.8048 1104.35 76.1095 1104.78 75.3254C1105.76 75.0937 1106.67 74.8755 1107.68 74.6437C1107.78 75.005 1107.86 75.3186 1107.96 75.6322C1108.06 76.0072 1108.14 76.4026 1108.32 76.7503C1108.41 76.9275 1108.7 77.1321 1108.88 77.1116C1109.05 77.0912 1109.31 76.7844 1109.31 76.6139C1109.28 75.8845 1109.54 75.1482 1109.24 74.4187C1109.18 74.2551 1109.22 74.0438 1109.22 73.7983C1109.59 73.6143 1109.94 73.4302 1110.29 73.2734C1110.61 73.137 1110.93 73.0348 1111.27 72.9053C1111.69 73.3893 1111.6 73.9756 1111.78 74.4664C1111.9 74.7869 1111.96 75.1346 1112.12 75.4345C1112.2 75.5777 1112.41 75.7277 1112.57 75.7481C1112.86 75.7822 1113.03 75.5368 1113.08 75.2982C1113.13 74.9641 1113.12 74.6164 1113.08 74.2824C1113.03 73.8938 1112.88 73.512 1112.84 73.1234C1112.8 72.7825 1112.76 72.4212 1112.84 72.094C1112.89 71.9031 1113.14 71.7122 1113.34 71.6168C1113.61 71.494 1113.83 71.7122 1113.91 71.944C1114.14 72.6871 1114.33 73.4438 1114.53 74.1937C1115.22 73.9688 1115.39 73.7983 1115.37 73.1984C1115.34 72.7075 1115.24 72.2167 1115.17 71.7327C1115.11 71.2963 1115.05 70.8668 1114.98 70.3828C1116.12 69.7147 1117.17 69.0057 1118.09 68.1058C1118.52 67.6831 1119.09 67.7172 1119.61 67.9762C1120.41 68.3648 1120.98 68.992 1121.18 69.851C1121.42 70.8668 1121.42 71.9235 1121.14 72.9257C1120.66 74.6642 1120.57 74.7937 1118.95 75.7072L1118.94 75.7209Z" fill="white" fill-opacity="0.5"/>
<path fill-rule="evenodd" clip-rule="evenodd" d="M1060.32 157.857C1060.35 157.326 1060 157.067 1059.5 157.067C1058.65 157.067 1058.28 157.598 1058.03 158.301C1057.96 158.587 1057.82 158.866 1057.81 159.153C1057.81 159.371 1057.9 159.684 1058.07 159.8C1058.6 160.189 1059.2 160.38 1059.88 160.148C1060.43 159.957 1060.68 159.569 1060.52 159.003C1060.41 158.621 1060.3 158.28 1060.32 157.864L1060.32 157.857ZM1059.22 159.105C1059.14 159.119 1058.99 159.037 1058.99 159.01C1059.02 158.785 1059.07 158.566 1059.12 158.348C1059.12 158.314 1059.19 158.294 1059.28 158.226C1059.37 158.328 1059.42 158.355 1059.44 158.396C1059.56 158.744 1059.46 159.078 1059.22 159.112V159.105Z" fill="white" fill-opacity="0.5"/>
<path fill-rule="evenodd" clip-rule="evenodd" d="M1063.78 155.628C1063.27 155.744 1062.91 156.01 1062.72 156.535C1062.52 157.094 1062.76 157.523 1063.11 157.851C1063.42 158.137 1063.85 158.28 1064.25 158.491C1064.9 158.205 1065.22 157.844 1065.44 157.394C1066.02 156.133 1065.6 155.519 1064.21 155.594C1064.07 155.601 1063.92 155.594 1063.78 155.628ZM1064.34 156.249C1064.6 156.249 1064.84 156.705 1064.69 156.923C1064.57 157.094 1064.34 157.176 1064.22 157.257C1063.84 157.121 1063.7 156.767 1063.88 156.501C1063.97 156.364 1064.19 156.242 1064.34 156.249H1064.34Z" fill="white" fill-opacity="0.5"/>
<path fill-rule="evenodd" clip-rule="evenodd" d="M516.836 76.3198C516.576 78.7198 515.416 80.5998 514.086 82.3498C513.076 83.6798 512.196 85.1598 510.626 86.0198C510.116 86.2898 509.806 86.9798 509.486 87.5298C508.816 88.6998 508.196 89.8898 507.556 91.0798C505.926 94.1398 504.326 97.2298 502.666 100.27C499.776 105.57 496.406 110.56 492.476 115.15C492.106 115.58 491.736 116.01 491.426 116.49C490.806 117.45 489.896 117.69 488.846 117.61C488.496 117.58 488.146 117.5 487.816 117.39C486.286 116.87 485.736 116.04 486.116 114.48C486.486 112.97 486.906 111.45 487.906 110.2C490.216 107.33 492.406 104.36 494.896 101.66C497.786 98.5298 500.446 95.2298 503.026 91.8598C504.446 89.9998 505.886 88.1598 507.396 86.3698C508.266 85.3398 508.736 84.1998 508.706 82.8698C508.656 81.0898 509.166 79.5298 510.256 78.1298C510.516 77.7998 510.736 77.4298 510.936 77.0498C511.796 75.4598 513.296 75.1598 514.886 75.1198C515.776 75.0898 515.796 75.1898 516.836 76.3198ZM502.886 95.7898C502.786 95.7298 502.676 95.6698 502.576 95.6098C502.226 96.0398 501.856 96.4498 501.536 96.8998C500.226 98.7498 498.756 100.47 497.146 102.08C496.446 102.78 495.786 103.52 495.166 104.29C493.436 106.44 491.716 108.6 490.036 110.78C489.216 111.85 488.566 113.03 488.286 114.38C488.206 114.75 488.286 115.13 488.666 115.26C488.976 115.36 489.436 115.45 489.666 115.29C490.116 114.98 490.486 114.53 490.836 114.09C491.576 113.15 492.266 112.16 493.016 111.22C495.076 108.61 497.176 106.04 498.816 103.13C500.106 100.85 501.446 98.6098 502.756 96.3398C502.846 96.1798 502.846 95.9698 502.876 95.7798L502.886 95.7898ZM514.826 76.5398C513.046 76.6298 511.946 77.3598 511.486 79.0198C511.246 79.8898 510.836 80.7098 510.586 81.5798C510.486 81.9198 510.606 82.3298 510.636 82.7498C511.836 82.3298 512.946 81.5698 513.536 80.6298C514.266 79.4498 515.126 78.2898 514.836 76.5398H514.826Z" fill="white" fill-opacity="0.5"/>
<path fill-rule="evenodd" clip-rule="evenodd" d="M609.976 101.19C606.306 96.5498 603.446 91.4298 600.876 86.1298C599.306 82.8898 597.676 79.6798 596.046 76.4698C595.446 75.2998 594.706 74.3098 593.586 73.4598C592.456 72.6098 591.566 71.2998 590.906 70.0098C590.106 68.4598 589.636 66.7398 589.096 65.0598C588.946 64.5898 588.996 64.0298 589.056 63.5298C589.236 62.2398 590.596 61.5898 591.726 62.2798C592.156 62.5398 592.546 62.9098 592.856 63.3098C593.726 64.3998 594.526 65.5498 595.396 66.6398C596.166 67.6098 596.486 68.7098 596.516 69.9098C596.536 70.4998 596.546 71.0898 596.576 71.6698C596.626 72.5698 596.916 73.3698 597.476 74.1098C600.946 78.6798 604.366 83.2798 607.846 87.8398C608.646 88.8898 609.676 89.7598 610.496 90.7898C612.746 93.5998 614.936 96.4598 617.146 99.2998C618.256 100.73 618.746 102.43 619.206 104.13C619.316 104.54 619.246 105.01 619.256 105.44C619.266 106.01 618.986 106.41 618.526 106.71C617.416 107.46 616.196 107.65 614.956 107.25C614.516 107.11 614.106 106.69 613.816 106.3C612.516 104.61 611.266 102.88 609.986 101.17L609.976 101.19ZM602.216 84.0398C602.336 85.2498 602.906 85.8698 603.246 86.5498C605.016 90.0898 606.966 93.5398 609.226 96.7898C611.026 99.3798 612.956 101.87 614.836 104.4C614.966 104.57 615.086 104.77 615.246 104.91C615.606 105.25 616.026 105.24 616.466 105.07C616.976 104.87 617.136 104.43 616.966 104C616.466 102.79 616.066 101.47 615.306 100.44C612.966 97.2598 610.766 93.9498 608.026 91.0698C606.406 89.3698 604.876 87.5998 603.586 85.6198C603.276 85.1498 602.846 84.7598 602.216 84.0498V84.0398ZM590.836 63.7698C590.616 64.1098 590.546 64.1698 590.546 64.2298C590.656 66.9698 591.676 69.3398 593.496 71.3698C593.776 71.6798 594.436 71.4698 594.566 71.0198C594.936 69.7598 594.846 68.5598 594.026 67.4698C593.316 66.5298 592.636 65.5698 591.896 64.6598C591.646 64.3498 591.266 64.1298 590.836 63.7698Z" fill="white" fill-opacity="0.5"/>
<path fill-rule="evenodd" clip-rule="evenodd" d="M584.666 97.1298C585.896 101.09 587.196 105.02 588.346 109C589.176 111.88 589.286 114.88 589.536 117.85C589.606 118.73 589.756 119.52 590.196 120.33C591.596 122.92 591.476 125.62 590.416 128.29C590.156 128.94 589.636 129.52 589.126 130.02C588.096 131.04 587.016 132.02 585.916 132.96C584.876 133.85 583.796 134.67 582.496 135.25C580.986 135.92 579.606 136.9 578.196 137.8C575.126 139.77 571.916 141.42 568.476 142.63C566.006 143.5 563.566 144.46 561.166 145.5C559.196 146.35 557.116 146.72 555.056 147C553.516 147.21 551.886 146.86 550.296 146.7C549.216 146.59 548.156 146.29 547.076 146.22C545.776 146.13 544.796 145.33 543.686 144.84C543.346 144.69 543.036 144.2 542.946 143.82C542.436 141.69 540.986 140.12 539.826 138.38C536.796 133.83 534.176 129.07 531.856 124.12C530.466 121.16 529.026 118.22 527.606 115.28C527.486 115.02 527.406 114.7 527.216 114.5C526.076 113.3 525.906 111.62 525.156 110.24C524.886 109.74 524.716 109.14 524.706 108.57C524.676 107.32 524.496 106.12 524.056 104.94C523.886 104.49 523.846 103.9 523.966 103.44C524.226 102.45 524.456 101.5 524.226 100.47C524.156 100.17 524.386 99.7698 524.546 99.4498C525.386 97.7398 526.416 96.1398 527.966 94.9898C530.406 93.1598 532.836 91.2998 535.396 89.6398C537.646 88.1798 540.016 86.8698 542.426 85.6898C545.096 84.3798 547.856 83.2298 550.626 82.1298C553.936 80.8098 557.206 79.3898 560.676 78.4898C563.356 77.7898 566.076 77.3098 568.836 77.2198C572.326 77.0998 575.206 78.4698 577.436 81.1398C577.986 81.7898 578.296 82.6398 578.706 83.4098C579.186 84.2998 579.686 85.1798 580.146 86.0798C580.546 86.8498 580.976 87.6198 581.276 88.4398C582.366 91.3698 583.416 94.3098 584.476 97.2498C584.546 97.2298 584.616 97.1998 584.696 97.1798L584.666 97.1298ZM578.076 86.5398C577.496 86.4598 577.086 86.7098 576.866 87.2298C576.126 88.9498 574.836 90.2498 573.476 91.4398C572.006 92.7198 570.666 94.1498 569.046 95.2798C567.966 96.0298 566.846 96.6898 565.706 97.3098C563.286 98.6298 560.816 99.8798 558.316 101.03C556.266 101.96 554.136 102.69 552.046 103.53C547.596 105.31 543.176 107.16 538.396 107.98C534.936 108.57 531.486 108.93 527.996 108.32C527.446 108.22 526.876 108.2 526.276 108.15C526.696 110.23 527.106 110.67 528.836 110.95C529.336 111.03 529.846 111.06 530.356 111.06C532.256 111.06 534.106 110.71 535.946 110.27C537.076 110 538.216 109.8 539.346 109.53C541.736 108.96 544.126 108.37 546.516 107.79C546.586 107.77 546.656 107.74 546.726 107.71C548.286 107.1 549.886 106.59 551.386 105.88C555.506 103.92 560.026 102.92 563.906 100.36C565.836 99.0898 567.836 97.9498 569.666 96.5198C571.336 95.2198 572.756 93.6798 574.266 92.2198C576.256 90.2798 577.176 88.8198 578.056 86.5498C577.926 86.3898 577.786 86.2198 577.656 86.0598C577.616 86.1098 577.586 86.1498 577.546 86.1998C577.716 86.3198 577.886 86.4298 578.056 86.5498L578.076 86.5398ZM550.946 101.58C550.946 101.58 550.926 101.53 550.916 101.51C551.796 101.17 552.676 100.82 553.556 100.47C557.396 98.9298 561.206 97.3198 564.836 95.2998C568.246 93.4098 571.186 90.9598 573.626 87.9298C574.346 87.0398 574.956 86.0098 575.416 84.9598C576.186 83.1798 575.676 81.6798 574.096 80.5998C573.126 79.9398 572.066 79.4898 570.916 79.2198C569.326 78.8398 567.756 79.0498 566.156 79.1698C562.856 79.4098 559.736 80.2398 556.686 81.4898C553.726 82.6998 550.716 83.7698 547.756 84.9798C545.806 85.7698 543.886 86.6398 541.996 87.5698C539.266 88.9198 536.576 90.3598 533.886 91.7798C533.446 92.0098 532.996 92.2998 532.666 92.6698C531.356 94.1298 529.916 95.4598 528.426 96.7298C527.876 97.1998 527.396 97.7498 526.936 98.3098C526.666 98.6398 526.446 99.0398 526.336 99.4398C526.116 100.2 525.956 100.99 525.836 101.78C525.466 104.14 526.606 105.68 528.986 106.06C529.776 106.18 530.576 106.26 531.366 106.26C535.316 106.26 539.186 105.67 542.926 104.42C545.616 103.52 548.266 102.53 550.936 101.58H550.946ZM579.586 89.3098C578.486 90.2431 577.959 91.2765 578.006 92.4098C578.026 92.8498 578.026 93.2798 578.006 93.7198C577.936 96.1098 577.776 98.5098 577.796 100.9C577.836 105.04 577.996 109.17 578.106 113.31C578.106 113.67 578.096 114.05 578.186 114.39C578.316 114.87 578.466 115.37 578.736 115.77C580.076 117.67 581.446 119.54 582.846 121.4C583.676 122.5 584.686 123.41 586.006 124.07C586.756 123 587.496 122 587.346 120.68C587.026 117.79 586.706 114.9 586.326 112.02C585.716 107.45 584.166 103.13 582.786 98.7598C581.866 95.8498 580.536 93.0798 579.926 90.0598C579.876 89.8098 579.696 89.5798 579.566 89.3198L579.586 89.3098ZM529.906 113.24C530.116 113.59 530.216 113.86 530.396 114.05C531.886 115.64 533.396 117.21 534.876 118.8C535.666 119.65 536.446 120.51 537.206 121.39C539.016 123.47 540.806 125.57 542.626 127.63C542.926 127.98 543.366 128.21 543.986 128.67C544.056 128.23 544.106 128.02 544.126 127.81C544.616 123.55 545.116 119.29 545.596 115.03C545.666 114.38 545.656 113.73 545.666 113.07C545.676 112.09 545.336 111.24 544.636 110.37C539.826 111.55 534.936 112.38 529.896 113.23L529.906 113.24ZM563.196 134.16C563.526 133.34 563.746 132.96 563.836 132.56C564.156 130.99 564.416 129.42 564.716 127.85C565.066 125.99 565.406 124.14 565.776 122.28C565.956 121.37 565.766 120.62 565.136 119.88C564.056 118.61 563.106 117.23 562.106 115.9C561.626 115.26 561.186 114.58 560.616 114.02C559.456 112.87 558.636 111.53 558.076 110.01C557.996 109.78 557.776 109.6 557.616 109.39C557.406 109.57 557.246 109.64 557.216 109.75C557.136 110.02 557.066 110.31 557.066 110.6C557.066 113.21 557.366 115.83 556.526 118.38C556.506 118.45 556.506 118.53 556.526 118.6C556.716 119.85 556.416 121.06 556.116 122.26C555.776 123.62 555.886 124.85 556.986 125.85C557.196 126.04 557.346 126.31 557.546 126.52C558.946 128.02 560.056 129.71 561.116 131.45C561.636 132.3 562.336 133.05 563.216 134.18L563.196 134.16ZM553.806 138.65C553.726 134.13 553.496 130.07 553.966 126.04C554.056 125.25 553.726 124.62 553.326 124.02C552.196 122.34 551.076 120.64 549.896 119C549.096 117.89 548.416 116.68 547.296 115.81C546.646 116.39 546.766 117.16 546.696 117.86C546.336 121.46 546.066 125.07 545.596 128.66C545.436 129.9 545.746 130.75 546.566 131.57C547.946 132.95 549.266 134.4 550.656 135.78C551.566 136.69 552.556 137.52 553.816 138.66L553.806 138.65ZM568.906 107.19C568.776 107.68 568.686 107.88 568.666 108.09C568.426 111.78 568.196 115.47 567.986 119.17C567.956 119.75 568.066 120.26 568.436 120.79C570.326 123.53 572.186 126.3 574.246 128.92C574.576 129.34 574.856 129.94 575.566 129.88C576.196 127.51 576.356 120.1 575.886 115.76C573.586 112.94 571.346 110.2 568.906 107.2V107.19ZM544.296 143.15C545.226 143.54 546.066 144.06 546.956 144.22C548.946 144.59 550.976 144.79 552.986 145.02C553.626 145.09 554.306 145.17 554.926 145.02C557.396 144.46 559.866 143.9 562.206 142.89C563.206 142.46 564.256 142.14 565.236 141.66C568.286 140.17 571.736 139.53 574.486 137.37C574.546 137.33 574.616 137.3 574.686 137.28C575.706 136.9 576.616 136.34 577.546 135.76C578.826 134.96 580.276 134.43 581.386 133.35C581.486 133.25 581.636 133.2 581.776 133.16C582.796 132.88 583.516 132.14 584.276 131.47C585.136 130.7 585.986 129.91 586.846 129.14C588.266 127.86 588.846 126.17 589.136 124.35C589.176 124.11 588.986 123.83 588.836 123.34C588.466 123.85 588.186 124.15 587.996 124.5C586.786 126.69 585.326 128.63 583.066 129.87C582.186 130.35 581.426 131.06 580.586 131.63C578.806 132.87 577.026 134.12 575.216 135.3C573.806 136.21 572.266 136.86 570.646 137.31C568.976 137.78 567.286 138.23 565.636 138.77C562.606 139.76 559.756 141.3 556.596 141.94C556.386 141.98 556.186 142.09 556.006 142.2C555.246 142.7 554.466 142.91 553.526 142.67C553.066 142.55 552.526 142.74 552.016 142.77C549.746 142.91 547.516 142.82 545.436 141.74C545.116 141.57 544.786 141.41 544.436 141.3C544.126 141.21 543.766 140.97 543.466 141.49C543.736 142.03 544.026 142.6 544.296 143.14V143.15ZM575.916 112.68C575.956 111.37 575.986 110.58 575.996 109.79C576.066 105.52 575.836 101.25 576.506 96.9998C576.666 96.0098 576.636 94.9798 576.646 93.9598C576.646 93.7298 576.476 93.4898 576.336 93.1298C575.886 93.5598 575.546 93.8298 575.266 94.1498C573.866 95.7998 572.326 97.3098 570.536 98.5498C570.236 98.7598 569.956 98.9798 569.676 99.1998C568.996 99.7498 568.686 100.43 568.946 101.31C569.026 101.59 569.046 101.89 569.136 102.15C569.936 104.32 570.556 106.57 572.286 108.27C572.846 108.82 573.236 109.55 573.736 110.16C574.326 110.88 574.956 111.57 575.916 112.66V112.68ZM558.346 105.46C558.886 106.85 559.406 108.11 559.886 109.38C560.296 110.48 560.946 111.43 561.676 112.33C562.586 113.45 563.436 114.63 564.326 115.77C564.796 116.38 565.156 117.13 565.946 117.46C566.806 114.77 567.196 104.1 566.516 101.51C565.906 101.75 565.196 101.85 564.736 102.24C563.316 103.45 561.566 103.95 559.916 104.66C559.396 104.88 558.916 105.17 558.346 105.46ZM556.176 106.31C555.616 106.43 555.326 106.46 555.076 106.56C552.456 107.62 549.836 108.7 547.216 109.78C547.096 109.83 547.036 109.99 546.876 110.18C546.906 110.39 546.876 110.7 546.986 110.93C547.436 111.84 547.856 112.78 548.436 113.6C550.196 116.09 552.036 118.52 553.846 120.97C553.966 121.13 554.146 121.25 554.486 121.54C555.016 118.54 555.446 115.91 555.586 113.23C555.596 113.02 555.526 112.8 555.496 112.58C555.316 110.99 555.256 109.41 555.876 107.87C556.036 107.48 556.036 107.03 556.156 106.29L556.176 106.31ZM567.636 123.32C567.136 124.75 566.846 125.77 566.686 126.85C566.236 129.86 565.966 132.91 564.716 135.75C564.646 135.91 564.746 136.14 564.766 136.33C564.956 136.35 565.106 136.42 565.236 136.39C567.266 135.85 569.316 135.35 571.326 134.73C572.436 134.39 573.476 133.86 574.536 133.38C574.706 133.3 574.826 133.08 575.036 132.84C572.296 130.01 570.016 126.86 567.636 123.31V123.32ZM531.706 118.2C532.026 119.53 535.356 126.73 536.966 129.65C538.486 132.41 541.506 136.96 542.486 137.94C542.976 135.7 543.536 133.56 543.546 131.34C541.566 129.15 539.646 126.99 537.696 124.86C535.716 122.69 534.086 120.2 531.716 118.21L531.706 118.2ZM555.586 127.7C555.196 128.8 555.166 129.87 555.166 130.95C555.166 132.84 555.166 134.72 555.146 136.6C555.136 137.6 555.156 138.59 555.386 139.54C557.516 139.51 560.486 138.58 562.736 137.23C560.556 134.17 558.386 131.12 556.206 128.08C556.096 127.93 555.866 127.86 555.606 127.7H555.586ZM584.516 126.14C583.886 125.37 583.476 124.66 582.876 124.18C582.066 123.52 581.466 122.73 580.856 121.92C580.116 120.94 579.376 119.97 578.376 118.65C578.326 122.88 578.286 126.68 578.246 130.52C578.526 130.49 578.786 130.55 578.936 130.44C580.786 129.17 582.556 127.79 584.526 126.15L584.516 126.14ZM543.986 138.87C546.216 140.45 548.466 141.32 551.066 140.88C551.436 140.82 551.776 140.56 552.326 140.29C549.796 137.86 547.766 135.22 545.056 133.06C544.696 135.05 544.356 136.89 543.996 138.86L543.986 138.87Z" fill="white" fill-opacity="0.5"/>
<path fill-rule="evenodd" clip-rule="evenodd" d="M545.316 89.4398C545.316 89.5798 545.376 89.7498 545.316 89.8498C545.096 90.2198 544.876 90.6098 544.586 90.9198C542.696 92.9698 541.376 95.3798 540.116 97.8398C539.766 98.5298 539.166 99.0998 538.636 99.6898C538.536 99.7998 538.196 99.7998 538.046 99.7098C537.896 99.6298 537.786 99.3698 537.766 99.1798C537.746 98.9798 537.806 98.7298 537.906 98.5598C539.126 96.4998 540.286 94.3998 541.616 92.4098C542.326 91.3398 543.306 90.4398 544.196 89.4898C544.366 89.3098 544.696 89.2498 544.976 89.1898C545.066 89.1698 545.196 89.3398 545.306 89.4198L545.316 89.4398Z" fill="white" fill-opacity="0.5"/>
<path fill-rule="evenodd" clip-rule="evenodd" d="M546.216 95.5798C545.926 95.3298 545.596 95.1698 545.466 94.9098C545.356 94.6898 545.386 94.3198 545.496 94.0898C546.226 92.5198 547.206 91.1098 548.366 89.8298C548.476 89.6998 548.846 89.6098 548.916 89.6798C549.086 89.8498 549.206 90.1198 549.246 90.3598C549.276 90.5498 549.186 90.7898 549.086 90.9698C548.426 92.2298 547.756 93.4998 547.046 94.7398C546.876 95.0298 546.556 95.2398 546.206 95.5798H546.216Z" fill="white" fill-opacity="0.5"/>
<path fill-rule="evenodd" clip-rule="evenodd" d="M555.246 88.3398C555.536 88.9198 555.766 89.1598 555.746 89.3798C555.636 90.8298 554.936 91.9498 553.686 92.6998C553.536 92.7898 553.176 92.7798 553.096 92.6798C552.946 92.4798 552.926 92.1798 552.866 91.9198C552.856 91.8698 552.906 91.7698 552.956 91.7298C553.956 90.8998 554.636 89.8298 555.246 88.3398Z" fill="white" fill-opacity="0.5"/>
<path fill-rule="evenodd" clip-rule="evenodd" d="M1185.49 217.079C1186.13 213.949 1186.65 211.149 1187.28 208.369C1187.91 205.599 1188.65 202.849 1189.35 200.019C1188.28 199.649 1187.25 199.429 1186.35 198.949C1185.52 198.509 1184.91 197.679 1184.1 197.209C1181.5 195.729 1179.27 193.799 1177.15 191.729C1176.97 191.549 1176.67 191.499 1176.23 191.309C1175.84 192.589 1176.05 193.799 1176.05 194.999C1176.05 196.239 1176.11 197.479 1176.1 198.719C1176.1 199.869 1176.03 201.009 1176.02 202.149C1176.01 203.389 1176.07 204.629 1176.03 205.869C1175.99 207.089 1175.87 208.319 1175.79 209.499C1173.96 210.309 1172.32 211.039 1170.67 211.759C1169.69 212.189 1168.66 212.349 1167.59 212.199C1165.41 211.889 1164.36 209.849 1165.41 207.949C1165.69 207.449 1166.06 207.009 1166.38 206.529C1167.09 205.449 1168.14 205.039 1169.35 205.189C1170.56 205.329 1171.75 205.649 1172.99 205.899C1173.6 205.599 1173.45 204.959 1173.45 204.429C1173.47 200.709 1173.43 196.979 1173.47 193.259C1173.49 191.449 1173.59 189.629 1173.74 187.829C1173.84 186.679 1174.09 185.579 1173.21 184.569C1173.01 184.339 1173.09 183.569 1173.33 183.309C1173.58 183.039 1174.19 182.959 1174.62 183.019C1175.06 183.079 1175.53 183.339 1175.87 183.629C1177.46 184.989 1179.04 186.369 1180.59 187.779C1183.13 190.099 1185.86 192.199 1188.77 194.029C1189.86 194.719 1191.22 194.969 1192.73 195.529C1193.38 196.619 1193.18 197.999 1192.73 199.379C1191.07 204.469 1189.61 209.589 1189.51 215.009C1189.48 216.709 1189.1 218.409 1188.88 220.109C1188.75 221.069 1188.18 221.739 1187.29 221.929C1185.03 222.419 1182.72 222.419 1180.48 221.929C1178.87 221.569 1178.02 219.579 1178.61 218.019C1179.39 215.969 1181.21 215.179 1183.23 216.029C1183.92 216.319 1184.59 216.669 1185.5 217.089L1185.49 217.079Z" fill="white" fill-opacity="0.5"/>
<g clip-path="url(#clip0_26_5)">
<path fill-rule="evenodd" clip-rule="evenodd" d="M1255.64 212.53C1254.69 211.98 1254.19 211.05 1253.69 210.17C1252.26 207.68 1249.95 207.12 1247.43 207.5C1245.57 207.78 1243.68 208.34 1241.97 209.14C1239.89 210.12 1237.86 210.96 1235.52 210.83C1235.38 210.83 1235.22 210.97 1235 211.08C1235.12 211.39 1235.18 211.76 1235.38 212.01C1238.44 215.99 1241.29 220.15 1244.75 223.82C1246.83 226.03 1248.91 228.23 1251.03 230.4C1251.94 231.34 1252.18 232.55 1252.31 233.7C1252.39 234.42 1252.56 235.01 1252.9 235.61C1253.98 237.51 1254.81 239.5 1255.15 241.67C1255.18 241.84 1255.25 242 1255.27 242.17C1255.49 244.01 1255.15 245.72 1253.49 246.74C1251.85 247.75 1250.13 247.35 1248.57 246.38C1248.15 246.12 1247.76 245.71 1247.5 245.28C1245.98 242.72 1244.89 240 1244.42 237.05C1244.31 236.37 1244.32 235.67 1244.35 234.98C1244.43 233.21 1245 231.75 1246.88 231.16C1247.04 231.11 1247.19 231 1247.33 230.9C1247.39 230.85 1247.41 230.76 1247.56 230.5C1247.34 230.18 1247.1 229.75 1246.78 229.38C1246.16 228.66 1245.52 227.94 1244.85 227.27C1240.23 222.65 1236.58 217.25 1232.7 212.03C1231.11 209.89 1229.97 207.42 1229.14 204.84C1229.04 204.52 1228.97 204.16 1229.01 203.83C1229.04 203.63 1229.27 203.37 1229.47 203.31C1229.67 203.25 1230.05 203.31 1230.15 203.47C1230.39 203.81 1230.49 204.25 1230.69 204.62C1231.18 205.56 1231.98 206.08 1233.02 205.86C1234.2 205.61 1235.43 205.36 1236.47 204.8C1239.88 202.93 1243.54 201.9 1247.3 201.23C1248.9 200.94 1250.58 200.96 1252.21 201.08C1254.25 201.24 1255.79 202.31 1256.56 204.29C1256.87 205.09 1257.17 205.91 1257.35 206.75C1257.72 208.52 1257.59 210.2 1256.26 211.61C1256.03 211.86 1255.87 212.18 1255.64 212.52V212.53ZM1233.6 207.9C1234.45 208.79 1235.41 208.97 1236.35 208.85C1237.37 208.72 1238.43 208.49 1239.33 208.04C1241.6 206.9 1244.01 206.15 1246.47 205.65C1249.57 205.02 1252.53 205.34 1254.72 208.07C1254.87 208.25 1255.15 208.33 1255.39 208.46C1255.63 206.34 1255.35 205.3 1254.34 204.17C1253.39 203.1 1252.15 202.91 1250.81 202.85C1247.44 202.7 1244.3 203.76 1241.2 204.82C1238.67 205.68 1236.25 206.83 1233.62 207.91L1233.6 207.9ZM1249.54 233.52C1247.24 233.24 1246.9 233.44 1246.58 235.34C1246.48 235.93 1246.37 236.57 1246.5 237.13C1247.02 239.4 1247.75 241.61 1248.89 243.65C1249.39 244.55 1250.21 244.97 1251.21 245.08C1251.96 245.16 1252.67 244.77 1252.77 244.04C1252.9 243.12 1253.08 242.11 1252.84 241.25C1252.08 238.51 1250.91 235.93 1249.54 233.51V233.52Z" fill="white" fill-opacity="0.5"/>
</g>
<path fill-rule="evenodd" clip-rule="evenodd" d="M1239.63 161.863C1239 156.903 1238.4 152.133 1237.77 147.153C1234.43 148.423 1231.43 150.143 1228.41 151.823C1225.42 153.483 1222.34 154.993 1219.13 156.663C1219.17 157.113 1219.22 157.643 1219.28 158.163C1219.76 162.693 1220.66 167.133 1222.05 171.473C1222.4 172.573 1222.28 173.683 1221.98 174.763C1221.63 176.013 1221.18 177.243 1220.86 178.493C1220.37 180.413 1219.13 181.733 1217.55 182.783C1215.06 184.443 1211.31 182.573 1211.04 179.573C1210.79 176.823 1211.6 174.463 1213.57 172.493C1215.65 170.413 1215.63 170.403 1218.84 169.443C1218.76 169.023 1218.74 168.573 1218.6 168.163C1217.03 163.473 1216.6 158.543 1215.73 153.713C1215.39 151.823 1215.56 149.833 1215.52 147.883C1215.52 147.513 1215.55 147.133 1215.65 146.783C1215.87 145.983 1216.52 145.473 1217.3 146.083C1217.58 146.303 1217.89 146.493 1218.28 146.763C1218.96 146.433 1219.64 146.153 1220.27 145.793C1223.56 143.873 1226.99 142.243 1230.59 140.953C1232.42 140.293 1234.15 139.383 1235.94 138.623C1236.53 138.373 1237.15 138.153 1237.78 138.043C1238.94 137.843 1239.51 138.333 1239.59 139.543C1239.73 141.763 1239.73 144.003 1239.97 146.213C1240.51 151.093 1241.14 155.973 1241.77 160.843C1241.92 162.033 1242.19 163.173 1242.83 164.263C1243.79 165.923 1243.53 167.483 1242.29 169.093C1241.02 170.753 1239.66 172.153 1237.76 173.073C1236.41 173.723 1235.06 173.713 1233.7 173.363C1233.22 173.243 1232.7 172.823 1232.44 172.393C1231.58 170.943 1231.4 169.433 1232.44 167.943C1232.76 167.483 1233.08 167.023 1233.33 166.533C1234.4 164.423 1236.07 163.063 1238.32 162.403C1238.67 162.303 1239 162.133 1239.62 161.873L1239.63 161.863ZM1237.36 140.823C1230.6 143.213 1224.26 145.953 1218.24 149.423C1218 151.843 1218.08 152.583 1218.91 154.573C1221.61 153.153 1224.3 151.743 1226.99 150.313C1229.52 148.973 1232.01 147.543 1234.57 146.263C1236.97 145.063 1237.73 143.753 1237.36 140.833V140.823ZM1213.18 178.073C1213.19 178.353 1213.2 178.623 1213.23 178.903C1213.34 180.043 1213.96 180.553 1215.08 180.353C1216.33 180.133 1217.22 179.383 1217.94 178.373C1218.71 177.283 1218.96 176.013 1219.22 174.763C1219.53 173.283 1218.34 172.273 1216.89 172.713C1215.11 173.243 1213.23 175.973 1213.19 178.083L1213.18 178.073ZM1239.14 164.613C1238.41 164.943 1237.65 165.253 1236.93 165.643C1235.9 166.203 1235.47 167.253 1235.07 168.263C1234.99 168.463 1235.12 168.813 1235.26 169.023C1236.32 170.543 1238.31 170.693 1239.49 169.293C1240.19 168.463 1240.73 167.513 1241.31 166.673C1240.58 165.313 1240.6 165.283 1239.14 164.613Z" fill="white" fill-opacity="0.5"/>
<path fill-rule="evenodd" clip-rule="evenodd" d="M1320.38 166.833C1321.01 163.713 1321.53 160.921 1322.16 158.15C1322.78 155.389 1323.52 152.647 1324.21 149.826C1323.15 149.457 1322.13 149.238 1321.23 148.759C1320.41 148.321 1319.8 147.493 1318.99 147.025C1316.41 145.549 1314.19 143.625 1312.08 141.562C1311.9 141.382 1311.6 141.333 1311.17 141.143C1310.78 142.419 1310.99 143.625 1310.99 144.822C1310.99 146.058 1311.05 147.294 1311.04 148.53C1311.04 149.676 1310.97 150.813 1310.96 151.949C1310.95 153.186 1311.01 154.422 1310.97 155.658C1310.93 156.874 1310.81 158.1 1310.73 159.277C1308.91 160.084 1307.28 160.812 1305.64 161.53C1304.66 161.958 1303.64 162.118 1302.58 161.968C1300.41 161.659 1299.36 159.625 1300.41 157.731C1300.69 157.233 1301.05 156.794 1301.37 156.316C1302.08 155.239 1303.12 154.83 1304.33 154.98C1305.53 155.119 1306.71 155.438 1307.95 155.688C1308.55 155.389 1308.4 154.751 1308.4 154.222C1308.42 150.514 1308.38 146.795 1308.42 143.087C1308.44 141.283 1308.54 139.468 1308.69 137.674C1308.79 136.527 1309.04 135.431 1308.16 134.424C1307.97 134.195 1308.04 133.427 1308.28 133.168C1308.53 132.899 1309.14 132.819 1309.57 132.879C1310 132.939 1310.47 133.198 1310.81 133.487C1312.39 134.843 1313.96 136.218 1315.5 137.624C1318.03 139.937 1320.74 142.03 1323.64 143.855C1324.72 144.542 1326.07 144.792 1327.57 145.35C1328.22 146.437 1328.02 147.812 1327.57 149.188C1325.92 154.262 1324.47 159.366 1324.37 164.769C1324.34 166.464 1323.96 168.159 1323.75 169.854C1323.62 170.811 1323.05 171.478 1322.17 171.668C1319.92 172.156 1317.62 172.156 1315.39 171.668C1313.79 171.309 1312.95 169.325 1313.53 167.77C1314.31 165.726 1316.12 164.939 1318.13 165.786C1318.81 166.075 1319.48 166.424 1320.39 166.843L1320.38 166.833Z" fill="white" fill-opacity="0.5"/>
<g clip-path="url(#clip1_26_5)">
<path fill-rule="evenodd" clip-rule="evenodd" d="M1390.13 162.298C1389.19 161.75 1388.69 160.823 1388.19 159.946C1386.77 157.463 1384.47 156.905 1381.97 157.284C1380.12 157.563 1378.24 158.121 1376.54 158.919C1374.47 159.896 1372.45 160.733 1370.12 160.604C1369.99 160.604 1369.83 160.743 1369.61 160.853C1369.73 161.162 1369.79 161.531 1369.99 161.78C1373.03 165.748 1375.86 169.895 1379.3 173.553C1381.37 175.756 1383.44 177.949 1385.55 180.113C1386.45 181.05 1386.69 182.256 1386.82 183.402C1386.9 184.12 1387.07 184.708 1387.41 185.307C1388.48 187.201 1389.31 189.184 1389.64 191.348C1389.67 191.517 1389.74 191.677 1389.76 191.846C1389.98 193.68 1389.64 195.385 1387.99 196.402C1386.36 197.409 1384.65 197.01 1383.1 196.043C1382.68 195.784 1382.3 195.375 1382.04 194.946C1380.53 192.394 1379.44 189.683 1378.97 186.742C1378.87 186.064 1378.87 185.366 1378.9 184.678C1378.98 182.914 1379.55 181.459 1381.42 180.87C1381.58 180.821 1381.73 180.711 1381.87 180.611C1381.93 180.561 1381.95 180.472 1382.1 180.212C1381.88 179.893 1381.64 179.465 1381.32 179.096C1380.7 178.378 1380.07 177.66 1379.4 176.992C1374.81 172.387 1371.18 167.004 1367.32 161.8C1365.74 159.666 1364.61 157.204 1363.78 154.632C1363.68 154.313 1363.61 153.954 1363.65 153.625C1363.68 153.426 1363.91 153.167 1364.11 153.107C1364.31 153.047 1364.69 153.107 1364.78 153.266C1365.02 153.605 1365.12 154.044 1365.32 154.413C1365.81 155.35 1366.6 155.868 1367.64 155.649C1368.81 155.4 1370.03 155.151 1371.07 154.592C1374.46 152.728 1378.1 151.701 1381.84 151.033C1383.43 150.744 1385.1 150.764 1386.72 150.884C1388.75 151.043 1390.28 152.11 1391.05 154.084C1391.35 154.881 1391.65 155.699 1391.83 156.536C1392.2 158.301 1392.07 159.976 1390.75 161.381C1390.52 161.63 1390.36 161.949 1390.13 162.288V162.298ZM1368.22 157.683C1369.06 158.57 1370.02 158.749 1370.95 158.63C1371.96 158.5 1373.02 158.271 1373.91 157.822C1376.17 156.686 1378.57 155.938 1381.01 155.44C1384.1 154.812 1387.04 155.131 1389.22 157.852C1389.37 158.032 1389.64 158.111 1389.88 158.241C1390.12 156.128 1389.84 155.091 1388.84 153.964C1387.89 152.898 1386.66 152.708 1385.33 152.648C1381.98 152.499 1378.86 153.556 1375.77 154.612C1373.26 155.47 1370.85 156.616 1368.24 157.693L1368.22 157.683ZM1384.07 183.223C1381.78 182.944 1381.44 183.143 1381.12 185.037C1381.02 185.626 1380.91 186.264 1381.04 186.822C1381.56 189.085 1382.29 191.288 1383.42 193.322C1383.92 194.219 1384.73 194.637 1385.73 194.747C1386.47 194.827 1387.18 194.438 1387.28 193.71C1387.41 192.793 1387.59 191.786 1387.35 190.929C1386.59 188.198 1385.43 185.626 1384.07 183.213V183.223Z" fill="white" fill-opacity="0.5"/>
</g>
<path fill-rule="evenodd" clip-rule="evenodd" d="M1374.21 111.789C1373.59 106.845 1372.99 102.089 1372.36 97.1249C1369.04 98.391 1366.06 100.106 1363.06 101.78C1360.08 103.435 1357.02 104.941 1353.83 106.605C1353.87 107.054 1353.92 107.582 1353.98 108.101C1354.46 112.617 1355.35 117.043 1356.73 121.369C1357.08 122.466 1356.96 123.572 1356.66 124.649C1356.32 125.895 1355.87 127.121 1355.55 128.367C1355.06 130.282 1353.83 131.597 1352.26 132.644C1349.78 134.299 1346.05 132.435 1345.79 129.444C1345.54 126.703 1346.34 124.35 1348.3 122.386C1350.37 120.313 1350.35 120.303 1353.54 119.346C1353.46 118.927 1353.44 118.478 1353.3 118.07C1351.74 113.394 1351.31 108.48 1350.45 103.665C1350.11 101.78 1350.28 99.7966 1350.24 97.8527C1350.24 97.4838 1350.27 97.105 1350.37 96.7561C1350.59 95.9586 1351.23 95.4501 1352.01 96.0583C1352.29 96.2776 1352.6 96.467 1352.98 96.7361C1353.66 96.4072 1354.34 96.128 1354.96 95.7692C1358.23 93.8551 1361.65 92.2302 1365.23 90.9442C1367.04 90.2863 1368.77 89.3791 1370.55 88.6214C1371.13 88.3722 1371.75 88.1529 1372.37 88.0433C1373.53 87.8439 1374.1 88.3324 1374.17 89.5386C1374.31 91.7517 1374.31 93.9847 1374.55 96.1878C1375.09 101.053 1375.72 105.917 1376.34 110.772C1376.49 111.959 1376.76 113.095 1377.4 114.182C1378.35 115.837 1378.09 117.392 1376.86 118.997C1375.6 120.652 1374.24 122.047 1372.35 122.964C1371.01 123.612 1369.67 123.602 1368.32 123.253C1367.84 123.134 1367.32 122.715 1367.06 122.286C1366.21 120.841 1366.03 119.336 1367.06 117.85C1367.38 117.392 1367.7 116.933 1367.95 116.445C1369.01 114.341 1370.67 112.985 1372.91 112.328C1373.26 112.228 1373.59 112.058 1374.2 111.799L1374.21 111.789ZM1371.96 90.8146C1365.24 93.1972 1358.93 95.9287 1352.94 99.3879C1352.71 101.8 1352.79 102.538 1353.61 104.522C1356.3 103.106 1358.97 101.701 1361.65 100.275C1364.16 98.9393 1366.64 97.5137 1369.18 96.2377C1371.57 95.0414 1372.33 93.7355 1371.96 90.8246V90.8146ZM1347.91 127.949C1347.92 128.228 1347.93 128.497 1347.96 128.776C1348.07 129.913 1348.69 130.421 1349.8 130.222C1351.05 130.002 1351.93 129.255 1352.65 128.248C1353.41 127.161 1353.66 125.895 1353.92 124.649C1354.23 123.174 1353.04 122.167 1351.6 122.605C1349.83 123.134 1347.96 125.855 1347.92 127.959L1347.91 127.949ZM1373.73 114.531C1373 114.86 1372.25 115.169 1371.53 115.557C1370.51 116.116 1370.08 117.162 1369.68 118.169C1369.6 118.369 1369.73 118.718 1369.87 118.927C1370.92 120.442 1372.9 120.592 1374.08 119.196C1374.77 118.369 1375.31 117.422 1375.88 116.584C1375.16 115.228 1375.18 115.199 1373.73 114.531Z" fill="white" fill-opacity="0.5"/>
<path fill-rule="evenodd" clip-rule="evenodd" d="M1246.2 61.5903C1245.85 60.1107 1245.58 58.8069 1245.25 57.5289C1244.81 55.8443 1244.76 54.1723 1245.2 52.4855C1245.49 51.4101 1245.77 50.3273 1245.94 49.2308C1246.12 47.9865 1246.71 47.0246 1247.6 46.188C1248.3 45.5306 1249.04 44.8956 1249.65 44.1546C1250.66 42.963 1252.01 42.6544 1253.42 42.5793C1255.26 42.486 1256.96 43.031 1258.36 44.2438C1259.9 45.575 1260.9 47.3134 1261.45 49.2688C1261.58 49.751 1261.52 50.2886 1261.51 50.8051C1261.5 51.096 1261.4 51.3857 1261.33 51.6709C1260.35 55.2691 1261.24 54.3936 1258.05 56.8598C1255.76 58.6304 1253.45 60.335 1250.86 61.6332C1250.28 61.9235 1249.75 62.3455 1249.1 62.7755C1249.36 63.4655 1249.58 64.0604 1249.76 64.5431C1250.06 64.6662 1250.2 64.7773 1250.33 64.767C1250.92 64.7315 1251.51 64.696 1252.1 64.6192C1254.1 64.373 1256.07 64.5579 1258.05 64.9758C1261.21 65.648 1263.53 67.5793 1265.33 70.0615C1266.72 71.9751 1266.99 74.3147 1266.67 76.6509C1266.18 80.2703 1264.66 83.422 1262.16 86.0943C1261.16 87.172 1260.15 88.2519 1258.96 89.5283C1259.01 90.1135 1259 90.9162 1259.13 91.7087C1259.37 93.2547 1259.4 94.7881 1259.24 96.3456C1259.06 98.1865 1258.97 100.036 1258.9 101.881C1258.8 104.485 1257.62 106.537 1255.75 108.263C1254.56 109.355 1253.22 110.297 1252.32 111.701C1251.95 112.28 1251.3 112.567 1250.57 112.38C1249.21 112.031 1247.84 111.685 1246.5 111.271C1245.24 110.88 1244.53 109.783 1243.71 108.857C1243.5 108.619 1243.46 108.155 1243.46 107.806C1243.51 106.385 1243.83 105.017 1244.51 103.767C1244.75 103.322 1245.11 102.907 1245.5 102.59C1246.4 101.834 1247.12 102.045 1247.91 102.958C1248.96 104.178 1248.8 105.389 1248.06 106.621C1247.73 107.181 1247.28 107.667 1246.93 108.119C1247.04 108.998 1247.62 109.137 1248.2 109.3C1248.88 109.489 1249.54 109.375 1250.12 109.021C1252.82 107.4 1254.68 105.041 1255.92 102.203C1256.35 101.208 1256.42 100.052 1256.57 98.9476C1256.74 97.7056 1256.87 96.451 1256.94 95.2028C1257.01 93.8818 1256.95 92.5591 1256.64 91.1528C1255.92 91.1087 1255.31 91.3234 1254.77 91.7065C1252.25 93.544 1249.24 94.0142 1246.32 93.8791C1242.71 93.7126 1239.26 92.84 1236.26 90.3607C1233.17 87.8001 1231.71 84.549 1231.24 80.807C1230.88 77.9836 1231.36 75.191 1233.46 72.9498C1233.91 72.4637 1234.32 71.9357 1234.69 71.3757C1236.99 67.9172 1240.04 65.2889 1243.64 63.2406C1244.47 62.7671 1245.24 62.2053 1246.2 61.5783L1246.2 61.5903ZM1256.28 87.9411C1256.27 87.6136 1256.31 87.4612 1256.27 87.3273C1254.17 80.8558 1252.02 74.3958 1249.06 68.2398C1248.95 68.0005 1248.71 67.8104 1248.55 67.6409C1246.5 68.2067 1245.37 69.6439 1244.58 71.36C1243.22 74.3101 1242.85 77.2933 1244.62 80.2576C1245.4 81.5735 1246.3 81.8552 1247.76 81.1817C1248 81.0758 1248.23 80.9796 1248.65 80.7987C1248.72 81.4909 1248.83 81.9897 1248.8 82.4792C1248.79 82.7289 1248.56 83.0484 1248.34 83.1738C1246.79 84.0717 1244.33 83.5816 1243.36 82.0739C1242.72 81.0948 1242.29 79.9731 1241.78 78.9132C1241.34 78.0292 1241.22 77.0912 1241.27 76.1144C1241.37 74.0055 1241.95 72.0197 1242.81 70.1324C1243.59 68.4501 1244.56 66.8651 1246.41 66.0904C1246.68 65.9753 1246.92 65.7869 1247.15 65.5985C1247.65 65.2028 1247.61 64.9451 1246.89 64.1298C1246.27 64.4802 1245.63 64.8255 1245 65.2C1241.74 67.1681 1238.84 69.5267 1236.62 72.6589C1236.11 73.3746 1235.6 74.1098 1235.02 74.7712C1233.54 76.4535 1233.25 78.4651 1233.43 80.5585C1233.52 81.5857 1233.79 82.6107 1234.12 83.5807C1234.73 85.3282 1235.47 87.0242 1237.16 88.0738C1237.59 88.3417 1237.93 88.766 1238.29 89.1325C1239.08 89.9536 1240.03 90.4906 1241.15 90.7414C1241.94 90.9246 1242.73 91.1296 1243.53 91.2911C1248.38 92.3262 1252.49 90.661 1256.27 87.9434L1256.28 87.9411ZM1258.63 86.4941C1259.73 85.2189 1260.64 84.254 1261.45 83.2102C1263.01 81.1992 1264.17 78.9763 1264.47 76.4094C1264.76 73.8956 1264.35 71.6705 1262.35 69.7461C1260.53 67.9962 1258.46 67.1088 1256.06 66.8403C1254.41 66.6525 1252.74 66.6875 1250.97 67.279C1252.01 69.4984 1252.99 71.5591 1253.96 73.6319C1254.9 75.6388 1255.13 77.888 1256.21 79.8629C1257.29 81.8377 1257.3 84.2489 1258.62 86.5061L1258.63 86.4941ZM1248.26 60.2315C1248.54 60.1456 1248.83 60.0964 1249.07 59.9687C1252.17 58.2336 1254.94 56.0405 1257.81 53.9969C1257.94 53.9064 1258.06 53.8256 1258.15 53.7031C1258.33 53.4752 1258.53 53.2427 1258.63 52.9822C1259.5 50.7845 1259.63 48.6785 1257.84 46.8199C1257.64 46.6109 1257.46 46.3756 1257.25 46.1689C1255.34 44.2748 1252.66 44.3006 1250.77 46.2343C1250.1 46.9163 1249.44 47.6154 1248.82 48.3369C1248.54 48.6604 1248.21 49.0343 1248.12 49.4357C1247.52 52.0737 1246.59 54.6974 1247.43 57.467C1247.71 58.3683 1247.57 59.3875 1248.25 60.2533L1248.26 60.2315Z" fill="white" fill-opacity="0.5"/>
<path fill-rule="evenodd" clip-rule="evenodd" d="M1305.98 226.05C1304.38 225.71 1303.75 224.48 1303.36 223.06C1303.24 222.64 1303.27 222.19 1303.18 221.76C1303.06 221.13 1302.68 220.81 1302.05 220.78C1301.94 220.78 1301.83 220.8 1301.72 220.8C1300.2 220.81 1298.66 220.94 1297.09 220.18C1297.07 220.72 1296.98 221.1 1297.06 221.43C1297.65 224 1297.92 226.6 1298.08 229.23C1298.15 230.37 1298.47 231.49 1298.68 232.61C1299.09 232.86 1299.45 233.09 1299.81 233.31C1299.83 233.51 1299.89 233.68 1299.86 233.83C1299.57 235.34 1299.07 236.79 1298.42 238.18C1298.26 238.53 1298.08 238.87 1297.91 239.21C1297.26 240.57 1296.37 241.697 1295.26 242.59C1294.85 242.92 1294.42 243.07 1293.89 242.89C1293.31 242.69 1292.91 242.32 1292.95 241.71C1293.01 240.79 1293.03 239.83 1293.29 238.96C1293.83 237.12 1294.54 235.33 1295.99 233.97C1296.35 233.64 1296.39 233.23 1296.34 232.77C1295.99 229.4 1295.74 226.01 1295.28 222.65C1294.96 220.36 1294.99 218.07 1294.84 215.78C1294.81 215.3 1294.71 214.81 1294.52 214.37C1294.26 213.79 1294.32 213.32 1294.72 212.86C1294.97 212.57 1295.21 212.28 1295.45 212C1296.37 212.22 1296.64 212.83 1296.87 213.52C1297.3 214.81 1297.78 216.08 1298.25 217.35C1298.34 217.6 1298.49 217.83 1298.66 218.15C1299.64 218.18 1300.61 218.2 1301.58 218.23C1302.02 218.24 1302.46 218.23 1302.89 218.28C1304.15 218.42 1305.05 219.07 1305.42 220.3C1305.69 221.18 1305.9 222.09 1306.05 223.01C1306.15 223.59 1306.14 224.17 1306.42 224.74C1306.63 225.16 1306.53 225.72 1305.96 226.05H1305.98Z" fill="white" fill-opacity="0.5"/>
<path fill-rule="evenodd" clip-rule="evenodd" d="M206.51 217.079C205.87 213.949 205.35 211.149 204.72 208.369C204.09 205.599 203.35 202.849 202.65 200.019C203.72 199.649 204.75 199.429 205.65 198.949C206.48 198.509 207.09 197.679 207.9 197.209C210.5 195.729 212.73 193.799 214.85 191.729C215.03 191.549 215.33 191.499 215.77 191.309C216.16 192.589 215.95 193.799 215.95 194.999C215.95 196.239 215.89 197.479 215.9 198.719C215.9 199.869 215.97 201.009 215.98 202.149C215.99 203.389 215.93 204.629 215.97 205.869C216.01 207.089 216.13 208.319 216.21 209.499C218.04 210.309 219.68 211.039 221.33 211.759C222.31 212.189 223.34 212.349 224.41 212.199C226.59 211.889 227.64 209.849 226.59 207.949C226.31 207.449 225.94 207.009 225.62 206.529C224.91 205.449 223.86 205.039 222.65 205.189C221.44 205.329 220.25 205.649 219.01 205.899C218.4 205.599 218.55 204.959 218.55 204.429C218.53 200.709 218.57 196.979 218.53 193.259C218.51 191.449 218.41 189.629 218.26 187.829C218.16 186.679 217.91 185.579 218.79 184.569C218.99 184.339 218.91 183.569 218.67 183.309C218.42 183.039 217.81 182.959 217.38 183.019C216.94 183.079 216.47 183.339 216.13 183.629C214.54 184.989 212.96 186.369 211.41 187.779C208.87 190.099 206.14 192.199 203.23 194.029C202.14 194.719 200.78 194.969 199.27 195.529C198.62 196.619 198.82 197.999 199.27 199.379C200.93 204.469 202.39 209.589 202.49 215.009C202.52 216.709 202.9 218.409 203.12 220.109C203.25 221.069 203.82 221.739 204.71 221.929C206.97 222.419 209.28 222.419 211.52 221.929C213.13 221.569 213.98 219.579 213.39 218.019C212.61 215.969 210.79 215.179 208.77 216.029C208.08 216.319 207.41 216.669 206.5 217.089L206.51 217.079Z" fill="white" fill-opacity="0.5"/>
<g clip-path="url(#clip2_26_5)">
<path fill-rule="evenodd" clip-rule="evenodd" d="M136.36 212.53C137.31 211.98 137.81 211.05 138.31 210.17C139.74 207.68 142.05 207.12 144.57 207.5C146.43 207.78 148.32 208.34 150.03 209.14C152.11 210.12 154.14 210.96 156.48 210.83C156.62 210.83 156.78 210.97 157 211.08C156.88 211.39 156.82 211.76 156.62 212.01C153.56 215.99 150.71 220.15 147.25 223.82C145.17 226.03 143.09 228.23 140.97 230.4C140.06 231.34 139.82 232.55 139.69 233.7C139.61 234.42 139.44 235.01 139.1 235.61C138.02 237.51 137.19 239.5 136.85 241.67C136.82 241.84 136.75 242 136.73 242.17C136.51 244.01 136.85 245.72 138.51 246.74C140.15 247.75 141.87 247.35 143.43 246.38C143.85 246.12 144.24 245.71 144.5 245.28C146.02 242.72 147.11 240 147.58 237.05C147.69 236.37 147.68 235.67 147.65 234.98C147.57 233.21 147 231.75 145.12 231.16C144.96 231.11 144.81 231 144.67 230.9C144.61 230.85 144.59 230.76 144.44 230.5C144.66 230.18 144.9 229.75 145.22 229.38C145.84 228.66 146.48 227.94 147.15 227.27C151.77 222.65 155.42 217.25 159.3 212.03C160.89 209.89 162.03 207.42 162.86 204.84C162.96 204.52 163.03 204.16 162.99 203.83C162.96 203.63 162.73 203.37 162.53 203.31C162.33 203.25 161.95 203.31 161.85 203.47C161.61 203.81 161.51 204.25 161.31 204.62C160.82 205.56 160.02 206.08 158.98 205.86C157.8 205.61 156.57 205.36 155.53 204.8C152.12 202.93 148.46 201.9 144.7 201.23C143.1 200.94 141.42 200.96 139.79 201.08C137.75 201.24 136.21 202.31 135.44 204.29C135.13 205.09 134.83 205.91 134.65 206.75C134.28 208.52 134.41 210.2 135.74 211.61C135.97 211.86 136.13 212.18 136.36 212.52V212.53ZM158.4 207.9C157.55 208.79 156.59 208.97 155.65 208.85C154.63 208.72 153.57 208.49 152.67 208.04C150.4 206.9 147.99 206.15 145.53 205.65C142.43 205.02 139.47 205.34 137.28 208.07C137.13 208.25 136.85 208.33 136.61 208.46C136.37 206.34 136.65 205.3 137.66 204.17C138.61 203.1 139.85 202.91 141.19 202.85C144.56 202.7 147.7 203.76 150.8 204.82C153.33 205.68 155.75 206.83 158.38 207.91L158.4 207.9ZM142.46 233.52C144.76 233.24 145.1 233.44 145.42 235.34C145.52 235.93 145.63 236.57 145.5 237.13C144.98 239.4 144.25 241.61 143.11 243.65C142.61 244.55 141.79 244.97 140.79 245.08C140.04 245.16 139.33 244.77 139.23 244.04C139.1 243.12 138.92 242.11 139.16 241.25C139.92 238.51 141.09 235.93 142.46 233.51V233.52Z" fill="white" fill-opacity="0.5"/>
</g>
<path fill-rule="evenodd" clip-rule="evenodd" d="M152.366 161.863C152.996 156.903 153.596 152.133 154.226 147.153C157.566 148.423 160.566 150.143 163.586 151.823C166.576 153.483 169.656 154.993 172.866 156.663C172.826 157.113 172.776 157.643 172.716 158.163C172.236 162.693 171.336 167.133 169.946 171.473C169.596 172.573 169.716 173.683 170.016 174.763C170.366 176.013 170.816 177.243 171.136 178.493C171.626 180.413 172.866 181.733 174.446 182.783C176.936 184.443 180.686 182.573 180.956 179.573C181.206 176.823 180.396 174.463 178.426 172.493C176.346 170.413 176.366 170.403 173.156 169.443C173.236 169.023 173.256 168.573 173.396 168.163C174.966 163.473 175.396 158.543 176.266 153.713C176.606 151.823 176.436 149.833 176.476 147.883C176.476 147.513 176.446 147.133 176.346 146.783C176.126 145.983 175.476 145.473 174.696 146.083C174.416 146.303 174.106 146.493 173.716 146.763C173.036 146.433 172.356 146.153 171.726 145.793C168.436 143.873 165.006 142.243 161.406 140.953C159.576 140.293 157.846 139.383 156.056 138.623C155.466 138.373 154.846 138.153 154.216 138.043C153.056 137.843 152.486 138.333 152.406 139.543C152.266 141.763 152.266 144.003 152.026 146.213C151.486 151.093 150.856 155.973 150.226 160.843C150.076 162.033 149.806 163.173 149.166 164.263C148.206 165.923 148.466 167.483 149.706 169.093C150.976 170.753 152.336 172.153 154.236 173.073C155.586 173.723 156.936 173.713 158.296 173.363C158.776 173.243 159.296 172.823 159.556 172.393C160.416 170.943 160.596 169.433 159.556 167.943C159.236 167.483 158.916 167.023 158.666 166.533C157.596 164.423 155.926 163.063 153.676 162.403C153.326 162.303 152.996 162.133 152.376 161.873L152.366 161.863ZM154.636 140.823C161.396 143.213 167.736 145.953 173.756 149.423C173.996 151.843 173.916 152.583 173.086 154.573C170.386 153.153 167.696 151.743 165.006 150.313C162.476 148.973 159.986 147.543 157.426 146.263C155.026 145.063 154.266 143.753 154.636 140.833V140.823ZM178.816 178.073C178.806 178.353 178.796 178.623 178.766 178.903C178.656 180.043 178.036 180.553 176.916 180.353C175.666 180.133 174.776 179.383 174.056 178.373C173.286 177.283 173.036 176.013 172.776 174.763C172.466 173.283 173.656 172.273 175.106 172.713C176.886 173.243 178.766 175.973 178.806 178.083L178.816 178.073ZM152.856 164.613C153.586 164.943 154.346 165.253 155.066 165.643C156.096 166.203 156.526 167.253 156.926 168.263C157.006 168.463 156.876 168.813 156.736 169.023C155.676 170.543 153.686 170.693 152.506 169.293C151.806 168.463 151.266 167.513 150.686 166.673C151.416 165.313 151.396 165.283 152.856 164.613Z" fill="white" fill-opacity="0.5"/>
<path fill-rule="evenodd" clip-rule="evenodd" d="M71.6248 166.833C70.9884 163.713 70.4713 160.921 69.8448 158.15C69.2184 155.389 68.4825 152.647 67.7865 149.826C68.8505 149.457 69.8747 149.238 70.7696 148.759C71.5949 148.321 72.2015 147.493 73.007 147.025C75.5923 145.549 77.8098 143.625 79.9179 141.562C80.0969 141.382 80.3952 141.333 80.8327 141.143C81.2205 142.419 81.0117 143.625 81.0117 144.822C81.0117 146.058 80.9521 147.294 80.962 148.53C80.962 149.676 81.0316 150.813 81.0415 151.949C81.0515 153.186 80.9918 154.422 81.0316 155.658C81.0714 156.874 81.1907 158.1 81.2703 159.277C83.09 160.084 84.7207 160.812 86.3615 161.53C87.336 161.958 88.3602 162.118 89.4242 161.968C91.5919 161.659 92.636 159.625 91.5919 157.731C91.3135 157.233 90.9456 156.794 90.6274 156.316C89.9214 155.239 88.8773 154.83 87.6741 154.98C86.4709 155.119 85.2875 155.438 84.0545 155.688C83.4479 155.389 83.5971 154.751 83.5971 154.222C83.5772 150.514 83.617 146.795 83.5772 143.087C83.5573 141.283 83.4579 139.468 83.3087 137.674C83.2093 136.527 82.9607 135.431 83.8358 134.424C84.0346 134.195 83.9551 133.427 83.7164 133.168C83.4678 132.899 82.8613 132.819 82.4337 132.879C81.9961 132.939 81.5288 133.198 81.1907 133.487C79.6096 134.843 78.0385 136.218 76.4972 137.624C73.9715 139.937 71.2569 142.03 68.3632 143.855C67.2793 144.542 65.927 144.792 64.4255 145.35C63.7791 146.437 63.978 147.812 64.4255 149.188C66.0761 154.262 67.5279 159.366 67.6274 164.769C67.6572 166.464 68.0351 168.159 68.2538 169.854C68.3831 170.811 68.9499 171.478 69.8349 171.668C72.0822 172.156 74.3792 172.156 76.6066 171.668C78.2076 171.309 79.0528 169.325 78.4661 167.77C77.6905 165.726 75.8807 164.939 73.8721 165.786C73.1859 166.075 72.5197 166.424 71.6148 166.843L71.6248 166.833Z" fill="white" fill-opacity="0.5"/>
<g clip-path="url(#clip3_26_5)">
<path fill-rule="evenodd" clip-rule="evenodd" d="M1.86962 162.298C2.81428 161.75 3.31147 160.823 3.80866 159.946C5.23062 157.463 7.52764 156.905 10.0335 157.284C11.883 157.563 13.7624 158.121 15.4628 158.919C17.5311 159.896 19.5497 160.733 21.8765 160.604C22.0157 160.604 22.1748 160.743 22.3936 160.853C22.2743 161.162 22.2146 161.531 22.0157 161.78C18.9729 165.748 16.139 169.895 12.6984 173.553C10.6301 175.756 8.56179 177.949 6.45371 180.113C5.54882 181.05 5.31017 182.256 5.1809 183.402C5.10135 184.12 4.93231 184.708 4.59422 185.307C3.52029 187.201 2.69495 189.184 2.35686 191.348C2.32703 191.517 2.25743 191.677 2.23754 191.846C2.01877 193.68 2.35686 195.385 4.00753 196.402C5.63832 197.409 7.34865 197.01 8.89988 196.043C9.31752 195.784 9.70533 195.375 9.96387 194.946C11.4753 192.394 12.5592 189.683 13.0266 186.742C13.1359 186.064 13.126 185.366 13.0962 184.678C13.0166 182.914 12.4498 181.459 10.5804 180.87C10.4213 180.821 10.2721 180.711 10.1329 180.611C10.0733 180.561 10.0534 180.472 9.90421 180.212C10.123 179.893 10.3616 179.465 10.6798 179.096C11.2963 178.378 11.9327 177.66 12.599 176.992C17.193 172.387 20.8225 167.004 24.6807 161.8C26.2618 159.666 27.3953 157.204 28.2207 154.632C28.3201 154.313 28.3897 153.954 28.3499 153.625C28.3201 153.426 28.0914 153.167 27.8925 153.107C27.6937 153.047 27.3158 153.107 27.2164 153.266C26.9777 153.605 26.8783 154.044 26.6794 154.413C26.1921 155.35 25.3966 155.868 24.3625 155.649C23.1891 155.4 21.966 155.151 20.9319 154.592C17.541 152.728 13.9016 151.701 10.1627 151.033C8.57174 150.744 6.90118 150.764 5.28034 150.884C3.25181 151.043 1.72046 152.11 0.95479 154.084C0.646532 154.881 0.348217 155.699 0.169229 156.536C-0.198691 158.301 -0.069422 159.976 1.2531 161.381C1.48181 161.63 1.64091 161.949 1.86962 162.288V162.298ZM23.7857 157.683C22.9405 158.57 21.9859 158.749 21.0512 158.63C20.0369 158.5 18.9829 158.271 18.088 157.822C15.8307 156.686 13.4343 155.938 10.9881 155.44C7.9055 154.812 4.96214 155.131 2.78445 157.852C2.63529 158.032 2.35687 158.111 2.11821 158.241C1.87956 156.128 2.15799 155.091 3.16231 153.964C4.10697 152.898 5.34 152.708 6.67247 152.648C10.0235 152.499 13.1459 153.556 16.2285 154.612C18.7442 155.47 21.1506 156.616 23.7659 157.693L23.7857 157.683ZM7.93533 183.223C10.2224 182.944 10.5605 183.143 10.8787 185.037C10.9781 185.626 11.0875 186.264 10.9582 186.822C10.4412 189.085 9.71527 191.288 8.58168 193.322C8.08449 194.219 7.2691 194.637 6.27472 194.747C5.52894 194.827 4.82293 194.438 4.72349 193.71C4.59422 192.793 4.41523 191.786 4.65388 190.929C5.40961 188.198 6.57303 185.626 7.93533 183.213V183.223Z" fill="white" fill-opacity="0.5"/>
</g>
<path fill-rule="evenodd" clip-rule="evenodd" d="M17.7857 111.789C18.4121 106.845 19.0088 102.089 19.6352 97.1249C22.9564 98.391 25.9396 100.106 28.9426 101.78C31.9158 103.435 34.9785 104.941 38.1704 106.605C38.1307 107.054 38.081 107.582 38.0213 108.101C37.544 112.617 36.649 117.043 35.2669 121.369C34.9188 122.466 35.0382 123.572 35.3365 124.649C35.6845 125.895 36.132 127.121 36.4502 128.367C36.9374 130.282 38.1704 131.597 39.7416 132.644C42.2176 134.299 45.9465 132.435 46.215 129.444C46.4636 126.703 45.6581 124.35 43.6992 122.386C41.6309 120.313 41.6508 120.303 38.4588 119.346C38.5384 118.927 38.5583 118.478 38.6975 118.07C40.2586 113.394 40.6862 108.48 41.5513 103.665C41.8894 101.78 41.7204 99.7966 41.7602 97.8527C41.7602 97.4838 41.7303 97.105 41.6309 96.7561C41.4121 95.9586 40.7658 95.4501 39.9902 96.0583C39.7117 96.2776 39.4035 96.467 39.0157 96.7361C38.3395 96.4072 37.6633 96.128 37.0369 95.7692C33.7653 93.8551 30.3546 92.2302 26.7749 90.9442C24.9551 90.2863 23.2349 89.3791 21.4549 88.6214C20.8682 88.3722 20.2517 88.1529 19.6253 88.0433C18.4718 87.8439 17.905 88.3324 17.8254 89.5386C17.6862 91.7517 17.6862 93.9847 17.4476 96.1878C16.9106 101.053 16.2842 105.917 15.6577 110.772C15.5085 111.959 15.2401 113.095 14.6037 114.182C13.649 115.837 13.9076 117.392 15.1406 118.997C16.4035 120.652 17.7558 122.047 19.6452 122.964C20.9876 123.612 22.33 123.602 23.6823 123.253C24.1596 123.134 24.6767 122.715 24.9353 122.286C25.7904 120.841 25.9694 119.336 24.9353 117.85C24.6171 117.392 24.2989 116.933 24.0503 116.445C22.9863 114.341 21.3257 112.985 19.0883 112.328C18.7403 112.228 18.4121 112.058 17.7956 111.799L17.7857 111.789ZM20.0429 90.8146C26.7649 93.1972 33.0693 95.9287 39.0554 99.3879C39.2941 101.8 39.2145 102.538 38.3892 104.522C35.7044 103.106 33.0295 101.701 30.3546 100.275C27.8388 98.9393 25.3628 97.5137 22.8172 96.2377C20.4307 95.0414 19.675 93.7355 20.0429 90.8246V90.8146ZM44.087 127.949C44.0771 128.228 44.0671 128.497 44.0373 128.776C43.9279 129.913 43.3114 130.421 42.1977 130.222C40.9547 130.002 40.0697 129.255 39.3538 128.248C38.5881 127.161 38.3395 125.895 38.081 124.649C37.7727 123.174 38.956 122.167 40.3979 122.605C42.1679 123.134 44.0373 125.855 44.0771 127.959L44.087 127.949ZM18.2729 114.531C18.9988 114.86 19.7545 115.169 20.4705 115.557C21.4947 116.116 21.9223 117.162 22.32 118.169C22.3996 118.369 22.2703 118.718 22.1311 118.927C21.0771 120.442 19.0982 120.592 17.9249 119.196C17.2288 118.369 16.6919 117.422 16.1151 116.584C16.841 115.228 16.8211 115.199 18.2729 114.531Z" fill="white" fill-opacity="0.5"/>
<path fill-rule="evenodd" clip-rule="evenodd" d="M145.805 61.5903C146.153 60.1107 146.419 58.8069 146.75 57.5289C147.188 55.8443 147.242 54.1723 146.797 52.4855C146.505 51.4101 146.226 50.3273 146.063 49.2308C145.883 47.9865 145.287 47.0246 144.395 46.188C143.697 45.5306 142.963 44.8956 142.347 44.1546C141.343 42.963 139.988 42.6544 138.577 42.5793C136.74 42.486 135.04 43.031 133.645 44.2438C132.099 45.575 131.104 47.3134 130.552 49.2688C130.418 49.751 130.476 50.2886 130.488 50.8051C130.502 51.096 130.598 51.3857 130.675 51.6709C131.646 55.2691 130.763 54.3936 133.953 56.8598C136.238 58.6304 138.549 60.335 141.141 61.6332C141.72 61.9235 142.247 62.3455 142.896 62.7755C142.641 63.4655 142.419 64.0604 142.244 64.5431C141.937 64.6662 141.798 64.7773 141.667 64.767C141.08 64.7315 140.492 64.696 139.904 64.6192C137.897 64.373 135.933 64.5579 133.954 64.9758C130.786 65.648 128.472 67.5793 126.666 70.0615C125.28 71.9751 125.007 74.3147 125.331 76.6509C125.825 80.2703 127.343 83.422 129.837 86.0943C130.837 87.172 131.847 88.2519 133.036 89.5283C132.991 90.1135 132.997 90.9162 132.872 91.7087C132.632 93.2547 132.599 94.7881 132.757 96.3456C132.94 98.1865 133.029 100.036 133.098 101.881C133.204 104.485 134.375 106.537 136.25 108.263C137.442 109.355 138.781 110.297 139.684 111.701C140.051 112.28 140.702 112.567 141.435 112.38C142.791 112.031 144.156 111.685 145.497 111.271C146.76 110.88 147.47 109.783 148.294 108.857C148.504 108.619 148.541 108.155 148.541 107.806C148.485 106.385 148.17 105.017 147.488 103.767C147.254 103.322 146.89 102.907 146.502 102.59C145.601 101.834 144.884 102.045 144.094 102.958C143.036 104.178 143.203 105.389 143.941 106.621C144.271 107.181 144.722 107.667 145.067 108.119C144.963 108.998 144.376 109.137 143.803 109.3C143.122 109.489 142.46 109.375 141.876 109.021C139.175 107.4 137.316 105.041 136.084 102.203C135.65 101.208 135.583 100.052 135.432 98.9476C135.262 97.7056 135.126 96.451 135.06 95.2028C134.991 93.8818 135.045 92.5591 135.355 91.1528C136.085 91.1087 136.692 91.3234 137.228 91.7065C139.755 93.544 142.757 94.0142 145.675 93.8791C149.29 93.7126 152.741 92.84 155.739 90.3607C158.827 87.8001 160.291 84.549 160.761 80.807C161.117 77.9836 160.644 75.191 158.541 72.9498C158.091 72.4637 157.681 71.9357 157.309 71.3757C155.01 67.9172 151.961 65.2889 148.365 63.2406C147.531 62.7671 146.759 62.2053 145.797 61.5783L145.805 61.5903ZM135.721 87.9411C135.726 87.6136 135.69 87.4612 135.732 87.3273C137.83 80.8558 139.977 74.3958 142.935 68.2398C143.053 68.0005 143.293 67.8104 143.446 67.6409C145.501 68.2067 146.632 69.6439 147.42 71.36C148.78 74.3101 149.147 77.2933 147.381 80.2576C146.599 81.5735 145.7 81.8552 144.235 81.1817C144.004 81.0758 143.769 80.9796 143.35 80.7987C143.279 81.4909 143.172 81.9897 143.201 82.4792C143.214 82.7289 143.437 83.0484 143.664 83.1738C145.209 84.0717 147.667 83.5816 148.638 82.0739C149.279 81.0948 149.708 79.9731 150.224 78.9132C150.658 78.0292 150.776 77.0912 150.729 76.1144C150.629 74.0055 150.049 72.0197 149.188 70.1324C148.413 68.4501 147.44 66.8651 145.588 66.0904C145.317 65.9753 145.084 65.7869 144.851 65.5985C144.349 65.2028 144.389 64.9451 145.115 64.1298C145.731 64.4802 146.369 64.8255 147 65.2C150.255 67.1681 153.163 69.5267 155.384 72.6589C155.894 73.3746 156.399 74.1098 156.983 74.7712C158.457 76.4535 158.754 78.4651 158.569 80.5585C158.482 81.5857 158.21 82.6107 157.879 83.5807C157.272 85.3282 156.534 87.0242 154.839 88.0738C154.406 88.3417 154.07 88.766 153.706 89.1325C152.917 89.9536 151.969 90.4906 150.852 90.7414C150.059 90.9246 149.271 91.1296 148.472 91.2911C143.616 92.3262 139.508 90.661 135.731 87.9434L135.721 87.9411ZM133.37 86.4941C132.273 85.2189 131.359 84.254 130.547 83.2102C128.986 81.1992 127.835 78.9763 127.535 76.4094C127.243 73.8956 127.653 71.6705 129.647 69.7461C131.466 67.9962 133.545 67.1088 135.94 66.8403C137.587 66.6525 139.263 66.6875 141.035 67.279C139.989 69.4984 139.011 71.5591 138.04 73.6319C137.095 75.6388 136.874 77.888 135.793 79.8629C134.712 81.8377 134.699 84.2489 133.377 86.5061L133.37 86.4941ZM143.741 60.2315C143.463 60.1456 143.167 60.0964 142.93 59.9687C139.835 58.2336 137.064 56.0405 134.185 53.9969C134.063 53.9064 133.938 53.8256 133.854 53.7031C133.671 53.4752 133.469 53.2427 133.366 52.9822C132.496 50.7845 132.365 48.6785 134.158 46.8199C134.362 46.6109 134.54 46.3756 134.753 46.1689C136.658 44.2748 139.343 44.3006 141.231 46.2343C141.902 46.9163 142.56 47.6154 143.181 48.3369C143.464 48.6604 143.787 49.0343 143.878 49.4357C144.479 52.0737 145.413 54.6974 144.566 57.467C144.293 58.3683 144.433 59.3875 143.746 60.2533L143.741 60.2315Z" fill="white" fill-opacity="0.5"/>
<path fill-rule="evenodd" clip-rule="evenodd" d="M86.021 226.05C87.621 225.71 88.251 224.48 88.641 223.06C88.761 222.64 88.731 222.19 88.821 221.76C88.941 221.13 89.321 220.81 89.951 220.78C90.061 220.78 90.171 220.8 90.281 220.8C91.801 220.81 93.341 220.94 94.911 220.18C94.931 220.72 95.021 221.1 94.941 221.43C94.351 224 94.081 226.6 93.921 229.23C93.851 230.37 93.531 231.49 93.321 232.61C92.911 232.86 92.551 233.09 92.191 233.31C92.171 233.51 92.111 233.68 92.141 233.83C92.431 235.34 92.931 236.79 93.581 238.18C93.741 238.53 93.921 238.87 94.091 239.21C94.7443 240.57 95.6276 241.697 96.741 242.59C97.151 242.92 97.581 243.07 98.111 242.89C98.691 242.69 99.091 242.32 99.051 241.71C98.991 240.79 98.971 239.83 98.711 238.96C98.171 237.12 97.461 235.33 96.011 233.97C95.651 233.64 95.611 233.23 95.661 232.77C96.011 229.4 96.261 226.01 96.721 222.65C97.041 220.36 97.011 218.07 97.161 215.78C97.191 215.3 97.291 214.81 97.481 214.37C97.741 213.79 97.681 213.32 97.281 212.86C97.031 212.57 96.791 212.28 96.551 212C95.631 212.22 95.361 212.83 95.131 213.52C94.701 214.81 94.221 216.08 93.751 217.35C93.661 217.6 93.511 217.83 93.341 218.15C92.361 218.18 91.391 218.2 90.421 218.23C89.981 218.24 89.541 218.23 89.111 218.28C87.851 218.42 86.951 219.07 86.581 220.3C86.311 221.18 86.101 222.09 85.951 223.01C85.851 223.59 85.861 224.17 85.581 224.74C85.371 225.16 85.471 225.72 86.041 226.05H86.021Z" fill="white" fill-opacity="0.5"/>
<defs>
<clipPath id="clip0_26_5">
<rect width="28.52" height="46.34" fill="white" transform="translate(1229 201)"/>
</clipPath>
<clipPath id="clip1_26_5">
<rect width="28.3597" height="46.1959" fill="white" transform="translate(1363.64 150.804)"/>
</clipPath>
<clipPath id="clip2_26_5">
<rect width="28.52" height="46.34" fill="white" transform="matrix(-1 0 0 1 163 201)"/>
</clipPath>
<clipPath id="clip3_26_5">
<rect width="28.3597" height="46.1959" fill="white" transform="matrix(-1 0 0 1 28.3599 150.804)"/>
</clipPath>
</defs>
</svg>
