<svg width="268" height="130" viewBox="0 0 268 130" fill="none" xmlns="http://www.w3.org/2000/svg">
<path fill-rule="evenodd" clip-rule="evenodd" d="M48.4488 50.1675C40.4487 49.0079 33.2593 52.0579 27.6054 57.227C21.2766 63.0156 16.9162 71.4661 15.4855 79.2307C15.1113 81.9466 15.0354 84.6617 15.2206 87.3927C15.4969 91.3295 16.282 95.2522 17.3317 99.1818C17.4056 99.559 17.7768 99.8014 18.154 99.7275C18.5312 99.6536 18.7736 99.2824 18.6997 98.9052C18.2538 95.665 17.9891 92.4622 18.007 89.2732C18.0271 86.1056 18.3432 82.9979 19.1083 79.9255C20.4944 72.9354 24.5522 65.3985 30.313 60.2184C35.0463 55.967 40.9689 53.3344 47.5983 54.2045C47.3162 55.9377 47.1681 57.67 47.1934 59.4058C47.2541 62.7683 48.0005 66.1112 49.8331 69.3797C51.1186 71.6718 53.5145 74.5357 56.1585 75.9207C58.5099 77.1546 61.0357 77.3237 63.3743 75.6961C68.021 72.4397 68.1148 67.6557 65.7274 62.9659C63.0368 57.6894 56.9981 52.6538 52.4587 51.0901C52.887 49.4324 53.3873 47.8018 53.8899 46.1926C55.9814 39.5397 60.527 33.8203 66.631 29.9406C72.2889 26.3453 79.2803 24.3408 86.9087 24.631C93.0514 24.7734 98.7844 27.043 103.661 29.8947C107.055 31.8805 109.984 34.1742 112.395 36.3447C114.59 38.3214 116.373 40.0815 117.419 41.7283C117.452 41.8026 117.542 41.8365 117.617 41.8028C117.691 41.7691 117.725 41.6791 117.691 41.6047C117.086 39.6612 115.945 37.259 114.06 34.8132C111.949 32.0667 108.966 29.3418 105.495 26.9879C100.305 23.4637 93.8837 20.9762 87.0557 20.6069C78.5527 20.2651 70.7517 22.5097 64.436 26.5152C57.503 30.9051 52.3431 37.4108 49.9524 44.9684C49.4126 46.6767 48.8806 48.4187 48.4331 50.1821L48.4488 50.1675ZM51.6126 55.1699C51.4108 56.5531 51.3002 57.9398 51.3236 59.3256C51.376 62.0273 51.9676 64.716 53.4441 67.347C54.2509 68.7809 55.618 70.5282 57.2085 71.6813C58.4054 72.5426 59.7488 73.1507 60.9868 72.2908C63.6881 70.4091 63.4095 67.571 62.0277 64.8522C59.901 60.6716 55.2797 56.6212 51.6092 55.1789L51.6126 55.1699Z" fill="white" fill-opacity="0.5"/>
<path fill-rule="evenodd" clip-rule="evenodd" d="M18.9442 98.391C18.27 97.2332 17.5991 96.0663 16.9069 94.9016C16.0944 93.5376 15.2909 92.177 14.4255 90.8444C12.208 87.4517 9.84615 84.2512 7.51704 80.9911C7.33163 80.6645 6.913 80.5481 6.58975 80.7245C6.26312 80.91 6.15014 81.3196 6.32315 81.6518C7.61117 84.7566 8.77984 87.8782 10.1185 91.0123C10.6856 92.3457 11.2685 93.6644 11.9257 94.9495C13.3986 97.8361 15.1079 100.586 16.8095 103.301C17.0253 103.629 17.4379 104.144 17.8833 104.435C18.3761 104.764 18.9117 104.924 19.4115 104.907C19.8776 104.897 20.5126 104.766 21.0839 104.149C21.3409 103.876 21.7682 103.204 22.1362 102.171C23.3666 98.7906 25.3497 90.1857 25.7917 88.4098L26.4402 84.8826C26.4663 84.6766 26.5353 84.384 26.4681 84.071C26.3807 83.6477 26.2833 83.1692 26.0764 82.9269C25.9224 82.7354 25.706 82.9829 25.7996 82.8434C25.8706 82.7365 25.597 82.8083 25.6678 82.8657C25.931 83.0675 25.3908 82.9465 25.4582 83.0952C25.6267 83.4668 25.1522 82.98 25.0764 83.2906C25.0448 83.4021 24.9887 83.196 24.9301 83.2973C24.8545 83.4435 24.8582 83.1058 24.7162 83.2374C24.625 83.3161 24.7198 83.064 24.5801 83.1348C24.4777 83.1887 24.7154 82.9391 24.5398 82.9963C24.3799 83.0389 24.6558 82.9064 24.6558 82.9064C24.6558 82.9064 24.5038 82.9006 24.8956 82.8425C24.9293 82.9168 25.016 82.9596 25.0937 82.9169C25.168 82.8833 25.2109 82.7966 25.1682 82.7189C25.9635 82.1344 25.2358 82.621 25.4129 82.2869C25.4783 82.1676 25.3071 82.2676 25.3229 82.1708C25.4146 81.6813 25.0436 82.3124 24.8503 82.0342C24.7694 81.9215 24.7961 82.1782 24.678 82.0824C24.4834 81.9167 24.7374 82.3616 24.3772 82.3084C24.1927 82.28 24.5166 82.4841 24.1631 82.5772C23.9019 82.6433 24.09 82.4983 23.7564 82.8661C23.5209 83.1371 23.4661 83.8564 23.3094 84.1365L22.2006 87.4392C21.7861 88.8144 20.2044 94.5493 18.9206 98.3719L18.9442 98.391Z" fill="white" fill-opacity="0.5"/>
<path d="M110.962 58.8534L107.203 59.8471C107.006 59.3789 106.751 58.9839 106.44 58.6622C106.127 58.3348 105.769 58.0805 105.366 57.8993C104.963 57.7181 104.525 57.6134 104.052 57.5853C103.585 57.5557 103.1 57.6074 102.597 57.7405C101.687 57.981 100.954 58.4165 100.398 59.047C99.8411 59.6718 99.49 60.4625 99.3449 61.4191C99.1983 62.37 99.2861 63.4549 99.6083 64.6737C99.9395 65.9268 100.404 66.9305 101.001 67.6848C101.604 68.4375 102.301 68.9421 103.091 69.1985C103.881 69.4549 104.719 69.4659 105.606 69.2315C106.104 69.0999 106.547 68.9123 106.936 68.6688C107.33 68.4238 107.66 68.1315 107.926 67.792C108.189 67.4468 108.382 67.0623 108.502 66.6386C108.629 66.2134 108.673 65.7549 108.635 65.263L112.398 64.2865C112.514 65.119 112.477 65.9615 112.286 66.8139C112.099 67.6591 111.758 68.4626 111.261 69.2244C110.769 69.979 110.119 70.6466 109.311 71.2274C108.508 71.801 107.542 72.2367 106.415 72.5347C104.847 72.9491 103.352 72.9649 101.928 72.582C100.51 72.1977 99.2662 71.4277 98.1955 70.2721C97.1305 69.1149 96.3455 67.5808 95.8403 65.6696C95.3336 63.7527 95.2631 62.0267 95.6286 60.4914C95.9941 58.9562 96.7019 57.6733 97.7518 56.6428C98.8002 55.6066 100.097 54.8843 101.642 54.4759C102.66 54.2067 103.642 54.1002 104.588 54.1564C105.539 54.2111 106.425 54.4238 107.245 54.7947C108.064 55.1598 108.789 55.6812 109.422 56.3589C110.059 57.0352 110.573 57.8666 110.962 58.8534ZM115.588 51.0466L120.235 68.6247L116.578 69.5912L111.932 52.0131L115.588 51.0466ZM123.164 67.8505L119.679 54.6669L123.335 53.7005L126.82 66.884L123.164 67.8505ZM121.067 52.482C120.523 52.6257 120.009 52.5687 119.525 52.311C119.044 52.0462 118.737 51.6591 118.602 51.1498C118.469 50.6463 118.547 50.1636 118.835 49.7018C119.127 49.2327 119.545 48.9264 120.089 48.7827C120.632 48.639 121.144 48.6996 121.624 48.9645C122.109 49.2221 122.418 49.6027 122.551 50.1062C122.685 50.6155 122.606 51.1046 122.314 51.5737C122.026 52.0355 121.61 52.3383 121.067 52.482ZM135.774 64.7929C134.423 65.1498 133.186 65.1707 132.062 64.8556C130.942 64.5333 129.987 63.9289 129.195 63.0422C128.41 62.1541 127.841 61.0434 127.488 59.7102C127.131 58.3598 127.079 57.1065 127.33 55.9504C127.586 54.787 128.121 53.7914 128.937 52.9636C129.752 52.13 130.825 51.5371 132.159 51.1847C133.309 50.8806 134.371 50.8233 135.345 51.0126C136.32 51.202 137.159 51.6077 137.862 52.2299C138.565 52.8521 139.077 53.6657 139.398 54.6706L135.947 55.5826C135.676 54.9503 135.279 54.4891 134.755 54.199C134.236 53.9016 133.641 53.8414 132.972 54.0183C132.405 54.1681 131.951 54.4534 131.609 54.8743C131.272 55.288 131.063 55.8177 130.983 56.4633C130.902 57.109 130.972 57.8467 131.191 58.6764C131.413 59.5175 131.717 60.2025 132.102 60.7314C132.492 61.2587 132.94 61.621 133.445 61.818C133.95 62.0151 134.486 62.0388 135.052 61.889C135.47 61.7786 135.822 61.5937 136.109 61.3343C136.401 61.0734 136.612 60.7512 136.744 60.3675C136.879 59.9767 136.92 59.5404 136.866 59.0588L140.316 58.1468C140.525 59.169 140.485 60.1285 140.196 61.0253C139.911 61.9149 139.396 62.6877 138.651 63.3437C137.906 63.9998 136.947 64.4828 135.774 64.7929ZM146.245 57.6908L145.094 53.3026L145.627 53.1619L148.527 47.0418L152.724 45.9324L148.802 54.0581L147.935 54.2873L146.245 57.6908ZM143.935 62.3602L139.288 44.7821L142.945 43.8157L147.591 61.3938L143.935 62.3602ZM152.175 60.1823L146.777 55.4657L148.532 52.2378L156.457 59.0502L152.175 60.1823ZM170.567 49.3152L168.566 41.7449L172.222 40.7785L175.707 53.9621L172.197 54.89L171.564 52.4953L171.426 52.5316C171.333 53.3827 171.002 54.1344 170.434 54.7866C169.871 55.4373 169.095 55.8935 168.105 56.1551C167.224 56.3881 166.396 56.3927 165.62 56.1691C164.845 55.9456 164.171 55.5146 163.598 54.8763C163.031 54.2364 162.608 53.4023 162.331 52.3738L160.112 43.9796L163.768 43.0131L165.814 50.7551C166.026 51.5318 166.397 52.0917 166.929 52.4348C167.46 52.778 168.072 52.858 168.765 52.675C169.205 52.5586 169.591 52.3495 169.921 52.0479C170.25 51.7406 170.479 51.3556 170.608 50.8931C170.742 50.429 170.729 49.9031 170.567 49.3152ZM187.11 40.8654L183.817 41.9562C183.684 41.6852 183.493 41.4602 183.244 41.2812C182.993 41.0966 182.695 40.9764 182.35 40.9207C182.008 40.8578 181.626 40.8823 181.203 40.9943C180.636 41.144 180.19 41.3905 179.865 41.7336C179.538 42.0711 179.426 42.4372 179.531 42.832C179.614 43.1468 179.81 43.3796 180.119 43.5304C180.429 43.6813 180.907 43.7417 181.554 43.7114L184.067 43.5614C185.418 43.4858 186.486 43.6567 187.269 44.0739C188.053 44.4912 188.57 45.1748 188.822 46.1246C189.05 46.9887 188.996 47.8141 188.659 48.6011C188.328 49.3865 187.77 50.0787 186.986 50.6779C186.205 51.2698 185.243 51.717 184.099 52.0195C182.353 52.4808 180.867 52.485 179.639 52.032C178.416 51.5718 177.549 50.7358 177.039 49.5238L180.585 48.3844C180.834 48.8878 181.205 49.2245 181.697 49.3945C182.187 49.5587 182.758 49.5546 183.411 49.3822C184.052 49.2128 184.534 48.9537 184.858 48.6048C185.186 48.2486 185.301 47.8724 185.203 47.4761C185.109 47.1457 184.897 46.911 184.566 46.7718C184.234 46.627 183.767 46.573 183.165 46.6098L180.761 46.7584C179.406 46.8412 178.329 46.6482 177.532 46.1794C176.74 45.7091 176.215 44.9819 175.954 43.9977C175.731 43.1508 175.767 42.3608 176.063 41.6275C176.364 40.8928 176.889 40.249 177.637 39.6963C178.39 39.1421 179.33 38.716 180.458 38.4181C182.123 37.9779 183.526 37.9835 184.668 38.4347C185.815 38.8844 186.629 39.6947 187.11 40.8654ZM191.926 30.8687L194.845 43.2653L191.703 44.0956L188.107 31.8783L191.926 30.8687ZM194.726 49.1736C194.16 49.3234 193.62 49.2517 193.108 48.9585C192.595 48.6596 192.266 48.2262 192.122 47.6582C191.968 47.0989 192.041 46.5654 192.341 46.0574C192.642 45.5495 193.075 45.2207 193.642 45.0709C194.185 44.9272 194.716 45.0012 195.234 45.2929C195.752 45.5845 196.088 46.01 196.242 46.5692C196.336 46.9484 196.327 47.321 196.216 47.6872C196.109 48.0461 195.925 48.3608 195.666 48.6313C195.406 48.8961 195.092 49.0768 194.726 49.1736Z" fill="white" fill-opacity="0.5"/>
</svg>
