<svg width="159" height="142" viewBox="0 0 159 142" fill="none" xmlns="http://www.w3.org/2000/svg">
<path fill-rule="evenodd" clip-rule="evenodd" d="M63.141 28.2723C61.6703 30.1866 59.7015 31.1886 57.6552 31.9912C56.1007 32.6015 54.5792 33.4076 52.791 33.3252C52.215 33.2904 51.5912 33.7184 51.0318 34.0216C49.8509 34.6722 48.7023 35.3659 47.5366 36.0492C44.5526 37.8144 41.5785 39.6208 38.5792 41.3533C33.3537 44.3759 27.8796 46.884 22.1353 48.7592C21.5956 48.9339 21.0559 49.1086 20.5414 49.3573C19.5125 49.8545 18.6105 49.5861 17.7554 48.9714C17.4721 48.7637 17.2148 48.5133 16.9903 48.2477C15.9542 47.0076 15.9163 46.0126 17.0525 44.8781C18.154 43.781 19.3035 42.7015 20.8079 42.1543C24.2738 40.9051 27.6893 39.5081 31.2205 38.4978C35.317 37.3284 39.3055 35.8941 43.2622 34.3585C45.4426 33.5088 47.6296 32.6867 49.8505 31.9436C51.1293 31.5166 52.1238 30.7876 52.7902 29.6362C53.6736 28.09 54.9207 27.0231 56.58 26.3946C56.9737 26.2481 57.3541 26.0466 57.7226 25.8261C59.2843 24.9157 60.7213 25.4399 62.1 26.233C62.8757 26.6704 62.8407 26.7662 63.141 28.2723ZM41.0979 37.6418C41.0438 37.5386 40.981 37.4301 40.9269 37.3268C40.4042 37.512 39.8749 37.6696 39.3675 37.8874C37.2863 38.7858 35.136 39.4898 32.9235 40.0271C31.9615 40.2607 31.0128 40.5493 30.0827 40.8843C27.4867 41.8203 24.8941 42.7701 22.3251 43.7578C21.0682 44.2449 19.8991 44.9145 18.9577 45.9217C18.6968 46.196 18.5675 46.5622 18.8243 46.8709C19.037 47.1176 19.3831 47.4338 19.6627 47.4168C20.2083 47.3862 20.7584 47.1944 21.2862 47.0007C22.4072 46.583 23.5116 46.0965 24.6411 45.6839C27.7583 44.5268 30.8888 43.4246 33.8034 41.7927C36.0912 40.5167 38.401 39.3009 40.7008 38.0439C40.8609 37.9541 40.9701 37.7748 41.0946 37.6281L41.0979 37.6418ZM61.31 27.4144C59.743 26.5652 58.4238 26.6163 57.1673 27.7946C56.5097 28.4128 55.733 28.8997 55.0668 29.5126C54.8045 29.751 54.6937 30.1635 54.5008 30.5378C55.7441 30.8035 57.0875 30.7319 58.0804 30.2361C59.3177 29.6082 60.6557 29.065 61.3185 27.4196L61.31 27.4144Z" fill="white" fill-opacity="0.5"/>
<path fill-rule="evenodd" clip-rule="evenodd" d="M129.743 97.9696C129.023 92.0977 129.244 86.2372 129.807 80.3739C130.152 76.7901 130.43 73.2007 130.708 69.6114C130.805 68.3 130.688 67.0695 130.173 65.7609C129.651 64.4471 129.572 62.8653 129.68 61.4203C129.803 59.6804 130.296 57.967 130.709 56.2513C130.826 55.7719 131.16 55.3197 131.471 54.9239C132.296 53.9159 133.796 54.0683 134.402 55.2455C134.634 55.6913 134.774 56.2102 134.831 56.713C135.007 58.0965 135.092 59.4949 135.267 60.8784C135.42 62.1074 135.121 63.2132 134.523 64.2536C134.233 64.7679 133.934 65.277 133.658 65.7879C133.233 66.5825 133.064 67.4166 133.157 68.3399C133.743 74.048 134.27 79.7558 134.87 85.4606C135.007 86.7735 135.434 88.0523 135.598 89.3586C136.058 92.9289 136.44 96.5108 136.85 100.086C137.054 101.885 136.588 103.591 136.096 105.283C135.977 105.69 135.672 106.055 135.457 106.427C135.169 106.919 134.722 107.115 134.173 107.132C132.835 107.195 131.694 106.723 130.843 105.736C130.54 105.387 130.409 104.815 130.364 104.331C130.133 102.212 129.966 100.084 129.762 97.9578L129.743 97.9696ZM132.039 79.2862C131.512 80.382 131.676 81.208 131.613 81.9656C131.282 85.9097 131.153 89.8705 131.392 93.8218C131.582 96.9702 131.934 100.101 132.224 103.24C132.246 103.452 132.245 103.686 132.308 103.888C132.439 104.366 132.803 104.576 133.267 104.66C133.807 104.754 134.172 104.462 134.251 104.006C134.453 102.713 134.798 101.377 134.685 100.102C134.341 96.169 134.185 92.1977 133.343 88.3126C132.844 86.018 132.458 83.7104 132.387 81.3483C132.367 80.7856 132.202 80.2289 132.034 79.2948L132.039 79.2862ZM132.866 56.0549C132.502 56.2308 132.411 56.2457 132.379 56.2969C131.048 58.6941 130.686 61.2487 131.184 63.9293C131.262 64.3397 131.935 64.5037 132.28 64.187C133.251 63.3035 133.799 62.2319 133.666 60.8744C133.548 59.7022 133.467 58.5286 133.309 57.3665C133.256 56.9717 133.046 56.5861 132.866 56.0549Z" fill="white" fill-opacity="0.5"/>
<path fill-rule="evenodd" clip-rule="evenodd" d="M110.24 81.3342C109.231 85.356 108.296 89.3886 107.207 93.3858C106.418 96.2772 104.951 98.8964 103.619 101.563C103.221 102.351 102.938 103.103 102.893 104.024C102.741 106.964 101.234 109.208 98.9392 110.936C98.379 111.356 97.6331 111.581 96.9374 111.743C95.5271 112.078 94.095 112.353 92.6665 112.583C91.3153 112.802 89.9663 112.941 88.5544 112.76C86.9163 112.546 85.2279 112.665 83.5555 112.7C79.9088 112.785 76.309 112.524 72.7417 111.768C70.1797 111.226 67.5965 110.776 65.0058 110.416C62.8812 110.117 60.9123 109.351 59.0074 108.518C57.583 107.896 56.3731 106.749 55.0985 105.785C54.2334 105.129 53.4842 104.322 52.5983 103.7C51.535 102.947 51.1143 101.754 50.4213 100.758C50.2089 100.453 50.1991 99.873 50.32 99.5016C50.9926 97.4173 50.5712 95.3221 50.4858 93.2326C50.2654 87.7705 50.5044 82.3423 51.0985 76.908C51.4515 73.657 51.7513 70.397 52.0683 67.1475C52.1011 66.863 52.1992 66.5481 52.141 66.2784C51.7918 64.6605 52.5207 63.1374 52.5981 61.5686C52.6277 61.0012 52.7947 60.4003 53.0827 59.9083C53.7074 58.8252 54.178 57.7068 54.4162 56.4701C54.5051 55.9974 54.7779 55.4727 55.1198 55.1423C55.8569 54.4321 56.5475 53.7405 56.887 52.7412C56.9833 52.4486 57.3878 52.2267 57.691 52.0366C59.298 51.0133 61.0101 50.1828 62.9321 50.0071C65.9679 49.7138 69.0109 49.3896 72.0608 49.3039C74.7419 49.2276 77.4474 49.342 80.1194 49.5881C83.0812 49.8585 86.0365 50.3124 88.9744 50.8141C92.4879 51.4089 96.0193 51.8976 99.4509 52.9343C102.104 53.7309 104.676 54.7361 107.08 56.0952C110.123 57.8085 111.87 60.4768 112.385 63.9172C112.517 64.7585 112.339 65.6457 112.289 66.5165C112.236 67.5263 112.205 68.538 112.129 69.5459C112.07 70.4116 112.037 71.2929 111.867 72.1493C111.273 75.2186 110.64 78.2756 110.016 81.3379C110.086 81.3572 110.161 81.368 110.24 81.3926L110.24 81.3342ZM110.122 68.8618C109.669 68.4917 109.188 68.4919 108.73 68.8215C107.203 69.9054 105.425 70.3444 103.645 70.6531C101.723 70.9814 99.8349 71.5055 97.8635 71.6277C96.5509 71.7063 95.2511 71.6872 93.955 71.6236C91.2015 71.4918 88.4418 71.2742 85.7085 70.9556C83.4739 70.6833 81.2751 70.1985 79.0532 69.8285C74.3268 69.0334 69.5897 68.3137 65.0809 66.527C61.8191 65.2307 58.6855 63.7432 56.0224 61.4065C55.6048 61.035 55.1284 60.7214 54.642 60.3665C53.9185 62.3613 54.0397 62.9504 55.3715 64.0896C55.7568 64.4181 56.1768 64.709 56.6123 64.9744C58.2349 65.9629 59.9969 66.6265 61.7972 67.208C62.9027 67.5654 63.9803 67.9877 65.0858 68.345C67.4234 69.1017 69.7714 69.8413 72.1142 70.5894C72.1844 70.6087 72.2598 70.6195 72.3352 70.6303C73.9848 70.921 75.6165 71.3179 77.2669 71.492C81.8052 71.9617 86.1855 73.4593 90.8309 73.2918C93.1399 73.2113 95.441 73.2783 97.7478 73.0092C99.8503 72.7679 101.864 72.1915 103.913 71.7303C106.622 71.1088 108.167 70.3407 110.1 68.8599C110.072 68.6556 110.041 68.4376 110.013 68.2334C109.953 68.2552 109.907 68.2738 109.847 68.2957C109.929 68.4866 110.017 68.669 110.1 68.8599L110.122 68.8618ZM79.1284 67.5909C79.1284 67.5909 79.1373 67.5378 79.1392 67.5155C80.0676 67.683 81.0012 67.8419 81.9348 68.0009C86.0154 68.6836 90.1068 69.2909 94.2577 69.4544C98.1532 69.6145 101.939 69.0518 105.599 67.7336C106.677 67.3482 107.734 66.7859 108.673 66.1285C110.256 65.009 110.601 63.4627 109.814 61.7183C109.329 60.65 108.658 59.7142 107.816 58.8854C106.656 57.7336 105.206 57.0961 103.777 56.3661C100.834 54.8542 97.7377 53.9398 94.4826 53.4204C91.3253 52.9137 88.198 52.2615 85.0407 51.7548C82.9643 51.415 80.872 51.159 78.7741 50.9699C75.7403 50.7025 72.6939 50.5327 69.6578 50.3458C69.1624 50.3133 68.6272 50.3269 68.1529 50.4711C66.2746 51.0364 64.3528 51.423 62.4196 51.7324C61.7054 51.8476 61.0093 52.0676 60.3251 52.3065C59.9229 52.4479 59.5269 52.675 59.2248 52.9594C58.6415 53.494 58.0939 54.0854 57.5804 54.6976C56.0366 56.5205 56.2089 58.4288 58.0437 59.9916C58.6559 60.5051 59.2975 60.9896 59.9722 61.4006C63.3455 63.4557 66.9574 64.9653 70.8017 65.8436C73.5672 66.4746 76.3454 67.0079 79.1198 67.5857L79.1284 67.5909ZM109.971 72.013C108.546 72.2377 107.558 72.8462 107.008 73.8383C106.797 74.2245 106.573 74.5917 106.327 74.9571C105.024 76.9617 103.638 78.9281 102.412 80.9795C100.292 84.5359 98.2801 88.1462 96.2202 91.739C96.0329 92.0464 95.8266 92.3657 95.7266 92.7029C95.5879 93.1804 95.4558 93.6855 95.4783 94.1676C95.6341 96.4873 95.8312 98.7971 96.0591 101.114C96.1956 102.485 96.5847 103.788 97.3686 105.038C98.5658 104.515 99.718 104.046 100.277 102.84C101.507 100.206 102.737 97.5712 103.911 94.914C105.768 90.6938 106.692 86.1981 107.787 81.7481C108.515 78.7844 108.821 75.7268 109.871 72.8304C109.958 72.5909 109.924 72.3008 109.948 72.0111L109.971 72.013ZM55.0938 66.6019C55.0911 67.0101 55.036 67.2927 55.0909 67.5486C55.5361 69.6817 56.0088 71.8081 56.4455 73.9359C56.6779 75.0729 56.8966 76.2131 57.0878 77.36C57.5513 80.0781 57.9874 82.8027 58.4699 85.5089C58.544 85.9639 58.8001 86.3892 59.0903 87.1046C59.379 86.7653 59.5309 86.6119 59.6573 86.443C62.2921 83.0599 64.9355 79.682 67.5618 76.2937C67.9597 75.775 68.2894 75.2147 68.6413 74.6563C69.1597 73.8246 69.3116 72.9218 69.1664 71.8146C64.4448 70.3198 59.8369 68.4845 55.0905 66.5882L55.0938 66.6019ZM72.6393 101.788C73.3478 101.259 73.7333 101.049 74.0183 100.754C75.1084 99.5798 76.1473 98.3743 77.2203 97.1896C78.4869 95.7833 79.7398 94.3803 81.0235 92.9843C81.6507 92.3008 81.8786 91.5615 81.7256 90.6018C81.464 88.9553 81.3707 87.2825 81.2087 85.6264C81.1317 84.8301 81.1097 84.0205 80.9143 83.2457C80.522 81.6601 80.5189 80.0891 80.8315 78.4997C80.8828 78.2616 80.7886 77.9934 80.7612 77.7309C80.4882 77.7753 80.3151 77.7518 80.2323 77.8302C80.0235 78.0191 79.8128 78.2304 79.662 78.478C78.304 80.707 77.1971 83.1005 75.1531 84.8412C75.0996 84.8906 75.0579 84.9589 75.0386 85.0291C74.5505 86.1954 73.6648 87.0727 72.7843 87.9414C71.7863 88.926 71.2403 90.0336 71.6595 91.4599C71.7399 91.7314 71.7276 92.04 71.7891 92.3234C72.2043 94.3328 72.273 96.3536 72.2729 98.391C72.2748 99.3875 72.4824 100.392 72.646 101.815L72.6393 101.788ZM62.2842 100.737C64.5675 96.8349 66.4834 93.248 68.9815 90.0509C69.4694 89.4231 69.5154 88.7134 69.4859 87.9929C69.395 85.9703 69.3229 83.9357 69.1685 81.9213C69.0628 80.5571 69.1116 79.17 68.6078 77.8443C67.7509 78.0014 67.4528 78.7214 67.0288 79.2828C64.8484 82.1699 62.7396 85.1124 60.4704 87.9337C59.6886 88.9094 59.5112 89.7966 59.7848 90.9235C60.2454 92.82 60.6182 94.7451 61.0873 96.6468C61.391 97.8974 61.8046 99.1213 62.2876 100.75L62.2842 100.737ZM91.5474 81.726C91.1815 82.0768 91.0006 82.2008 90.8742 82.3697C88.7495 85.3961 86.6332 88.4277 84.5289 91.4782C84.2015 91.9579 84.0301 92.4507 84.0703 93.0958C84.2588 96.4191 84.4061 99.7524 84.8022 103.062C84.8655 103.592 84.7925 104.25 85.43 104.568C87.2011 102.872 91.193 96.6271 93.0496 92.6762C92.5526 89.0713 92.0652 85.566 91.5422 81.7345L91.5474 81.726ZM51.8215 99.6318C52.4128 100.449 52.8596 101.33 53.5364 101.93C55.0434 103.281 56.6729 104.508 58.2698 105.75C58.7799 106.143 59.319 106.565 59.9266 106.759C62.3273 107.566 64.728 108.373 67.2518 108.728C68.3296 108.881 69.3928 109.154 70.4794 109.254C73.8593 109.568 77.1386 110.817 80.6109 110.403C80.6829 110.4 80.7583 110.411 80.8285 110.43C81.8973 110.636 82.9658 110.631 84.0618 110.62C85.5711 110.603 87.0851 110.904 88.595 110.56C88.7324 110.526 88.8865 110.562 89.0269 110.6C90.0436 110.892 91.0435 110.634 92.0411 110.458C93.1762 110.248 94.3131 110.015 95.4482 109.805C97.3268 109.451 98.7014 108.309 99.8959 106.906C100.055 106.722 100.038 106.384 100.165 105.887C99.5839 106.13 99.1887 106.241 98.8443 106.441C96.6716 107.681 94.4154 108.579 91.8402 108.462C90.839 108.414 89.8206 108.625 88.8066 108.674C86.6414 108.807 84.4709 108.949 82.3113 109.015C80.6337 109.058 78.9803 108.812 77.3627 108.354C75.692 107.886 74.0146 107.391 72.3246 106.994C69.2219 106.263 65.9868 106.095 62.9552 104.998C62.755 104.923 62.527 104.913 62.316 104.913C61.4069 104.945 60.6315 104.718 59.9536 104.024C59.6232 103.682 59.0632 103.564 58.612 103.324C56.6006 102.262 54.743 101.025 53.5286 99.0208C53.3438 98.7091 53.1452 98.4008 52.9035 98.1247C52.6856 97.8866 52.503 97.4943 51.9763 97.7823C51.9259 98.384 51.877 99.0216 51.8267 99.6233L51.8215 99.6318ZM94.6777 90.0615C95.3934 88.9636 95.83 88.3046 96.2496 87.6351C98.5309 84.0249 100.556 80.2587 103.339 76.9778C103.991 76.2156 104.501 75.3203 105.041 74.4545C105.16 74.258 105.14 73.9646 105.208 73.5844C104.6 73.7175 104.169 73.7711 103.763 73.8988C101.709 74.5795 99.6084 75.0678 97.4346 75.1954C97.0692 75.2187 96.7156 75.2609 96.362 75.3031C95.4951 75.419 94.8766 75.8385 94.6408 76.7253C94.5635 77.006 94.4245 77.2726 94.366 77.5415C93.9202 79.8109 93.2791 82.0549 93.8721 84.4068C94.0642 85.1679 94.0174 85.9942 94.127 86.7753C94.2563 87.6971 94.4353 88.6141 94.6881 90.0445L94.6777 90.0615ZM83.4293 74.7544C83.1673 76.2224 82.9558 77.569 82.705 78.9033C82.4828 80.056 82.5436 81.2055 82.6988 82.3539C82.8932 83.7839 83.0052 85.2338 83.1722 86.6704C83.2562 87.4359 83.1734 88.2637 83.6764 88.9565C85.8104 87.1067 91.6948 78.1974 92.4615 75.6318C91.8157 75.5194 91.1574 75.2354 90.5616 75.3291C88.7194 75.6237 86.9648 75.1402 85.1863 74.8881C84.6277 74.8054 84.0669 74.8033 83.4293 74.7544ZM81.1339 74.3513C80.5932 74.1625 80.3299 74.0372 80.0644 73.9925C77.2754 73.5347 74.4761 73.0939 71.6767 72.6531C71.5482 72.6333 71.4137 72.7387 71.1782 72.8178C71.0946 73.0127 70.9077 73.2618 70.882 73.5155C70.7928 74.5268 70.6624 75.548 70.7311 76.5501C70.9387 79.5922 71.2458 82.6247 71.5168 85.6587C71.5361 85.8578 71.6274 86.0539 71.7668 86.4785C73.7803 84.1922 75.5158 82.1699 77.0297 79.9541C77.1475 79.7799 77.2022 79.5556 77.291 79.3521C77.9645 77.9006 78.7353 76.5201 80.0661 75.5275C80.4056 75.2777 80.6397 74.8934 81.1272 74.3239L81.1339 74.3513ZM82.0708 94.8402C80.8998 95.8013 80.1215 96.5215 79.423 97.3606C77.4726 99.697 75.6552 102.161 73.1101 103.936C72.9671 104.036 72.9329 104.285 72.8511 104.458C73.0029 104.573 73.0946 104.711 73.2213 104.753C75.2358 105.348 77.2467 105.988 79.2858 106.504C80.4106 106.791 81.5745 106.88 82.7295 107.021C82.9163 107.041 83.1332 106.916 83.4374 106.82C82.5698 102.978 82.2616 99.1016 82.076 94.8317L82.0708 94.8402ZM54.0505 71.7743C53.6318 73.0766 52.7296 80.9579 52.5853 84.2892C52.4475 87.4371 52.6593 92.894 52.9863 94.2408C54.5702 92.5828 56.1619 91.0465 57.3254 89.1559C56.7739 86.2555 56.258 83.4119 55.7009 80.5784C55.139 77.695 55.0424 74.7205 54.0538 71.788L54.0505 71.7743ZM69.5013 92.3114C68.596 93.0479 68.0137 93.9461 67.4518 94.8684C66.4685 96.4825 65.4903 98.088 64.4951 99.6831C63.9663 100.532 63.4683 101.388 63.1705 102.319C65.0051 103.401 68.0254 104.152 70.6492 104.17C70.3795 100.423 70.1132 96.6889 69.8331 92.9585C69.8172 92.7732 69.6572 92.5937 69.5184 92.3218L69.5013 92.3114ZM95.0192 106.031C94.8818 105.045 94.901 104.226 94.6383 103.504C94.29 102.519 94.1886 101.532 94.0891 100.523C93.967 99.3007 93.8397 98.0873 93.6725 96.4398C91.429 100.026 89.4178 103.251 87.3858 106.509C87.6405 106.629 87.8313 106.816 88.0167 106.8C90.2573 106.678 92.4869 106.42 95.0225 106.044L95.0192 106.031ZM53.7835 95.8154C54.8659 98.3249 56.3347 100.239 58.7841 101.215C59.1312 101.357 59.5569 101.312 60.1671 101.367C59.2707 97.9757 58.9106 94.6649 57.7201 91.4104C56.3773 92.9225 55.1296 94.317 53.7972 95.8121L53.7835 95.8154Z" fill="white" fill-opacity="0.5"/>
<path fill-rule="evenodd" clip-rule="evenodd" d="M80.6365 54.2942C80.5636 54.4138 80.5264 54.5902 80.4231 54.6443C80.0428 54.8459 79.652 55.0645 79.243 55.1783C76.5624 55.9457 74.1813 57.3171 71.8254 58.7624C71.1675 59.1695 70.3585 59.3441 69.5989 59.5723C69.4563 59.6142 69.1659 59.4373 69.0847 59.2824C68.9982 59.136 69.0395 58.8567 69.1213 58.6841C69.2083 58.5029 69.3896 58.3206 69.5634 58.2274C71.6771 57.1029 73.7603 55.913 75.9314 54.9056C77.0945 54.3612 78.3996 54.1024 79.654 53.7542C79.8928 53.6889 80.2058 53.8094 80.4762 53.9038C80.5634 53.9335 80.586 54.1464 80.6383 54.2719L80.6365 54.2942Z" fill="white" fill-opacity="0.5"/>
<path fill-rule="evenodd" clip-rule="evenodd" d="M78.2109 60.006C78.0933 59.6416 77.8947 59.3333 77.919 59.0436C77.9395 58.7985 78.1576 58.4981 78.3712 58.3589C79.8115 57.398 81.382 56.7037 83.0385 56.2141C83.2001 56.1603 83.5629 56.2759 83.5863 56.3721C83.643 56.6058 83.605 56.8988 83.5143 57.1246C83.4411 57.3024 83.2394 57.4606 83.0603 57.5622C81.8411 58.2949 80.6082 59.0309 79.3567 59.7205C79.0607 59.8797 78.6781 59.8925 78.2023 60.0008L78.2109 60.006Z" fill="white" fill-opacity="0.5"/>
<path fill-rule="evenodd" clip-rule="evenodd" d="M89.6889 58.5211C89.6348 59.1673 89.7063 59.4919 89.5748 59.6694C88.7265 60.8505 87.546 61.4428 86.0883 61.4329C85.9133 61.4317 85.6111 61.2359 85.5948 61.1089C85.5708 60.86 85.7098 60.5934 85.7938 60.3402C85.8113 60.2923 85.906 60.2329 85.9695 60.2247C87.2553 60.0362 88.3927 59.4762 89.6889 58.5211Z" fill="white" fill-opacity="0.5"/>
</svg>
