<svg width="132" height="125" viewBox="0 0 132 125" fill="none" xmlns="http://www.w3.org/2000/svg">
<path fill-rule="evenodd" clip-rule="evenodd" d="M36.2811 1.2462C34.5924 0.921667 33.3004 1.69695 32.6284 3.30077C32.5215 3.57374 32.393 3.8456 32.2671 4.1111C32.0113 4.63328 31.9292 5.17951 32.291 5.65798C32.6323 6.1138 32.5283 6.62222 32.5724 7.10804C32.5724 7.10804 32.5724 7.10804 32.5762 7.11688C33.3488 7.33157 33.4632 7.91817 33.4246 8.70843C33.1361 8.73457 32.8388 8.76457 32.5567 8.7932C32.4996 8.60245 32.4356 8.50416 32.4566 8.43185C32.5428 8.09953 32.6798 7.78711 32.7509 7.45617C32.773 7.36232 32.6416 7.23035 32.5762 7.11688C32.5762 7.11688 32.5762 7.11688 32.5699 7.11439C32.5699 7.11439 32.5724 7.10804 32.5685 7.0992C32.5285 6.99568 32.4847 6.88333 32.4383 6.77732C31.916 7.02671 31.3719 7.23826 30.8752 7.53431C30.5677 7.72137 30.4563 8.08046 30.5363 8.45588C30.6788 9.08278 30.8478 9.6981 31.2628 10.1901C32.0211 10.3479 32.6512 9.43058 33.4711 10.0665C33.5257 10.432 33.5896 10.867 33.6494 11.2565C32.7444 11.9784 32.5893 10.8414 32.1046 10.6955C30.9165 10.9623 30.8914 10.9891 30.909 12.0284C30.9158 12.2727 30.9202 12.5233 30.9637 12.7673C31.031 13.1378 31.4135 13.3388 31.7605 13.1819C31.975 13.0828 32.2083 12.9545 32.3602 12.7724C32.7793 12.263 33.2566 12.2595 33.8494 12.4844C34.0204 13.1883 34.3961 13.8553 34.1674 14.6077C33.3265 14.7543 32.5694 14.7433 31.9457 14.111C31.9024 14.0721 31.7636 14.1275 31.5574 14.1493C31.221 14.7278 30.8598 15.3697 30.7309 16.11C30.6798 16.3901 30.7112 16.7026 30.7853 16.9806C30.8879 17.3356 31.1479 17.5692 31.5418 17.5917C31.9357 17.6141 32.2189 17.3956 32.3468 17.0503C32.5021 16.6352 32.585 16.1991 32.7196 15.7246C33.1905 15.7187 33.6821 15.6037 34.1294 16.0132C34.2266 17.0177 33.8672 17.9166 33.3574 18.8445C33.0428 18.7506 32.7676 18.6867 32.4985 18.5887C31.3752 18.1853 30.635 18.5984 30.508 19.764C30.4817 19.9807 30.5724 20.2725 30.7129 20.4373C30.9311 20.6838 31.2663 20.6321 31.531 20.4795C31.8562 20.2847 32.1558 20.0433 32.4871 19.8142C32.6364 19.9752 32.7738 20.073 32.8152 20.1917C33.0118 20.7739 33.0122 21.3524 32.7302 21.9229C32.472 22.4514 32.2151 22.9951 32.4192 23.7267C33.0032 23.9554 33.6444 24.2065 34.2756 24.483C34.6832 24.6573 35.1577 24.7918 35.4447 25.0873C36.5672 26.259 37.9891 27.1527 38.7847 28.6357C38.8951 28.84 39.1078 29.0258 39.3113 29.1421C39.7181 29.3746 39.9611 29.7261 40.1755 30.1322C41.0627 31.8488 41.9323 33.5731 43.1182 35.1065C43.2052 35.2211 43.3354 35.3746 43.3185 35.4925C43.2261 36.1958 43.7781 36.5437 44.0943 37.0263C44.5051 37.6412 44.8845 38.2803 45.2638 38.9194C46.0162 40.1951 46.7573 41.4811 47.4959 42.7734C48.0601 43.7631 48.6066 44.7606 49.1644 45.7478C50.8482 48.7209 52.5168 51.6953 54.2207 54.6543C55.1861 56.3209 56.2246 57.9503 57.2253 59.6016C57.3266 59.773 57.4278 59.9444 57.5026 60.1275C57.5762 60.332 57.861 60.5021 57.6603 60.753C57.5935 60.7927 57.557 60.8297 57.5115 60.8338C57.318 60.8606 57.117 60.9063 56.9233 60.8963C54.6347 60.7762 52.8841 62.0308 51.078 63.1465C49.1714 65.0796 47.0714 66.871 46.3091 69.6402C46.2671 69.7848 46.1997 69.9195 46.1475 70.0528C45.8721 70.6625 45.761 71.2267 46.1658 71.8757C46.3834 72.2172 46.3416 72.7353 46.4055 73.1704C46.5659 74.3314 47.0127 75.3777 47.8039 76.2366C49.0569 77.5986 50.4856 78.7366 52.3261 79.2157C53.2634 79.4583 54.0621 79.9615 54.7454 80.6098C56.3133 82.1025 58.0423 83.4458 59.301 85.242C59.8178 85.9789 60.1806 86.7726 60.3465 87.6576C60.4981 88.4857 60.6105 89.3205 60.8214 90.1279C61.2094 91.6051 61.0643 93.0785 60.776 94.5251C60.6281 95.2579 60.4623 95.9617 60.488 96.7186C60.4959 97.1097 60.447 97.5152 60.3434 97.892C60.1745 98.5287 60.1398 99.1594 60.2774 99.799C60.3179 99.976 60.3339 100.253 60.2408 100.341C59.7604 100.783 59.8911 101.346 59.881 101.877C59.8764 102.468 60.0137 103.071 59.9305 103.639C59.8256 104.374 60.0024 105.007 60.3348 105.635C60.5864 106.114 60.8356 106.6 61.0847 107.085C61.9838 108.865 63.5518 110.021 65.0017 111.292C65.1814 111.45 65.4364 111.528 65.655 111.643C66.542 112.107 67.5733 112.204 68.446 112.611C70.2816 113.477 72.2278 113.704 74.1834 114.002C75.7448 114.24 77.3005 114.549 78.8558 114.821C79.0485 114.853 79.2511 114.859 79.4484 114.841C81.8596 114.592 84.2747 114.351 86.5492 113.404C87.8353 112.869 89.1825 112.532 90.5585 112.346C93.4194 111.958 95.987 110.936 98.1274 108.948C98.1978 108.88 98.2668 108.798 98.3552 108.759C99.3835 108.283 100.034 107.388 100.78 106.604C101.426 105.927 101.988 105.166 102.911 104.81C103.082 104.746 103.209 104.554 103.34 104.407C104.082 103.614 104.833 102.818 105.566 102.013C105.767 101.799 105.975 101.566 106.105 101.309C106.975 99.5927 108.077 98.0111 108.721 96.1619C109.335 94.3888 109.615 92.6461 109.261 90.8015C108.943 89.1466 108.359 87.5709 107.903 85.9499C107.523 84.6006 106.898 83.3746 106.278 82.1358C106.105 81.7902 105.841 81.4743 105.568 81.1991C104.687 80.3268 103.806 79.4546 102.883 78.6321C101.484 77.3812 100.066 76.123 98.4024 75.2298C97.0539 74.504 95.6569 73.8837 94.2598 73.2633C91.7678 72.1483 89.9244 70.3867 88.7545 67.9151C88.5269 67.4306 88.2499 66.9414 87.8812 66.5554C87.3136 65.967 86.9439 65.2658 86.6463 64.5488C86.2251 63.5492 85.9363 62.4917 85.5833 61.4675C85.3453 60.7666 85.0896 60.0734 84.8364 59.3739C84.6 58.7249 84.322 58.0888 84.14 57.4318C83.854 56.4046 83.3627 55.5093 82.5751 54.7909C81.4828 53.7847 80.4069 52.7556 79.2757 51.7928C78.6758 51.2869 77.9979 50.8677 77.3052 50.4866C76.6608 50.1317 75.9214 49.9447 75.2819 49.5771C74.4721 49.1209 73.588 49.0602 72.7073 48.9349C72.4221 48.8964 72.0765 48.9002 71.8408 49.0348C70.6633 49.7232 69.6363 50.551 69.4622 52.0423C69.3264 53.2118 69.5154 54.3182 70.0445 55.3601C70.4286 56.1182 70.3858 56.8629 70.2194 57.6617C69.9124 59.1375 68.8679 60.0098 67.854 60.916C67.3001 60.6478 67.141 60.1755 66.9112 59.734C66.5029 58.9445 66.0857 58.1588 65.6106 57.4089C65.0881 56.5746 64.4899 55.7839 63.9383 54.9675C63.6657 54.5606 63.3525 54.1451 63.1859 53.6918C62.6357 52.1804 61.6531 50.9316 60.8331 49.5854C60.6063 49.2111 60.3732 48.8342 60.1665 48.4458C59.9149 47.9665 59.6923 47.4693 59.4495 46.9862C58.9745 46.068 58.3796 45.2127 57.873 44.3188C57.137 43.0201 56.2234 41.857 55.413 40.6171C54.3607 39.0042 53.2377 37.4222 52.3518 35.7208C51.6213 34.3145 50.8391 32.9466 50.004 31.6018C49.5658 30.8884 49.1705 30.1405 48.6769 29.4567C47.9275 28.4164 47.1176 27.4183 46.4057 26.4879C46.4166 26.0675 46.4865 25.7581 46.4162 25.4889C46.1639 24.5628 46.1572 23.645 46.2732 22.6946C46.3902 21.7228 46.4606 20.7765 46.812 19.8232C47.0863 19.0667 47.1635 18.1964 47.397 17.3946C47.7504 16.1932 47.4899 15.7178 46.275 15.2493C46.0909 15.1772 45.9076 15.0468 45.7227 15.033C44.6487 14.9711 43.9312 14.3167 43.1844 13.6436C42.6645 13.1764 42.3936 12.6529 42.3483 11.9835C42.323 11.6369 42.3129 11.2888 42.2939 10.9446C42.1653 8.91736 41.7888 6.92487 41.3731 4.93899C41.2422 4.33858 40.9185 3.87504 40.5239 3.40568C39.4039 2.05917 37.8607 1.55001 36.2469 1.24013L36.2811 1.2462ZM59.0861 60.4401C58.3971 59.3576 57.6817 58.2867 57.0306 57.1824C55.4615 54.4959 53.9215 51.7915 52.3638 49.0948C50.8574 46.4914 49.3383 43.883 47.8319 41.2796C47.7089 41.0704 47.5933 40.8421 47.5144 40.6135C47.2154 39.713 46.6479 38.9562 46.2266 38.125C45.2439 36.166 43.8115 34.5141 42.6185 32.6997C42.0782 31.8731 41.5783 31.0184 41.0822 30.1725C40.9117 29.8787 40.8056 29.5516 40.669 29.2272C40.951 28.8251 41.3035 28.7289 41.8202 28.7556C42.1162 29.2522 42.4443 29.798 42.7596 30.3388C43.4582 31.5276 44.1996 32.6819 44.7659 33.9653C45.3013 35.1781 46.0866 36.2764 46.7722 37.4235C47.7359 39.0382 48.7046 40.6403 49.6684 42.2551C49.8709 42.598 50.091 42.9331 50.2342 43.2967C50.8752 44.9315 52.0317 46.2411 52.9336 47.7145C53.2424 48.2161 53.6419 48.6728 53.9242 49.186C55.2415 51.5616 56.5098 53.9692 57.8473 56.3308C58.4783 57.4492 59.2164 58.4997 59.9141 59.5783C60.2905 60.1503 60.6845 60.7147 61.1847 61.4377C60.0312 61.579 59.5074 61.103 59.0899 60.4489L59.0861 60.4401ZM83.432 74.8875C84.4686 75.5497 85.519 76.1953 86.5556 76.8576C86.7604 76.989 86.9527 77.1522 87.1337 77.3256C88.216 78.3571 89.4938 79.1138 90.7667 79.8832C91.9098 80.5725 93.1068 81.1804 94.2035 81.932C95.1335 82.5672 96.0313 83.2848 96.5731 84.3317C96.7066 84.589 96.8857 84.8421 97.1048 85.0305C97.7547 85.6144 98.1285 86.3612 98.3913 87.167C98.746 88.2431 99.0805 89.3332 99.4239 90.4195C99.4407 90.47 99.46 90.5142 99.4705 90.5622C99.6802 92.7749 99.8874 94.994 99.2906 97.191C98.9897 98.2959 98.5706 99.3472 98.0373 100.354C97.4902 101.377 96.7596 102.233 95.755 102.835C95.5432 102.965 95.3008 103.06 95.1363 103.237C93.3432 105.105 90.9763 106.045 88.7271 107.17C87.0696 108 85.2952 108.418 83.4251 108.388C82.5388 108.371 81.6767 108.553 80.771 108.491C79.4525 108.399 78.272 107.974 77.0684 107.495C75.0077 106.681 73.7942 105.012 72.6876 103.239C72.4122 102.802 72.3321 102.221 72.2447 101.696C72.0234 100.336 71.8439 98.9621 71.6554 97.5923C71.594 97.151 71.5047 96.706 71.5079 96.2679C71.5263 94.4447 70.8977 92.7782 70.3701 91.0779C69.7143 88.9761 68.4288 87.3231 66.842 85.8597C65.7867 84.89 64.7641 83.8745 63.7063 82.9111C63.1392 82.3961 62.7135 81.8194 62.5055 81.079C62.4275 80.7922 62.3078 80.5183 62.1679 80.2586C61.612 79.1916 61.8872 78.2084 62.6117 77.3866C63.389 76.5049 64.1368 75.5677 65.206 74.9687C65.6284 74.7315 65.9854 74.3807 66.4059 74.0549C67.3003 74.6687 67.5683 75.6669 68.1323 76.4516C68.7129 77.25 69.2506 78.083 69.8085 78.9018C70.3601 79.7182 70.9053 80.5321 71.4684 81.375C71.0763 81.9462 70.7217 82.459 70.3884 82.9362C70.7253 83.6465 70.9567 84.3082 71.3228 84.8689C71.6671 85.3918 72.1401 85.8479 72.6129 86.2674C72.7428 86.3842 73.0945 86.3462 73.3054 86.275C73.5757 86.1832 73.8084 85.9815 74.0315 85.8419C74.8001 86.3845 75.8527 87.8657 77.0677 90.0914C76.7693 90.3113 76.4289 90.5074 76.1624 90.7765C75.8344 91.1093 75.6753 91.5156 75.9206 91.9923C76.1054 92.3429 76.2461 92.7129 76.4309 93.0635C76.9598 94.0687 77.6547 94.4067 78.7482 94.176C79.0844 94.1026 79.4024 93.9636 79.8041 93.8354C80.016 94.0794 80.2671 94.3169 80.4514 94.5941C81.3269 95.9107 82.1911 97.2376 83.0513 98.5556C83.3637 99.0293 83.3694 99.4635 83.1939 100.061C82.9035 101.046 82.8124 102.101 82.7655 103.137C82.7246 104.138 83.8244 104.957 84.7977 104.753C85.0379 104.7 85.283 104.635 85.4961 104.521C86.5998 103.965 87.6881 103.373 88.7919 102.817C89.5411 102.437 90.2903 102.057 91.0628 101.73C92.4373 101.155 93.5554 100.319 94.238 98.7633C93.8334 97.4407 93.0978 96.2155 91.8179 95.3335C91.3343 94.9977 90.8606 95.31 90.2867 95.261C89.0115 93.2826 87.7081 91.2639 86.4455 89.2905C86.5512 88.4972 87.2378 88.2023 87.5598 87.567C87.3738 86.5277 86.6999 85.7805 85.822 85.1805C85.4404 84.9212 85.2885 84.9349 84.2699 85.1803C83.0284 84.0132 82.4398 82.4501 81.4495 81.1837C81.573 80.7562 81.7867 80.3786 81.7512 80.0206C81.7127 79.5955 81.4881 79.1781 81.2967 78.7883C81.082 78.3455 80.8232 77.922 80.5556 77.5023C80.1842 76.9176 79.7167 76.5222 78.9479 76.8215C78.8267 76.8692 78.6617 76.8045 78.4679 76.7946C77.5049 75.6267 76.6487 74.3542 75.8834 73.0368C75.136 71.7483 74.3408 70.5071 73.3944 69.353C73.2705 69.202 73.178 69.0267 73.0257 68.7986C73.1785 68.5583 73.2903 68.2726 73.4853 68.0927C74.636 67.0424 75.0814 65.6061 75.593 64.225C75.8041 63.6487 75.7167 62.9556 75.7045 62.3138C75.698 61.7695 75.6372 61.2331 75.87 60.6946C76.756 61.0123 76.846 61.9042 77.2102 62.5447C77.4513 62.9759 77.5016 63.6326 77.3836 64.1209C76.9976 65.7049 77.5183 67.1608 77.8456 68.6435C77.9437 69.0846 79.2642 71.0222 79.7168 71.4557C80.7864 72.4822 81.8737 73.5011 82.9521 74.5238C83.0962 74.6608 83.2427 74.7914 83.4119 74.9016L83.432 74.8875ZM81.3405 86.9397C81.4712 87.1667 81.411 87.414 81.1015 87.5124C81.019 87.4801 80.9075 87.4657 80.8589 87.4028C79.9589 86.1863 79.0701 84.9597 78.1328 83.6701C78.3921 83.4568 78.606 83.2843 78.9647 82.9855C79.836 84.425 80.5983 85.6753 81.3405 86.9397ZM85.5464 90.4832C85.6281 90.5738 85.7098 90.6643 85.789 90.7613C85.76 90.7792 85.7211 90.8225 85.7147 90.82C85.6217 90.7397 85.5312 90.653 85.4407 90.5663C85.4923 90.5279 85.5401 90.4807 85.5464 90.4832ZM82.9575 95.7293C82.293 94.8833 81.7255 93.9582 81.119 93.0764C81.9095 92.4415 82.1386 92.436 82.5972 93.0037C82.7211 93.1547 82.8488 93.3145 82.9172 93.4951C83.4452 94.8953 84.4192 96.0162 85.2395 97.2307C85.3458 97.3894 85.3852 97.5879 85.4792 97.8151C85.2528 98.0193 85.0491 98.2031 84.8138 98.4112C83.8755 97.6849 83.618 96.5664 82.9575 95.7293ZM77.6149 92.7511C77.3867 92.3615 77.147 91.9455 76.865 91.469C77.1955 91.2982 77.4881 91.1492 77.7896 90.9964C78.4103 91.3932 78.6312 92.0069 79.0812 92.6151C78.5828 92.7909 78.0941 92.8362 77.6149 92.7511ZM82.4571 90.4448C82.2665 90.1651 82.099 89.9385 81.9516 89.6977C81.8005 89.4482 81.6846 89.1831 81.5356 88.8905C81.7115 88.7031 81.8736 88.5323 81.9967 88.4048C82.122 88.4027 82.1966 88.3806 82.2145 88.4096C82.579 88.9184 82.9385 89.4399 83.3607 90.0446C83.0225 90.1977 82.7776 90.2994 82.4571 90.4448ZM83.993 91.1781C85.1293 92.5017 87.4037 95.0325 87.7433 96.4834C87.6149 96.5868 87.4843 96.7334 87.3193 96.8371C87.1566 96.9345 86.9722 96.9941 86.7362 97.092C86.5701 96.8805 86.3777 96.7173 86.2674 96.513C85.7407 95.4648 84.8613 94.6445 84.405 93.5286C84.1306 92.8647 83.5936 92.3103 83.1841 91.7106C83.238 91.6292 83.2739 91.5188 83.347 91.4816C83.5602 91.3673 83.7849 91.2796 83.9969 91.1869L83.993 91.1781ZM77.0012 84.2227C77.2084 84.5161 77.4827 84.8066 77.6485 85.1498C78.2218 86.3407 79.5045 87.0847 79.7542 88.5223C79.3555 88.886 78.926 89.1791 78.333 89.291C77.3005 87.9641 76.4319 86.555 75.6164 85.1227C76.2142 84.4562 76.218 84.4651 77.0051 84.2315L77.0012 84.2227ZM74.7854 83.8235C74.2749 83.0891 73.8092 82.4088 73.3268 81.7147C73.4846 81.1249 73.9329 80.971 74.4729 80.8823C75.1957 81.3923 75.6365 82.136 76.0321 82.9206C75.7979 83.4439 75.4443 83.7301 74.7829 83.8298L74.7854 83.8235ZM73.5118 84.5328C73.2682 84.9865 72.9386 85.099 72.6729 84.768C72.2551 84.2456 71.9078 83.6556 71.5795 83.0731C71.5218 82.9773 71.6513 82.6839 71.7786 82.602C71.8971 82.5239 72.2137 82.5381 72.2865 82.6325C72.7581 83.2418 73.1982 83.8755 73.5207 84.5289L73.5118 84.5328ZM79.1752 90.2065C79.5319 89.9874 79.8483 89.7965 80.1205 89.6249C80.283 89.6959 80.4009 89.7128 80.4533 89.7845C80.6617 90.0565 80.8612 90.3323 81.0405 90.6222C81.4287 91.2574 81.3378 91.4708 80.5502 91.7993C80.4707 91.8341 80.3603 91.7982 80.1881 91.7893C79.7888 91.3693 79.437 90.8655 79.1664 90.2104L79.1752 90.2065ZM86.1919 98.8557C86.9097 98.6682 87.4455 98.3655 87.8807 97.7965C87.9898 97.6488 88.1982 97.584 88.4036 97.4521C88.5802 97.5433 88.7431 97.651 88.912 97.7244C89.3958 97.9286 89.6484 97.8444 89.8845 97.4098C90.0207 97.1556 90.0663 96.8147 90.2626 96.65C90.5105 96.4469 90.8849 96.3885 91.1626 96.2776C91.8464 96.7748 92.3977 97.4983 92.8165 98.4482C92.4757 99.1128 91.9574 99.7445 91.3058 100.156C90.1477 100.888 89.0668 101.797 87.7174 102.177C86.8103 102.437 85.9443 102.778 85.1018 103.21C84.8911 103.318 84.6369 103.35 84.3981 103.417C83.5292 102.477 83.6283 101.476 84.1657 100.515C84.6081 99.7217 85.3149 99.076 86.1792 98.8507L86.1919 98.8557ZM86.2712 91.7921C86.2712 91.7921 86.2643 91.7162 86.2665 91.6731C86.3314 91.7132 86.4076 91.743 86.4611 91.7932C86.484 91.8095 86.468 91.8692 86.4658 91.9122C86.4009 91.8722 86.3247 91.8423 86.2712 91.7921ZM77.0222 82.0564C76.5316 81.4396 76.0902 80.7908 75.6694 80.2014C75.741 79.7755 75.9334 79.6019 76.3491 79.6622C76.9162 80.3455 77.5139 81.0628 78.164 81.8519C77.9616 82.0509 77.8102 82.3064 77.6294 82.3381C77.4423 82.3673 77.15 82.2162 77.0222 82.0564ZM83.3838 87.2934C83.646 87.3155 83.9077 87.2643 83.9679 87.3537C84.2609 87.7833 84.5023 88.2512 84.7398 88.7103C84.7655 88.757 84.665 88.8641 84.5838 89.0153C83.8524 88.7142 83.5569 88.1226 83.3775 87.2909L83.3838 87.2934ZM82.4804 86.1415C81.7865 85.0717 81.1216 83.984 80.4566 82.8962C80.3311 82.6933 80.2346 82.4724 80.1228 82.253C80.183 82.174 80.2432 82.0951 80.3073 82.025C80.4547 82.0974 80.6625 82.1275 80.7469 82.2484C81.0052 82.5985 81.2069 82.9997 81.4538 83.3599C81.9734 84.1272 82.5106 84.8867 83.039 85.6501C83.2078 85.8919 83.1901 86.2364 82.9789 86.2708C82.8196 86.3036 82.5546 86.2511 82.4829 86.1352L82.4804 86.1415ZM85.2818 86.2795C86.2671 86.8484 86.3005 86.9127 85.8972 87.6993C85.4112 87.1331 85.2061 86.6598 85.2818 86.2795ZM79.5623 80.8986C79.418 80.8933 79.2209 80.9479 79.1532 80.8775C78.6519 80.3444 78.1554 79.7985 77.688 79.2347C77.5092 79.0183 77.5338 78.7497 77.7911 78.6162C77.9286 78.5455 78.2033 78.536 78.3065 78.6276C78.7789 79.0103 79.3964 80.182 79.556 80.8961L79.5623 80.8986ZM76.3758 77.2199C75.8998 76.5283 75.4705 75.811 74.9945 75.1195C74.1616 73.9 73.2882 72.7087 72.4602 71.4765C72.1876 71.0696 72.0108 70.605 71.8114 70.1608C71.7882 70.1078 71.8581 69.9667 71.921 69.9182C71.9928 69.8658 72.1306 69.8318 72.1891 69.8694C72.348 69.9683 72.5211 70.0873 72.6298 70.2397C73.154 70.9575 73.6719 71.6728 74.1559 72.4188C74.9124 73.5717 75.6312 74.7464 76.3852 75.9057C76.7053 76.3971 77.0922 76.8488 77.1806 77.5204C76.6746 77.7469 76.5203 77.4303 76.3719 77.211L76.3758 77.2199ZM69.7528 69.8085C69.3611 70.0798 69.0902 70.2666 68.8572 70.4316C68.7366 70.3843 68.6809 70.3771 68.6414 70.347C68.5293 70.2592 68.3845 70.1805 68.3127 70.0646C67.0395 67.838 65.4413 65.843 63.7476 63.7739C64.3759 63.4782 64.8818 63.5885 65.3836 63.6532C67.0291 65.5277 68.3203 67.6148 69.7504 69.8149L69.7528 69.8085ZM70.5845 71.0128C72.3752 73.3761 74.0188 75.8722 75.6732 78.453C75.3861 78.6627 75.1594 78.8302 74.9352 78.9913C74.7749 78.8773 74.6225 78.8176 74.5483 78.708C73.8086 77.6056 73.094 76.4764 72.3429 75.3842C71.5099 74.1648 70.6455 72.9696 69.7462 71.6949C69.8018 71.3287 70.1119 71.1352 70.5845 71.0128ZM73.7905 79.839C73.3623 80.1472 73.0551 80.3709 72.7969 80.5627C72.6192 80.4931 72.49 80.4864 72.4478 80.426C70.8798 78.0547 69.3142 75.6771 67.7487 73.2995C67.7269 73.2617 67.7278 73.2034 67.6911 73.0353C67.9443 72.8562 68.2377 72.649 68.5715 72.4137C70.7281 74.5908 72.0172 77.2628 73.7881 79.8453L73.7905 79.839ZM71.0567 68.2179C71.1091 68.2897 71.1201 68.4111 71.1069 68.5011C71.0961 68.5847 71.0411 68.6877 70.9757 68.7426C70.9064 68.7887 70.7623 68.8201 70.7126 68.7787C70.5266 68.618 70.3431 68.4509 70.1999 68.2557C69.1434 66.7657 68.0957 65.2718 67.0569 63.774C67.007 63.6959 66.9885 63.5935 66.9764 63.4936C66.9698 63.4544 67.0098 63.3895 67.0476 63.3677C67.1208 63.3305 67.218 63.288 67.2903 63.309C67.3778 63.3286 67.4581 63.404 67.5204 63.4504C68.7094 65.0509 69.8907 66.6337 71.0631 68.2204L71.0567 68.2179ZM62.6461 59.3889C63.13 60.1349 63.6253 60.8706 64.0979 61.6268C64.1939 61.7742 64.2093 61.9779 64.2807 62.2256C63.4038 62.2775 62.7872 62.0946 62.3286 61.3585C61.4628 59.9798 60.5214 58.6447 59.6153 57.2941C59.4771 57.0862 59.3452 56.8808 59.2246 56.6652C57.9947 54.4776 56.7521 52.285 55.5398 50.0896C55.1845 49.4453 54.8366 48.7819 54.572 48.0926C54.1293 46.9235 53.4396 45.8992 52.7674 44.8672C52.3373 44.2082 51.9121 43.5365 51.4279 42.9222C50.8338 42.177 50.5235 41.2867 50.0556 40.4811C48.7928 38.3026 47.4834 36.1498 46.1538 34.011C45.1393 32.3763 44.0604 30.7751 43.0283 29.1481C42.8503 28.8734 42.7416 28.5526 42.5692 28.1703C43.0764 27.9223 43.5103 27.7115 43.885 27.5214C44.4238 27.6226 44.5495 28.0306 44.7305 28.3724C46.5486 31.7129 48.3377 35.0713 50.1961 38.3836C51.0425 39.8866 52.0378 41.3087 52.9422 42.7758C53.3803 43.4891 53.7806 44.2243 54.1898 44.9556C54.3104 45.1713 54.3931 45.4087 54.5073 45.6218C56.0658 48.4286 57.5777 51.2611 59.203 54.0282C60.2721 55.86 61.4925 57.6046 62.6549 59.385L62.6461 59.3889ZM60.6535 62.9063C61.4863 62.8737 61.9078 63.0314 62.235 63.4671C63.328 64.9202 64.4524 66.3489 65.5163 67.8199C66.2119 68.7733 66.8269 69.7829 67.4646 70.7721C67.5644 70.9283 67.6039 71.1268 67.6852 71.349C67.4042 71.5245 67.1609 71.6782 66.8597 71.8677C65.9123 71.1087 65.4561 69.9928 64.7569 69.0674C64.013 68.0878 63.3472 67.0583 62.6373 66.0481C61.9632 65.0959 61.3698 64.0874 60.6497 62.8975L60.6535 62.9063ZM69.9586 60.6273C70.9901 59.7134 71.4119 58.5241 71.661 57.2525C71.7843 56.6198 71.6771 55.9775 71.3866 55.3732C71.0434 54.6604 70.8253 53.9087 70.7043 53.1145C70.5462 52.0788 70.7998 51.2629 71.6104 50.6139C71.8017 50.4619 71.9726 50.2872 72.1311 50.1443C73.1458 50.0584 74.0324 50.2812 74.9076 50.6825C77.2482 51.7602 79.3782 53.2387 81.2975 55.1179C82.1709 55.9724 82.8751 56.8852 83.0461 58.131C83.0833 58.3725 83.1523 58.6265 83.2665 58.8396C84.0635 60.3378 84.3656 62.0156 84.934 63.5927C85.3384 64.7102 85.8095 65.788 86.4902 66.7794C87.1913 67.7935 87.7425 68.9099 88.4033 69.9521C88.6889 70.4007 89.0653 70.8044 89.4428 71.1865C90.0358 71.7848 90.6791 72.3296 91.2859 72.9114C91.7895 73.4015 92.3757 73.7555 93.0171 74.0433C93.825 74.4109 94.6179 74.8167 95.4183 75.2033C95.8629 75.4141 96.305 75.6311 96.7709 75.8063C97.7535 76.1764 98.6711 76.6749 99.4585 77.3567C101.363 79.0178 103.186 80.7567 104.725 82.7725C105.368 83.6173 105.805 84.5573 106.112 85.5489C106.519 86.8651 106.939 88.1863 107.337 89.5064C107.843 91.2055 108.018 93.002 107.579 94.7775C107.511 95.0654 107.388 95.3398 107.294 95.6177C106.992 96.5023 106.702 97.3919 106.372 98.2729C106.175 98.7743 105.957 99.2747 105.691 99.7489C104.52 101.86 102.78 103.5 101.01 105.083C99.9508 106.031 98.7284 106.796 97.5774 107.642C97.42 107.763 97.2524 107.873 97.1281 108.022C96.3337 108.985 95.2345 109.455 94.1001 109.809C92.213 110.402 90.3155 110.948 88.5125 111.794C88.0721 112.002 87.5741 112.115 87.0924 112.204C84.8521 112.615 82.6128 113.005 80.3697 113.386C79.9865 113.448 79.5728 113.477 79.1899 113.407C77.0464 113.029 74.9028 112.651 72.7715 112.204C70.9837 111.833 69.1982 111.42 67.5525 110.555C67.1699 110.354 66.7012 110.317 66.2837 110.168C65.9169 110.039 65.5108 109.917 65.2167 109.677C63.5421 108.326 62.0992 106.794 61.4494 104.658C61.0967 103.502 60.9554 102.349 61.205 101.151C61.4375 100.034 61.6332 98.9169 61.8378 97.7963C61.8961 97.4604 61.9076 97.1134 61.9469 96.7701C61.9978 96.2848 62.0106 95.7847 62.1021 95.308C62.496 93.2365 62.58 91.19 61.7856 89.1803C61.7494 89.0856 61.6981 88.9923 61.6987 88.8974C61.6602 87.4253 60.9244 86.1633 60.4867 84.8131C60.3132 84.2839 60.039 83.8251 59.6311 83.4457C58.1525 82.0613 56.6701 80.668 55.1915 79.2836C54.405 78.5436 53.3926 78.2496 52.4018 77.9568C50.9707 77.5354 49.853 76.6877 48.8728 75.601C48.2602 74.9218 47.8809 74.1143 47.7062 73.2331C47.3357 71.3748 47.6017 69.6486 48.5656 67.954C49.3745 66.5429 50.4781 65.4449 51.5916 64.3215C51.8605 64.0461 52.2186 63.8422 52.5488 63.6347C52.8412 63.449 53.1898 63.3439 53.4554 63.1331C54.8138 62.0763 56.3913 62.0864 57.9867 62.1255C58.597 62.1376 58.9851 62.3993 59.2877 62.9352C59.7507 63.7535 60.2603 64.5461 60.7812 65.3285C62.2314 67.5145 63.6929 69.6904 65.1519 71.8725C65.3145 72.1119 65.4568 72.3653 65.6323 72.6464C65.2766 73.1806 64.9127 73.6238 64.3793 73.9202C63.0906 74.6308 62.1529 75.7353 61.266 76.8596C60.5334 77.7954 60.2841 78.8619 60.6904 80.068C61.2053 81.5948 61.8787 82.9788 63.131 84.0623C64.1833 84.9649 65.1463 85.9644 66.171 86.9002C67.6366 88.2429 68.5992 89.8792 69.1535 91.7729C69.3755 92.5334 69.6303 93.2849 69.8219 94.0481C69.9444 94.5207 70.0759 95.0262 70.0642 95.5048C70.0162 97.1041 70.3768 98.6511 70.616 100.209C70.6532 100.451 70.7486 100.693 70.7491 100.935C70.7545 102.548 71.4778 103.841 72.3622 105.154C74.1871 107.86 76.7604 109.198 79.8855 109.631C83.3045 110.098 86.5787 109.609 89.7269 108.169C91.3055 107.448 92.7455 106.481 94.2818 105.699C94.5833 105.547 94.8588 105.31 95.0963 105.059C95.6101 104.514 96.2302 104.127 96.8169 103.676C97.6303 103.057 98.4185 102.297 98.9529 101.437C100.369 99.1291 101.206 96.6011 101.121 93.8444C101.075 92.3179 101.087 90.7708 100.62 89.2917C100.217 88.021 99.7481 86.7685 99.3099 85.5133C99.2906 85.4691 99.2737 85.4186 99.2368 85.3822C98.2974 84.5091 97.7294 83.3422 96.8163 82.4208C95.7144 81.3084 94.3913 80.5925 93.0903 79.7828C91.3378 78.6865 89.5439 77.6398 87.9353 76.307C86.8337 75.3996 85.5953 74.6731 84.4296 73.8358C83.8697 73.4335 83.3172 73.0121 82.81 72.5499C82.1217 71.9143 81.4233 71.2673 80.8306 70.5373C80.0679 69.587 79.3543 68.6047 79.0806 67.3407C78.8551 66.2713 78.6464 65.2524 78.8143 64.132C79.0195 62.7481 78.6386 61.8887 77.7907 60.5389C77.304 59.7626 76.8051 59.0547 75.859 58.816C75.7651 58.7939 75.6652 58.806 75.5526 58.8131C75.0995 59.0164 74.9633 59.439 74.9122 59.8875C74.8194 60.7225 74.7116 61.5588 74.6898 62.3996C74.6716 63.2125 74.4859 63.9671 74.1062 64.6751C73.8027 65.2444 73.4953 65.8049 73.1918 66.3743C72.9595 66.8178 72.624 67.1697 72.1884 67.4969C71.6297 67.2781 71.3149 66.8107 71.0257 66.39C70.1315 65.1026 69.0205 63.9573 68.3637 62.4188C68.9187 61.7869 69.3862 61.1353 69.9674 60.6234L69.9586 60.6273ZM47.9097 30.8548C48.2889 31.8307 48.769 32.7362 49.3437 33.6056C49.8646 34.388 50.3187 35.2101 50.8107 36.0105C51.1539 36.5549 51.4996 37.093 51.863 37.6234C52.5553 38.6413 53.3295 39.6181 53.9462 40.6796C55.2153 42.8606 56.4088 45.0852 57.6337 47.2855C57.7068 47.4166 57.751 47.5657 57.8379 47.6803C59.5737 49.9782 60.8256 52.5771 62.3119 55.0261C63.1576 56.4189 63.9692 57.8424 64.806 59.2391C65.1123 59.747 65.4589 60.2269 65.7853 60.7208C66.0234 61.0849 66.259 61.4554 66.5073 61.8309C66.11 62.2098 65.8329 62.0573 65.6243 61.7487C65.0921 60.9765 64.58 60.1902 64.0502 59.4116C62.8025 57.5685 61.517 55.7472 60.3185 53.872C59.4976 52.5841 58.7864 51.222 58.0575 49.8676C56.954 47.8247 55.8907 45.7536 54.7872 43.7106C53.7593 41.7925 52.6355 39.932 51.4071 38.1331C50.5959 36.9514 49.8919 35.7019 49.1563 34.4767C48.4232 33.2451 47.6927 32.0072 46.9886 30.7577C46.3871 29.6948 45.8235 28.6101 45.2397 27.5395C45.3228 27.4769 45.4059 27.4142 45.489 27.3516C46.5305 28.3379 47.3756 29.4889 47.8956 30.8347L47.9097 30.8548ZM40.5551 6.31725C40.8259 8.22442 41.036 10.1371 41.1942 12.0514C41.2731 12.9902 41.513 13.7797 42.2971 14.3577C42.5364 14.5319 42.743 14.752 42.9459 14.9632C43.4357 15.4698 43.9954 15.8355 44.7066 15.9822C45.2278 16.0911 45.727 16.3306 46.3122 16.5378C46.0449 17.5753 45.8713 18.5982 45.5072 19.5466C45.0302 20.8021 44.9581 22.0332 45.2611 23.316C45.3956 23.8885 45.5605 24.4583 45.7 25.0181C44.8538 25.8142 44.6315 25.8956 43.5106 25.8227C43.1076 26.6459 43.1195 26.7092 42.5925 26.8396C41.8798 27.0144 41.2244 27.2483 40.6901 27.7712C40.572 27.886 40.3263 27.8776 40.0395 27.9557C39.5398 27.306 39.0387 26.6412 38.5238 25.9929C38.3718 25.8016 38.2007 25.6028 37.9909 25.4841C36.5456 24.6691 35.3389 23.4131 33.6273 23.0723C33.5398 23.0526 33.462 22.9709 33.3069 22.8809C33.4239 22.0774 33.6283 21.2935 34.2223 20.6183C35.0346 20.563 35.7848 20.8348 36.548 20.9799C36.9372 21.0518 37.3164 21.1491 37.7078 21.1779C37.9573 21.1951 38.1984 21.0845 38.2545 20.7916C38.3045 20.533 38.0498 20.155 37.7876 20.1329C37.5469 20.1118 37.2963 20.1162 37.0523 20.1597C36.2468 20.2909 35.5943 20.05 35.0209 19.3642C35.1631 18.3656 35.2906 17.4417 35.4427 16.4177C35.8164 16.4542 36.1383 16.4924 36.4651 16.5179C36.854 16.5531 37.2495 16.6274 37.6379 16.5892C37.8353 16.5713 38.1326 16.3729 38.1782 16.2004C38.2213 16.0342 38.0326 15.6748 37.8714 15.619C37.1822 15.3784 36.5936 14.8623 35.805 14.8756C35.6278 14.8794 35.4484 14.7579 35.2199 14.6684C35.1827 14.2585 35.1381 13.8676 35.1214 13.4804C35.1088 13.1386 35.1304 12.803 35.1341 12.4384C35.7389 12.2213 36.2525 12.5176 36.7742 12.5316C37.1149 12.5405 37.4635 12.6038 37.8 12.5672C37.9606 12.5496 38.1773 12.4075 38.256 12.2626C38.3922 12.0084 38.2283 11.7538 38.021 11.6287C37.7299 11.4561 37.4012 11.342 37.0752 11.2583C36.696 11.1611 36.2883 11.1551 35.909 11.0579C35.5767 10.9717 35.2278 10.8716 34.953 10.6761C34.7926 10.5621 34.7044 10.2639 34.6901 10.0387C34.6753 9.74003 34.9579 9.61645 35.2011 9.63115C35.9776 9.68629 36.7518 9.7845 37.5247 9.86753C37.5638 9.15069 37.4697 8.92349 36.9012 8.73011C36.4342 8.57651 35.9423 8.48638 35.4667 8.37335C35.0381 8.27138 34.6133 8.17823 34.1377 8.0652C33.9333 6.7551 33.656 5.51897 33.1512 4.34018C32.9142 3.78612 33.1548 3.26531 33.5874 2.87098C34.2401 2.26998 35.033 1.96546 35.9049 2.09461C36.9378 2.24286 37.9217 2.6282 38.7529 3.25392C40.1952 4.33857 40.2835 4.46833 40.5449 6.30593L40.5551 6.31725Z" fill="white" fill-opacity="0.5"/>
<path fill-rule="evenodd" clip-rule="evenodd" d="M95.6556 90.8619C95.1729 90.6363 94.8024 90.8719 94.6209 91.3353C94.3101 92.1288 94.671 92.6655 95.2354 93.1501C95.4746 93.3243 95.6852 93.5532 95.9493 93.664C96.1525 93.7435 96.4768 93.7754 96.6444 93.6653C97.2026 93.3055 97.5991 92.8165 97.6294 92.1035C97.653 91.5197 97.3832 91.1431 96.7966 91.0891C96.4014 91.0515 96.0417 91.0351 95.6644 90.8581L95.6556 90.8619ZM96.417 92.3389C96.4024 92.4137 96.269 92.5299 96.2461 92.5136C96.0466 92.4062 95.8608 92.2822 95.6751 92.1582C95.6458 92.1394 95.6517 92.0685 95.6205 91.9611C95.7505 91.9095 95.7933 91.875 95.8364 91.8772C96.2049 91.8897 96.4786 92.1068 96.4234 92.3414L96.417 92.3389Z" fill="white" fill-opacity="0.5"/>
<path fill-rule="evenodd" clip-rule="evenodd" d="M94.8429 86.8242C94.7643 87.3426 94.8826 87.7696 95.3018 88.1388C95.7478 88.5331 96.2347 88.4675 96.6687 88.2568C97.0472 88.0755 97.3396 87.7215 97.6806 87.4303C97.6501 86.7229 97.433 86.2864 97.0911 85.9255C96.1306 84.9197 95.4051 85.0895 94.9702 86.4055C94.9244 86.5413 94.8633 86.6785 94.8429 86.8242ZM95.6244 86.5299C95.7189 86.2887 96.2312 86.2331 96.3796 86.4523C96.4961 86.6223 96.4877 86.868 96.5216 87.0058C96.2555 87.3115 95.8732 87.3156 95.6927 87.0472C95.5981 86.915 95.5634 86.6671 95.6269 86.5236L95.6244 86.5299Z" fill="white" fill-opacity="0.5"/>
</svg>
