<svg width="228" height="206" viewBox="0 0 228 206" fill="none" xmlns="http://www.w3.org/2000/svg">
<path fill-rule="evenodd" clip-rule="evenodd" d="M207.509 175.079C206.869 171.949 206.349 169.149 205.719 166.369C205.089 163.599 204.349 160.849 203.649 158.019C204.719 157.649 205.749 157.429 206.649 156.949C207.479 156.509 208.089 155.679 208.899 155.209C211.499 153.729 213.729 151.799 215.849 149.729C216.029 149.549 216.329 149.499 216.769 149.309C217.159 150.589 216.949 151.799 216.949 152.999C216.949 154.239 216.889 155.479 216.899 156.719C216.899 157.869 216.969 159.009 216.979 160.149C216.989 161.389 216.929 162.629 216.969 163.869C217.009 165.089 217.129 166.319 217.209 167.499C219.039 168.309 220.679 169.039 222.329 169.759C223.309 170.189 224.339 170.349 225.409 170.199C227.589 169.889 228.639 167.849 227.589 165.949C227.309 165.449 226.939 165.009 226.619 164.529C225.909 163.449 224.859 163.039 223.649 163.189C222.439 163.329 221.249 163.649 220.009 163.899C219.399 163.599 219.549 162.959 219.549 162.429C219.529 158.709 219.569 154.979 219.529 151.259C219.509 149.449 219.409 147.629 219.259 145.829C219.159 144.679 218.909 143.579 219.789 142.569C219.989 142.339 219.909 141.569 219.669 141.309C219.419 141.039 218.809 140.959 218.379 141.019C217.939 141.079 217.469 141.339 217.129 141.629C215.539 142.989 213.959 144.369 212.409 145.779C209.869 148.099 207.139 150.199 204.229 152.029C203.139 152.719 201.779 152.969 200.269 153.529C199.619 154.619 199.819 155.999 200.269 157.379C201.929 162.469 203.389 167.589 203.489 173.009C203.519 174.709 203.899 176.409 204.119 178.109C204.249 179.069 204.819 179.739 205.709 179.929C207.969 180.419 210.279 180.419 212.519 179.929C214.129 179.569 214.979 177.579 214.389 176.019C213.609 173.969 211.789 173.179 209.769 174.029C209.079 174.319 208.409 174.669 207.499 175.089L207.509 175.079Z" fill="white" fill-opacity="0.5"/>
<path fill-rule="evenodd" clip-rule="evenodd" d="M137.36 170.53C138.31 169.98 138.81 169.05 139.31 168.17C140.74 165.68 143.05 165.12 145.57 165.5C147.43 165.78 149.32 166.34 151.03 167.14C153.11 168.12 155.14 168.96 157.48 168.83C157.62 168.83 157.78 168.97 158 169.08C157.88 169.39 157.82 169.76 157.62 170.01C154.56 173.99 151.71 178.15 148.25 181.82C146.17 184.03 144.09 186.23 141.97 188.4C141.06 189.34 140.82 190.55 140.69 191.7C140.61 192.42 140.44 193.01 140.1 193.61C139.02 195.51 138.19 197.5 137.85 199.67C137.82 199.84 137.75 200 137.73 200.17C137.51 202.01 137.85 203.72 139.51 204.74C141.15 205.75 142.87 205.35 144.43 204.38C144.85 204.12 145.24 203.71 145.5 203.28C147.02 200.72 148.11 198 148.58 195.05C148.69 194.37 148.68 193.67 148.65 192.98C148.57 191.21 148 189.75 146.12 189.16C145.96 189.11 145.81 189 145.67 188.9C145.61 188.85 145.59 188.76 145.44 188.5C145.66 188.18 145.9 187.75 146.22 187.38C146.84 186.66 147.48 185.94 148.15 185.27C152.77 180.65 156.42 175.25 160.3 170.03C161.89 167.89 163.03 165.42 163.86 162.84C163.96 162.52 164.03 162.16 163.99 161.83C163.96 161.63 163.73 161.37 163.53 161.31C163.33 161.25 162.95 161.31 162.85 161.47C162.61 161.81 162.51 162.25 162.31 162.62C161.82 163.56 161.02 164.08 159.98 163.86C158.8 163.61 157.57 163.36 156.53 162.8C153.12 160.93 149.46 159.9 145.7 159.23C144.1 158.94 142.42 158.96 140.79 159.08C138.75 159.24 137.21 160.31 136.44 162.29C136.13 163.09 135.83 163.91 135.65 164.75C135.28 166.52 135.41 168.2 136.74 169.61C136.97 169.86 137.13 170.18 137.36 170.52V170.53ZM159.4 165.9C158.55 166.79 157.59 166.97 156.65 166.85C155.63 166.72 154.57 166.49 153.67 166.04C151.4 164.9 148.99 164.15 146.53 163.65C143.43 163.02 140.47 163.34 138.28 166.07C138.13 166.25 137.85 166.33 137.61 166.46C137.37 164.34 137.65 163.3 138.66 162.17C139.61 161.1 140.85 160.91 142.19 160.85C145.56 160.7 148.7 161.76 151.8 162.82C154.33 163.68 156.75 164.83 159.38 165.91L159.4 165.9ZM143.46 191.52C145.76 191.24 146.1 191.44 146.42 193.34C146.52 193.93 146.63 194.57 146.5 195.13C145.98 197.4 145.25 199.61 144.11 201.65C143.61 202.55 142.79 202.97 141.79 203.08C141.04 203.16 140.33 202.77 140.23 202.04C140.1 201.12 139.92 200.11 140.16 199.25C140.92 196.51 142.09 193.93 143.46 191.51V191.52Z" fill="white" fill-opacity="0.5"/>
<path fill-rule="evenodd" clip-rule="evenodd" d="M153.366 119.863C153.996 114.903 154.596 110.133 155.226 105.153C158.566 106.423 161.566 108.143 164.586 109.823C167.576 111.483 170.656 112.993 173.866 114.663C173.826 115.113 173.776 115.643 173.716 116.163C173.236 120.693 172.336 125.133 170.946 129.473C170.596 130.573 170.716 131.683 171.016 132.763C171.366 134.013 171.816 135.243 172.136 136.493C172.626 138.413 173.866 139.733 175.446 140.783C177.936 142.443 181.686 140.573 181.956 137.573C182.206 134.823 181.396 132.463 179.426 130.493C177.346 128.413 177.366 128.403 174.156 127.443C174.236 127.023 174.256 126.573 174.396 126.163C175.966 121.473 176.396 116.543 177.266 111.713C177.606 109.823 177.436 107.833 177.476 105.883C177.476 105.513 177.446 105.133 177.346 104.783C177.126 103.983 176.476 103.473 175.696 104.083C175.416 104.303 175.106 104.493 174.716 104.763C174.036 104.433 173.356 104.153 172.726 103.793C169.436 101.873 166.006 100.243 162.406 98.9534C160.576 98.2934 158.846 97.3834 157.056 96.6234C156.466 96.3734 155.846 96.1534 155.216 96.0434C154.056 95.8434 153.486 96.3334 153.406 97.5434C153.266 99.7634 153.266 102.003 153.026 104.213C152.486 109.093 151.856 113.973 151.226 118.843C151.076 120.033 150.806 121.173 150.166 122.263C149.206 123.923 149.466 125.483 150.706 127.093C151.976 128.753 153.336 130.153 155.236 131.073C156.586 131.723 157.936 131.713 159.296 131.363C159.776 131.243 160.296 130.823 160.556 130.393C161.416 128.943 161.596 127.433 160.556 125.943C160.236 125.483 159.916 125.023 159.666 124.533C158.596 122.423 156.926 121.063 154.676 120.403C154.326 120.303 153.996 120.133 153.376 119.873L153.366 119.863ZM155.636 98.8234C162.396 101.213 168.736 103.953 174.756 107.423C174.996 109.843 174.916 110.583 174.086 112.573C171.386 111.153 168.696 109.743 166.006 108.313C163.476 106.973 160.986 105.543 158.426 104.263C156.026 103.063 155.266 101.753 155.636 98.8334V98.8234ZM179.816 136.073C179.806 136.353 179.796 136.623 179.766 136.903C179.656 138.043 179.036 138.553 177.916 138.353C176.666 138.133 175.776 137.383 175.056 136.373C174.286 135.283 174.036 134.013 173.776 132.763C173.466 131.283 174.656 130.273 176.106 130.713C177.886 131.243 179.766 133.973 179.806 136.083L179.816 136.073ZM153.856 122.613C154.586 122.943 155.346 123.253 156.066 123.643C157.096 124.203 157.526 125.253 157.926 126.263C158.006 126.463 157.876 126.813 157.736 127.023C156.676 128.543 154.686 128.693 153.506 127.293C152.806 126.463 152.266 125.513 151.686 124.673C152.416 123.313 152.396 123.283 153.856 122.613Z" fill="white" fill-opacity="0.5"/>
<path fill-rule="evenodd" clip-rule="evenodd" d="M72.6244 124.833C71.988 121.713 71.4709 118.921 70.8445 116.15C70.218 113.389 69.4822 110.647 68.7861 107.826C69.8501 107.457 70.8743 107.238 71.7693 106.759C72.5946 106.321 73.2012 105.493 74.0066 105.025C76.592 103.549 78.8095 101.625 80.9175 99.5618C81.0965 99.3823 81.3949 99.3325 81.8324 99.1431C82.2202 100.419 82.0114 101.625 82.0114 102.822C82.0114 104.058 81.9517 105.294 81.9616 106.53C81.9616 107.676 82.0313 108.813 82.0412 109.949C82.0511 111.186 81.9915 112.422 82.0313 113.658C82.071 114.874 82.1904 116.1 82.2699 117.277C84.0896 118.084 85.7204 118.812 87.3611 119.529C88.3356 119.958 89.3598 120.118 90.4238 119.968C92.5916 119.659 93.6357 117.625 92.5916 115.731C92.3131 115.233 91.9452 114.794 91.627 114.316C90.921 113.239 89.8769 112.83 88.6737 112.98C87.4705 113.119 86.2872 113.438 85.0542 113.688C84.4476 113.389 84.5968 112.751 84.5968 112.222C84.5769 108.514 84.6166 104.795 84.5769 101.087C84.557 99.2826 84.4575 97.4683 84.3084 95.6739C84.2089 94.5275 83.9604 93.4309 84.8354 92.424C85.0343 92.1947 84.9547 91.4271 84.7161 91.168C84.4675 90.8988 83.8609 90.819 83.4333 90.8789C82.9958 90.9387 82.5285 91.1979 82.1904 91.487C80.6093 92.8427 79.0382 94.2184 77.4969 95.6241C74.9712 97.9368 72.2565 100.03 69.3629 101.855C68.279 102.542 66.9266 102.792 65.4251 103.35C64.7788 104.437 64.9776 105.812 65.4251 107.188C67.0758 112.262 68.5276 117.366 68.627 122.769C68.6569 124.464 69.0347 126.159 69.2535 127.854C69.3828 128.811 69.9495 129.478 70.8345 129.668C73.0818 130.156 75.3789 130.156 77.6063 129.668C79.2072 129.309 80.0524 127.325 79.4658 125.77C78.6901 123.726 76.8804 122.939 74.8717 123.786C74.1856 124.075 73.5194 124.424 72.6145 124.843L72.6244 124.833Z" fill="white" fill-opacity="0.5"/>
<path fill-rule="evenodd" clip-rule="evenodd" d="M2.86877 120.298C3.81343 119.75 4.31062 118.823 4.80781 117.946C6.22977 115.463 8.52679 114.905 11.0326 115.284C12.8822 115.563 14.7615 116.121 16.4619 116.919C18.5302 117.896 20.5488 118.733 22.8757 118.604C23.0149 118.604 23.174 118.743 23.3928 118.853C23.2734 119.162 23.2138 119.531 23.0149 119.78C19.9721 123.747 17.1381 127.895 13.6976 131.553C11.6293 133.756 9.56094 135.949 7.45286 138.113C6.54797 139.05 6.30932 140.256 6.18005 141.402C6.1005 142.12 5.93146 142.708 5.59337 143.307C4.51944 145.201 3.6941 147.184 3.35601 149.348C3.32618 149.517 3.25658 149.677 3.23669 149.846C3.01793 151.68 3.35601 153.385 5.00668 154.402C6.63747 155.409 8.3478 155.01 9.89903 154.043C10.3167 153.784 10.7045 153.375 10.963 152.946C12.4745 150.394 13.5583 147.683 14.0257 144.742C14.1351 144.064 14.1251 143.366 14.0953 142.678C14.0158 140.914 13.449 139.458 11.5795 138.87C11.4204 138.82 11.2713 138.711 11.1321 138.611C11.0724 138.561 11.0525 138.472 10.9034 138.212C11.1221 137.893 11.3608 137.465 11.679 137.096C12.2955 136.378 12.9319 135.66 13.5981 134.992C18.1922 130.387 21.8216 125.004 25.6798 119.8C27.2609 117.666 28.3945 115.204 29.2198 112.632C29.3193 112.313 29.3889 111.954 29.3491 111.625C29.3193 111.426 29.0906 111.167 28.8917 111.107C28.6928 111.047 28.3149 111.107 28.2155 111.266C27.9769 111.605 27.8774 112.044 27.6785 112.413C27.1913 113.35 26.3958 113.868 25.3616 113.649C24.1883 113.4 22.9652 113.151 21.931 112.592C18.5402 110.728 14.9008 109.701 11.1619 109.033C9.57089 108.744 7.90033 108.764 6.27949 108.884C4.25096 109.043 2.71961 110.11 1.95394 112.084C1.64568 112.881 1.34737 113.699 1.16838 114.536C0.800459 116.301 0.929728 117.976 2.25225 119.381C2.48096 119.63 2.64006 119.949 2.86877 120.288V120.298ZM24.7849 115.683C23.9397 116.57 22.9851 116.749 22.0504 116.63C21.0361 116.5 19.982 116.271 19.0871 115.822C16.8299 114.686 14.4334 113.938 11.9872 113.44C8.90465 112.812 5.96129 113.131 3.7836 115.852C3.63444 116.032 3.35602 116.111 3.11736 116.241C2.87871 114.128 3.15714 113.091 4.16146 111.964C5.10612 110.898 6.33915 110.708 7.67162 110.648C11.0227 110.499 14.145 111.556 17.2276 112.612C19.7434 113.47 22.1498 114.616 24.765 115.693L24.7849 115.683ZM8.93448 141.223C11.2216 140.944 11.5596 141.143 11.8778 143.037C11.9773 143.626 12.0867 144.264 11.9574 144.822C11.4403 147.085 10.7144 149.288 9.58083 151.322C9.08364 152.219 8.26825 152.637 7.27387 152.747C6.52809 152.827 5.82208 152.438 5.72264 151.71C5.59337 150.793 5.41438 149.786 5.65303 148.929C6.40876 146.197 7.57218 143.626 8.93448 141.213V141.223Z" fill="white" fill-opacity="0.5"/>
<path fill-rule="evenodd" clip-rule="evenodd" d="M18.7853 69.7892C19.4118 64.8446 20.0084 60.0894 20.6349 55.1249C23.9561 56.391 26.9392 58.1056 29.9423 59.7804C32.9155 61.4352 35.9781 62.9405 39.1701 64.6053C39.1303 65.0539 39.0806 65.5823 39.0209 66.1007C38.5436 70.6166 37.6487 75.0428 36.2665 79.3693C35.9185 80.4659 36.0378 81.5724 36.3361 82.6491C36.6842 83.8952 37.1316 85.1213 37.4498 86.3675C37.9371 88.2815 39.1701 89.5974 40.7412 90.6441C43.2172 92.299 46.9462 90.4348 47.2146 87.4441C47.4632 84.7027 46.6578 82.35 44.6989 80.3861C42.6305 78.3126 42.6504 78.3026 39.4585 77.3456C39.538 76.9269 39.5579 76.4783 39.6971 76.0696C41.2583 71.3942 41.6859 66.4795 42.551 61.6645C42.8891 59.7804 42.72 57.7966 42.7598 55.8526C42.7598 55.4838 42.73 55.105 42.6305 54.7561C42.4118 53.9586 41.7654 53.4501 40.9898 54.0582C40.7114 54.2776 40.4031 54.467 40.0153 54.7361C39.3391 54.4072 38.663 54.128 38.0365 53.7691C34.765 51.8551 31.3543 50.2302 27.7745 48.9442C25.9548 48.2862 24.2345 47.3791 22.4546 46.6214C21.8679 46.3722 21.2514 46.1529 20.6249 46.0432C19.4714 45.8439 18.9046 46.3323 18.8251 47.5386C18.6859 49.7517 18.6859 51.9847 18.4472 54.1878C17.9103 59.0527 17.2838 63.9175 16.6574 68.7723C16.5082 69.9586 16.2397 71.0951 15.6033 72.1817C14.6487 73.8365 14.9072 75.3917 16.1403 76.9967C17.4031 78.6515 18.7555 80.0472 20.6448 80.9643C21.9872 81.6123 23.3296 81.6023 24.682 81.2534C25.1593 81.1338 25.6764 80.7151 25.9349 80.2864C26.7901 78.8409 26.9691 77.3356 25.9349 75.8503C25.6167 75.3917 25.2985 74.9331 25.0499 74.4446C23.9859 72.3412 22.3253 70.9854 20.088 70.3275C19.7399 70.2278 19.4118 70.0583 18.7953 69.7991L18.7853 69.7892ZM21.0426 48.8146C27.7646 51.1972 34.0689 53.9286 40.0551 57.3879C40.2938 59.8003 40.2142 60.538 39.3889 62.5218C36.704 61.1063 34.0292 59.7006 31.3543 58.2751C28.8385 56.9393 26.3625 55.5137 23.8169 54.2377C21.4304 53.0414 20.6746 51.7355 21.0426 48.8246V48.8146ZM45.0867 85.9488C45.0767 86.2279 45.0668 86.4971 45.0369 86.7762C44.9276 87.9126 44.311 88.4211 43.1973 88.2217C41.9544 88.0024 41.0694 87.2547 40.3534 86.2478C39.5877 85.1612 39.3391 83.8952 39.0806 82.6491C38.7724 81.1737 39.9557 80.1668 41.3975 80.6054C43.1675 81.1338 45.0369 83.8553 45.0767 85.9587L45.0867 85.9488ZM19.2726 72.5306C19.9985 72.8596 20.7542 73.1686 21.4701 73.5574C22.4944 74.1157 22.9219 75.1624 23.3197 76.1693C23.3992 76.3687 23.27 76.7176 23.1308 76.9269C22.0767 78.4422 20.0979 78.5917 18.9245 77.1961C18.2285 76.3687 17.6915 75.4216 17.1148 74.5842C17.8407 73.2284 17.8208 73.1985 19.2726 72.5306Z" fill="white" fill-opacity="0.5"/>
<path fill-rule="evenodd" clip-rule="evenodd" d="M146.804 19.5903C147.153 18.1107 147.418 16.8069 147.75 15.5289C148.187 13.8443 148.242 12.1723 147.796 10.4854C147.505 9.4101 147.226 8.32731 147.062 7.23079C146.883 5.98653 146.287 5.02455 145.395 4.18796C144.697 3.5306 143.963 2.89558 143.346 2.15462C142.343 0.963022 140.987 0.654363 139.577 0.579322C137.74 0.485949 136.039 1.03103 134.645 2.24376C133.099 3.57502 132.104 5.3134 131.551 7.26882C131.417 7.75094 131.476 8.28861 131.488 8.8051C131.501 9.09598 131.598 9.38571 131.674 9.67087C132.646 13.2691 131.763 12.3936 134.953 14.8598C137.238 16.6303 139.549 18.335 142.141 19.6332C142.72 19.9235 143.247 20.3455 143.896 20.7755C143.641 21.4655 143.419 22.0604 143.243 22.5431C142.937 22.6662 142.798 22.7773 142.667 22.767C142.079 22.7315 141.492 22.696 140.904 22.6192C138.897 22.373 136.932 22.5579 134.954 22.9758C131.786 23.648 129.472 25.5793 127.665 28.0615C126.28 29.9751 126.007 32.3147 126.33 34.6509C126.824 38.2703 128.343 41.4219 130.837 44.0943C131.837 45.172 132.846 46.2519 134.036 47.5283C133.99 48.1134 133.997 48.9162 133.872 49.7087C133.631 51.2547 133.599 52.7881 133.757 54.3456C133.94 56.1865 134.028 58.036 134.098 59.8809C134.204 62.4845 135.375 64.5373 137.25 66.2626C138.441 67.3546 139.781 68.2965 140.683 69.7006C141.05 70.28 141.702 70.5669 142.434 70.3797C143.79 70.031 145.156 69.6846 146.496 69.2707C147.76 68.8796 148.47 67.7831 149.294 66.8572C149.504 66.619 149.541 66.1552 149.541 65.8059C149.485 64.3853 149.17 63.0168 148.488 61.7674C148.254 61.3219 147.889 60.9073 147.502 60.5901C146.601 59.8337 145.883 60.0449 145.093 60.9582C144.036 62.1784 144.203 63.3889 144.94 64.6206C145.271 65.1811 145.721 65.6673 146.067 66.1185C145.963 66.998 145.375 67.1371 144.803 67.3003C144.121 67.4893 143.46 67.3747 142.875 67.0214C140.175 65.3997 138.316 63.0412 137.083 60.2034C136.65 59.2076 136.583 58.0515 136.432 56.9476C136.262 55.7056 136.125 54.451 136.06 53.2027C135.99 51.8818 136.045 50.5591 136.355 49.1528C137.085 49.1087 137.691 49.3234 138.228 49.7065C140.754 51.544 143.756 52.0142 146.675 51.8791C150.289 51.7126 153.741 50.84 156.738 48.3607C159.827 45.8001 161.291 42.549 161.76 38.807C162.117 35.9836 161.644 33.191 159.541 30.9498C159.09 30.4636 158.68 29.9357 158.309 29.3757C156.01 25.9171 152.961 23.2889 149.365 21.2406C148.531 20.767 147.759 20.2053 146.797 19.5783L146.804 19.5903ZM136.72 45.9411C136.726 45.6135 136.69 45.4612 136.731 45.3272C138.829 38.8558 140.976 32.3958 143.935 26.2398C144.053 26.0005 144.293 25.8104 144.446 25.6409C146.501 26.2067 147.632 27.6439 148.42 29.36C149.78 32.3101 150.146 35.2933 148.38 38.2576C147.598 39.5734 146.7 39.8551 145.235 39.1817C145.003 39.0758 144.769 38.9796 144.349 38.7986C144.279 39.4909 144.172 39.9896 144.2 40.4792C144.214 40.7289 144.436 41.0484 144.664 41.1738C146.209 42.0717 148.667 41.5816 149.638 40.0739C150.279 39.0948 150.707 37.9731 151.224 36.9132C151.658 36.0291 151.776 35.0912 151.729 34.1144C151.629 32.0055 151.048 30.0197 150.188 28.1324C149.413 26.4501 148.44 24.8651 146.588 24.0904C146.317 23.9753 146.084 23.7869 145.851 23.5985C145.348 23.2028 145.388 22.9451 146.114 22.1298C146.731 22.4802 147.368 22.8255 147.999 23.2C151.255 25.1681 154.162 27.5267 156.384 30.6588C156.893 31.3746 157.398 32.1098 157.982 32.7712C159.456 34.4535 159.753 36.4651 159.569 38.5585C159.481 39.5857 159.209 40.6107 158.878 41.5806C158.272 43.3282 157.534 45.0242 155.838 46.0738C155.405 46.3417 155.069 46.766 154.706 47.1325C153.917 47.9536 152.968 48.4906 151.851 48.7414C151.058 48.9246 150.27 49.1296 149.472 49.291C144.616 50.3262 140.508 48.661 136.73 45.9434L136.72 45.9411ZM134.369 44.4941C133.272 43.2189 132.359 42.254 131.547 41.2102C129.986 39.1992 128.834 36.9763 128.534 34.4093C128.242 31.8956 128.653 29.6705 130.647 27.7461C132.466 25.9962 134.544 25.1088 136.94 24.8403C138.586 24.6525 140.263 24.6874 142.035 25.279C140.988 27.4983 140.01 29.5591 139.04 31.6319C138.095 33.6388 137.874 35.888 136.793 37.8629C135.712 39.8377 135.699 42.2489 134.377 44.5061L134.369 44.4941ZM144.741 18.2315C144.463 18.1456 144.167 18.0963 143.929 17.9687C140.835 16.2336 138.063 14.0405 135.185 11.9968C135.062 11.9064 134.938 11.8256 134.853 11.7031C134.671 11.4752 134.469 11.2427 134.366 10.9822C133.496 8.78453 133.365 6.67851 135.158 4.81989C135.361 4.6109 135.54 4.37556 135.753 4.16886C137.658 2.27474 140.343 2.30057 142.23 4.23427C142.902 4.91625 143.559 5.61541 144.181 6.3369C144.464 6.66042 144.787 7.03434 144.877 7.43573C145.479 10.0737 146.413 12.6974 145.566 15.467C145.292 16.3683 145.433 17.3875 144.746 18.2533L144.741 18.2315Z" fill="white" fill-opacity="0.5"/>
<path fill-rule="evenodd" clip-rule="evenodd" d="M87.0206 184.05C88.6206 183.71 89.2506 182.48 89.6406 181.06C89.7606 180.64 89.7306 180.19 89.8206 179.76C89.9406 179.13 90.3206 178.81 90.9506 178.78C91.0606 178.78 91.1706 178.8 91.2806 178.8C92.8006 178.81 94.3406 178.94 95.9106 178.18C95.9306 178.72 96.0206 179.1 95.9406 179.43C95.3506 182 95.0806 184.6 94.9206 187.23C94.8506 188.37 94.5306 189.49 94.3206 190.61C93.9106 190.86 93.5506 191.09 93.1906 191.31C93.1706 191.51 93.1106 191.68 93.1406 191.83C93.4306 193.34 93.9306 194.79 94.5806 196.18C94.7406 196.53 94.9206 196.87 95.0906 197.21C95.7439 198.57 96.6273 199.697 97.7406 200.59C98.1506 200.92 98.5806 201.07 99.1106 200.89C99.6906 200.69 100.091 200.32 100.051 199.71C99.9906 198.79 99.9706 197.83 99.7106 196.96C99.1706 195.12 98.4606 193.33 97.0106 191.97C96.6506 191.64 96.6106 191.23 96.6606 190.77C97.0106 187.4 97.2606 184.01 97.7206 180.65C98.0406 178.36 98.0106 176.07 98.1606 173.78C98.1906 173.3 98.2906 172.81 98.4806 172.37C98.7406 171.79 98.6806 171.32 98.2806 170.86C98.0306 170.57 97.7906 170.28 97.5506 170C96.6306 170.22 96.3606 170.83 96.1306 171.52C95.7006 172.81 95.2206 174.08 94.7506 175.35C94.6606 175.6 94.5106 175.83 94.3406 176.15C93.3606 176.18 92.3906 176.2 91.4206 176.23C90.9806 176.24 90.5406 176.23 90.1106 176.28C88.8506 176.42 87.9506 177.07 87.5806 178.3C87.3106 179.18 87.1006 180.09 86.9506 181.01C86.8506 181.59 86.8606 182.17 86.5806 182.74C86.3706 183.16 86.4706 183.72 87.0406 184.05H87.0206Z" fill="white" fill-opacity="0.5"/>
</svg>
