<svg width="1392" height="207" viewBox="0 0 1392 207" fill="none" xmlns="http://www.w3.org/2000/svg">
<path fill-rule="evenodd" clip-rule="evenodd" d="M1122.11 28.892C1121.79 27.2013 1120.6 26.281 1118.86 26.2401C1118.57 26.2401 1118.27 26.2196 1117.98 26.1991C1117.4 26.1514 1116.86 26.2741 1116.55 26.7854C1116.25 27.2695 1115.73 27.3581 1115.3 27.5763C1115.3 27.5763 1115.3 27.5763 1115.29 27.5831C1115.37 28.3807 1114.87 28.7011 1114.12 28.9534C1113.99 28.6943 1113.85 28.4284 1113.72 28.1762C1113.88 28.0535 1113.95 27.958 1114.02 27.9512C1114.36 27.9103 1114.7 27.924 1115.04 27.8694C1115.13 27.8558 1115.21 27.6853 1115.29 27.5831C1115.29 27.5831 1115.29 27.5831 1115.29 27.5763C1115.29 27.5763 1115.3 27.5763 1115.3 27.5695C1115.39 27.4945 1115.47 27.4126 1115.56 27.3308C1115.13 26.9354 1114.74 26.5059 1114.28 26.1514C1114 25.9333 1113.62 25.9605 1113.3 26.1719C1112.77 26.5332 1112.26 26.915 1111.95 27.4808C1112.08 28.2444 1113.16 28.4966 1112.87 29.492C1112.55 29.676 1112.17 29.8942 1111.83 30.0919C1110.83 29.5124 1111.83 28.9534 1111.79 28.4489C1111.1 27.4399 1111.07 27.4263 1110.11 27.8217C1109.88 27.9171 1109.65 28.0126 1109.44 28.1421C1109.12 28.3398 1109.07 28.7693 1109.35 29.0352C1109.52 29.1988 1109.72 29.3693 1109.95 29.4442C1110.57 29.6488 1110.75 30.0919 1110.76 30.7259C1110.16 31.1418 1109.68 31.7349 1108.9 31.7963C1108.45 31.0668 1108.19 30.3578 1108.55 29.5465C1108.57 29.492 1108.47 29.3829 1108.37 29.1988C1107.71 29.0966 1106.98 28.9943 1106.24 29.1443C1105.96 29.1988 1105.69 29.342 1105.45 29.5124C1105.16 29.7374 1105.04 30.0646 1105.16 30.4396C1105.28 30.8146 1105.59 30.9986 1105.96 30.9918C1106.4 30.985 1106.84 30.9032 1107.33 30.8555C1107.51 31.2918 1107.79 31.7076 1107.57 32.2735C1106.67 32.7303 1105.71 32.7234 1104.66 32.5871C1104.63 32.2599 1104.59 31.9803 1104.58 31.694C1104.55 30.501 1103.89 29.9624 1102.76 30.2692C1102.55 30.3237 1102.31 30.5146 1102.21 30.7055C1102.06 30.9986 1102.23 31.2918 1102.47 31.4827C1102.77 31.7145 1103.1 31.9053 1103.44 32.1303C1103.34 32.328 1103.3 32.4916 1103.2 32.5735C1102.73 32.9689 1102.19 33.1802 1101.56 33.1257C1100.97 33.0779 1100.37 33.037 1099.77 33.4938C1099.77 34.121 1099.77 34.8096 1099.74 35.4981C1099.73 35.9413 1099.77 36.4321 1099.6 36.8071C1098.92 38.2797 1098.61 39.9295 1097.52 41.2112C1097.37 41.3884 1097.27 41.6543 1097.24 41.8861C1097.17 42.3497 1096.93 42.7042 1096.63 43.0519C1095.36 44.504 1094.07 45.9425 1093.07 47.6059C1093 47.7286 1092.9 47.9059 1092.79 47.9332C1092.1 48.1036 1091.98 48.7444 1091.64 49.2148C1091.22 49.8216 1090.76 50.4079 1090.3 50.9942C1089.39 52.16 1088.46 53.3189 1087.53 54.4779C1086.81 55.3642 1086.08 56.2368 1085.37 57.1162C1083.21 59.7682 1081.05 62.4066 1078.92 65.0722C1077.72 66.5789 1076.58 68.1401 1075.41 69.674C1075.29 69.8308 1075.16 69.9876 1075.02 70.1239C1074.86 70.2671 1074.8 70.5943 1074.5 70.4989C1074.43 70.4512 1074.39 70.4307 1074.37 70.3898C1074.27 70.2194 1074.15 70.0489 1074.09 69.8649C1073.37 67.6901 1071.56 66.5175 1069.87 65.2426C1067.37 64.1723 1064.94 62.8702 1062.08 63.1701C1061.93 63.1838 1061.78 63.1701 1061.64 63.1701C1060.97 63.136 1060.4 63.2383 1059.95 63.8519C1059.71 64.1791 1059.21 64.3291 1058.83 64.5473C1057.81 65.1199 1056.99 65.9176 1056.48 66.9674C1055.67 68.6309 1055.13 70.3762 1055.36 72.2646C1055.47 73.2259 1055.3 74.153 1054.94 75.0257C1054.12 77.03 1053.5 79.1298 1052.29 80.9568C1051.79 81.7068 1051.19 82.334 1050.42 82.8112C1049.71 83.2543 1048.97 83.6634 1048.3 84.1542C1047.06 85.0541 1045.64 85.4564 1044.18 85.7154C1043.45 85.8449 1042.73 85.9472 1042.04 86.2472C1041.68 86.3972 1041.28 86.4994 1040.89 86.5403C1040.24 86.6153 1039.64 86.813 1039.09 87.1743C1038.94 87.2766 1038.69 87.3925 1038.57 87.338C1037.99 87.0516 1037.51 87.3789 1037.01 87.5629C1036.46 87.7743 1035.95 88.122 1035.39 88.2515C1034.67 88.4219 1034.14 88.8174 1033.68 89.3559C1033.32 89.765 1032.96 90.174 1032.6 90.5831C1031.27 92.0693 1030.77 93.9509 1030.11 95.7643C1030.03 95.9893 1030.05 96.2552 1030.03 96.5006C1029.92 97.496 1030.2 98.4913 1030.14 99.4526C1030 101.477 1030.5 103.373 1030.94 105.302C1031.29 106.843 1031.57 108.404 1031.88 109.951C1031.92 110.142 1031.99 110.333 1032.08 110.51C1033.19 112.665 1034.29 114.826 1036 116.598C1036.97 117.601 1037.78 118.732 1038.45 119.946C1039.86 122.468 1041.74 124.486 1044.38 125.754C1044.46 125.795 1044.57 125.829 1044.63 125.897C1045.45 126.681 1046.52 126.961 1047.53 127.37C1048.39 127.724 1049.3 127.97 1049.97 128.699C1050.1 128.836 1050.32 128.883 1050.5 128.952C1051.51 129.354 1052.53 129.763 1053.55 130.152C1053.82 130.261 1054.11 130.37 1054.4 130.397C1056.31 130.581 1058.19 131.031 1060.14 130.956C1062.02 130.881 1063.74 130.506 1065.33 129.504C1066.76 128.604 1068.01 127.486 1069.35 126.47C1070.47 125.625 1071.39 124.595 1072.31 123.566C1072.57 123.28 1072.77 122.918 1072.93 122.564C1073.42 121.425 1073.91 120.287 1074.34 119.128C1074.99 117.369 1075.65 115.589 1075.87 113.715C1076.06 112.194 1076.12 110.667 1076.19 109.14C1076.32 106.413 1077.29 104.054 1079.17 102.064C1079.53 101.675 1079.89 101.239 1080.11 100.755C1080.45 100.012 1080.97 99.4117 1081.53 98.8731C1082.31 98.1163 1083.19 97.4619 1084.01 96.7597C1084.58 96.2825 1085.13 95.7916 1085.69 95.3007C1086.21 94.844 1086.7 94.3531 1087.24 93.9441C1088.1 93.3032 1088.75 92.5192 1089.13 91.5239C1089.67 90.1399 1090.24 88.7628 1090.72 87.3584C1090.97 86.6153 1091.12 85.8313 1091.22 85.0473C1091.31 84.3178 1091.22 83.5611 1091.33 82.8316C1091.46 81.9113 1091.19 81.0659 1090.99 80.2001C1090.92 79.9206 1090.79 79.6002 1090.58 79.4297C1089.51 78.5844 1088.36 77.9299 1086.91 78.3117C1085.77 78.6116 1084.81 79.1911 1084.03 80.0638C1083.47 80.6978 1082.76 80.9296 1081.95 81.0659C1080.47 81.3182 1079.27 80.6637 1078.06 80.0501C1078.11 79.4366 1078.49 79.1161 1078.82 78.7412C1079.4 78.0731 1079.98 77.3981 1080.51 76.6823C1081.09 75.8915 1081.61 75.0461 1082.17 74.2348C1082.45 73.8326 1082.72 73.3895 1083.09 73.0691C1084.29 72.0055 1085.1 70.6352 1086.05 69.3808C1086.32 69.0331 1086.58 68.6786 1086.87 68.3446C1087.22 67.9355 1087.61 67.5469 1087.97 67.1447C1088.65 66.3675 1089.23 65.5017 1089.88 64.7041C1090.82 63.5451 1091.57 62.2702 1092.43 61.0635C1093.54 59.4955 1094.61 57.873 1095.87 56.4277C1096.91 55.2346 1097.9 54.0075 1098.85 52.7394C1099.35 52.0713 1099.9 51.4305 1100.36 50.7215C1101.06 49.6443 1101.69 48.5263 1102.3 47.5241C1102.69 47.3809 1103.01 47.3332 1103.23 47.1696C1104 46.5969 1104.85 46.2561 1105.78 46.0174C1106.73 45.772 1107.63 45.4925 1108.65 45.4721C1109.46 45.4516 1110.29 45.2062 1111.13 45.1312C1112.37 45.0221 1112.72 44.6062 1112.71 43.3041C1112.71 43.1064 1112.77 42.8882 1112.71 42.711C1112.38 41.6884 1112.73 40.7817 1113.08 39.8408C1113.33 39.1864 1113.72 38.7432 1114.32 38.4569C1114.64 38.3069 1114.96 38.1706 1115.27 38.0274C1117.11 37.1684 1118.83 36.0913 1120.53 34.98C1121.04 34.6391 1121.35 34.1687 1121.64 33.6302C1122.49 32.0962 1122.4 30.4737 1122.1 28.8579L1122.11 28.892ZM1075.31 71.7124C1076.06 70.6761 1076.8 69.6194 1077.59 68.6105C1079.52 66.1698 1081.48 63.7496 1083.42 61.3158C1085.29 58.9638 1087.17 56.5981 1089.04 54.2461C1089.19 54.0552 1089.36 53.8643 1089.55 53.7075C1090.28 53.1008 1090.78 52.2963 1091.4 51.6009C1092.86 49.9716 1093.88 48.0354 1095.13 46.2629C1095.7 45.4584 1096.32 44.6812 1096.92 43.9109C1097.14 43.645 1097.4 43.4268 1097.65 43.1814C1098.13 43.2973 1098.35 43.5904 1098.51 44.0813C1098.16 44.5381 1097.77 45.0426 1097.38 45.5334C1096.53 46.6174 1095.72 47.7286 1094.74 48.724C1093.8 49.6648 1093.07 50.7965 1092.25 51.8532C1091.1 53.3394 1089.96 54.8256 1088.81 56.3118C1088.56 56.6254 1088.33 56.9526 1088.04 57.2185C1086.75 58.4116 1085.96 59.9659 1084.91 61.3431C1084.56 61.8135 1084.28 62.352 1083.9 62.802C1082.17 64.8949 1080.39 66.9538 1078.68 69.0604C1077.87 70.0557 1077.16 71.1261 1076.41 72.1692C1076.02 72.7282 1075.63 73.3009 1075.14 74.0303C1074.59 73.0077 1074.84 72.3464 1075.3 71.7192L1075.31 71.7124ZM1070.73 99.6503C1070.49 100.857 1070.28 102.07 1070.04 103.277C1069.99 103.516 1069.91 103.754 1069.81 103.986C1069.25 105.37 1069.01 106.836 1068.75 108.302C1068.53 109.617 1068.4 110.954 1068.1 112.249C1067.85 113.347 1067.51 114.444 1066.73 115.33C1066.54 115.549 1066.37 115.808 1066.27 116.08C1065.97 116.898 1065.41 117.519 1064.75 118.057C1063.88 118.78 1062.99 119.489 1062.1 120.205C1062.06 120.239 1062.03 120.273 1061.99 120.3C1060 121.302 1058.01 122.305 1055.75 122.55C1054.61 122.673 1053.48 122.666 1052.35 122.536C1051.19 122.4 1050.13 122.032 1049.2 121.316C1049 121.166 1048.83 120.975 1048.6 120.887C1046.21 119.898 1044.47 118.037 1042.6 116.353C1041.23 115.112 1040.19 113.612 1039.54 111.86C1039.23 111.029 1038.74 110.292 1038.47 109.426C1038.08 108.165 1038.04 106.911 1038.05 105.616C1038.06 103.4 1039.17 101.661 1040.41 99.9843C1040.72 99.5685 1041.23 99.2821 1041.69 99.0094C1042.88 98.3072 1044.09 97.6391 1045.3 96.9642C1045.68 96.746 1046.07 96.5006 1046.48 96.3438C1048.18 95.6962 1049.5 94.5031 1050.89 93.3919C1052.61 92.0147 1053.68 90.2149 1054.47 88.2038C1054.98 86.8676 1055.56 85.545 1056.07 84.2088C1056.34 83.4929 1056.72 82.8862 1057.34 82.4226C1057.57 82.2453 1057.79 82.034 1057.98 81.809C1058.77 80.9023 1059.78 80.8 1060.81 81.175C1061.92 81.5772 1063.06 81.9317 1064.01 82.7089C1064.38 83.0157 1064.84 83.2202 1065.3 83.4929C1065.05 84.5496 1064.22 85.1632 1063.7 85.9745C1063.16 86.8062 1062.59 87.6107 1062.03 88.4288C1061.47 89.24 1060.91 90.0445 1060.33 90.8762C1059.65 90.7194 1059.05 90.5763 1058.48 90.4399C1057.94 91.0126 1057.41 91.4693 1057.02 92.0147C1056.66 92.526 1056.41 93.1328 1056.19 93.7259C1056.13 93.8895 1056.29 94.2031 1056.44 94.3736C1056.62 94.5917 1056.89 94.7349 1057.1 94.8917C1056.88 95.8052 1055.88 97.3255 1054.25 99.2685C1053.94 99.0708 1053.63 98.8254 1053.29 98.6754C1052.86 98.4913 1052.42 98.4913 1052.07 98.8935C1051.81 99.1935 1051.51 99.4594 1051.25 99.7593C1050.51 100.618 1050.45 101.389 1051.06 102.323C1051.25 102.609 1051.5 102.854 1051.77 103.182C1051.62 103.468 1051.49 103.788 1051.3 104.061C1050.39 105.356 1049.47 106.645 1048.55 107.927C1048.23 108.39 1047.83 108.554 1047.2 108.608C1046.18 108.697 1045.17 108.997 1044.18 109.331C1043.24 109.658 1042.88 110.981 1043.42 111.813C1043.56 112.017 1043.71 112.222 1043.89 112.378C1044.81 113.203 1045.76 114.001 1046.68 114.826C1047.31 115.385 1047.93 115.944 1048.52 116.544C1049.56 117.614 1050.74 118.351 1052.44 118.419C1053.52 117.56 1054.4 116.428 1054.75 114.915C1054.89 114.342 1054.42 114.015 1054.26 113.462C1055.64 111.554 1057.04 109.604 1058.42 107.708C1059.2 107.518 1059.72 108.049 1060.43 108.118C1061.33 107.565 1061.78 106.665 1062.02 105.629C1062.12 105.179 1062.05 105.043 1061.45 104.184C1062.09 102.602 1063.33 101.484 1064.15 100.1C1064.59 100.059 1065.02 100.121 1065.34 99.9571C1065.72 99.7662 1066.03 99.4048 1066.32 99.0844C1066.66 98.7231 1066.96 98.3277 1067.25 97.9255C1067.66 97.3664 1067.86 96.7869 1067.3 96.1802C1067.21 96.0847 1067.21 95.9075 1067.15 95.7234C1067.88 94.4008 1068.75 93.1396 1069.7 91.9466C1070.63 90.7808 1071.5 89.5877 1072.23 88.2856C1072.32 88.1152 1072.45 87.9652 1072.61 87.7402C1072.89 87.7947 1073.19 87.7947 1073.43 87.9106C1074.83 88.5992 1076.33 88.4901 1077.8 88.4628C1078.42 88.4492 1079.03 88.1152 1079.62 87.8697C1080.13 87.6652 1080.6 87.413 1081.19 87.4334C1081.22 88.3742 1080.42 88.7833 1079.96 89.3559C1079.64 89.7377 1079.05 90.024 1078.55 90.0922C1076.94 90.3104 1075.77 91.3262 1074.51 92.1715C1074.13 92.4238 1072.81 94.3599 1072.57 94.9394C1072.01 96.3097 1071.45 97.6937 1070.9 99.0708C1070.82 99.2549 1070.75 99.4389 1070.71 99.6366L1070.73 99.6503ZM1058.75 102.098C1058.58 102.302 1058.33 102.336 1058.13 102.084C1058.13 101.995 1058.1 101.886 1058.14 101.818C1058.94 100.537 1059.76 99.2617 1060.62 97.9186C1060.91 98.0823 1061.15 98.2186 1061.56 98.4436C1060.54 99.7798 1059.65 100.946 1058.75 102.098ZM1056.98 107.306C1056.93 107.415 1056.87 107.524 1056.81 107.633C1056.78 107.613 1056.73 107.593 1056.73 107.586C1056.77 107.47 1056.82 107.354 1056.87 107.238C1056.92 107.272 1056.98 107.299 1056.98 107.306ZM1051.15 106.809C1051.7 105.881 1052.35 105.016 1052.95 104.129C1053.83 104.634 1053.92 104.845 1053.56 105.479C1053.46 105.65 1053.36 105.827 1053.22 105.956C1052.11 106.959 1051.42 108.274 1050.59 109.481C1050.48 109.638 1050.31 109.747 1050.13 109.917C1049.86 109.781 1049.61 109.658 1049.33 109.515C1049.67 108.377 1050.61 107.729 1051.15 106.809ZM1051.98 100.748C1052.26 100.393 1052.56 100.018 1052.9 99.5821C1053.18 99.8275 1053.42 100.046 1053.67 100.271C1053.53 100.993 1053.04 101.423 1052.64 102.064C1052.29 101.664 1052.07 101.225 1051.98 100.748ZM1055.89 104.416C1056.08 104.136 1056.23 103.898 1056.4 103.673C1056.58 103.441 1056.78 103.236 1057 102.991C1057.24 103.086 1057.46 103.175 1057.62 103.243C1057.67 103.359 1057.72 103.42 1057.7 103.448C1057.36 103.973 1057 104.497 1056.59 105.111C1056.33 104.852 1056.14 104.661 1055.89 104.416ZM1055.77 106.113C1054.95 107.654 1053.42 110.695 1052.2 111.54C1052.05 111.458 1051.87 111.39 1051.71 111.274C1051.56 111.158 1051.44 111.008 1051.26 110.824C1051.4 110.592 1051.48 110.354 1051.63 110.176C1052.41 109.304 1052.86 108.186 1053.73 107.354C1054.25 106.856 1054.57 106.154 1054.98 105.554C1055.07 105.575 1055.19 105.568 1055.25 105.622C1055.43 105.779 1055.6 105.956 1055.76 106.12L1055.77 106.113ZM1059.69 97.0665C1059.5 97.3664 1059.33 97.7277 1059.07 98.0073C1058.17 98.9753 1057.94 100.441 1056.69 101.198C1056.21 100.959 1055.78 100.666 1055.46 100.155C1056.32 98.7095 1057.32 97.3869 1058.35 96.1052C1059.19 96.4188 1059.18 96.4256 1059.69 97.0733L1059.69 97.0665ZM1059.26 94.8576C1059.76 94.1145 1060.22 93.4328 1060.69 92.7306C1061.3 92.6624 1061.6 93.0237 1061.88 93.4941C1061.67 94.3531 1061.14 95.0349 1060.55 95.6893C1059.98 95.6621 1059.59 95.4371 1059.25 94.8576H1059.26ZM1058.13 93.9304C1057.62 93.8691 1057.4 93.6032 1057.61 93.2351C1057.94 92.6556 1058.37 92.117 1058.79 91.5989C1058.86 91.5102 1059.18 91.5239 1059.3 91.6125C1059.42 91.6943 1059.52 91.9943 1059.46 92.0965C1059.06 92.7578 1058.63 93.3987 1058.14 93.9373L1058.13 93.9304ZM1054.92 101.273C1055.25 101.525 1055.54 101.75 1055.8 101.941C1055.79 102.118 1055.82 102.234 1055.77 102.309C1055.6 102.602 1055.41 102.889 1055.21 103.161C1054.76 103.754 1054.53 103.748 1053.93 103.134C1053.87 103.073 1053.87 102.957 1053.81 102.793C1054.06 102.268 1054.4 101.757 1054.91 101.266L1054.92 101.273ZM1049.42 110.96C1049.86 111.56 1050.33 111.949 1051.02 112.147C1051.2 112.194 1051.34 112.365 1051.53 112.508C1051.51 112.706 1051.47 112.897 1051.47 113.081C1051.45 113.606 1051.62 113.81 1052.11 113.871C1052.4 113.906 1052.73 113.824 1052.96 113.946C1053.24 114.103 1053.43 114.43 1053.63 114.649C1053.42 115.467 1052.95 116.244 1052.22 116.98C1051.47 116.905 1050.7 116.653 1050.08 116.196C1048.97 115.385 1047.73 114.71 1046.88 113.592C1046.31 112.842 1045.68 112.16 1044.97 111.533C1044.79 111.376 1044.67 111.151 1044.52 110.954C1045.08 109.801 1046.05 109.529 1047.14 109.679C1048.04 109.801 1048.9 110.224 1049.42 110.947V110.96ZM1056.03 108.458C1056.03 108.458 1056.09 108.424 1056.14 108.411C1056.12 108.486 1056.12 108.567 1056.09 108.636C1056.09 108.663 1056.03 108.67 1055.99 108.683C1056 108.608 1056 108.527 1056.03 108.458ZM1061.72 96.2961C1062.11 95.6143 1062.56 94.9667 1062.95 94.3599C1063.38 94.2713 1063.61 94.3872 1063.7 94.7963C1063.27 95.5734 1062.82 96.3915 1062.33 97.2846C1062.07 97.1687 1061.77 97.121 1061.68 96.9642C1061.58 96.8006 1061.62 96.4733 1061.72 96.2961ZM1059.16 104.129C1059.24 104.382 1059.38 104.607 1059.32 104.695C1059.03 105.125 1058.68 105.52 1058.34 105.909C1058.3 105.95 1058.17 105.895 1058 105.875C1058.01 105.084 1058.45 104.593 1059.16 104.123V104.129ZM1059.91 102.868C1060.65 101.832 1061.42 100.816 1062.19 99.8003C1062.33 99.6094 1062.5 99.4389 1062.67 99.2549C1062.76 99.2821 1062.86 99.3094 1062.95 99.3435C1062.93 99.5071 1062.98 99.7116 1062.9 99.8343C1062.67 100.202 1062.37 100.537 1062.12 100.898C1061.6 101.661 1061.09 102.439 1060.57 103.209C1060.4 103.454 1060.08 103.563 1059.97 103.379C1059.88 103.243 1059.83 102.977 1059.91 102.868H1059.91ZM1060.8 105.527C1060.63 106.652 1060.58 106.706 1059.7 106.618C1060.05 105.959 1060.42 105.595 1060.8 105.527ZM1063.72 98.2391C1063.68 98.1027 1063.55 97.9391 1063.59 97.8505C1063.91 97.1892 1064.23 96.5279 1064.59 95.887C1064.73 95.6416 1064.98 95.5666 1065.2 95.7575C1065.32 95.8598 1065.43 96.112 1065.38 96.2415C1065.2 96.821 1064.33 97.8232 1063.72 98.2322V98.2391ZM1065.99 93.9304C1066.46 93.2351 1066.97 92.5738 1067.44 91.8784C1068.27 90.6581 1069.06 89.4105 1069.91 88.1901C1070.19 87.7879 1070.55 87.4539 1070.9 87.1062C1070.94 87.0653 1071.09 87.0789 1071.16 87.1198C1071.24 87.1675 1071.32 87.2834 1071.3 87.3516C1071.27 87.5357 1071.22 87.7402 1071.12 87.897C1070.64 88.6469 1070.17 89.39 1069.65 90.1127C1068.85 91.2375 1068.02 92.3352 1067.21 93.46C1066.87 93.9373 1066.59 94.4622 1066 94.7894C1065.61 94.4008 1065.84 94.1418 1065.99 93.9236L1065.99 93.9304ZM1070.47 85.0609C1070.08 84.7951 1069.8 84.611 1069.57 84.4542C1069.57 84.3247 1069.55 84.2701 1069.57 84.2224C1069.61 84.086 1069.63 83.9224 1069.71 83.8134C1071.32 81.8158 1072.59 79.6002 1073.9 77.2686C1074.41 77.7458 1074.49 78.2571 1074.61 78.748C1073.47 80.9637 1071.99 82.9271 1070.47 85.0609H1070.47ZM1069.65 86.2744C1068.11 88.8037 1066.38 91.2444 1064.58 93.7259C1064.28 93.535 1064.04 93.385 1063.81 93.2351C1063.86 93.0442 1063.86 92.8805 1063.93 92.7715C1064.69 91.6807 1065.48 90.6035 1066.23 89.5059C1067.06 88.2856 1067.86 87.0448 1068.71 85.7427C1069.08 85.6609 1069.37 85.879 1069.65 86.2744ZM1062.61 92.4783C1062.16 92.192 1061.84 91.9875 1061.57 91.817C1061.57 91.6261 1061.53 91.5034 1061.57 91.4421C1063.21 89.1173 1064.85 86.7926 1066.49 84.4678C1066.52 84.4337 1066.57 84.4133 1066.72 84.3178C1066.98 84.4883 1067.28 84.686 1067.62 84.911C1066.38 87.7129 1064.36 89.8877 1062.6 92.4783H1062.61ZM1072.43 85.695C1072.38 85.77 1072.27 85.8245 1072.18 85.845C1072.1 85.8654 1071.99 85.8518 1071.91 85.8109C1071.84 85.7631 1071.76 85.6404 1071.78 85.5791C1071.86 85.3473 1071.95 85.1155 1072.08 84.911C1073.08 83.3839 1074.09 81.8636 1075.11 80.3501C1075.16 80.2751 1075.25 80.2206 1075.34 80.1728C1075.37 80.1524 1075.45 80.166 1075.48 80.1933C1075.55 80.2478 1075.62 80.3228 1075.63 80.3978C1075.64 80.4864 1075.6 80.5887 1075.58 80.6637C1074.52 82.3544 1073.48 84.0315 1072.43 85.7018V85.695ZM1077.58 74.6439C1077.07 75.3665 1076.56 76.096 1076.03 76.8118C1075.93 76.955 1075.74 77.0436 1075.54 77.2004C1075.17 76.4028 1075.12 75.7619 1075.63 75.0666C1076.6 73.7576 1077.5 72.3941 1078.43 71.0579C1078.57 70.8534 1078.72 70.6557 1078.87 70.4648C1080.46 68.5218 1082.05 66.5652 1083.65 64.6359C1084.12 64.07 1084.61 63.5042 1085.16 63.0065C1086.08 62.168 1086.79 61.1522 1087.5 60.15C1087.96 59.5092 1088.43 58.8683 1088.83 58.1934C1089.3 57.3685 1090.02 56.7549 1090.6 56.0255C1092.17 54.0552 1093.69 52.0509 1095.2 50.0329C1096.35 48.4922 1097.45 46.9037 1098.59 45.3493C1098.78 45.0835 1099.04 44.8653 1099.33 44.5653C1099.75 44.9471 1100.1 45.2743 1100.42 45.5539C1100.52 46.0924 1100.18 46.3583 1099.93 46.6515C1097.48 49.5625 1095.01 52.4531 1092.6 55.3914C1091.51 56.7277 1090.55 58.1729 1089.51 59.5501C1089.01 60.2182 1088.47 60.859 1087.94 61.5067C1087.78 61.6976 1087.59 61.8612 1087.43 62.0453C1085.39 64.52 1083.3 66.9606 1081.32 69.4831C1080 71.1465 1078.82 72.9191 1077.59 74.6507L1077.58 74.6439ZM1073.58 74.0712C1073.92 74.8348 1073.92 75.2847 1073.64 75.7483C1072.68 77.2959 1071.76 78.8639 1070.78 80.391C1070.15 81.3863 1069.43 82.3271 1068.74 83.2816C1068.63 83.4316 1068.46 83.5407 1068.28 83.6975C1068.02 83.4997 1067.79 83.3293 1067.5 83.118C1067.86 81.959 1068.73 81.1273 1069.34 80.1387C1069.98 79.0889 1070.7 78.0935 1071.38 77.0641C1072.02 76.0892 1072.74 75.1688 1073.59 74.0644L1073.58 74.0712ZM1079.1 81.9045C1080.32 82.5317 1081.59 82.4908 1082.86 82.259C1083.49 82.1431 1084.05 81.809 1084.51 81.3182C1085.05 80.7387 1085.67 80.2615 1086.36 79.8592C1087.27 79.3343 1088.12 79.2729 1089.02 79.7911C1089.23 79.9138 1089.46 80.0092 1089.65 80.1047C1090.1 81.0182 1090.22 81.9249 1090.16 82.8862C1090.01 85.4586 1089.41 87.9811 1088.36 90.4535C1087.88 91.5784 1087.29 92.5669 1086.19 93.1805C1085.98 93.3032 1085.77 93.46 1085.61 93.6441C1084.51 94.9326 1083.06 95.8257 1081.8 96.9301C1080.9 97.7141 1080.07 98.5458 1079.4 99.5412C1078.71 100.564 1077.87 101.484 1077.14 102.48C1076.83 102.909 1076.59 103.407 1076.37 103.898C1076.03 104.668 1075.76 105.466 1075.44 106.243C1075.16 106.89 1075.05 107.565 1075.01 108.268C1074.97 109.154 1074.88 110.04 1074.81 110.926C1074.77 111.417 1074.73 111.908 1074.74 112.406C1074.75 113.456 1074.62 114.492 1074.28 115.474C1073.42 117.853 1072.47 120.184 1071.15 122.352C1070.6 123.259 1069.89 124.009 1069.08 124.657C1068 125.516 1066.92 126.388 1065.84 127.24C1064.44 128.331 1062.83 129.149 1061.02 129.388C1060.72 129.429 1060.42 129.415 1060.13 129.429C1059.2 129.47 1058.26 129.524 1057.32 129.538C1056.78 129.538 1056.24 129.517 1055.7 129.442C1053.31 129.122 1051.15 128.099 1049.03 127.029C1047.76 126.388 1046.6 125.529 1045.39 124.766C1045.22 124.663 1045.06 124.548 1044.87 124.486C1043.69 124.098 1042.85 123.245 1042.11 122.318C1040.86 120.778 1039.66 119.21 1038.22 117.839C1037.87 117.505 1037.58 117.082 1037.32 116.667C1036.12 114.73 1034.94 112.787 1033.77 110.838C1033.57 110.504 1033.39 110.129 1033.32 109.747C1032.89 107.613 1032.46 105.479 1032.1 103.332C1031.79 101.532 1031.52 99.7184 1031.73 97.8709C1031.78 97.4414 1031.64 96.9915 1031.63 96.5483C1031.61 96.1597 1031.58 95.7371 1031.7 95.3757C1032.34 93.3237 1033.24 91.4216 1034.99 90.0377C1035.94 89.2878 1036.97 88.7355 1038.17 88.531C1039.3 88.3401 1040.41 88.1152 1041.53 87.897C1041.86 87.8288 1042.19 87.7129 1042.52 87.6243C1042.99 87.4948 1043.46 87.3243 1043.94 87.2357C1046.01 86.8471 1047.95 86.179 1049.53 84.7064C1049.6 84.6383 1049.67 84.5565 1049.76 84.5224C1051.12 83.9497 1052.02 82.8044 1053.12 81.9045C1053.55 81.55 1053.88 81.1273 1054.08 80.6092C1054.83 78.7275 1055.59 76.8391 1056.34 74.9575C1056.74 73.9553 1056.65 72.9054 1056.56 71.876C1056.43 70.3898 1056.81 69.04 1057.47 67.731C1057.87 66.9129 1058.49 66.2653 1059.24 65.7812C1060.84 64.7586 1062.54 64.3768 1064.47 64.6563C1066.08 64.8949 1067.51 65.5222 1068.96 66.1494C1069.31 66.2993 1069.63 66.5584 1069.95 66.7902C1070.23 66.9947 1070.45 67.2811 1070.75 67.4515C1072.23 68.3309 1072.79 69.8035 1073.34 71.3033C1073.55 71.876 1073.45 72.3328 1073.06 72.81C1072.46 73.5395 1071.91 74.303 1071.37 75.0734C1069.87 77.2209 1068.37 79.3752 1066.87 81.5295C1066.71 81.7681 1066.53 81.9931 1066.33 82.259C1065.7 82.1226 1065.16 81.9454 1064.68 81.5568C1063.55 80.616 1062.18 80.1456 1060.81 79.7297C1059.67 79.3888 1058.59 79.5456 1057.62 80.3637C1056.38 81.4 1055.34 82.5317 1054.79 84.0929C1054.33 85.4018 1053.75 86.663 1053.25 87.9584C1052.54 89.8127 1051.36 91.3057 1049.8 92.5124C1049.18 92.9964 1048.57 93.5078 1047.93 93.9645C1047.53 94.2509 1047.11 94.5576 1046.66 94.7213C1045.15 95.2598 1043.84 96.1597 1042.48 96.9506C1042.27 97.0733 1042.08 97.2505 1041.85 97.3392C1040.35 97.9323 1039.41 99.0776 1038.51 100.38C1036.66 103.066 1036.35 105.95 1037.09 109.017C1037.9 112.372 1039.55 115.242 1042.04 117.648C1043.28 118.855 1044.71 119.844 1046 120.989C1046.25 121.214 1046.57 121.384 1046.89 121.514C1047.59 121.793 1048.17 122.23 1048.81 122.611C1049.68 123.143 1050.68 123.6 1051.67 123.784C1054.34 124.261 1056.99 124.118 1059.53 123.034C1060.94 122.434 1062.38 121.882 1063.59 120.907C1064.62 120.069 1065.62 119.175 1066.63 118.31C1066.66 118.276 1066.7 118.241 1066.72 118.194C1067.19 117.001 1068.07 116.046 1068.6 114.86C1069.23 113.428 1069.42 111.935 1069.7 110.429C1070.08 108.397 1070.4 106.345 1071.05 104.361C1071.5 103.004 1071.72 101.586 1072.08 100.196C1072.25 99.5276 1072.44 98.8594 1072.68 98.2186C1073.02 97.346 1073.37 96.4597 1073.83 95.6416C1074.44 94.5849 1075.1 93.5623 1076.17 92.8465C1077.09 92.2465 1077.96 91.6807 1079.06 91.4284C1080.43 91.1148 1081.09 90.4467 1082.04 89.165C1082.58 88.4288 1083.06 87.7061 1082.94 86.738C1082.92 86.6426 1082.87 86.554 1082.83 86.4517C1082.47 86.104 1082.03 86.1313 1081.59 86.2472C1080.78 86.4653 1079.96 86.6699 1079.17 86.9562C1078.41 87.2357 1077.64 87.338 1076.84 87.2425C1076.2 87.1675 1075.57 87.0857 1074.92 87.0107C1074.43 86.9562 1073.98 86.7721 1073.51 86.4858C1073.51 85.8859 1073.83 85.4223 1074.12 84.9996C1074.99 83.6975 1075.65 82.2453 1076.85 81.0727C1077.64 81.3591 1078.42 81.5568 1079.1 81.9113L1079.1 81.9045ZM1098.78 50.517C1098.01 51.226 1097.34 52.0032 1096.74 52.8553C1096.2 53.6257 1095.6 54.3484 1095.04 55.0983C1094.65 55.6164 1094.28 56.1345 1093.92 56.6663C1093.22 57.6821 1092.6 58.7592 1091.83 59.7205C1090.26 61.6976 1088.63 63.6201 1087.03 65.5631C1086.93 65.679 1086.81 65.7744 1086.73 65.8971C1085.23 68.3514 1083.26 70.4648 1081.52 72.7418C1080.54 74.0371 1079.51 75.312 1078.51 76.6005C1078.15 77.0709 1077.83 77.5686 1077.49 78.0526C1077.24 78.4071 1076.98 78.7616 1076.72 79.1298C1076.22 78.898 1076.26 78.5844 1076.47 78.2776C1077 77.5004 1077.54 76.7368 1078.07 75.9597C1079.34 74.1258 1080.56 72.2646 1081.87 70.4648C1082.77 69.2308 1083.78 68.0719 1084.78 66.8993C1086.28 65.1267 1087.82 63.3815 1089.32 61.6089C1090.73 59.9523 1092.05 58.2275 1093.28 56.4277C1094.08 55.2414 1094.99 54.1302 1095.86 52.9985C1096.74 51.8668 1097.63 50.7351 1098.53 49.6239C1099.3 48.6763 1100.11 47.7559 1100.89 46.8219C1100.98 46.8764 1101.07 46.931 1101.16 46.9855C1100.62 48.3149 1099.86 49.5216 1098.79 50.4965L1098.78 50.517ZM1118.94 34.7209C1117.27 35.6686 1115.56 36.5617 1113.84 37.407C1112.99 37.8229 1112.35 38.3342 1112.09 39.275C1112.02 39.5613 1111.89 39.834 1111.77 40.0999C1111.47 40.7407 1111.34 41.3952 1111.46 42.1111C1111.55 42.636 1111.51 43.1882 1111.53 43.8086C1110.46 43.9381 1109.45 44.1495 1108.43 44.1563C1107.09 44.1699 1105.92 44.5517 1104.83 45.3016C1104.35 45.6357 1103.88 45.997 1103.41 46.3311C1102.36 45.8334 1102.2 45.6561 1101.86 44.5858C1100.95 44.5108 1100.89 44.5449 1100.58 44.1017C1100.16 43.5018 1099.7 42.9769 1099.02 42.6701C1098.87 42.6019 1098.79 42.3701 1098.61 42.1315C1099.03 41.4293 1099.47 40.7203 1099.88 40.0045C1100.01 39.7931 1100.13 39.5613 1100.16 39.3227C1100.39 37.6797 1101.12 36.0981 1100.82 34.3801C1100.8 34.2914 1100.85 34.1892 1100.88 34.0119C1101.67 33.8279 1102.47 33.7324 1103.32 34.0392C1103.67 34.7755 1103.69 35.5731 1103.83 36.3367C1103.91 36.7253 1103.95 37.1139 1104.07 37.4888C1104.14 37.7274 1104.34 37.9115 1104.63 37.857C1104.89 37.8092 1105.15 37.4343 1105.07 37.182C1105 36.9503 1104.91 36.7185 1104.78 36.5071C1104.36 35.8049 1104.35 35.1095 1104.78 34.3255C1105.76 34.0937 1106.67 33.8756 1107.68 33.6438C1107.78 34.0051 1107.86 34.3187 1107.96 34.6323C1108.06 35.0073 1108.14 35.4027 1108.32 35.7504C1108.41 35.9276 1108.7 36.1322 1108.88 36.1117C1109.05 36.0913 1109.31 35.7845 1109.31 35.614C1109.28 34.8846 1109.54 34.1483 1109.24 33.4188C1109.18 33.2552 1109.22 33.0439 1109.22 32.7984C1109.59 32.6144 1109.94 32.4303 1110.29 32.2735C1110.61 32.1371 1110.93 32.0349 1111.27 31.9053C1111.69 32.3894 1111.6 32.9757 1111.78 33.4665C1111.9 33.787 1111.96 34.1346 1112.12 34.4346C1112.2 34.5778 1112.41 34.7278 1112.57 34.7482C1112.86 34.7823 1113.03 34.5369 1113.08 34.2983C1113.13 33.9642 1113.12 33.6165 1113.08 33.2825C1113.03 32.8939 1112.88 32.5121 1112.84 32.1235C1112.8 31.7826 1112.76 31.4213 1112.84 31.0941C1112.89 30.9032 1113.14 30.7123 1113.34 30.6168C1113.61 30.4941 1113.83 30.7123 1113.91 30.9441C1114.14 31.6872 1114.33 32.4439 1114.53 33.1938C1115.22 32.9689 1115.39 32.7984 1115.37 32.1985C1115.34 31.7076 1115.24 31.2168 1115.17 30.7327C1115.11 30.2964 1115.05 29.8669 1114.98 29.3829C1116.12 28.7148 1117.17 28.0058 1118.09 27.1059C1118.52 26.6832 1119.09 26.7173 1119.61 26.9763C1120.41 27.3649 1120.98 27.9921 1121.18 28.8511C1121.42 29.8669 1121.42 30.9236 1121.14 31.9258C1120.66 33.6642 1120.57 33.7938 1118.95 34.7073L1118.94 34.7209Z" fill="white" fill-opacity="0.5"/>
<path fill-rule="evenodd" clip-rule="evenodd" d="M1060.32 116.857C1060.35 116.326 1060 116.067 1059.5 116.067C1058.65 116.067 1058.28 116.598 1058.03 117.301C1057.96 117.587 1057.82 117.866 1057.81 118.153C1057.81 118.371 1057.9 118.685 1058.07 118.8C1058.6 119.189 1059.2 119.38 1059.88 119.148C1060.43 118.957 1060.68 118.569 1060.52 118.003C1060.41 117.621 1060.3 117.28 1060.32 116.864L1060.32 116.857ZM1059.22 118.105C1059.14 118.119 1058.99 118.037 1058.99 118.01C1059.02 117.785 1059.07 117.566 1059.12 117.348C1059.12 117.314 1059.19 117.294 1059.28 117.226C1059.37 117.328 1059.42 117.355 1059.44 117.396C1059.56 117.744 1059.46 118.078 1059.22 118.112V118.105Z" fill="white" fill-opacity="0.5"/>
<path fill-rule="evenodd" clip-rule="evenodd" d="M1063.78 114.628C1063.27 114.744 1062.91 115.01 1062.72 115.535C1062.52 116.094 1062.76 116.523 1063.11 116.851C1063.42 117.137 1063.85 117.28 1064.25 117.492C1064.9 117.205 1065.22 116.844 1065.44 116.394C1066.02 115.133 1065.6 114.519 1064.21 114.594C1064.07 114.601 1063.92 114.594 1063.78 114.628ZM1064.34 115.249C1064.6 115.249 1064.84 115.705 1064.69 115.924C1064.57 116.094 1064.34 116.176 1064.22 116.258C1063.84 116.121 1063.7 115.767 1063.88 115.501C1063.97 115.364 1064.19 115.242 1064.34 115.249H1064.34Z" fill="white" fill-opacity="0.5"/>
<path fill-rule="evenodd" clip-rule="evenodd" d="M516.836 35.3199C516.576 37.7199 515.416 39.5999 514.086 41.3499C513.076 42.6799 512.196 44.1599 510.626 45.0199C510.116 45.2899 509.806 45.9799 509.486 46.5299C508.816 47.6999 508.196 48.8899 507.556 50.0799C505.926 53.1399 504.326 56.2299 502.666 59.2699C499.776 64.5699 496.406 69.5599 492.476 74.1499C492.106 74.5799 491.736 75.0099 491.426 75.4899C490.806 76.4499 489.896 76.6899 488.846 76.6099C488.496 76.5799 488.146 76.4999 487.816 76.3899C486.286 75.8699 485.736 75.0399 486.116 73.4799C486.486 71.9699 486.906 70.4499 487.906 69.1999C490.216 66.3299 492.406 63.3599 494.896 60.6599C497.786 57.5299 500.446 54.2299 503.026 50.8599C504.446 48.9999 505.886 47.1599 507.396 45.3699C508.266 44.3399 508.736 43.1999 508.706 41.8699C508.656 40.0899 509.166 38.5299 510.256 37.1299C510.516 36.7999 510.736 36.4299 510.936 36.0499C511.796 34.4599 513.296 34.1599 514.886 34.1199C515.776 34.0899 515.796 34.1899 516.836 35.3199ZM502.886 54.7899C502.786 54.7299 502.676 54.6699 502.576 54.6099C502.226 55.0399 501.856 55.4499 501.536 55.8999C500.226 57.7499 498.756 59.4699 497.146 61.0799C496.446 61.7799 495.786 62.5199 495.166 63.2899C493.436 65.4399 491.716 67.5999 490.036 69.7799C489.216 70.8499 488.566 72.0299 488.286 73.3799C488.206 73.7499 488.286 74.1299 488.666 74.2599C488.976 74.3599 489.436 74.4499 489.666 74.2899C490.116 73.9799 490.486 73.5299 490.836 73.0899C491.576 72.1499 492.266 71.1599 493.016 70.2199C495.076 67.6099 497.176 65.0399 498.816 62.1299C500.106 59.8499 501.446 57.6099 502.756 55.3399C502.846 55.1799 502.846 54.9699 502.876 54.7799L502.886 54.7899ZM514.826 35.5399C513.046 35.6299 511.946 36.3599 511.486 38.0199C511.246 38.8899 510.836 39.7099 510.586 40.5799C510.486 40.9199 510.606 41.3299 510.636 41.7499C511.836 41.3299 512.946 40.5699 513.536 39.6299C514.266 38.4499 515.126 37.2899 514.836 35.5399H514.826Z" fill="white" fill-opacity="0.5"/>
<path fill-rule="evenodd" clip-rule="evenodd" d="M609.976 60.1899C606.306 55.5499 603.446 50.4299 600.876 45.1299C599.306 41.8899 597.676 38.6799 596.046 35.4699C595.446 34.2999 594.706 33.3099 593.586 32.4599C592.456 31.6099 591.566 30.2999 590.906 29.0099C590.106 27.4599 589.636 25.7399 589.096 24.0599C588.946 23.5899 588.996 23.0299 589.056 22.5299C589.236 21.2399 590.596 20.5899 591.726 21.2799C592.156 21.5399 592.546 21.9099 592.856 22.3099C593.726 23.3999 594.526 24.5499 595.396 25.6399C596.166 26.6099 596.486 27.7099 596.516 28.9099C596.536 29.4999 596.546 30.0899 596.576 30.6699C596.626 31.5699 596.916 32.3699 597.476 33.1099C600.946 37.6799 604.366 42.2799 607.846 46.8399C608.646 47.8899 609.676 48.7599 610.496 49.7899C612.746 52.5999 614.936 55.4599 617.146 58.2999C618.256 59.7299 618.746 61.4299 619.206 63.1299C619.316 63.5399 619.246 64.0099 619.256 64.4399C619.266 65.0099 618.986 65.4099 618.526 65.7099C617.416 66.4599 616.196 66.6499 614.956 66.2499C614.516 66.1099 614.106 65.6899 613.816 65.2999C612.516 63.6099 611.266 61.8799 609.986 60.1699L609.976 60.1899ZM602.216 43.0399C602.336 44.2499 602.906 44.8699 603.246 45.5499C605.016 49.0899 606.966 52.5399 609.226 55.7899C611.026 58.3799 612.956 60.8699 614.836 63.3999C614.966 63.5699 615.086 63.7699 615.246 63.9099C615.606 64.2499 616.026 64.2399 616.466 64.0699C616.976 63.8699 617.136 63.4299 616.966 62.9999C616.466 61.7899 616.066 60.4699 615.306 59.4399C612.966 56.2599 610.766 52.9499 608.026 50.0699C606.406 48.3699 604.876 46.5999 603.586 44.6199C603.276 44.1499 602.846 43.7599 602.216 43.0499V43.0399ZM590.836 22.7699C590.616 23.1099 590.546 23.1699 590.546 23.2299C590.656 25.9699 591.676 28.3399 593.496 30.3699C593.776 30.6799 594.436 30.4699 594.566 30.0199C594.936 28.7599 594.846 27.5599 594.026 26.4699C593.316 25.5299 592.636 24.5699 591.896 23.6599C591.646 23.3499 591.266 23.1299 590.836 22.7699Z" fill="white" fill-opacity="0.5"/>
<path fill-rule="evenodd" clip-rule="evenodd" d="M584.666 56.1299C585.896 60.0899 587.196 64.0199 588.346 67.9999C589.176 70.8799 589.286 73.8799 589.536 76.8499C589.606 77.7299 589.756 78.5199 590.196 79.3299C591.596 81.9199 591.476 84.6199 590.416 87.2899C590.156 87.9399 589.636 88.5199 589.126 89.0199C588.096 90.0399 587.016 91.0199 585.916 91.9599C584.876 92.8499 583.796 93.6699 582.496 94.2499C580.986 94.9199 579.606 95.8999 578.196 96.7999C575.126 98.7699 571.916 100.42 568.476 101.63C566.006 102.5 563.566 103.46 561.166 104.5C559.196 105.35 557.116 105.72 555.056 106C553.516 106.21 551.886 105.86 550.296 105.7C549.216 105.59 548.156 105.29 547.076 105.22C545.776 105.13 544.796 104.33 543.686 103.84C543.346 103.69 543.036 103.2 542.946 102.82C542.436 100.69 540.986 99.1199 539.826 97.3799C536.796 92.8299 534.176 88.0699 531.856 83.1199C530.466 80.1599 529.026 77.2199 527.606 74.2799C527.486 74.0199 527.406 73.6999 527.216 73.4999C526.076 72.2999 525.906 70.6199 525.156 69.2399C524.886 68.7399 524.716 68.1399 524.706 67.5699C524.676 66.3199 524.496 65.1199 524.056 63.9399C523.886 63.4899 523.846 62.8999 523.966 62.4399C524.226 61.4499 524.456 60.4999 524.226 59.4699C524.156 59.1699 524.386 58.7699 524.546 58.4499C525.386 56.7399 526.416 55.1399 527.966 53.9899C530.406 52.1599 532.836 50.2999 535.396 48.6399C537.646 47.1799 540.016 45.8699 542.426 44.6899C545.096 43.3799 547.856 42.2299 550.626 41.1299C553.936 39.8099 557.206 38.3899 560.676 37.4899C563.356 36.7899 566.076 36.3099 568.836 36.2199C572.326 36.0999 575.206 37.4699 577.436 40.1399C577.986 40.7899 578.296 41.6399 578.706 42.4099C579.186 43.2999 579.686 44.1799 580.146 45.0799C580.546 45.8499 580.976 46.6199 581.276 47.4399C582.366 50.3699 583.416 53.3099 584.476 56.2499C584.546 56.2299 584.616 56.1999 584.696 56.1799L584.666 56.1299ZM578.076 45.5399C577.496 45.4599 577.086 45.7099 576.866 46.2299C576.126 47.9499 574.836 49.2499 573.476 50.4399C572.006 51.7199 570.666 53.1499 569.046 54.2799C567.966 55.0299 566.846 55.6899 565.706 56.3099C563.286 57.6299 560.816 58.8799 558.316 60.0299C556.266 60.9599 554.136 61.6899 552.046 62.5299C547.596 64.3099 543.176 66.1599 538.396 66.9799C534.936 67.5699 531.486 67.9299 527.996 67.3199C527.446 67.2199 526.876 67.1999 526.276 67.1499C526.696 69.2299 527.106 69.6699 528.836 69.9499C529.336 70.0299 529.846 70.0599 530.356 70.0599C532.256 70.0599 534.106 69.7099 535.946 69.2699C537.076 68.9999 538.216 68.7999 539.346 68.5299C541.736 67.9599 544.126 67.3699 546.516 66.7899C546.586 66.7699 546.656 66.7399 546.726 66.7099C548.286 66.0999 549.886 65.5899 551.386 64.8799C555.506 62.9199 560.026 61.9199 563.906 59.3599C565.836 58.0899 567.836 56.9499 569.666 55.5199C571.336 54.2199 572.756 52.6799 574.266 51.2199C576.256 49.2799 577.176 47.8199 578.056 45.5499C577.926 45.3899 577.786 45.2199 577.656 45.0599C577.616 45.1099 577.586 45.1499 577.546 45.1999C577.716 45.3199 577.886 45.4299 578.056 45.5499L578.076 45.5399ZM550.946 60.5799C550.946 60.5799 550.926 60.5299 550.916 60.5099C551.796 60.1699 552.676 59.8199 553.556 59.4699C557.396 57.9299 561.206 56.3199 564.836 54.2999C568.246 52.4099 571.186 49.9599 573.626 46.9299C574.346 46.0399 574.956 45.0099 575.416 43.9599C576.186 42.1799 575.676 40.6799 574.096 39.5999C573.126 38.9399 572.066 38.4899 570.916 38.2199C569.326 37.8399 567.756 38.0499 566.156 38.1699C562.856 38.4099 559.736 39.2399 556.686 40.4899C553.726 41.6999 550.716 42.7699 547.756 43.9799C545.806 44.7699 543.886 45.6399 541.996 46.5699C539.266 47.9199 536.576 49.3599 533.886 50.7799C533.446 51.0099 532.996 51.2999 532.666 51.6699C531.356 53.1299 529.916 54.4599 528.426 55.7299C527.876 56.1999 527.396 56.7499 526.936 57.3099C526.666 57.6399 526.446 58.0399 526.336 58.4399C526.116 59.1999 525.956 59.9899 525.836 60.7799C525.466 63.1399 526.606 64.6799 528.986 65.0599C529.776 65.1799 530.576 65.2599 531.366 65.2599C535.316 65.2599 539.186 64.6699 542.926 63.4199C545.616 62.5199 548.266 61.5299 550.936 60.5799H550.946ZM579.586 48.3099C578.486 49.2432 577.959 50.2766 578.006 51.4099C578.026 51.8499 578.026 52.2799 578.006 52.7199C577.936 55.1099 577.776 57.5099 577.796 59.8999C577.836 64.0399 577.996 68.1699 578.106 72.3099C578.106 72.6699 578.096 73.0499 578.186 73.3899C578.316 73.8699 578.466 74.3699 578.736 74.7699C580.076 76.6699 581.446 78.5399 582.846 80.3999C583.676 81.4999 584.686 82.4099 586.006 83.0699C586.756 81.9999 587.496 80.9999 587.346 79.6799C587.026 76.7899 586.706 73.8999 586.326 71.0199C585.716 66.4499 584.166 62.1299 582.786 57.7599C581.866 54.8499 580.536 52.0799 579.926 49.0599C579.876 48.8099 579.696 48.5799 579.566 48.3199L579.586 48.3099ZM529.906 72.2399C530.116 72.5899 530.216 72.8599 530.396 73.0499C531.886 74.6399 533.396 76.2099 534.876 77.7999C535.666 78.6499 536.446 79.5099 537.206 80.3899C539.016 82.4699 540.806 84.5699 542.626 86.6299C542.926 86.9799 543.366 87.2099 543.986 87.6699C544.056 87.2299 544.106 87.0199 544.126 86.8099C544.616 82.5499 545.116 78.2899 545.596 74.0299C545.666 73.3799 545.656 72.7299 545.666 72.0699C545.676 71.0899 545.336 70.2399 544.636 69.3699C539.826 70.5499 534.936 71.3799 529.896 72.2299L529.906 72.2399ZM563.196 93.1599C563.526 92.3399 563.746 91.9599 563.836 91.5599C564.156 89.9899 564.416 88.4199 564.716 86.8499C565.066 84.9899 565.406 83.1399 565.776 81.2799C565.956 80.3699 565.766 79.6199 565.136 78.8799C564.056 77.6099 563.106 76.2299 562.106 74.8999C561.626 74.2599 561.186 73.5799 560.616 73.0199C559.456 71.8699 558.636 70.5299 558.076 69.0099C557.996 68.7799 557.776 68.5999 557.616 68.3899C557.406 68.5699 557.246 68.6399 557.216 68.7499C557.136 69.0199 557.066 69.3099 557.066 69.5999C557.066 72.2099 557.366 74.8299 556.526 77.3799C556.506 77.4499 556.506 77.5299 556.526 77.5999C556.716 78.8499 556.416 80.0599 556.116 81.2599C555.776 82.6199 555.886 83.8499 556.986 84.8499C557.196 85.0399 557.346 85.3099 557.546 85.5199C558.946 87.0199 560.056 88.7099 561.116 90.4499C561.636 91.2999 562.336 92.0499 563.216 93.1799L563.196 93.1599ZM553.806 97.6499C553.726 93.1299 553.496 89.0699 553.966 85.0399C554.056 84.2499 553.726 83.6199 553.326 83.0199C552.196 81.3399 551.076 79.6399 549.896 77.9999C549.096 76.8899 548.416 75.6799 547.296 74.8099C546.646 75.3899 546.766 76.1599 546.696 76.8599C546.336 80.4599 546.066 84.0699 545.596 87.6599C545.436 88.8999 545.746 89.7499 546.566 90.5699C547.946 91.9499 549.266 93.3999 550.656 94.7799C551.566 95.6899 552.556 96.5199 553.816 97.6599L553.806 97.6499ZM568.906 66.1899C568.776 66.6799 568.686 66.8799 568.666 67.0899C568.426 70.7799 568.196 74.4699 567.986 78.1699C567.956 78.7499 568.066 79.2599 568.436 79.7899C570.326 82.5299 572.186 85.2999 574.246 87.9199C574.576 88.3399 574.856 88.9399 575.566 88.8799C576.196 86.5099 576.356 79.0999 575.886 74.7599C573.586 71.9399 571.346 69.1999 568.906 66.1999V66.1899ZM544.296 102.15C545.226 102.54 546.066 103.06 546.956 103.22C548.946 103.59 550.976 103.79 552.986 104.02C553.626 104.09 554.306 104.17 554.926 104.02C557.396 103.46 559.866 102.9 562.206 101.89C563.206 101.46 564.256 101.14 565.236 100.66C568.286 99.1699 571.736 98.5299 574.486 96.3699C574.546 96.3299 574.616 96.2999 574.686 96.2799C575.706 95.8999 576.616 95.3399 577.546 94.7599C578.826 93.9599 580.276 93.4299 581.386 92.3499C581.486 92.2499 581.636 92.1999 581.776 92.1599C582.796 91.8799 583.516 91.1399 584.276 90.4699C585.136 89.6999 585.986 88.9099 586.846 88.1399C588.266 86.8599 588.846 85.1699 589.136 83.3499C589.176 83.1099 588.986 82.8299 588.836 82.3399C588.466 82.8499 588.186 83.1499 587.996 83.4999C586.786 85.6899 585.326 87.6299 583.066 88.8699C582.186 89.3499 581.426 90.0599 580.586 90.6299C578.806 91.8699 577.026 93.1199 575.216 94.2999C573.806 95.2099 572.266 95.8599 570.646 96.3099C568.976 96.7799 567.286 97.2299 565.636 97.7699C562.606 98.7599 559.756 100.3 556.596 100.94C556.386 100.98 556.186 101.09 556.006 101.2C555.246 101.7 554.466 101.91 553.526 101.67C553.066 101.55 552.526 101.74 552.016 101.77C549.746 101.91 547.516 101.82 545.436 100.74C545.116 100.57 544.786 100.41 544.436 100.3C544.126 100.21 543.766 99.9699 543.466 100.49C543.736 101.03 544.026 101.6 544.296 102.14V102.15ZM575.916 71.6799C575.956 70.3699 575.986 69.5799 575.996 68.7899C576.066 64.5199 575.836 60.2499 576.506 55.9999C576.666 55.0099 576.636 53.9799 576.646 52.9599C576.646 52.7299 576.476 52.4899 576.336 52.1299C575.886 52.5599 575.546 52.8299 575.266 53.1499C573.866 54.7999 572.326 56.3099 570.536 57.5499C570.236 57.7599 569.956 57.9799 569.676 58.1999C568.996 58.7499 568.686 59.4299 568.946 60.3099C569.026 60.5899 569.046 60.8899 569.136 61.1499C569.936 63.3199 570.556 65.5699 572.286 67.2699C572.846 67.8199 573.236 68.5499 573.736 69.1599C574.326 69.8799 574.956 70.5699 575.916 71.6599V71.6799ZM558.346 64.4599C558.886 65.8499 559.406 67.1099 559.886 68.3799C560.296 69.4799 560.946 70.4299 561.676 71.3299C562.586 72.4499 563.436 73.6299 564.326 74.7699C564.796 75.3799 565.156 76.1299 565.946 76.4599C566.806 73.7699 567.196 63.0999 566.516 60.5099C565.906 60.7499 565.196 60.8499 564.736 61.2399C563.316 62.4499 561.566 62.9499 559.916 63.6599C559.396 63.8799 558.916 64.1699 558.346 64.4599ZM556.176 65.3099C555.616 65.4299 555.326 65.4599 555.076 65.5599C552.456 66.6199 549.836 67.6999 547.216 68.7799C547.096 68.8299 547.036 68.9899 546.876 69.1799C546.906 69.3899 546.876 69.6999 546.986 69.9299C547.436 70.8399 547.856 71.7799 548.436 72.5999C550.196 75.0899 552.036 77.5199 553.846 79.9699C553.966 80.1299 554.146 80.2499 554.486 80.5399C555.016 77.5399 555.446 74.9099 555.586 72.2299C555.596 72.0199 555.526 71.7999 555.496 71.5799C555.316 69.9899 555.256 68.4099 555.876 66.8699C556.036 66.4799 556.036 66.0299 556.156 65.2899L556.176 65.3099ZM567.636 82.3199C567.136 83.7499 566.846 84.7699 566.686 85.8499C566.236 88.8599 565.966 91.9099 564.716 94.7499C564.646 94.9099 564.746 95.1399 564.766 95.3299C564.956 95.3499 565.106 95.4199 565.236 95.3899C567.266 94.8499 569.316 94.3499 571.326 93.7299C572.436 93.3899 573.476 92.8599 574.536 92.3799C574.706 92.2999 574.826 92.0799 575.036 91.8399C572.296 89.0099 570.016 85.8599 567.636 82.3099V82.3199ZM531.706 77.1999C532.026 78.5299 535.356 85.7299 536.966 88.6499C538.486 91.4099 541.506 95.9599 542.486 96.9399C542.976 94.6999 543.536 92.5599 543.546 90.3399C541.566 88.1499 539.646 85.9899 537.696 83.8599C535.716 81.6899 534.086 79.1999 531.716 77.2099L531.706 77.1999ZM555.586 86.6999C555.196 87.7999 555.166 88.8699 555.166 89.9499C555.166 91.8399 555.166 93.7199 555.146 95.5999C555.136 96.5999 555.156 97.5899 555.386 98.5399C557.516 98.5099 560.486 97.5799 562.736 96.2299C560.556 93.1699 558.386 90.1199 556.206 87.0799C556.096 86.9299 555.866 86.8599 555.606 86.6999H555.586ZM584.516 85.1399C583.886 84.3699 583.476 83.6599 582.876 83.1799C582.066 82.5199 581.466 81.7299 580.856 80.9199C580.116 79.9399 579.376 78.9699 578.376 77.6499C578.326 81.8799 578.286 85.6799 578.246 89.5199C578.526 89.4899 578.786 89.5499 578.936 89.4399C580.786 88.1699 582.556 86.7899 584.526 85.1499L584.516 85.1399ZM543.986 97.8699C546.216 99.4499 548.466 100.32 551.066 99.8799C551.436 99.8199 551.776 99.5599 552.326 99.2899C549.796 96.8599 547.766 94.2199 545.056 92.0599C544.696 94.0499 544.356 95.8899 543.996 97.8599L543.986 97.8699Z" fill="white" fill-opacity="0.5"/>
<path fill-rule="evenodd" clip-rule="evenodd" d="M545.316 48.4399C545.316 48.5799 545.376 48.7499 545.316 48.8499C545.096 49.2199 544.876 49.6099 544.586 49.9199C542.696 51.9699 541.376 54.3799 540.116 56.8399C539.766 57.5299 539.166 58.0999 538.636 58.6899C538.536 58.7999 538.196 58.7999 538.046 58.7099C537.896 58.6299 537.786 58.3699 537.766 58.1799C537.746 57.9799 537.806 57.7299 537.906 57.5599C539.126 55.4999 540.286 53.3999 541.616 51.4099C542.326 50.3399 543.306 49.4399 544.196 48.4899C544.366 48.3099 544.696 48.2499 544.976 48.1899C545.066 48.1699 545.196 48.3399 545.306 48.4199L545.316 48.4399Z" fill="white" fill-opacity="0.5"/>
<path fill-rule="evenodd" clip-rule="evenodd" d="M546.216 54.5799C545.926 54.3299 545.596 54.1699 545.466 53.9099C545.356 53.6899 545.386 53.3199 545.496 53.0899C546.226 51.5199 547.206 50.1099 548.366 48.8299C548.476 48.6999 548.846 48.6099 548.916 48.6799C549.086 48.8499 549.206 49.1199 549.246 49.3599C549.276 49.5499 549.186 49.7899 549.086 49.9699C548.426 51.2299 547.756 52.4999 547.046 53.7399C546.876 54.0299 546.556 54.2399 546.206 54.5799H546.216Z" fill="white" fill-opacity="0.5"/>
<path fill-rule="evenodd" clip-rule="evenodd" d="M555.246 47.3399C555.536 47.9199 555.766 48.1599 555.746 48.3799C555.636 49.8299 554.936 50.9499 553.686 51.6999C553.536 51.7899 553.176 51.7799 553.096 51.6799C552.946 51.4799 552.926 51.1799 552.866 50.9199C552.856 50.8699 552.906 50.7699 552.956 50.7299C553.956 49.8999 554.636 48.8299 555.246 47.3399Z" fill="white" fill-opacity="0.5"/>
<path fill-rule="evenodd" clip-rule="evenodd" d="M1185.49 176.079C1186.13 172.949 1186.65 170.149 1187.28 167.369C1187.91 164.599 1188.65 161.849 1189.35 159.019C1188.28 158.649 1187.25 158.429 1186.35 157.949C1185.52 157.509 1184.91 156.679 1184.1 156.209C1181.5 154.729 1179.27 152.799 1177.15 150.729C1176.97 150.549 1176.67 150.499 1176.23 150.309C1175.84 151.589 1176.05 152.799 1176.05 153.999C1176.05 155.239 1176.11 156.479 1176.1 157.719C1176.1 158.869 1176.03 160.009 1176.02 161.149C1176.01 162.389 1176.07 163.629 1176.03 164.869C1175.99 166.089 1175.87 167.319 1175.79 168.499C1173.96 169.309 1172.32 170.039 1170.67 170.759C1169.69 171.189 1168.66 171.349 1167.59 171.199C1165.41 170.889 1164.36 168.849 1165.41 166.949C1165.69 166.449 1166.06 166.009 1166.38 165.529C1167.09 164.449 1168.14 164.039 1169.35 164.189C1170.56 164.329 1171.75 164.649 1172.99 164.899C1173.6 164.599 1173.45 163.959 1173.45 163.429C1173.47 159.709 1173.43 155.979 1173.47 152.259C1173.49 150.449 1173.59 148.629 1173.74 146.829C1173.84 145.679 1174.09 144.579 1173.21 143.569C1173.01 143.339 1173.09 142.569 1173.33 142.309C1173.58 142.039 1174.19 141.959 1174.62 142.019C1175.06 142.079 1175.53 142.339 1175.87 142.629C1177.46 143.989 1179.04 145.369 1180.59 146.779C1183.13 149.099 1185.86 151.199 1188.77 153.029C1189.86 153.719 1191.22 153.969 1192.73 154.529C1193.38 155.619 1193.18 156.999 1192.73 158.379C1191.07 163.469 1189.61 168.589 1189.51 174.009C1189.48 175.709 1189.1 177.409 1188.88 179.109C1188.75 180.069 1188.18 180.739 1187.29 180.929C1185.03 181.419 1182.72 181.419 1180.48 180.929C1178.87 180.569 1178.02 178.579 1178.61 177.019C1179.39 174.969 1181.21 174.179 1183.23 175.029C1183.92 175.319 1184.59 175.669 1185.5 176.089L1185.49 176.079Z" fill="white" fill-opacity="0.5"/>
<g clip-path="url(#clip0_54_54)">
<path fill-rule="evenodd" clip-rule="evenodd" d="M1255.64 171.53C1254.69 170.98 1254.19 170.05 1253.69 169.17C1252.26 166.68 1249.95 166.12 1247.43 166.5C1245.57 166.78 1243.68 167.34 1241.97 168.14C1239.89 169.12 1237.86 169.96 1235.52 169.83C1235.38 169.83 1235.22 169.97 1235 170.08C1235.12 170.39 1235.18 170.76 1235.38 171.01C1238.44 174.99 1241.29 179.15 1244.75 182.82C1246.83 185.03 1248.91 187.23 1251.03 189.4C1251.94 190.34 1252.18 191.55 1252.31 192.7C1252.39 193.42 1252.56 194.01 1252.9 194.61C1253.98 196.51 1254.81 198.5 1255.15 200.67C1255.18 200.84 1255.25 201 1255.27 201.17C1255.49 203.01 1255.15 204.72 1253.49 205.74C1251.85 206.75 1250.13 206.35 1248.57 205.38C1248.15 205.12 1247.76 204.71 1247.5 204.28C1245.98 201.72 1244.89 199 1244.42 196.05C1244.31 195.37 1244.32 194.67 1244.35 193.98C1244.43 192.21 1245 190.75 1246.88 190.16C1247.04 190.11 1247.19 190 1247.33 189.9C1247.39 189.85 1247.41 189.76 1247.56 189.5C1247.34 189.18 1247.1 188.75 1246.78 188.38C1246.16 187.66 1245.52 186.94 1244.85 186.27C1240.23 181.65 1236.58 176.25 1232.7 171.03C1231.11 168.89 1229.97 166.42 1229.14 163.84C1229.04 163.52 1228.97 163.16 1229.01 162.83C1229.04 162.63 1229.27 162.37 1229.47 162.31C1229.67 162.25 1230.05 162.31 1230.15 162.47C1230.39 162.81 1230.49 163.25 1230.69 163.62C1231.18 164.56 1231.98 165.08 1233.02 164.86C1234.2 164.61 1235.43 164.36 1236.47 163.8C1239.88 161.93 1243.54 160.9 1247.3 160.23C1248.9 159.94 1250.58 159.96 1252.21 160.08C1254.25 160.24 1255.79 161.31 1256.56 163.29C1256.87 164.09 1257.17 164.91 1257.35 165.75C1257.72 167.52 1257.59 169.2 1256.26 170.61C1256.03 170.86 1255.87 171.18 1255.64 171.52V171.53ZM1233.6 166.9C1234.45 167.79 1235.41 167.97 1236.35 167.85C1237.37 167.72 1238.43 167.49 1239.33 167.04C1241.6 165.9 1244.01 165.15 1246.47 164.65C1249.57 164.02 1252.53 164.34 1254.72 167.07C1254.87 167.25 1255.15 167.33 1255.39 167.46C1255.63 165.34 1255.35 164.3 1254.34 163.17C1253.39 162.1 1252.15 161.91 1250.81 161.85C1247.44 161.7 1244.3 162.76 1241.2 163.82C1238.67 164.68 1236.25 165.83 1233.62 166.91L1233.6 166.9ZM1249.54 192.52C1247.24 192.24 1246.9 192.44 1246.58 194.34C1246.48 194.93 1246.37 195.57 1246.5 196.13C1247.02 198.4 1247.75 200.61 1248.89 202.65C1249.39 203.55 1250.21 203.97 1251.21 204.08C1251.96 204.16 1252.67 203.77 1252.77 203.04C1252.9 202.12 1253.08 201.11 1252.84 200.25C1252.08 197.51 1250.91 194.93 1249.54 192.51V192.52Z" fill="white" fill-opacity="0.5"/>
</g>
<path fill-rule="evenodd" clip-rule="evenodd" d="M1239.63 120.863C1239 115.903 1238.4 111.133 1237.77 106.153C1234.43 107.423 1231.43 109.143 1228.41 110.823C1225.42 112.483 1222.34 113.993 1219.13 115.663C1219.17 116.113 1219.22 116.643 1219.28 117.163C1219.76 121.693 1220.66 126.133 1222.05 130.473C1222.4 131.573 1222.28 132.683 1221.98 133.763C1221.63 135.013 1221.18 136.243 1220.86 137.493C1220.37 139.413 1219.13 140.733 1217.55 141.783C1215.06 143.443 1211.31 141.573 1211.04 138.573C1210.79 135.823 1211.6 133.463 1213.57 131.493C1215.65 129.413 1215.63 129.403 1218.84 128.443C1218.76 128.023 1218.74 127.573 1218.6 127.163C1217.03 122.473 1216.6 117.543 1215.73 112.713C1215.39 110.823 1215.56 108.833 1215.52 106.883C1215.52 106.513 1215.55 106.133 1215.65 105.783C1215.87 104.983 1216.52 104.473 1217.3 105.083C1217.58 105.303 1217.89 105.493 1218.28 105.763C1218.96 105.433 1219.64 105.153 1220.27 104.793C1223.56 102.873 1226.99 101.243 1230.59 99.9534C1232.42 99.2934 1234.15 98.3834 1235.94 97.6234C1236.53 97.3734 1237.15 97.1534 1237.78 97.0434C1238.94 96.8434 1239.51 97.3334 1239.59 98.5434C1239.73 100.763 1239.73 103.003 1239.97 105.213C1240.51 110.093 1241.14 114.973 1241.77 119.843C1241.92 121.033 1242.19 122.173 1242.83 123.263C1243.79 124.923 1243.53 126.483 1242.29 128.093C1241.02 129.753 1239.66 131.153 1237.76 132.073C1236.41 132.723 1235.06 132.713 1233.7 132.363C1233.22 132.243 1232.7 131.823 1232.44 131.393C1231.58 129.943 1231.4 128.433 1232.44 126.943C1232.76 126.483 1233.08 126.023 1233.33 125.533C1234.4 123.423 1236.07 122.063 1238.32 121.403C1238.67 121.303 1239 121.133 1239.62 120.873L1239.63 120.863ZM1237.36 99.8234C1230.6 102.213 1224.26 104.953 1218.24 108.423C1218 110.843 1218.08 111.583 1218.91 113.573C1221.61 112.153 1224.3 110.743 1226.99 109.313C1229.52 107.973 1232.01 106.543 1234.57 105.263C1236.97 104.063 1237.73 102.753 1237.36 99.8334V99.8234ZM1213.18 137.073C1213.19 137.353 1213.2 137.623 1213.23 137.903C1213.34 139.043 1213.96 139.553 1215.08 139.353C1216.33 139.133 1217.22 138.383 1217.94 137.373C1218.71 136.283 1218.96 135.013 1219.22 133.763C1219.53 132.283 1218.34 131.273 1216.89 131.713C1215.11 132.243 1213.23 134.973 1213.19 137.083L1213.18 137.073ZM1239.14 123.613C1238.41 123.943 1237.65 124.253 1236.93 124.643C1235.9 125.203 1235.47 126.253 1235.07 127.263C1234.99 127.463 1235.12 127.813 1235.26 128.023C1236.32 129.543 1238.31 129.693 1239.49 128.293C1240.19 127.463 1240.73 126.513 1241.31 125.673C1240.58 124.313 1240.6 124.283 1239.14 123.613Z" fill="white" fill-opacity="0.5"/>
<path fill-rule="evenodd" clip-rule="evenodd" d="M1320.38 125.833C1321.01 122.713 1321.53 119.921 1322.16 117.15C1322.78 114.389 1323.52 111.647 1324.21 108.826C1323.15 108.457 1322.13 108.238 1321.23 107.759C1320.41 107.321 1319.8 106.493 1318.99 106.025C1316.41 104.549 1314.19 102.625 1312.08 100.562C1311.9 100.382 1311.6 100.333 1311.17 100.143C1310.78 101.419 1310.99 102.625 1310.99 103.822C1310.99 105.058 1311.05 106.294 1311.04 107.53C1311.04 108.677 1310.97 109.813 1310.96 110.949C1310.95 112.186 1311.01 113.422 1310.97 114.658C1310.93 115.874 1310.81 117.1 1310.73 118.277C1308.91 119.084 1307.28 119.812 1305.64 120.53C1304.66 120.958 1303.64 121.118 1302.58 120.968C1300.41 120.659 1299.36 118.626 1300.41 116.731C1300.69 116.233 1301.05 115.794 1301.37 115.316C1302.08 114.239 1303.12 113.83 1304.33 113.98C1305.53 114.12 1306.71 114.439 1307.95 114.688C1308.55 114.389 1308.4 113.751 1308.4 113.222C1308.42 109.514 1308.38 105.796 1308.42 102.087C1308.44 100.283 1308.54 98.4684 1308.69 96.674C1308.79 95.5275 1309.04 94.431 1308.16 93.4241C1307.97 93.1948 1308.04 92.4272 1308.28 92.168C1308.53 91.8989 1309.14 91.8191 1309.57 91.8789C1310 91.9387 1310.47 92.1979 1310.81 92.487C1312.39 93.8428 1313.96 95.2185 1315.5 96.6241C1318.03 98.9369 1320.74 101.03 1323.64 102.855C1324.72 103.543 1326.07 103.792 1327.57 104.35C1328.22 105.437 1328.02 106.812 1327.57 108.188C1325.92 113.262 1324.47 118.366 1324.37 123.769C1324.34 125.464 1323.96 127.159 1323.75 128.854C1323.62 129.811 1323.05 130.479 1322.17 130.668C1319.92 131.156 1317.62 131.156 1315.39 130.668C1313.79 130.309 1312.95 128.325 1313.53 126.77C1314.31 124.726 1316.12 123.939 1318.13 124.786C1318.81 125.075 1319.48 125.424 1320.39 125.843L1320.38 125.833Z" fill="white" fill-opacity="0.5"/>
<g clip-path="url(#clip1_54_54)">
<path fill-rule="evenodd" clip-rule="evenodd" d="M1390.13 121.298C1389.19 120.75 1388.69 119.823 1388.19 118.946C1386.77 116.463 1384.47 115.905 1381.97 116.284C1380.12 116.563 1378.24 117.121 1376.54 117.919C1374.47 118.896 1372.45 119.733 1370.12 119.604C1369.99 119.604 1369.83 119.743 1369.61 119.853C1369.73 120.162 1369.79 120.531 1369.99 120.78C1373.03 124.748 1375.86 128.895 1379.3 132.553C1381.37 134.756 1383.44 136.95 1385.55 139.113C1386.45 140.05 1386.69 141.256 1386.82 142.403C1386.9 143.12 1387.07 143.708 1387.41 144.307C1388.48 146.201 1389.31 148.184 1389.64 150.348C1389.67 150.517 1389.74 150.677 1389.76 150.846C1389.98 152.68 1389.64 154.385 1387.99 155.402C1386.36 156.409 1384.65 156.01 1383.1 155.043C1382.68 154.784 1382.3 154.375 1382.04 153.947C1380.53 151.394 1379.44 148.683 1378.97 145.742C1378.87 145.064 1378.87 144.366 1378.9 143.679C1378.98 141.914 1379.55 140.459 1381.42 139.87C1381.58 139.821 1381.73 139.711 1381.87 139.611C1381.93 139.561 1381.95 139.472 1382.1 139.212C1381.88 138.893 1381.64 138.465 1381.32 138.096C1380.7 137.378 1380.07 136.66 1379.4 135.993C1374.81 131.387 1371.18 126.004 1367.32 120.8C1365.74 118.667 1364.61 116.204 1363.78 113.632C1363.68 113.313 1363.61 112.954 1363.65 112.625C1363.68 112.426 1363.91 112.167 1364.11 112.107C1364.31 112.047 1364.69 112.107 1364.78 112.267C1365.02 112.605 1365.12 113.044 1365.32 113.413C1365.81 114.35 1366.6 114.868 1367.64 114.649C1368.81 114.4 1370.03 114.151 1371.07 113.592C1374.46 111.728 1378.1 110.701 1381.84 110.033C1383.43 109.744 1385.1 109.764 1386.72 109.884C1388.75 110.043 1390.28 111.11 1391.05 113.084C1391.35 113.881 1391.65 114.699 1391.83 115.536C1392.2 117.301 1392.07 118.976 1390.75 120.381C1390.52 120.63 1390.36 120.949 1390.13 121.288V121.298ZM1368.22 116.683C1369.06 117.57 1370.02 117.749 1370.95 117.63C1371.96 117.5 1373.02 117.271 1373.91 116.822C1376.17 115.686 1378.57 114.938 1381.01 114.44C1384.1 113.812 1387.04 114.131 1389.22 116.852C1389.37 117.032 1389.64 117.111 1389.88 117.241C1390.12 115.128 1389.84 114.091 1388.84 112.964C1387.89 111.898 1386.66 111.708 1385.33 111.648C1381.98 111.499 1378.86 112.556 1375.77 113.612C1373.26 114.47 1370.85 115.616 1368.24 116.693L1368.22 116.683ZM1384.07 142.223C1381.78 141.944 1381.44 142.143 1381.12 144.037C1381.02 144.626 1380.91 145.264 1381.04 145.822C1381.56 148.085 1382.29 150.288 1383.42 152.322C1383.92 153.219 1384.73 153.637 1385.73 153.747C1386.47 153.827 1387.18 153.438 1387.28 152.71C1387.41 151.793 1387.59 150.786 1387.35 149.929C1386.59 147.198 1385.43 144.626 1384.07 142.213V142.223Z" fill="white" fill-opacity="0.5"/>
</g>
<path fill-rule="evenodd" clip-rule="evenodd" d="M1374.21 70.7893C1373.59 65.8447 1372.99 61.0895 1372.36 56.125C1369.04 57.3911 1366.06 59.1057 1363.06 60.7805C1360.08 62.4353 1357.02 63.9406 1353.83 65.6054C1353.87 66.054 1353.92 66.5824 1353.98 67.1008C1354.46 71.6167 1355.35 76.0429 1356.73 80.3694C1357.08 81.466 1356.96 82.5725 1356.66 83.6492C1356.32 84.8953 1355.87 86.1215 1355.55 87.3676C1355.06 89.2816 1353.83 90.5975 1352.26 91.6442C1349.78 93.2991 1346.05 91.4349 1345.79 88.4442C1345.54 85.7028 1346.34 83.3501 1348.3 81.3862C1350.37 79.3127 1350.35 79.3027 1353.54 78.3457C1353.46 77.927 1353.44 77.4784 1353.3 77.0697C1351.74 72.3943 1351.31 67.4796 1350.45 62.6646C1350.11 60.7805 1350.28 58.7967 1350.24 56.8527C1350.24 56.4839 1350.27 56.1051 1350.37 55.7562C1350.59 54.9587 1351.23 54.4502 1352.01 55.0583C1352.29 55.2777 1352.6 55.4671 1352.98 55.7362C1353.66 55.4073 1354.34 55.1281 1354.96 54.7692C1358.23 52.8552 1361.65 51.2303 1365.23 49.9443C1367.04 49.2863 1368.77 48.3792 1370.55 47.6215C1371.13 47.3723 1371.75 47.153 1372.37 47.0433C1373.53 46.844 1374.1 47.3324 1374.17 48.5387C1374.31 50.7518 1374.31 52.9848 1374.55 55.1879C1375.09 60.0528 1375.72 64.9176 1376.34 69.7724C1376.49 70.9587 1376.76 72.0952 1377.4 73.1818C1378.35 74.8367 1378.09 76.3918 1376.86 77.9968C1375.6 79.6516 1374.24 81.0473 1372.35 81.9644C1371.01 82.6124 1369.67 82.6024 1368.32 82.2535C1367.84 82.1339 1367.32 81.7152 1367.06 81.2865C1366.21 79.841 1366.03 78.3357 1367.06 76.8504C1367.38 76.3918 1367.7 75.9332 1367.95 75.4448C1369.01 73.3413 1370.67 71.9855 1372.91 71.3276C1373.26 71.2279 1373.59 71.0584 1374.2 70.7992L1374.21 70.7893ZM1371.96 49.8147C1365.24 52.1973 1358.93 54.9287 1352.94 58.388C1352.71 60.8004 1352.79 61.5381 1353.61 63.5219C1356.3 62.1064 1358.97 60.7007 1361.65 59.2752C1364.16 57.9394 1366.64 56.5138 1369.18 55.2378C1371.57 54.0415 1372.33 52.7356 1371.96 49.8247V49.8147ZM1347.91 86.9489C1347.92 87.228 1347.93 87.4972 1347.96 87.7763C1348.07 88.9127 1348.69 89.4212 1349.8 89.2218C1351.05 89.0025 1351.93 88.2548 1352.65 87.2479C1353.41 86.1613 1353.66 84.8953 1353.92 83.6492C1354.23 82.1738 1353.04 81.1669 1351.6 81.6055C1349.83 82.1339 1347.96 84.8554 1347.92 86.9588L1347.91 86.9489ZM1373.73 73.5307C1373 73.8597 1372.25 74.1687 1371.53 74.5575C1370.51 75.1158 1370.08 76.1625 1369.68 77.1694C1369.6 77.3688 1369.73 77.7177 1369.87 77.927C1370.92 79.4423 1372.9 79.5918 1374.08 78.1962C1374.77 77.3688 1375.31 76.4217 1375.88 75.5843C1375.16 74.2285 1375.18 74.1986 1373.73 73.5307Z" fill="white" fill-opacity="0.5"/>
<path fill-rule="evenodd" clip-rule="evenodd" d="M1246.2 20.5904C1245.85 19.1108 1245.58 17.807 1245.25 16.529C1244.81 14.8444 1244.76 13.1724 1245.2 11.4856C1245.49 10.4102 1245.77 9.32742 1245.94 8.23089C1246.12 6.98663 1246.71 6.02465 1247.6 5.18807C1248.3 4.53071 1249.04 3.89568 1249.65 3.15472C1250.66 1.96313 1252.01 1.65447 1253.42 1.57943C1255.26 1.48605 1256.96 2.03113 1258.36 3.24386C1259.9 4.57512 1260.9 6.31351 1261.45 8.26892C1261.58 8.75104 1261.52 9.28872 1261.51 9.8052C1261.5 10.0961 1261.4 10.3858 1261.33 10.671C1260.35 14.2692 1261.24 13.3937 1258.05 15.8599C1255.76 17.6305 1253.45 19.3351 1250.86 20.6333C1250.28 20.9236 1249.75 21.3456 1249.1 21.7756C1249.36 22.4656 1249.58 23.0605 1249.76 23.5432C1250.06 23.6663 1250.2 23.7774 1250.33 23.7671C1250.92 23.7316 1251.51 23.6961 1252.1 23.6193C1254.1 23.3731 1256.07 23.558 1258.05 23.9759C1261.21 24.6481 1263.53 26.5794 1265.33 29.0616C1266.72 30.9752 1266.99 33.3148 1266.67 35.651C1266.18 39.2704 1264.66 42.422 1262.16 45.0944C1261.16 46.1721 1260.15 47.252 1258.96 48.5284C1259.01 49.1136 1259 49.9163 1259.13 50.7088C1259.37 52.2548 1259.4 53.7882 1259.24 55.3457C1259.06 57.1866 1258.97 59.0361 1258.9 60.881C1258.8 63.4846 1257.62 65.5374 1255.75 67.2627C1254.56 68.3547 1253.22 69.2966 1252.32 70.7007C1251.95 71.2801 1251.3 71.567 1250.57 71.3798C1249.21 71.0311 1247.84 70.6847 1246.5 70.2708C1245.24 69.8797 1244.53 68.7832 1243.71 67.8573C1243.5 67.6191 1243.46 67.1553 1243.46 66.806C1243.51 65.3854 1243.83 64.0169 1244.51 62.7675C1244.75 62.322 1245.11 61.9074 1245.5 61.5902C1246.4 60.8338 1247.12 61.045 1247.91 61.9583C1248.96 63.1785 1248.8 64.389 1248.06 65.6207C1247.73 66.1812 1247.28 66.6674 1246.93 67.1186C1247.04 67.9981 1247.62 68.1372 1248.2 68.3004C1248.88 68.4894 1249.54 68.3748 1250.12 68.0215C1252.82 66.3999 1254.68 64.0413 1255.92 61.2035C1256.35 60.2077 1256.42 59.0516 1256.57 57.9477C1256.74 56.7057 1256.87 55.4511 1256.94 54.2029C1257.01 52.8819 1256.95 51.5592 1256.64 50.1529C1255.92 50.1088 1255.31 50.3235 1254.77 50.7066C1252.25 52.5441 1249.24 53.0143 1246.32 52.8792C1242.71 52.7127 1239.26 51.8401 1236.26 49.3608C1233.17 46.8002 1231.71 43.5491 1231.24 39.8071C1230.88 36.9837 1231.36 34.1911 1233.46 31.9499C1233.91 31.4638 1234.32 30.9358 1234.69 30.3758C1236.99 26.9173 1240.04 24.289 1243.64 22.2407C1244.47 21.7671 1245.24 21.2054 1246.2 20.5784L1246.2 20.5904ZM1256.28 46.9412C1256.27 46.6136 1256.31 46.4613 1256.27 46.3274C1254.17 39.8559 1252.02 33.3959 1249.06 27.2399C1248.95 27.0006 1248.71 26.8105 1248.55 26.641C1246.5 27.2068 1245.37 28.644 1244.58 30.3601C1243.22 33.3102 1242.85 36.2934 1244.62 39.2577C1245.4 40.5735 1246.3 40.8552 1247.76 40.1818C1248 40.0759 1248.23 39.9797 1248.65 39.7987C1248.72 40.491 1248.83 40.9897 1248.8 41.4793C1248.79 41.729 1248.56 42.0485 1248.34 42.1739C1246.79 43.0718 1244.33 42.5817 1243.36 41.074C1242.72 40.0949 1242.29 38.9732 1241.78 37.9133C1241.34 37.0292 1241.22 36.0913 1241.27 35.1145C1241.37 33.0056 1241.95 31.0198 1242.81 29.1325C1243.59 27.4502 1244.56 25.8652 1246.41 25.0905C1246.68 24.9754 1246.92 24.787 1247.15 24.5986C1247.65 24.2029 1247.61 23.9452 1246.89 23.1299C1246.27 23.4803 1245.63 23.8256 1245 24.2001C1241.74 26.1682 1238.84 28.5268 1236.62 31.6589C1236.11 32.3747 1235.6 33.1099 1235.02 33.7713C1233.54 35.4536 1233.25 37.4652 1233.43 39.5586C1233.52 40.5858 1233.79 41.6108 1234.12 42.5807C1234.73 44.3283 1235.47 46.0243 1237.16 47.0739C1237.59 47.3418 1237.93 47.7661 1238.29 48.1326C1239.08 48.9537 1240.03 49.4907 1241.15 49.7415C1241.94 49.9247 1242.73 50.1297 1243.53 50.2911C1248.38 51.3263 1252.49 49.6611 1256.27 46.9435L1256.28 46.9412ZM1258.63 45.4942C1259.73 44.219 1260.64 43.2541 1261.45 42.2103C1263.01 40.1993 1264.17 37.9764 1264.47 35.4094C1264.76 32.8957 1264.35 30.6706 1262.35 28.7462C1260.53 26.9963 1258.46 26.1089 1256.06 25.8404C1254.41 25.6526 1252.74 25.6875 1250.97 26.2791C1252.01 28.4984 1252.99 30.5592 1253.96 32.632C1254.9 34.6389 1255.13 36.8881 1256.21 38.863C1257.29 40.8378 1257.3 43.249 1258.62 45.5062L1258.63 45.4942ZM1248.26 19.2316C1248.54 19.1457 1248.83 19.0965 1249.07 18.9688C1252.17 17.2337 1254.94 15.0406 1257.81 12.9969C1257.94 12.9065 1258.06 12.8257 1258.15 12.7032C1258.33 12.4753 1258.53 12.2428 1258.63 11.9823C1259.5 9.78463 1259.63 7.67861 1257.84 5.81999C1257.64 5.611 1257.46 5.37567 1257.25 5.16896C1255.34 3.27485 1252.66 3.30067 1250.77 5.23438C1250.1 5.91636 1249.44 6.61551 1248.82 7.337C1248.54 7.66053 1248.21 8.03444 1248.12 8.43583C1247.52 11.0738 1246.59 13.6975 1247.43 16.4671C1247.71 17.3684 1247.57 18.3876 1248.25 19.2534L1248.26 19.2316Z" fill="white" fill-opacity="0.5"/>
<path fill-rule="evenodd" clip-rule="evenodd" d="M1305.98 185.05C1304.38 184.71 1303.75 183.48 1303.36 182.06C1303.24 181.64 1303.27 181.19 1303.18 180.76C1303.06 180.13 1302.68 179.81 1302.05 179.78C1301.94 179.78 1301.83 179.8 1301.72 179.8C1300.2 179.81 1298.66 179.94 1297.09 179.18C1297.07 179.72 1296.98 180.1 1297.06 180.43C1297.65 183 1297.92 185.6 1298.08 188.23C1298.15 189.37 1298.47 190.49 1298.68 191.61C1299.09 191.86 1299.45 192.09 1299.81 192.31C1299.83 192.51 1299.89 192.68 1299.86 192.83C1299.57 194.34 1299.07 195.79 1298.42 197.18C1298.26 197.53 1298.08 197.87 1297.91 198.21C1297.26 199.57 1296.37 200.697 1295.26 201.59C1294.85 201.92 1294.42 202.07 1293.89 201.89C1293.31 201.69 1292.91 201.32 1292.95 200.71C1293.01 199.79 1293.03 198.83 1293.29 197.96C1293.83 196.12 1294.54 194.33 1295.99 192.97C1296.35 192.64 1296.39 192.23 1296.34 191.77C1295.99 188.4 1295.74 185.01 1295.28 181.65C1294.96 179.36 1294.99 177.07 1294.84 174.78C1294.81 174.3 1294.71 173.81 1294.52 173.37C1294.26 172.79 1294.32 172.32 1294.72 171.86C1294.97 171.57 1295.21 171.28 1295.45 171C1296.37 171.22 1296.64 171.83 1296.87 172.52C1297.3 173.81 1297.78 175.08 1298.25 176.35C1298.34 176.6 1298.49 176.83 1298.66 177.15C1299.64 177.18 1300.61 177.2 1301.58 177.23C1302.02 177.24 1302.46 177.23 1302.89 177.28C1304.15 177.42 1305.05 178.07 1305.42 179.3C1305.69 180.18 1305.9 181.09 1306.05 182.01C1306.15 182.59 1306.14 183.17 1306.42 183.74C1306.63 184.16 1306.53 184.72 1305.96 185.05H1305.98Z" fill="white" fill-opacity="0.5"/>
<path fill-rule="evenodd" clip-rule="evenodd" d="M206.51 176.079C205.87 172.949 205.35 170.149 204.72 167.369C204.09 164.599 203.35 161.849 202.65 159.019C203.72 158.649 204.75 158.429 205.65 157.949C206.48 157.509 207.09 156.679 207.9 156.209C210.5 154.729 212.73 152.799 214.85 150.729C215.03 150.549 215.33 150.499 215.77 150.309C216.16 151.589 215.95 152.799 215.95 153.999C215.95 155.239 215.89 156.479 215.9 157.719C215.9 158.869 215.97 160.009 215.98 161.149C215.99 162.389 215.93 163.629 215.97 164.869C216.01 166.089 216.13 167.319 216.21 168.499C218.04 169.309 219.68 170.039 221.33 170.759C222.31 171.189 223.34 171.349 224.41 171.199C226.59 170.889 227.64 168.849 226.59 166.949C226.31 166.449 225.94 166.009 225.62 165.529C224.91 164.449 223.86 164.039 222.65 164.189C221.44 164.329 220.25 164.649 219.01 164.899C218.4 164.599 218.55 163.959 218.55 163.429C218.53 159.709 218.57 155.979 218.53 152.259C218.51 150.449 218.41 148.629 218.26 146.829C218.16 145.679 217.91 144.579 218.79 143.569C218.99 143.339 218.91 142.569 218.67 142.309C218.42 142.039 217.81 141.959 217.38 142.019C216.94 142.079 216.47 142.339 216.13 142.629C214.54 143.989 212.96 145.369 211.41 146.779C208.87 149.099 206.14 151.199 203.23 153.029C202.14 153.719 200.78 153.969 199.27 154.529C198.62 155.619 198.82 156.999 199.27 158.379C200.93 163.469 202.39 168.589 202.49 174.009C202.52 175.709 202.9 177.409 203.12 179.109C203.25 180.069 203.82 180.739 204.71 180.929C206.97 181.419 209.28 181.419 211.52 180.929C213.13 180.569 213.98 178.579 213.39 177.019C212.61 174.969 210.79 174.179 208.77 175.029C208.08 175.319 207.41 175.669 206.5 176.089L206.51 176.079Z" fill="white" fill-opacity="0.5"/>
<g clip-path="url(#clip2_54_54)">
<path fill-rule="evenodd" clip-rule="evenodd" d="M136.36 171.53C137.31 170.98 137.81 170.05 138.31 169.17C139.74 166.68 142.05 166.12 144.57 166.5C146.43 166.78 148.32 167.34 150.03 168.14C152.11 169.12 154.14 169.96 156.48 169.83C156.62 169.83 156.78 169.97 157 170.08C156.88 170.39 156.82 170.76 156.62 171.01C153.56 174.99 150.71 179.15 147.25 182.82C145.17 185.03 143.09 187.23 140.97 189.4C140.06 190.34 139.82 191.55 139.69 192.7C139.61 193.42 139.44 194.01 139.1 194.61C138.02 196.51 137.19 198.5 136.85 200.67C136.82 200.84 136.75 201 136.73 201.17C136.51 203.01 136.85 204.72 138.51 205.74C140.15 206.75 141.87 206.35 143.43 205.38C143.85 205.12 144.24 204.71 144.5 204.28C146.02 201.72 147.11 199 147.58 196.05C147.69 195.37 147.68 194.67 147.65 193.98C147.57 192.21 147 190.75 145.12 190.16C144.96 190.11 144.81 190 144.67 189.9C144.61 189.85 144.59 189.76 144.44 189.5C144.66 189.18 144.9 188.75 145.22 188.38C145.84 187.66 146.48 186.94 147.15 186.27C151.77 181.65 155.42 176.25 159.3 171.03C160.89 168.89 162.03 166.42 162.86 163.84C162.96 163.52 163.03 163.16 162.99 162.83C162.96 162.63 162.73 162.37 162.53 162.31C162.33 162.25 161.95 162.31 161.85 162.47C161.61 162.81 161.51 163.25 161.31 163.62C160.82 164.56 160.02 165.08 158.98 164.86C157.8 164.61 156.57 164.36 155.53 163.8C152.12 161.93 148.46 160.9 144.7 160.23C143.1 159.94 141.42 159.96 139.79 160.08C137.75 160.24 136.21 161.31 135.44 163.29C135.13 164.09 134.83 164.91 134.65 165.75C134.28 167.52 134.41 169.2 135.74 170.61C135.97 170.86 136.13 171.18 136.36 171.52V171.53ZM158.4 166.9C157.55 167.79 156.59 167.97 155.65 167.85C154.63 167.72 153.57 167.49 152.67 167.04C150.4 165.9 147.99 165.15 145.53 164.65C142.43 164.02 139.47 164.34 137.28 167.07C137.13 167.25 136.85 167.33 136.61 167.46C136.37 165.34 136.65 164.3 137.66 163.17C138.61 162.1 139.85 161.91 141.19 161.85C144.56 161.7 147.7 162.76 150.8 163.82C153.33 164.68 155.75 165.83 158.38 166.91L158.4 166.9ZM142.46 192.52C144.76 192.24 145.1 192.44 145.42 194.34C145.52 194.93 145.63 195.57 145.5 196.13C144.98 198.4 144.25 200.61 143.11 202.65C142.61 203.55 141.79 203.97 140.79 204.08C140.04 204.16 139.33 203.77 139.23 203.04C139.1 202.12 138.92 201.11 139.16 200.25C139.92 197.51 141.09 194.93 142.46 192.51V192.52Z" fill="white" fill-opacity="0.5"/>
</g>
<path fill-rule="evenodd" clip-rule="evenodd" d="M152.366 120.863C152.996 115.903 153.596 111.133 154.226 106.153C157.566 107.423 160.566 109.143 163.586 110.823C166.576 112.483 169.656 113.993 172.866 115.663C172.826 116.113 172.776 116.643 172.716 117.163C172.236 121.693 171.336 126.133 169.946 130.473C169.596 131.573 169.716 132.683 170.016 133.763C170.366 135.013 170.816 136.243 171.136 137.493C171.626 139.413 172.866 140.733 174.446 141.783C176.936 143.443 180.686 141.573 180.956 138.573C181.206 135.823 180.396 133.463 178.426 131.493C176.346 129.413 176.366 129.403 173.156 128.443C173.236 128.023 173.256 127.573 173.396 127.163C174.966 122.473 175.396 117.543 176.266 112.713C176.606 110.823 176.436 108.833 176.476 106.883C176.476 106.513 176.446 106.133 176.346 105.783C176.126 104.983 175.476 104.473 174.696 105.083C174.416 105.303 174.106 105.493 173.716 105.763C173.036 105.433 172.356 105.153 171.726 104.793C168.436 102.873 165.006 101.243 161.406 99.9534C159.576 99.2934 157.846 98.3834 156.056 97.6234C155.466 97.3734 154.846 97.1534 154.216 97.0434C153.056 96.8434 152.486 97.3334 152.406 98.5434C152.266 100.763 152.266 103.003 152.026 105.213C151.486 110.093 150.856 114.973 150.226 119.843C150.076 121.033 149.806 122.173 149.166 123.263C148.206 124.923 148.466 126.483 149.706 128.093C150.976 129.753 152.336 131.153 154.236 132.073C155.586 132.723 156.936 132.713 158.296 132.363C158.776 132.243 159.296 131.823 159.556 131.393C160.416 129.943 160.596 128.433 159.556 126.943C159.236 126.483 158.916 126.023 158.666 125.533C157.596 123.423 155.926 122.063 153.676 121.403C153.326 121.303 152.996 121.133 152.376 120.873L152.366 120.863ZM154.636 99.8234C161.396 102.213 167.736 104.953 173.756 108.423C173.996 110.843 173.916 111.583 173.086 113.573C170.386 112.153 167.696 110.743 165.006 109.313C162.476 107.973 159.986 106.543 157.426 105.263C155.026 104.063 154.266 102.753 154.636 99.8334V99.8234ZM178.816 137.073C178.806 137.353 178.796 137.623 178.766 137.903C178.656 139.043 178.036 139.553 176.916 139.353C175.666 139.133 174.776 138.383 174.056 137.373C173.286 136.283 173.036 135.013 172.776 133.763C172.466 132.283 173.656 131.273 175.106 131.713C176.886 132.243 178.766 134.973 178.806 137.083L178.816 137.073ZM152.856 123.613C153.586 123.943 154.346 124.253 155.066 124.643C156.096 125.203 156.526 126.253 156.926 127.263C157.006 127.463 156.876 127.813 156.736 128.023C155.676 129.543 153.686 129.693 152.506 128.293C151.806 127.463 151.266 126.513 150.686 125.673C151.416 124.313 151.396 124.283 152.856 123.613Z" fill="white" fill-opacity="0.5"/>
<path fill-rule="evenodd" clip-rule="evenodd" d="M71.6248 125.833C70.9884 122.713 70.4713 119.921 69.8448 117.15C69.2184 114.389 68.4825 111.647 67.7865 108.826C68.8505 108.457 69.8747 108.238 70.7696 107.759C71.5949 107.321 72.2015 106.493 73.007 106.025C75.5923 104.549 77.8098 102.625 79.9179 100.562C80.0969 100.382 80.3952 100.333 80.8327 100.143C81.2205 101.419 81.0117 102.625 81.0117 103.822C81.0117 105.058 80.9521 106.294 80.962 107.53C80.962 108.677 81.0316 109.813 81.0415 110.949C81.0515 112.186 80.9918 113.422 81.0316 114.658C81.0714 115.874 81.1907 117.1 81.2703 118.277C83.09 119.084 84.7207 119.812 86.3615 120.53C87.336 120.958 88.3602 121.118 89.4242 120.968C91.5919 120.659 92.636 118.626 91.5919 116.731C91.3135 116.233 90.9456 115.794 90.6274 115.316C89.9214 114.239 88.8773 113.83 87.6741 113.98C86.4709 114.12 85.2875 114.439 84.0545 114.688C83.4479 114.389 83.5971 113.751 83.5971 113.222C83.5772 109.514 83.617 105.796 83.5772 102.087C83.5573 100.283 83.4579 98.4684 83.3087 96.674C83.2093 95.5275 82.9607 94.431 83.8358 93.4241C84.0346 93.1948 83.9551 92.4272 83.7164 92.168C83.4678 91.8989 82.8613 91.8191 82.4337 91.8789C81.9961 91.9387 81.5288 92.1979 81.1907 92.487C79.6096 93.8428 78.0385 95.2185 76.4972 96.6241C73.9715 98.9369 71.2569 101.03 68.3632 102.855C67.2793 103.543 65.927 103.792 64.4255 104.35C63.7791 105.437 63.978 106.812 64.4255 108.188C66.0761 113.262 67.5279 118.366 67.6274 123.769C67.6572 125.464 68.0351 127.159 68.2538 128.854C68.3831 129.811 68.9499 130.479 69.8349 130.668C72.0822 131.156 74.3792 131.156 76.6066 130.668C78.2076 130.309 79.0528 128.325 78.4661 126.77C77.6905 124.726 75.8807 123.939 73.8721 124.786C73.1859 125.075 72.5197 125.424 71.6148 125.843L71.6248 125.833Z" fill="white" fill-opacity="0.5"/>
<g clip-path="url(#clip3_54_54)">
<path fill-rule="evenodd" clip-rule="evenodd" d="M1.86962 121.298C2.81428 120.75 3.31147 119.823 3.80866 118.946C5.23062 116.463 7.52764 115.905 10.0335 116.284C11.883 116.563 13.7624 117.121 15.4628 117.919C17.5311 118.896 19.5497 119.733 21.8765 119.604C22.0157 119.604 22.1748 119.743 22.3936 119.853C22.2743 120.162 22.2146 120.531 22.0157 120.78C18.9729 124.748 16.139 128.895 12.6984 132.553C10.6301 134.756 8.56179 136.95 6.45371 139.113C5.54882 140.05 5.31017 141.256 5.1809 142.403C5.10135 143.12 4.93231 143.708 4.59422 144.307C3.52029 146.201 2.69495 148.184 2.35686 150.348C2.32703 150.517 2.25743 150.677 2.23754 150.846C2.01877 152.68 2.35686 154.385 4.00753 155.402C5.63832 156.409 7.34865 156.01 8.89988 155.043C9.31752 154.784 9.70533 154.375 9.96387 153.947C11.4753 151.394 12.5592 148.683 13.0266 145.742C13.1359 145.064 13.126 144.366 13.0962 143.679C13.0166 141.914 12.4498 140.459 10.5804 139.87C10.4213 139.821 10.2721 139.711 10.1329 139.611C10.0733 139.561 10.0534 139.472 9.90421 139.212C10.123 138.893 10.3616 138.465 10.6798 138.096C11.2963 137.378 11.9327 136.66 12.599 135.993C17.193 131.387 20.8225 126.004 24.6807 120.8C26.2618 118.667 27.3953 116.204 28.2207 113.632C28.3201 113.313 28.3897 112.954 28.3499 112.625C28.3201 112.426 28.0914 112.167 27.8925 112.107C27.6937 112.047 27.3158 112.107 27.2164 112.267C26.9777 112.605 26.8783 113.044 26.6794 113.413C26.1921 114.35 25.3966 114.868 24.3625 114.649C23.1891 114.4 21.966 114.151 20.9319 113.592C17.541 111.728 13.9016 110.701 10.1627 110.033C8.57174 109.744 6.90118 109.764 5.28034 109.884C3.25181 110.043 1.72046 111.11 0.95479 113.084C0.646532 113.881 0.348217 114.699 0.169229 115.536C-0.198691 117.301 -0.069422 118.976 1.2531 120.381C1.48181 120.63 1.64091 120.949 1.86962 121.288V121.298ZM23.7857 116.683C22.9405 117.57 21.9859 117.749 21.0512 117.63C20.0369 117.5 18.9829 117.271 18.088 116.822C15.8307 115.686 13.4343 114.938 10.9881 114.44C7.9055 113.812 4.96214 114.131 2.78445 116.852C2.63529 117.032 2.35687 117.111 2.11821 117.241C1.87956 115.128 2.15799 114.091 3.16231 112.964C4.10697 111.898 5.34 111.708 6.67247 111.648C10.0235 111.499 13.1459 112.556 16.2285 113.612C18.7442 114.47 21.1506 115.616 23.7659 116.693L23.7857 116.683ZM7.93533 142.223C10.2224 141.944 10.5605 142.143 10.8787 144.037C10.9781 144.626 11.0875 145.264 10.9582 145.822C10.4412 148.085 9.71527 150.288 8.58168 152.322C8.08449 153.219 7.2691 153.637 6.27472 153.747C5.52894 153.827 4.82293 153.438 4.72349 152.71C4.59422 151.793 4.41523 150.786 4.65388 149.929C5.40961 147.198 6.57303 144.626 7.93533 142.213V142.223Z" fill="white" fill-opacity="0.5"/>
</g>
<path fill-rule="evenodd" clip-rule="evenodd" d="M17.7857 70.7893C18.4121 65.8447 19.0088 61.0895 19.6352 56.125C22.9564 57.3911 25.9396 59.1057 28.9426 60.7805C31.9158 62.4353 34.9785 63.9406 38.1704 65.6054C38.1307 66.054 38.081 66.5824 38.0213 67.1008C37.544 71.6167 36.649 76.0429 35.2669 80.3694C34.9188 81.466 35.0382 82.5725 35.3365 83.6492C35.6845 84.8953 36.132 86.1215 36.4502 87.3676C36.9374 89.2816 38.1704 90.5975 39.7416 91.6442C42.2176 93.2991 45.9465 91.4349 46.215 88.4442C46.4636 85.7028 45.6581 83.3501 43.6992 81.3862C41.6309 79.3127 41.6508 79.3027 38.4588 78.3457C38.5384 77.927 38.5583 77.4784 38.6975 77.0697C40.2586 72.3943 40.6862 67.4796 41.5513 62.6646C41.8894 60.7805 41.7204 58.7967 41.7602 56.8527C41.7602 56.4839 41.7303 56.1051 41.6309 55.7562C41.4121 54.9587 40.7658 54.4502 39.9902 55.0583C39.7117 55.2777 39.4035 55.4671 39.0157 55.7362C38.3395 55.4073 37.6633 55.1281 37.0369 54.7692C33.7653 52.8552 30.3546 51.2303 26.7749 49.9443C24.9551 49.2863 23.2349 48.3792 21.4549 47.6215C20.8682 47.3723 20.2517 47.153 19.6253 47.0433C18.4718 46.844 17.905 47.3324 17.8254 48.5387C17.6862 50.7518 17.6862 52.9848 17.4476 55.1879C16.9106 60.0528 16.2842 64.9176 15.6577 69.7724C15.5085 70.9587 15.2401 72.0952 14.6037 73.1818C13.649 74.8367 13.9076 76.3918 15.1406 77.9968C16.4035 79.6516 17.7558 81.0473 19.6452 81.9644C20.9876 82.6124 22.33 82.6024 23.6823 82.2535C24.1596 82.1339 24.6767 81.7152 24.9353 81.2865C25.7904 79.841 25.9694 78.3357 24.9353 76.8504C24.6171 76.3918 24.2989 75.9332 24.0503 75.4448C22.9863 73.3413 21.3257 71.9855 19.0883 71.3276C18.7403 71.2279 18.4121 71.0584 17.7956 70.7992L17.7857 70.7893ZM20.0429 49.8147C26.7649 52.1973 33.0693 54.9287 39.0554 58.388C39.2941 60.8004 39.2145 61.5381 38.3892 63.5219C35.7044 62.1064 33.0295 60.7007 30.3546 59.2752C27.8388 57.9394 25.3628 56.5138 22.8172 55.2378C20.4307 54.0415 19.675 52.7356 20.0429 49.8247V49.8147ZM44.087 86.9489C44.0771 87.228 44.0671 87.4972 44.0373 87.7763C43.9279 88.9127 43.3114 89.4212 42.1977 89.2218C40.9547 89.0025 40.0697 88.2548 39.3538 87.2479C38.5881 86.1613 38.3395 84.8953 38.081 83.6492C37.7727 82.1738 38.956 81.1669 40.3979 81.6055C42.1679 82.1339 44.0373 84.8554 44.0771 86.9588L44.087 86.9489ZM18.2729 73.5307C18.9988 73.8597 19.7545 74.1687 20.4705 74.5575C21.4947 75.1158 21.9223 76.1625 22.32 77.1694C22.3996 77.3688 22.2703 77.7177 22.1311 77.927C21.0771 79.4423 19.0982 79.5918 17.9249 78.1962C17.2288 77.3688 16.6919 76.4217 16.1151 75.5843C16.841 74.2285 16.8211 74.1986 18.2729 73.5307Z" fill="white" fill-opacity="0.5"/>
<path fill-rule="evenodd" clip-rule="evenodd" d="M145.805 20.5904C146.153 19.1108 146.419 17.807 146.75 16.529C147.188 14.8444 147.242 13.1724 146.797 11.4856C146.505 10.4102 146.226 9.32742 146.063 8.23089C145.883 6.98663 145.287 6.02465 144.395 5.18807C143.697 4.53071 142.963 3.89568 142.347 3.15472C141.343 1.96313 139.988 1.65447 138.577 1.57943C136.74 1.48605 135.04 2.03113 133.645 3.24386C132.099 4.57512 131.104 6.31351 130.552 8.26892C130.418 8.75104 130.476 9.28872 130.488 9.8052C130.502 10.0961 130.598 10.3858 130.675 10.671C131.646 14.2692 130.763 13.3937 133.953 15.8599C136.238 17.6305 138.549 19.3351 141.141 20.6333C141.72 20.9236 142.247 21.3456 142.896 21.7756C142.641 22.4656 142.419 23.0605 142.244 23.5432C141.937 23.6663 141.798 23.7774 141.667 23.7671C141.08 23.7316 140.492 23.6961 139.904 23.6193C137.897 23.3731 135.933 23.558 133.954 23.9759C130.786 24.6481 128.472 26.5794 126.666 29.0616C125.28 30.9752 125.007 33.3148 125.331 35.651C125.825 39.2704 127.343 42.422 129.837 45.0944C130.837 46.1721 131.847 47.252 133.036 48.5284C132.991 49.1136 132.997 49.9163 132.872 50.7088C132.632 52.2548 132.599 53.7882 132.757 55.3457C132.94 57.1866 133.029 59.0361 133.098 60.881C133.204 63.4846 134.375 65.5374 136.25 67.2627C137.442 68.3547 138.781 69.2966 139.684 70.7007C140.051 71.2801 140.702 71.567 141.435 71.3798C142.791 71.0311 144.156 70.6847 145.497 70.2708C146.76 69.8797 147.47 68.7832 148.294 67.8573C148.504 67.6191 148.541 67.1553 148.541 66.806C148.485 65.3854 148.17 64.0169 147.488 62.7675C147.254 62.322 146.89 61.9074 146.502 61.5902C145.601 60.8338 144.884 61.045 144.094 61.9583C143.036 63.1785 143.203 64.389 143.941 65.6207C144.271 66.1812 144.722 66.6674 145.067 67.1186C144.963 67.9981 144.376 68.1372 143.803 68.3004C143.122 68.4894 142.46 68.3748 141.876 68.0215C139.175 66.3999 137.316 64.0413 136.084 61.2035C135.65 60.2077 135.583 59.0516 135.432 57.9477C135.262 56.7057 135.126 55.4511 135.06 54.2029C134.991 52.8819 135.045 51.5592 135.355 50.1529C136.085 50.1088 136.692 50.3235 137.228 50.7066C139.755 52.5441 142.757 53.0143 145.675 52.8792C149.29 52.7127 152.741 51.8401 155.739 49.3608C158.827 46.8002 160.291 43.5491 160.761 39.8071C161.117 36.9837 160.644 34.1911 158.541 31.9499C158.091 31.4638 157.681 30.9358 157.309 30.3758C155.01 26.9173 151.961 24.289 148.365 22.2407C147.531 21.7671 146.759 21.2054 145.797 20.5784L145.805 20.5904ZM135.721 46.9412C135.726 46.6136 135.69 46.4613 135.732 46.3274C137.83 39.8559 139.977 33.3959 142.935 27.2399C143.053 27.0006 143.293 26.8105 143.446 26.641C145.501 27.2068 146.632 28.644 147.42 30.3601C148.78 33.3102 149.147 36.2934 147.381 39.2577C146.599 40.5735 145.7 40.8552 144.235 40.1818C144.004 40.0759 143.769 39.9797 143.35 39.7987C143.279 40.491 143.172 40.9897 143.201 41.4793C143.214 41.729 143.437 42.0485 143.664 42.1739C145.209 43.0718 147.667 42.5817 148.638 41.074C149.279 40.0949 149.708 38.9732 150.224 37.9133C150.658 37.0292 150.776 36.0913 150.729 35.1145C150.629 33.0056 150.049 31.0198 149.188 29.1325C148.413 27.4502 147.44 25.8652 145.588 25.0905C145.317 24.9754 145.084 24.787 144.851 24.5986C144.349 24.2029 144.389 23.9452 145.115 23.1299C145.731 23.4803 146.369 23.8256 147 24.2001C150.255 26.1682 153.163 28.5268 155.384 31.6589C155.894 32.3747 156.399 33.1099 156.983 33.7713C158.457 35.4536 158.754 37.4652 158.569 39.5586C158.482 40.5858 158.21 41.6108 157.879 42.5807C157.272 44.3283 156.534 46.0243 154.839 47.0739C154.406 47.3418 154.07 47.7661 153.706 48.1326C152.917 48.9537 151.969 49.4907 150.852 49.7415C150.059 49.9247 149.271 50.1297 148.472 50.2911C143.616 51.3263 139.508 49.6611 135.731 46.9435L135.721 46.9412ZM133.37 45.4942C132.273 44.219 131.359 43.2541 130.547 42.2103C128.986 40.1993 127.835 37.9764 127.535 35.4094C127.243 32.8957 127.653 30.6706 129.647 28.7462C131.466 26.9963 133.545 26.1089 135.94 25.8404C137.587 25.6526 139.263 25.6875 141.035 26.2791C139.989 28.4984 139.011 30.5592 138.04 32.632C137.095 34.6389 136.874 36.8881 135.793 38.863C134.712 40.8378 134.699 43.249 133.377 45.5062L133.37 45.4942ZM143.741 19.2316C143.463 19.1457 143.167 19.0965 142.93 18.9688C139.835 17.2337 137.064 15.0406 134.185 12.9969C134.063 12.9065 133.938 12.8257 133.854 12.7032C133.671 12.4753 133.469 12.2428 133.366 11.9823C132.496 9.78463 132.365 7.67861 134.158 5.81999C134.362 5.611 134.54 5.37567 134.753 5.16896C136.658 3.27485 139.343 3.30067 141.231 5.23438C141.902 5.91636 142.56 6.61551 143.181 7.337C143.464 7.66053 143.787 8.03444 143.878 8.43583C144.479 11.0738 145.413 13.6975 144.566 16.4671C144.293 17.3684 144.433 18.3876 143.746 19.2534L143.741 19.2316Z" fill="white" fill-opacity="0.5"/>
<path fill-rule="evenodd" clip-rule="evenodd" d="M86.021 185.05C87.621 184.71 88.251 183.48 88.641 182.06C88.761 181.64 88.731 181.19 88.821 180.76C88.941 180.13 89.321 179.81 89.951 179.78C90.061 179.78 90.171 179.8 90.281 179.8C91.801 179.81 93.341 179.94 94.911 179.18C94.931 179.72 95.021 180.1 94.941 180.43C94.351 183 94.081 185.6 93.921 188.23C93.851 189.37 93.531 190.49 93.321 191.61C92.911 191.86 92.551 192.09 92.191 192.31C92.171 192.51 92.111 192.68 92.141 192.83C92.431 194.34 92.931 195.79 93.581 197.18C93.741 197.53 93.921 197.87 94.091 198.21C94.7443 199.57 95.6276 200.697 96.741 201.59C97.151 201.92 97.581 202.07 98.111 201.89C98.691 201.69 99.091 201.32 99.051 200.71C98.991 199.79 98.971 198.83 98.711 197.96C98.171 196.12 97.461 194.33 96.011 192.97C95.651 192.64 95.611 192.23 95.661 191.77C96.011 188.4 96.261 185.01 96.721 181.65C97.041 179.36 97.011 177.07 97.161 174.78C97.191 174.3 97.291 173.81 97.481 173.37C97.741 172.79 97.681 172.32 97.281 171.86C97.031 171.57 96.791 171.28 96.551 171C95.631 171.22 95.361 171.83 95.131 172.52C94.701 173.81 94.221 175.08 93.751 176.35C93.661 176.6 93.511 176.83 93.341 177.15C92.361 177.18 91.391 177.2 90.421 177.23C89.981 177.24 89.541 177.23 89.111 177.28C87.851 177.42 86.951 178.07 86.581 179.3C86.311 180.18 86.101 181.09 85.951 182.01C85.851 182.59 85.861 183.17 85.581 183.74C85.371 184.16 85.471 184.72 86.041 185.05H86.021Z" fill="white" fill-opacity="0.5"/>
<defs>
<clipPath id="clip0_54_54">
<rect width="28.52" height="46.34" fill="white" transform="translate(1229 160)"/>
</clipPath>
<clipPath id="clip1_54_54">
<rect width="28.3597" height="46.1959" fill="white" transform="translate(1363.64 109.804)"/>
</clipPath>
<clipPath id="clip2_54_54">
<rect width="28.52" height="46.34" fill="white" transform="matrix(-1 0 0 1 163 160)"/>
</clipPath>
<clipPath id="clip3_54_54">
<rect width="28.3597" height="46.1959" fill="white" transform="matrix(-1 0 0 1 28.3599 109.804)"/>
</clipPath>
</defs>
</svg>
