<svg width="28" height="32" viewBox="0 0 28 32" fill="none" xmlns="http://www.w3.org/2000/svg">
<path d="M26.5 5C27.3125 5 28 5.6875 28 6.5C28 7.375 27.3125 8 26.5 8H25.75L24.25 28.3125C24.0625 30.4375 22.375 32 20.25 32H7.6875C5.5625 32 3.875 30.4375 3.6875 28.3125L2.1875 8H1.5C0.625 8 0 7.375 0 6.5C0 5.6875 0.625 5 1.5 5H5.8125L8.125 1.5625C8.75 0.625 9.875 0 11.0625 0H16.875C18.0625 0 19.1875 0.625 19.8125 1.5625L22.125 5H26.5ZM11.0625 3C10.875 3 10.6875 3.125 10.625 3.25L9.4375 5H18.5L17.3125 3.25C17.25 3.125 17.0625 3 16.875 3H11.0625ZM22.75 8H5.1875L6.6875 28.125C6.75 28.625 7.1875 29 7.6875 29H20.25C20.75 29 21.1875 28.625 21.25 28.125L22.75 8Z" fill="#DD0B0B"/>
</svg>
